<?xml version="1.0" encoding="UTF-8"?><svg id="_레이어_1" xmlns="http://www.w3.org/2000/svg" viewBox="0 0 297.76 315.96"><defs><style>.cls-1{stroke:#d22d26;}.cls-1,.cls-2{fill:#e60012;stroke-width:0px;}</style></defs><path class="cls-1" d="m221.7,85.34c-12.93-.58-27.6-.58-42.46.96l8.11,4.05c4.05,1.35,8.68,2.89,11.39,3.09,2.7.58,4.44,5.4,4.82,6.75.58,1.35-3.67,4.82-6.56,6.95-4.63,3.09-7.72,5.4-15.44,10.81,7.14,1.93,17.18,5.98,18.33,7.72,1.16,1.74,3.28,5.6,2.12,6.56-12.93,10.81-35.32,24.12-60.21,34.16,6.75.19,9.65,0,21.23-1.35,7.91-.96,21.62-4.05,24.9-5.02,7.33,1.35,12.54,5.98,12.35,7.91-.39,4.25-3.47,6.18-6.37,7.91-16.6,2.7-40.72,4.63-55,2.32-4.82-.77-12.16-4.25-16.02-8.11-2.32-2.32-3.28-6.75-2.89-8.88,21.04-6.56,45.55-20.07,60.41-30.88-2.32-2.32-6.56-3.67-10.23-4.82-15.63,9.65-33.19,17.95-46.7,21.81-4.05.39-12.35-4.82-14.09-6.75-.77-1.54-1.16-3.86.39-5.21,13.32-2.7,26.05-6.56,41.3-13.9,12.16-5.79,21.42-12.16,29.72-18.53-2.32-1.93-5.98-2.89-8.88-4.05-18.53,9.26-35.32,17.56-57.51,24.9-3.47.19-11.97-4.25-14.67-7.53-.96-1.35-.96-5.79,0-6.37,12.54-1.93,25.28-4.63,38.41-9.46,6.75-2.51,19.69-8.3,29.72-12.93l-3.67.58c-25.28,3.86-62.72,9.46-70.83,10.23-5.6-.19-25.48-6.95-28.95-11.77-.58-2.89,1.74-5.79,3.09-5.98,11,.58,32.62,1.16,48.44-.19,5.79-.58,12.93-1.16,20.84-2.12l-.19-9.84c-.77-3.67-2.9-6.95-4.05-8.88-.58-.58,0-.96,0-1.35.19-.58.96-1.54,2.12-2.32-9.46-.58-16.6-2.32-24.7-6.75-1.35-4.63.39-5.79.58-6.95,18.72,0,48.63-2.7,69.48-7.14.19-3.47.39-7.53.39-12.16-13.7,2.51-40.34,6.75-53.85,7.91-5.02-.39-12.54-3.47-16.4-6.56-.96-.77-2.12-2.12-2.32-2.51-.58-1.93-.58-5.02.19-6.75.39-.39.96-.58,1.35-.58,7.14,0,16.02,0,25.28-.39,19.3-.77,28.56-2.7,42.46-6.18,2.89-.39,3.67-2.12,6.56-3.09,1.16.39,10.81,3.86,16.02,8.11,1.74,1.54,2.32,2.89,2.32,4.25,0,3.09-.19,5.6-.58,8.49-1.54,12.54-3.09,23.35-6.95,33.77-1.93,5.02-3.86,9.07-5.79,12.35,8.69-1.35,16.4-2.7,22.39-3.86,6.56.96,11.77,5.02,12.93,7.33,1.54,3.09.39,8.88-2.32,10.23Zm-66.97-25.09c-.39,4.25-.58,6.18-.58,7.14l-.19,8.88c7.91-.96,16.21-1.93,23.93-3.09-1.35-1.16-2.32-2.32-2.12-3.09,1.54-8.3,2.7-14.86,3.28-21.62-11.39,2.51-24.7,5.02-34.35,6.37,4.05,1.35,9.07,3.47,10.04,5.4Z"/><path class="cls-2" d="m221.7,85.34c-12.93-.58-27.6-.58-42.46.96l8.11,4.05c4.05,1.35,8.68,2.89,11.39,3.09,2.7.58,4.44,5.4,4.82,6.75.58,1.35-3.67,4.82-6.56,6.95-4.63,3.09-7.72,5.4-15.44,10.81,7.14,1.93,17.18,5.98,18.33,7.72,1.16,1.74,3.28,5.6,2.12,6.56-12.93,10.81-35.32,24.12-60.21,34.16,6.75.19,9.65,0,21.23-1.35,7.91-.96,21.62-4.05,24.9-5.02,7.33,1.35,12.54,5.98,12.35,7.91-.39,4.25-3.47,6.18-6.37,7.91-16.6,2.7-40.72,4.63-55,2.32-4.82-.77-12.16-4.25-16.02-8.11-2.32-2.32-3.28-6.75-2.89-8.88,21.04-6.56,45.55-20.07,60.41-30.88-2.32-2.32-6.56-3.67-10.23-4.82-15.63,9.65-33.19,17.95-46.7,21.81-4.05.39-12.35-4.82-14.09-6.75-.77-1.54-1.16-3.86.39-5.21,13.32-2.7,26.05-6.56,41.3-13.9,12.16-5.79,21.42-12.16,29.72-18.53-2.32-1.93-5.98-2.89-8.88-4.05-18.53,9.26-35.32,17.56-57.51,24.9-3.47.19-11.97-4.25-14.67-7.53-.96-1.35-.96-5.79,0-6.37,12.54-1.93,25.28-4.63,38.41-9.46,6.75-2.51,19.69-8.3,29.72-12.93l-3.67.58c-25.28,3.86-62.72,9.46-70.83,10.23-5.6-.19-25.48-6.95-28.95-11.77-.58-2.89,1.74-5.79,3.09-5.98,11,.58,32.62,1.16,48.44-.19,5.79-.58,12.93-1.16,20.84-2.12l-.19-9.84c-.77-3.67-2.9-6.95-4.05-8.88-.58-.58,0-.96,0-1.35.19-.58.96-1.54,2.12-2.32-9.46-.58-16.6-2.32-24.7-6.75-1.35-4.63.39-5.79.58-6.95,18.72,0,48.63-2.7,69.48-7.14.19-3.47.39-7.53.39-12.16-13.7,2.51-40.34,6.75-53.85,7.91-5.02-.39-12.54-3.47-16.4-6.56-.96-.77-2.12-2.12-2.32-2.51-.58-1.93-.58-5.02.19-6.75.39-.39.96-.58,1.35-.58,7.14,0,16.02,0,25.28-.39,19.3-.77,28.56-2.7,42.46-6.18,2.89-.39,3.67-2.12,6.56-3.09,1.16.39,10.81,3.86,16.02,8.11,1.74,1.54,2.32,2.89,2.32,4.25,0,3.09-.19,5.6-.58,8.49-1.54,12.54-3.09,23.35-6.95,33.77-1.93,5.02-3.86,9.07-5.79,12.35,8.69-1.35,16.4-2.7,22.39-3.86,6.56.96,11.77,5.02,12.93,7.33,1.54,3.09.39,8.88-2.32,10.23Zm-66.97-25.09c-.39,4.25-.58,6.18-.58,7.14l-.19,8.88c7.91-.96,16.21-1.93,23.93-3.09-1.35-1.16-2.32-2.32-2.12-3.09,1.54-8.3,2.7-14.86,3.28-21.62-11.39,2.51-24.7,5.02-34.35,6.37,4.05,1.35,9.07,3.47,10.04,5.4Z"/><path class="cls-2" d="m267.31,275.77c-.08-1.17,1.05-2.85,1.07-3.43.02-.6.04-2.49.52-3.61.31-.73.23-2.77.19-3.79-.03-.85.5-2.56.56-3.8.04-.89-.41-2.64-.25-3.85.09-.66.73-2.32.33-3.81-.35-1.31.11-2.95-.05-3.81-.21-1.11-.12-1.68-.26-3.8-.09-1.28.29-2.92.09-3.81-.25-1.07-.15-1.93-.11-3.83.04-2.01.67-4.45.14-6.29-.39-1.39-.66-4.35-.28-6.26.38-1.91-.36-3.93-.47-6.27-.09-2.1-.37-4.39-.6-6.23-.15-1.19.09-2.62-.06-3.58-.26-1.69-.36-2.77-1.5-3.94-.81-.83-1.54-1.81-2.91-1.91-1.6-.12-2.35-.67-3.58-.3-1.22.37-.5-.06-1.92-.16-1.26-.09-3.62-.39-4.39-.77-1.12-.55-2.96-.41-4.19-1.17-.89-.55-2.79-1.12-3.48-1.81-.28-.28-.41-.38-1.68-1.69-.47-.48-1.12-2.4-1.34-2.78-.24-.4-.19-.85-.63-.85-.52,0-.46.52-.25,1.55.45,2.24.65,2.9,1.02,4.33.46,1.75,1.01,2.09,1.71,3.58.49,1.04,1.15,1.91,2.89,2.77,1.47.72,2.01,1.1,4.06,1.93.09.04.31-.51,1.49.06,1.03.5,1.02.49,2.4,1.12.91.42,1.17,1.82,1.3,2.25.42,1.39.36,1.98.91,3.22.84,1.89.27,3.02.5,4.1.36,1.65.13,3.21.57,4.66.42,1.38.51,3.14.39,4.93-.13,1.85-.2,3.68.23,5.01.52,1.63.22,3.7.1,4.7-.25,2.11-.16,2.95,0,4.19.14,1.11.58,2.55.26,3.36-.49,1.26-.37,1.6-.38,3.38,0,.79.7,2.01.25,3.46-.43,1.37.28,2.53-.03,3.46-.47,1.4-.47,1.68-.29,3.39.22,2.19-.45,3.34-.45,5.4,0,2.06-.23,3.77-.43,5.38-.25,2.09.25,4.06-1.16,5.78-.13.16-.24.31-.34.46-.31-.27-.89-.47-1.05-.68-.99-1.33-1.47-1.22-2.54-2.29-.83-.83-1.58-1.22-2.21-2.79-.53-1.34-.86-1.76-1.5-2.95-.66-1.22-.74-2.45-.94-3.23-.19-.77-.71-1.42-.87-3.31-.12-1.42.33-1.97-.27-3.44-.38-.92.07-2.85-.23-3.44-.57-1.09.28-1.96.07-3.48-.23-1.69.25-3.92.44-5.18.2-1.33.29-2.83.84-5.14.25-1.04,1.79-4.14,1.63-4.58-.28-.8-1.15-1.11-2.1-1.54-1-.46-2.56-.7-4.43-1.02-2.49-.42-3.21-.68-4.71-.33-1.75.4-2.23-.31-2.87-.21-1.82.29-2.93.21-4.96.53-1.6.25-3.34.14-4.35.8-1.29.85-1.84.41-3.65,1.58-.8.51-2.17,1.01-2.97,2.24-.55.84-2.09,1.59-2.38,2.92-.28,1.29-1.26,2.36-1.73,3.67-.6,1.68-.72,2.78-.8,4.51-.11,2.31-.14,3.35-.3,5.29-.12,1.4.09,2.95.34,4.21.15.78.09,2.62.77,4.18.81,1.86,1.11,1.94,2.08,3.67.54.97,2.03,2.72,2.7,3.28.5.43.96,1.56,2.17,1.97,1.33.45,1.7,1.16,2.66,1.78,1.1.71,1.66,1.3,2.89,1.41,1.53.14,1.96.47,2.92.5,1.88.07,2.46.13,3.34-.84.73-.81,2.07-.66,2.71-1.91.46-.9.86-1.51,1.85-2.8.27-.35.59-1.64,1.53-2.92.42-.58.56-1.76,1.2-1.53.82.29.76,1.63,1.64,2.51.88.89,1.16,1.98,2.38,2.97,1.14.92,1.46,2.09,2.89,2.83,1.53.79,2.02.91,3.19,1.91,1.07.91,2.26,1.37,3.61,1.64.2.04.36.07.5.08-.32.55-.6.96-1.1,1.08-.89.21-1.72.72-2.59,1.33-1.37.97-3.48,1.24-5.61,1.39-1.93.13-3.91-.34-5.75.26-.36.12-2.37-.5-2.5.5-.1.73,2.09.72,3.88,1.03,2.33.41,3.34,0,4.47-.02,1.1-.03,1.92.59,3.79.05h0c1-.28,2.86.34,4.01-.25,1.73-.88,3.08-.4,3.89-.58,1.11-.24,2.31-.73,3.36-1.53,1.04-.79,2.49-1.75,2.97-2.11.51-.37,1.83-2.01,1.76-2.97Zm-28.18-15.17c-.93,1.38-1.46,3.46-1.61,4.27-.29,1.6-2,3.04-3.56,2.9h0c-.86-.08-1.93-.08-2.38-.77-.37-.56-1.59-.54-2.26-1.5-.7-.99-.57-1.39-1.53-2.34-.63-.63-.65-1.4-1.25-2.76-.59-1.34-1.04-2.1-.88-3.01.22-1.22-.47-1.73-.58-2.93-.15-1.61-.22-4.14-.32-5.06-.16-1.63-.36-2.83.48-4.74.46-1.06,1.17-3.16,1.64-4.11.6-1.21,1.35-2.23,3.07-2.89,1.56-.61,2.32-.82,4.71-1.08,1.7.26,2.15-.21,3.09.54.93.75.93.92,1.23,3.22.37,2.8.2,3.63.06,5.71-.06.91.12.12.08,1.8-.02.71-.03,2.73.06,3.16.22,1.05.13,2.11.41,3.14.15.58-.22.53-.02,1.94.23,1.65.46,3.18-.45,4.52Z"/><path class="cls-2" d="m117.07,260.06c-.55-.16-1.29.64-1.52,1.39-.31,1.02-1.36,2.74-2.01,3.97-.53,1.01-.98,2.03-1.48,2.2-1.03.34-1.15.75-2.23,1.05-2.09.58-2.25-.75-3.06-2.4-.84-1.72-.17-2.82-.5-4.5-.4-2.06-.31-2.85.11-5.22.32-1.76.21-3.05.38-5.14.16-1.95.86-3.4.77-5.13-.05-.94.02-2.74.08-5.16.03-1.18.37-2.45-.65-4.05-.33-.51-1.3-2.88-1.86-3.26-.71-.48-1.98-1.91-3.03-2.17-.89-.22-2.73-1.12-3.95-1.13-1.93-.02-3.35-.24-6.12.51-1.59.43-1.96.88-3.7,1.47-.85.29-1.68,0-1.97-1.09-.29-1.1-.33-2.29-.26-3.71.12-2.65-.28-4.53-.41-6.38-.09-1.18.21-2.27-.22-3.14-.45-.93.17-1.86-.08-3.25-.38-2.06-.62-3.72-1.17-4.98-.54-1.23-.97-2.38-2.19-4.56-.84-1.5-1.71-1.78-3.29-2.21-1.69-.46-3.06-1.18-3.71-1.22-1.29-.09-2.97-.7-3.99-.71-1.95-.03-2.17-.12-3.97-.14-1.5-.01-2.31-.68-3.4-.56-1.34.15-2.47-.79-3.12-1.21-.97-.62-1.71-.52-2.81-1.79-1.13-1.31-.97-1.86-1.59-2.63-.26-.32-.14-.91-.84-1.83-.33-.44-.24-.9-.72-.7-.44.19-.11,1.65.39,3.3.32,1.06.99,3.15,1.9,3.89,1.81,1.46,1.92,1.74,4.12,2.96,1.61.89,2.99.75,4.91,1.45.72.27,1.7.76,3.05.55.82-.12,1.47.53,2.67,1.43,1.38,1.04.86,2.2,1.25,3.03.36.76,1.5,2.39,1.25,4.38-.27,2.18.8,3.24.67,5.54-.1,1.9.33,4.27.45,6.11.11,1.62.57,4.66.36,6.11-.36,2.53.31,3.71.25,5.62-.07,2.07-.47,3.35-.09,4.58.37,1.22-.55,1.9-.1,3.08.58,1.51-.04,3.47-.04,4.13.02,1.9-.13,2.63-.3,4.13-.13,1.1.33,2.28-.02,4.17-.35,1.89.02,2.65-.21,4.16-.29,1.96-.52,3.72-.62,5.93-.06,1.27-.05,2.05-.7,2.95-.55.76-.88,1.68-.7,2.92.28,1.94-.85,2.58-1.88,4.18-.97,1.51-2.95,2.21-4.21,2.13-1.52-.09-1.74-.47-2.58-.32-.93.16-1.4-.03-1.5.01-1.17.43-.73-.3-2-.12-1.43.21-3.61.5-5.29,1.15-1.15.45-1.59.61-2.53,1.23-.82.54-1.76.54-2.58,1.4-1.07,1.13-2.43,2.51-1.99,2.82h0c.71.52,2.84-1.04,3.33-1.61.8-.92,3.11-1.43,3.95-1.6,1.38-.27,2.82-.85,3.51-.85.92,0,3.62.38,5.06.63,1.01.18,4.1.17,5.09-.01,1.45-.27,1.79-.39,3.54-.62,1.31-.17,2.28-.78,3.75-1.11.82-.18,2.62-1.45,3.21-1.74.78-.38,1.2-1.75,2.52-2.81,1.4-1.13,1.58-3.22,1.7-4.6.15-1.78.19-2.5.66-4.91.33-1.68.09-3.97.39-5.86.29-1.77.49-4.07.32-5.85-.16-1.66-.06-4.57.3-5.86.56-1.97-.37-3.95.18-5.85.45-1.58-.17-3.06,0-4.69.1-.93.17-1.04.73-1.67.62-.7,2.39-.98,2.82-1.16.71-.28,1.64-1.15,2.83-.88,1.79.4,3.92,1.42,4.28,2.6.29.95.62,4.22.92,5.35.34,1.28.14,3.81.05,5.55-.1,1.84-1.12,3.21-.71,5.54.25,1.47-.16,3.4-.55,5.54-.49,2.64-.46,4-.07,5.55.3,1.22.13,2.36.49,3.88.22.93,1.07,2.53,1.47,3.75.32.98,1.97,2.36,2.69,2.76.84.47,2.18,1.21,3.75,1.09,2.38-.2,3.36-.08,5.26-1.56,1.02-.79,1.34-1.07,1.87-2.02.48-.84,1.17-.95,1.71-2.24.35-.84,1.04-.74,1.49-2.27.09-.3,1.18-1.38,1.53-2.8.5-2.02,1.13-4.67.5-4.86Z"/><path class="cls-2" d="m212.11,235.22c-1.2-1.93-2.36-1.91-3.92-3.02-1.15-.82-2.94-.93-4.86-.77-1.36.11-2.11-.1-3.12.12-1.09.23-2.08.31-3.1.49-.8.14-1.48.14-3.01.95-1.34.7-1.98,1.29-2.78,1.47-1.11.25-1.66,1.14-2.49,1.67-1.38.87-1.39,1.75-2.12,2-.56.19-1.57,1.42-1.77,2.21-.18.71-1.29,2.14-1.41,2.46-.25.66-.5,1.58-1.03,2.66-.67,1.34-.68,1.07-.85,2.77-.21,2.1-.51,4.32-.36,5.88.2,2.15.07,3.12,0,4.54-.08,1.7.3,3.27.51,4.53.32,1.94,1.14,2.73,1.35,4.34.23,1.84,1.6,2.28,1.87,4.14.24,1.65,1.28,1.48,1.77,2.44.18.36.8,2.05,2.13,2.1.8.03,1.19,1.19,2.54,1.58,1.52.44,1.97.26,3,.19h0c1.3-.09,2.82-.33,4.09-.48,1.38-.15,2.22-1.2,3.55-1.68.72-.26,2.12-1.53,3.04-2.48,1.06-1.1,1.38-2.17,2.39-3.28,1-1.1,1.3-1.93,2.07-3.53.69-1.43,1.12-2.78,1.32-3.91.17-.93.68-2.06,1.04-3.94.36-1.86.07-2.87.16-3.87.04-.42-.27-1.75-.72-1.72-.55.04-.44,1.03-.98,2.36-.68,1.67-1.04,3.25-1.19,4.47-.11.88-1.33,1.35-1.1,2.74.09.56-.55,1.44-1.22,2.7-.89,1.67-1.19,1.96-1.41,2.5-.56,1.38-1.57,1.79-1.84,1.95-1.67.98-2.87,1.89-4.53,2.05-2.27.22-2.34-.92-3.57-1.88-.92-.72-1.47-2.98-1.91-4.32-.53-1.64-.61-3-.92-5.02-.27-1.77.05-2.98-.04-4.11-.06-.72-.48-1.74-.11-3.47.51-2.4.5-3.9.66-6.02.11-1.51.44-1.76.96-2.91.73-1.63.74-1.68,1.11-2.75.55-1.56,1.39-1.73,1.56-2.38.25-.95,1.71-1.27,2.16-1.84.62-.78,1.28-.79,2.63-1.3.99-.37,2.76-.19,3.34-.21.91-.04,2.54,1.01,3.16,1.42,1.22.8.55,1.82,1.17,3.36.16.41-.11,1.37.05,2,.21.81.34,1.51,1.34,1.53,1.03.01,2.16-.65,2.8-1.46.63-.79.12-1.6.27-2.07.35-1.1-.3-3.03-1.65-5.19Z"/><path class="cls-2" d="m157.73,262.39c1.1-1.28,1.14-2.12,1.88-3.39.69-1.19.73-1.69,1.3-3.64.43-1.46.36-2.02.55-3.78.13-1.14-.15-1.88-.61-3.37-.37-1.19-.07-1.55-.78-3.32-.38-.94-.77-1.85-1.16-3.19-.27-.91-.69-1.74-.33-3.43.25-1.17-.09-2.89.94-4.45.79-1.19,1.3-2.27,2.77-3.55,1.06-.92,1.57-2.68,3.22-3.41.94-.42,1.94-2.2,3.48-2.81.16-.07.81-.28.55-.81-.12-.25-.68-.11-1.04.09-.74.39-1.65.75-2.17,1.21-.93.81-1.39,1.01-2.3,1.56-1.24.76-1.91.41-2.56,1.6-.19.34-1.45,1.44-2.28,1.99-1.03.68-1.59.59-2.4,1.83-1.02,1.57-1.36,1.23-1.79,2.23-.94,2.19-1.31,2.39-1.83,4.83-.39,1.83.23,1.93.3,3.45.05,1.11.17,2.16.77,3.36.65,1.27,1.2,1.52,1.18,3.17-.02,1.03.02,2.05.44,3.34.54,1.69-.07,1.7-.22,3.64-.14,1.71-1.13,3.17-1.32,3.5-.74,1.33-1.35,3.01-1.72,3.3-1.26,1.01-1.93,1.93-2.25,3.08-.25.9-1.93,1.55-2.61,2.63-.81,1.28-2.3,1.93-3.25,1.92-1.62-.01-2.17,1.29-3.44,1.33-1.37.04-2.14.77-3.69.45-2.12-.45-2.81-.51-4.31-1.72-1.68-1.35-2.13-2.08-2.82-4.06-.67-1.92-.87-3.27-1.46-5.07-.78-2.36-.18-3.54-.37-4.69-.19-1.16.59-1.25,1.02-1.27.9-.05,1.06.07,1.9-.15,1.51-.41,2.01-.36,2.73.15.88.62,2.8.24,3.46-.02.38-.15,1.92.09,3.46.03,2.37-.1,4.2-.23,6-1.02,1.61-.7,2.67-1.9,3.23-3.2.69-1.6.19-2.83.41-4.66.27-2.21-.65-3.9-.99-5.59-.09-.45-.74-2.18-.89-2.52-.53-1.21-1.26-.9-1.4-2.22-.09-.83-.91-.89-1.88-1.77-.69-.62-1-1.14-2.19-1.4-1.7-.38-3.38-1.58-5.64-1.37-1.49.14-2.19.38-3.9.72-1.56.31-2.41.71-3.78,1.02-1.64.37-2.57.81-3.56,1.8-.53.53-2.33,2.14-2.86,2.7-.53.56-2.25,1.85-2.67,2.94-.31.81-1.59,2.99-1.89,3.43-.88,1.27-.86,2.29-1.23,3.75-.49,1.95-.76,2.31-.55,3.96.17,1.34.39,3.55.39,4.19-.03,1.85.63,2.99.99,4.21.42,1.4.44,2.98,1.36,4.13.36.45,1.83,2.7,2.16,3.65.36,1.05,1.79,1.46,2.6,3.22.6,1.29,2.5,2.29,3.28,2.53,1.05.32,2.27,1.26,3.87,1.44,1.61.18,2.29,1.1,4.42.83,2.39-.31,4.29-.54,5.55-.93,1.22-.37,1.17-.14,2.66-.84.94-.44.98-.87,2.49-1.31.64-.19,2.06-1.28,2.42-1.33,1.21-.2,2.06-.89,2.2-1.75.18-1.1,1.24-.7,2.08-1.92.78-1.14.87-.9,1.86-2.1.87-1.05.93-1.63,2.2-3.1Zm-29.09-16.47c.18-.43.65-2.85.7-3.28.16-1.33,1.08-2.23,1.31-3.11.16-.61.66-1.93,1.67-2.63.8-.55,1.28-.53,2.41-1.55.76-.69,1.69-.91,2.71-.59.97.3,2.07-.2,2.75.8.76,1.11.91,1.02,1.53,2.62.49,1.27.02,1.74.68,3.22.51,1.14.14,1.76.23,2.78.17,1.82-.11,3.97-2.1,4.91-1.77.83-3.7.86-5.31,1.21-1.22.26-3.33-.19-5.4.07h0c-.86.12-1.21-.04-1.29-1.38-.03-.6-.52-1.55.11-3.06Z"/><path class="cls-2" d="m292.59,209.16c-.25-1.71.21-2.67-.74-3.58-.5-.48-1.28-1.51-2.25-3.01-1.19-1.83-2.18-1.69-3.13-2.71-1.06-1.13-1.69-2.28-3.41-2.83-1.84-.58-2.42-1.95-3.58-2.83-1.66-1.26-2.21-1.36-3.31-3.04-1.1-1.68-1.21-2.01-2.4-3.6-.88-1.18-.6-3.23-.92-4.45-.27-1.02.91-4.42.1-4.63-.36-.09-.63.87-.76,1.35-.35,1.29-1.05,1.93-1.42,2.93-.49,1.3-.42,2.57-.4,3.49.04,1.92.23,1.98.66,3.32.53,1.68.32,2.06,1.16,3.13.5.64,1.4,2.25,1.59,2.91.49,1.66,1.1,1.48,2.02,2.69.42.56,1.27,2.03,1.96,2.59.7.56,1.16.79,1.62,2.33.36,1.22-.07,1.54.71,2.64.56.8.48,1.66.2,3.38-.1.61.31,2.95.17,3.97-.21,1.53-.27,2.08-.32,3.9-.04,1.62.33,4.35.09,5.86-.35,2.23.56,4.16.16,5.88-.42,1.85.06,4.25-.11,5.83-.25,2.26.33,3.84.3,5.88-.04,2.3-.2,4.32.14,5.86.36,1.62.26,3.56.34,5.86.07,2.16.49,3.79.04,5.87-.4,1.85.68,4.24.3,5.88-.45,1.97.66,2.58.19,3.56-.33.71-.07,2.64-.11,3.56-.07,1.74-.2,4.32-.39,5.67-.18,1.24-.27,1.41-.76,2.67-.41,1.05-1.15,2-1.83,2.34-.89.45-1.34,1.59-2.2,1.99-1.34.63-.96,1.57-1.89,1.79-.76.18-1.28,1.37-2.54,1.55-1.31.18-1.75.98-2.62,1.34-.29.12-1.44.17-2.31.54-.8.34-1.7.7-1.74,1.15-.07.63,4.14.22,5.88-.71,1.47-.78,3-.45,4.73-1.47,1.34-.79,1.18-.82,2.19-1.4.42-.24,1.15-.59,2.18-1.3,1.69-1.16,2.58-1.78,3.78-2.9,1.3-1.22,2.03-1.99,2.71-2.92.28-.38,1.35-1.28,2.19-3.19.75-1.73.93-2.58,1.11-3.66.17-1.05.83-2.75.51-3.92-.37-1.34.02-2.68.13-4.39.04-.6-.42-3.18-.06-4.32.36-1.14-.34-3.28-.16-4.36.24-1.41.4-2.63.06-4.3-.28-1.38.18-2.22-.07-4.32-.15-1.24.19-3.42.17-4.34-.03-1.2-.33-3.33.04-4.32.54-1.45.46-2.92.11-4.33-.44-1.74-.32-2.73-.06-4.35.31-1.94.47-3.62.64-5.93.18-2.37.1-3.73.37-5.95.13-1.1.53-3.39.61-4.32.14-1.6.54-2.9.33-4.33Z"/><path class="cls-2" d="m50.65,219.78c.89.35,1.34-.25,2.28-.22,1.7.07,1.92.32,3.81.49,1.63.15,2.15.97,2.92,2.33.67,1.18.68,2.83.78,4.01.21,2.3-.16,3.22.45,4.16.55.83.04,2.27-.04,2.91-.12.92,1.06,2.53,1.76,2.54,1.85.02,1.82-2.38,2.26-3.68.6-1.75,1.07-2.2,1.87-4.17.46-1.16,1.28-3.2,1.37-4.37.15-2.07,1.05-3.4,1.07-4.48.02-.82.54-3.18.47-4.53-.11-1.98-.99-2.51-2.77-2.76-.69-.1-2.22.16-2.94.22-1.34.11-2.68.53-3.81.09-.75-.29-2.44.46-3.75.21-1.3-.24-1.79.13-3.75.03-1.86-.09-2.43-.15-3.77.12-2.38.48-4.73.14-6.05.05-1.27-.08-4.39.41-6.1.17-1.67-.23-4.6-.49-6.07-.23-2.34.41-4.04-.51-6.05-.41-2.04.1-2.44-.3-3.96-.4-1.49-.09-3.11-.8-3.93-.93-.72-.12-2.27-.13-3.97-.68-1.16-.38-2.36-.88-3.1-1.2-.8-.35-1.17-.41-1.85-.77-.83-.44-1.37-1.22-2.25-1.03-.62.14-1.71,1.17-1.48,2.21.48,2.15-.27,4.01-.27,4.74,0,1.33.37,3.78.53,4.73.22,1.24.5,3.31.82,4.71.36,1.59.13,3,1.11,4.65.95,1.6.54,2.89.75,3.73.37,1.51.75,2.88.8,3.74.07,1.19-.13,2.35.47,3.78.52,1.24.07,2.83,0,3.63-.15,1.76.06,2.1-.26,3.81-.22,1.13-1.15,3.15-.73,3.41.7.44,1.27-.56,2.03-1.72.95-1.45,1.29-1.58,1.58-3.23.24-1.4.78-3,.82-4.01.04-.92-.22-2.87.36-4.06.48-.98.2-3.12.03-4.13-.22-1.34.24-3.08.58-5.04.28-1.62.56-2.48,2.01-3.59,1.65-1.26,2.03-1.24,3.52-2,1.45-.75,2.54-1.18,4.72-1.19.59,0,1.75-.09,2.47-.48,1.43-.79,1.8-.31,2.52-.46.88-.19,1.36.4,1.35.92-.02,1.52,1,3.49.89,5.05-.1,1.37-.16,3.99.44,5.97.56,1.83.05,4.9.01,6.06-.05,1.6.64,3.86.27,5.24-.48,1.77-.1,3.95-.11,5.7-.01,1.74-.37,4.36-.46,5.75-.08,1.18.34,3.83-.38,5.76-.6,1.61-.49,3.5-.88,5.64-.18.99-.61,3-1.5,4.17-.75.98-1.59,1.45-2.77,1.95-.83.35-2.51,1.57-2.92,1.83-1.66,1.06-1.77,2.57-3.17,3.2-1.59.71-.66,2.43-2.23,3.82-1.07.94-1.62,2.04-2.59,2.53-1.58.81-2.07,1.45-4.07,2.21-1.7.65-2.44.74-2.31,1.33h0c.1.43,3.19-.28,3.95-.23,1.17.07,1.68-.69,2.98-1.1,1.07-.33,2.21-1.33,2.78-1.83.69-.59,2.08-1.97,2.16-2.35.21-.89.54-.77,1.22-1.21.52-.33,1.74-2.02,2.76-2.67.8-.51,2.59-1.27,3.35-1.58.57-.23,2.14-1.24,3.52-1.13.9.07,3.03-.72,3.77-.81,1.33-.16,1.77.2,3.16-.12,2.02-.46,2.58-.44,3.5-1.96.74-1.22.93-2.13.7-4.02-.22-1.76.31-2.41-.26-4.9-.31-1.35-.61-2.32-.3-4.43.1-.66.28-3.29-.04-4.43-.38-1.34-.51-2.86-.2-4.42.32-1.62-.54-2.42-.04-4.42.24-.95-.22-3.19-.1-4.96.1-1.48-.33-2.54-.04-5,.19-1.65.1-3.42-.05-4.98-.18-1.85.53-3.05.07-4.98-.34-1.43-.07-5.4.31-5.96.41-.62.6-.65,1.5-.42,1,.26,2.49.15,3.35-.12.77-.24,2.54.24,3.49,0,.25-.06,1.48.18,1.63.24Z"/><path class="cls-2" d="m100.81,294.13l.03-.26-.4-.59.07-.63-.23-.3.07-.1-.36-.17-.07-.23-.23-.17-.03-.17-.26-.07-.1-.23.03-.13-.69-.46-.36-.36-.69.03-.33-.43-.03.07-.3-.26h-.5l-.1.1-.33-.4-.17.03-.13-.17-.66-.13-.33-.23-.13.13-.36-.13-.83.13-.13-.13-.23.17-.1-.17-.33-.03-.1.07-.69-.17-.1.1-.26-.03-.1.1-.23.03-.46-.2.03.03-.23-.03-.13.07-.2-.07-.13.07-.13-.07-.13.1-.92.1-.36-.1-.66.3-.43-.17-.2.13h.03l-.36.17-.23-.03-.2.23-.2-.07-.79.23-.03.17-.36.07-.33.2-.1-.1-1.22.56-.1.17-.1-.03-.17.2-.13.03-.43.63-.36.23-.17.43.1.23-.13.1-.03.26-.17.17.03.73-.07.36-.13.17.26.1-.07.13.03.83.4.46-.1-.07.13.36.4.46.07.2.33.17h-.07l.2.13.07.23.17-.07.17.17.3-.03v.17l.66.17.03.1.23.13h-.03l.36.23-.07-.1.46.23-.1-.07.83-.23.03.23.56-.13.07.1.3-.2.36-.03v-.07l.43.23.36-.5.2-.03-.3-.63.07-.1-.1-.1v-.33l-.3.13-.23-.03-.03-.33-.16-.1.07-.73-.13-.17.13-.26-.23-.26.07-1.16.1-.1.03-.36-.1-.03.03-.13.13-.07.23-.43h.17l.26-.36.2-.1v-.13l.26-.07.23-.33.69-.36-.07.07.2-.13.07.1.66-.4.33-.03v-.1l.66.33.46-.03.2.17.59.13.26.5.59.53-.03.13.13.03.23,1.09.2.2-.03.13-.1-.03-.07.17.07.23-.2.5.07.17-.26.13.07.1-.23.3-.07.59-.1.03-.17.36-.23.17.13.33-.1.63.1.33-.1-.07-.03.36-.17-.1-.3-.56v-.23l-.3.46-.03-.1-.17.3-.07-.03-.3.26-.2.36-.17.1-.3-.07-.1.23-.17.07-.26.63-.66.1-.36.43-.66.36-.23-.07v.2l-1.02.86-.03.2-.17.17-.36.03-.03.69-.17.1.03-.4-.07-.1-.66.53.03-.07-.4.56-.13-.07v.17l-.2.03-.17.43.03.13-.36.26-.26.07-.43.4.23.2-.33.4-.07-.17-.13.1-.17-.03-.1.3-.23.07-.66.96-.1.86-.2-.23-.07.1-.17.03.03.1-.1.17.17.2-.33.13.1.2-.13.1.07.07-.26.36.03.46-.13-.1-.03.66h-.07l.53.4h.43l-.03.03h.73l.26-.23.1.07.92-.2v-.23l-.13.03-.07-.43.07-.17.23-.07.16-.3.03.56-.13.36.1.17.23-.07.07.1h.33l.13-.26.13-.07.03.13.07-.03-.1.2.59.07.17-.17h.3v.1h.2l.07-.2.1.07.3-.03-.1.1v.2l.43-.13.2.07v-.56l.13-.3-.17-.07h.33l-.03.13.17.63-.03.3.1.1h.36l-.03-.03.46-.07v.2l.5-.03.1.17,1.09.17v-.07l.26.03.07.1.13-.2.26-.1-.07-.46.17-.03.2.1-.07.13.16.73.26-.13.03-.17.17.03.2.4.53-.2.1-.13-.1.23.1.17.46.17.43-.43.1.03.03.23.46.2v-.07l.17.2.46-.03.2-.17h.13l.03.13.59.07v-.17l.2-.36.07.07-.03.26.13.13.53-.17.4.1.13-.17.33-.17.13-.43.63-.17-.07.1.3-.17-.17-.07-.2-.33.17-.3.07.13.2.03.07-.1.2.3.3-.3.23-.07-.03-.1.17-.4.2-.17.23-.53.07-.5-.03.03-.07-.33.43.1v-.5l-.23.1v-.36l.26-.17-.1-.33.03-.33-.1.2-.43-.1-.1-.17.26-.79-.07-.56-.49-.13.03-.33.1-.03-.2-.03-.26-.33h-.23l-.23.2-.53-.03.07.2-.07.07.1.23-.23.23v-.1l-.56.1.33-.5-.2-.46.17-.03-.43-.56-.43.03-.1.1-.26-.33-.1.36-.13.03.1.46-.26.17-.17.26.03.17.4.03-.03.56.07.03h-.17l-.2-.3-.17.1.03.2-.26.26v.2l-.13-.07-.1.07.1.23-.1.17.03.26-.3.1.03.3-.59-.03v.13l-.17-.07-.33.17-.13.26-.5-.03-.1.2.03.53-.07.36-.03-.36-.1-.1-.17-.92-.07.1-.3-.23h-.17l-.13.56.1.4-.13.2.17.46-.2-.03-.13-.17-.1.03-.3-.13.13-.03.03-.2h.07l.1-.23-.13-.26-.1.03.07-.13-.07-.33.17-.03.07-.1-.36-.3-.13.07-.36-.13.07.59-.23.73-.2-.33.1-.46-.2-.59-.2-.1-.13.07-.4-.1v.13l-.59.1-.36-.23-.2.13h-.23l.07.33.2.07-.26.17.2.17.07.33-.2.17.17.36-.1.26-.13-.07-.03-.56-.17-.07v-.92l-.36-.1-.17.23h-.33l-.2.26-.03-.2-.3-.07-.66.17-.1.17-.23.03-.1.13-.23-.03-.17.1-.2.33-.59-.07v.07h-.17l.03-.4.26-.43.4-.4v-.4l.33-.13.4.03-.03-.13h.33l.1-.13.2-.07.13-.2.23-.13.17.03.53-.43-.03-.17.33.07.56-.36-.03.1.63-.17-.07-.07.59-.23-.07-.13.26-.4.1.17.26.13.2-.13.3-.03.03-.2.3-.03-.07-.26.2-.23.07.33.13.07.46-.2.13.03.1-.2.3-.16.4.13.2-.17.36.03.07-.2.23.13.23-.1.26-.4.33-.07.2-.2-.23-.13.13-.26.2-.07.4.5.36-.07.43-.63.07.1h.2l-.07-.3.17-.03-.07-.2.1-.07v-.2l.2-.1-.13-.33.33-.03v.36l.2.07v.43h.46l.13-.66.26.13.23-.1.03-.17.26-.07.07-.2-.23-.46-.17-.13.33-.43.79.1-.07.1.03.36.17-.1.2-.33.3-.17-.03-.1-.26-.1-.23-.36.17-.2-.1-.66-.33.03.17-.59.26-.43.13.1.03.53.1.07-.03.26h.07l.03.33-.07-.03.13.17.03.36-.1.33.2-.17-.03-.1.2-.23-.07-.1.17-.13-.07-.23.2-.2.03-.53.13-.17-.17-.43.2-.2-.07-.23.1-.33-.1-.13.1-.3-.07-.07Zm-18.35,15.35l-.03-.13.13-.1-.1.23Zm1.22-3.37l-.23-.17v-.1l.3.23-.07.03Zm.1,1.35v-.13h.03l-.03.13Zm.79-1.12l-.03-.17.03.03v.13Zm14.49.63v-.13h.03l-.03.13Zm-.23-3.4l.5.13-.1.13v.33l-.3.5.07-.23-.17-.26.07-.17-.07-.43Zm.23,2.57l.03.5-.33-.03.3-.46Zm-.83-1.55l.13-.17-.1.3-.1-.13h.07Zm-.63.3l.13.07-.26.07-.2-.1.33-.03Zm-1.19-.3l.13.1.1.33-.13.13-.17-.07-.1-.43.17-.07Zm-2.08,1.88l-.13.26-.23.1-.03-.13.4-.23Zm-3,2.11v-.13l.17-.1-.17.23Zm.36-1.49l.03.13-.23.17.03-.17-.23-.2.4.07Zm-.3.63h-.07l.13-.03-.03.26-.17-.13.13-.1Zm-.86-2.21l.03.13-.07.3-.07-.07.1-.36Zm-.13.86l.07-.4.1.1.4-.1-.4.36v.63h-.13l-.07-.23-.17-.13.2-.23Zm-.36.76h.2l.07.1-.3.03.07-.03-.03-.1Zm-.76.3l.03.03h-.1l.07-.03Zm-.13.43l.03.43-.13.07-.07-.13.17-.36Zm-.33-.4v.17l-.03-.17h.03Zm-.1,1.19l.23-.2-.1.13.07.36-.03-.03v.2l-.2-.07.03-.4Zm-.69-1.06l-.13.46-.07-.1.2-.36Zm-2.64-.13l.1.13.2-.03.03.43-.23-.17-.17.13.1-.1-.03-.4Zm1.12-3.8l-.13.23-.07-.2.07-.13-.1-.33.17-.1.17.23-.17.17.07.13Zm1.32-2.34v.1l-.07-.1h.07Zm.3,1.42l-.2.17-.13-.07.17-.13-.26-.13-.07-.4.4-.4.03.66.13.1-.07.2Zm3.3-1.02l-.03-.13h.07l-.03.13Zm2.61-7.13l.03-.17.23.1-.26.07Zm2.31,4.72l-.03.17-.1-.03.13-.13Zm-.13.53l.07-.26.1.13-.17.13Zm2.28-3.76l.07-.17.07.17h-.13Zm.33-.26v.13l-.03-.1.03-.03Zm.66,1.16l-.17.1-.1.5h-.33l-.2-.23.2-.2.1-.3.5.13Zm.69-1.65l-.17.13-.07-.13.1-.3.03.03.13-.03-.03.3Zm-.26-.3l-.03.2-.2-.07.17-.4-.13.07.13-.17-.1-.4.23-.2.13.17.1.59-.3.2Z"/><polygon class="cls-2" points="100.12 297.7 100.05 297.66 100.05 297.83 100.12 297.7"/><polygon class="cls-2" points="98.33 302.85 98.6 303.24 98.6 303.11 98.73 303.11 98.76 302.75 98.46 302.71 98.33 302.85"/><polygon class="cls-2" points="95.3 304.1 95.43 303.97 95.89 304 96.09 303.41 96.09 303.04 96.19 303.11 96.32 302.94 95.96 302.61 95.69 302.75 95.79 302.75 95.49 303.04 95.23 303.01 95.07 303.18 94.83 303.24 94.83 303.77 95.07 303.9 95.03 303.9 95.3 304.1"/><polygon class="cls-2" points="133.97 292.32 133.94 292.32 133.97 292.35 133.97 292.32"/><polygon class="cls-2" points="135 290.6 134.93 291.13 135.19 291.39 135.52 291.33 135.23 291.13 135.39 290.57 135 290.6"/><path class="cls-2" d="m139.22,298.32l-.26-.46.2-.07-.13-1.65-.13-.33.07-.23-.23-.2-.07-.3.1-.2-.3-.23.07-.03-.26-.26v-.13l-.2-.26.03-.26-.13-.1-.26.23-.36-.2.13-.2-.33-.76-.3-.4-.26-.2-.07-.23-.26-.2-.26.36-.2.1-.17-.03-.1.26-.17.03-.1.17-.17-.33-.23-.13v.13l-.17.2-.1-.07-.07.13.03.26-.26.2-.1.33-.26-.5-.26-.07.1-.13h-.2l-.07.17-.53-.07v-.1l-.23.07.26-.26.07.2.17.03.2-.33.4-.13.1.17-.07-.26.17-.03-.1-.2.13-.23-.2-.1.17-.2.03-.2-.1-.23.1-.13.03-.4-.1-.26-.43.1.36-.3-.17-.26.1-.17-.17.07-.2.53-.23-.23.07-.07-.1-.23-.3.66-.17.66.1.3-.3.36-.46-.03.23.13.3-.03-.03.43-.4.3-.13-.23h.03l-.1-.26-.2-.07.03-.46-.13-.07-.07.17.03.3-.1.17-.03.36-.1.1.1.56.17.23h-.1l.2.17-.1.26.03.3-.13.13.1.56.03-.03.03.73.1.17-.07.3h.03l-.07.23.13.13-.17.2.17.13-.1.3.03.63-.1.43.1-.03-.07.17.2.33-.1.33-.03-.03v.5l.1.26-.1-.1v.26l.1.2-.1.26v.5l.1.13-.1.36.03.53v-.03l.07.23-.07.53-.13.13.07.3-.03.53.07.3-.13.03.03.53-.3.3.07.07-.03.3-.13.07.26-.03-.07.36-.13-.03.07.13-.26.4.26-.1.13.26h.1l.03.3-.13.23.2.07-.03.69-.23-.56-.26-.07.07.1-.07.33-.13-.17-.36-.03.33-.23.07-.17.2-.03.1-.3-.46-.03-.4.99.63.4.3-.1.1.23-.5.03-.36.26v-.1l-.2-.13h-.17l.3-.26-.13-.17-.17.17-.76.2-.26.26-.07.2.23.1-.03.13.17.23.13-.03.33.2.3.03-.03-.1.1-.17v-.23l.1-.17.36.13-.13.07.23.46.1-.03-.07-.2.1-.07v-.36l.36-.36.03.13.17.1.07.4.33.3.33-.43h.59l.1-.1.43-.03.07-.17-.07-.1.07-.13-.07-.17.4-.1.03-.26-.13-.43h.07l.07-.3-.1-.13.2-.36.1.03-.03.56.17-.17.23.13-.4.23.03.13-.17.03.23.56-.07.23.2.03.3-.17.03-.1.4-.26.2.03.13-.17v.03l.23-.1.23-.79.26.07.17-.2.1.07.2-.33.5-.5-.07-.13.13-.17-.03-.36.3.2v-.1l.3-.17.26-.73-.07-.13.3-.26.3-.63.07-.63.23-.26-.03-.5.2-.26.03-.36-.07-.2.13-.13-.07-.33.13-.33-.03-.26.13-.13-.13-.76Zm-6.44,8.12l.1-.07.03.17-.17.07.03-.17Zm-.46-13.56l-.13.13-.13-.13.07-.03.2-.3v.33Zm.66,14.59l-.17.17.03-.13-.07.13h-.4l-.03-.13.2-.2.03-.17.13-.1.36.03-.23.43.13-.03Zm1.85-13.99l-.23.1.03-.23.23-.03-.03.17Zm.43,13.04l-.26.13-.07-.3.07-.1h.26v.26Zm.66-13.04l-.26-.26-.3.3v-.17l.13-.17-.13-.1.2-.43v.07l.2-.36.26.13-.1.26.33.36-.4.26.07.1Zm.43,11.65l.13.33-.33.03-.17-.23.53-.26-.17.13Zm.36-11.68l.03-.1.13.13-.17-.03Z"/><path class="cls-2" d="m128.69,307.57v-.17l-.36.36-.2.03-.1-.33-.17-.03-.13.1v-.17h-.1l-.3.26.1.07-.3.33.2-.63-.1-.07.07-.17-.69-.4-.26-.4-.2.1v.4h-.1v-.23l.1-.1-.1-.53-.33.07-.03-.43-.36-.73.13-.1-.56.03.07-.3h.07l.07-.46-.07-.3.13-.36-.1-.3.03-.4-.17-.4.13-.2-.1-.07.03-.3.2-.33-.1-.1.07-.3-.1-.3v-.46l.07-.1-.17-.2.07-.3.1-.03-.03-.46-.1-.23.1-.13-.03-.66h.07v-1.02l.1-.17-.1-.1-.03-.53.1-.2v-.26l.13-.2-.17-.2.13-.49-.26.4.07-.03-.23.5-.07-.13.23-.63v-.4l.13-.26-.2-.2h.3l-.1-.43.23-.5.03-.79-.07.03.26-.17.1-.5-.13-.2.13-.07.03-.3.17-.36.17-.17.2-.43-.03-.99.2-.26.23-.13-.1-.17-.03-.36.07-.17-.63-.13-1.09.17.03.07-.1-.03-.2.26-.36-.07-.2.23-.33.03.03-.03-.3.23.07.13.36.26-.23.3-.2.46-.1-.1-.3-.07-.07-.4.1-.07-.03-.36-.13.17-.17-.07-.56.13-.03.17-.33.17-.66.53h.07l-.3.17h.03l-.2.07-.4.5-.23.17-.1.26-.26.13-.2.3v-.03l-.13.3-.23.23.1.23-.07.2-.56.43.33.23-.36.4-.17.66.03.33-.16.2-.26.1-.17.69-.1.13.1.13-.07.26.1.13-.23.5.1.1-.07.59-.13.23.2.66-.13.3.26.4-.17.63-.17.26.23.33.13.69-.03.33.26.59-.03.3.49-.03.07-.1.36.89-.03.17.26.99-.07.2.1.17.23.13.33.56.3.1.1-.23-.1-.46.1.03-.03-.2-.4.03.07-.2.56-.5-.1-.07v-.3l.33.07-.1.17.17.17-.13.2.13.2-.07.23h-.1l-.23.3.1.03-.1.53.17.46-.07.1.23.23-.03.07.13-.03.66.53.17-.1.03.2.13.03.07.23.3-.03.23.23.1-.03.17.4.3-.03.26.1.53-.07.03.13-.2.3.69.2.26-.33.23.13.1-.16-.03-.5.23-.23-.13-.13.13-.73-.13-.83.03-.33h-.07v-.17l.13.17h.1l.2.2.07.69.17.17h.1l-.03.46.07.17-.1.23.03.26-.1.3-.03.56-.1.26.2-.1.17.07.23-.07-.03-.26.26-.03.03-.16.2.03.13.13.03-.1.1.66h.2l.1.2.23-.07.1.07.33-.36.23-.13-.03-.1.2-.03v-.07h.23l.2.2.03-.2.23-.13-.03-.43.07-.03-.2-.1Zm-2.9-17.82l.03-.17h.03l.1.46-.17-.3Zm-.07-1.29h.13l.13.13-.3-.1h.07l-.03-.03Zm-.36,2.15h.1v.07h-.17l.07-.07Zm-3.73,13.99l.1.36-.17.3-.17-.03.13-.59-.07-.13.03-.26.1-.03.13.03.03.23-.13.13Zm2.84-15.38l.03-.13.1.23-.2-.13.07.03Zm-.17-.33l-.1.12v-.18l.1.07Zm-.12.25l.09.11-.1.13h-.1l.11-.24Zm-.54,18.36l.07-.2v-.17l.03.2-.1.17Zm.07-2.01l-.17-.03.17-.13v.07l.3-.03-.3.13Zm.26-1.32l-.1-.4.1-.03.23.23-.23.2Zm.73-14.42l-.13.03-.07.13-.46-.1.69-.26-.03.2Zm1.88,18.22v-.2h.13l-.13.2Z"/><polygon class="cls-2" points="126.55 290.17 126.71 290.17 126.81 290.04 126.65 289.81 126.48 289.81 126.55 290.17"/><path class="cls-2" d="m129.75,289.68l.23.03.17.36v-.03l.13.1.23-.03.23-.59.07.1.3.1.07.1.17-.5.26.03.07-.13-.17-.33.3-.26-.59-.07-.13-.23-.5.2-.03.1-.69-.56-.33-.07-.3.4v.33l-.23.03.03-.26-.23.1v.07l-.53.2-.07-.23.07-.07-.07-.17-.43-.23-.5-.07.17.3.03.4-.33.23-.13.4.1.13.03.53v-.1l.23-.1.03-.17.4.13.23-.4v.13l.23.2.03-.33.2.03.69-.2.1.36.2.13.26-.1Zm.86-.46v.13l-.03-.13h.03Zm-.5-.4h.3l-.2.13-.17.26.07-.4Z"/><polygon class="cls-2" points="172.19 302.85 172.45 303.24 172.45 303.11 172.58 303.11 172.62 302.75 172.32 302.71 172.19 302.85"/><polygon class="cls-2" points="173.97 297.7 173.9 297.66 173.9 297.83 173.97 297.7"/><path class="cls-2" d="m174.66,294.13l.03-.26-.4-.59.07-.63-.23-.3.07-.1-.36-.17-.07-.23-.23-.17-.03-.17-.26-.07-.1-.23.03-.13-.69-.46-.36-.36-.69.03-.33-.43-.03.07-.3-.26h-.5l-.1.1-.33-.4-.17.03-.13-.17-.66-.13-.33-.23-.13.13-.36-.13-.83.13-.13-.13-.23.17-.1-.17-.33-.03-.1.07-.69-.17-.1.1-.26-.03-.1.1-.23.03-.46-.2.03.03-.23-.03-.13.07-.2-.07-.13.07-.13-.07-.13.1-.92.1-.36-.1-.66.3-.43-.17-.2.13h.03l-.36.17-.23-.03-.2.23-.2-.07-.79.23-.03.17-.36.07-.33.2-.1-.1-1.22.56-.1.17-.1-.03-.17.2-.13.03-.43.63-.36.23-.17.43.1.23-.13.1-.03.26-.17.17.03.73-.07.36-.13.17.26.1-.07.13.03.83.4.46-.1-.07.13.36.4.46.07.2.33.17h-.07l.2.13.07.23.17-.07.17.17.3-.03v.17l.66.17.03.1.23.13h-.03l.36.23-.07-.1.46.23-.1-.07.83-.23.03.23.56-.13.07.1.3-.2.36-.03v-.07l.43.23.36-.5.2-.03-.3-.63.07-.1-.1-.1v-.33l-.3.13-.23-.03-.03-.33-.17-.1.07-.73-.13-.17.13-.26-.23-.26.07-1.16.1-.1.03-.36-.1-.03.03-.13.13-.07.23-.43h.17l.26-.36.2-.1v-.13l.26-.07.23-.33.69-.36-.07.07.2-.13.07.1.66-.4.33-.03v-.1l.66.33.46-.03.2.17.59.13.26.5.59.53-.03.13.13.03.23,1.09.2.2-.03.13-.1-.03-.07.17.07.23-.2.5.07.17-.26.13.07.1-.23.3-.07.59-.1.03-.17.36-.23.17.13.33-.1.63.1.33-.1-.07-.03.36-.17-.1-.3-.56v-.23l-.3.46-.03-.1-.17.3-.07-.03-.3.26-.2.36-.17.1-.3-.07-.1.23-.17.07-.26.63-.66.1-.36.43-.66.36-.23-.07v.2l-1.02.86-.03.2-.17.17-.36.03-.03.69-.17.1.03-.4-.07-.1-.66.53.03-.07-.4.56-.13-.07v.17l-.2.03-.17.43.03.13-.36.26-.26.07-.43.4.23.2-.33.4-.07-.17-.13.1-.17-.03-.1.3-.23.07-.66.96-.1.86-.2-.23-.07.1-.17.03.03.1-.1.17.17.2-.33.13.1.2-.13.1.07.07-.26.36.03.46-.13-.1-.03.66h-.07l.53.4h.43l-.03.03h.73l.26-.23.1.07.92-.2v-.23l-.13.03-.07-.43.07-.17.23-.07.17-.3.03.56-.13.36.1.17.23-.07.07.1h.33l.13-.26.13-.07.03.13.07-.03-.1.2.59.07.17-.17h.3v.1h.2l.07-.2.1.07.3-.03-.1.1v.2l.43-.13.2.07v-.56l.13-.3-.17-.07h.33l-.03.13.17.63-.03.3.1.1h.36l-.03-.03.46-.07v.2l.5-.03.1.17,1.09.17v-.07l.26.03.07.1.13-.2.26-.1-.07-.46.17-.03.2.1-.07.13.17.73.26-.13.03-.17.17.03.2.4.53-.2.1-.13-.1.23.1.17.46.17.43-.43.1.03.03.23.46.2v-.07l.17.2.46-.03.2-.17h.13l.03.13.59.07v-.17l.2-.36.07.07-.03.26.13.13.53-.17.4.1.13-.17.33-.17.13-.43.63-.17-.07.1.3-.17-.17-.07-.2-.33.17-.3.07.13.2.03.07-.1.2.3.3-.3.23-.07-.03-.1.17-.4.2-.17.23-.53.07-.5-.03.03-.07-.33.43.1v-.5l-.23.1v-.36l.26-.17-.1-.33.03-.33-.1.2-.43-.1-.1-.17.26-.79-.07-.56-.5-.13.03-.33.1-.03-.2-.03-.26-.33h-.23l-.23.2-.53-.03.07.2-.07.07.1.23-.23.23v-.1l-.56.1.33-.5-.2-.46.17-.03-.43-.56-.43.03-.1.1-.26-.33-.1.36-.13.03.1.46-.26.17-.17.26.03.17.4.03-.03.56.07.03h-.17l-.2-.3-.17.1.03.2-.26.26v.2l-.13-.07-.1.07.1.23-.1.17.03.26-.3.1.03.3-.59-.03v.13l-.17-.07-.33.17-.13.26-.5-.03-.1.2.03.53-.07.36-.03-.36-.1-.1-.17-.92-.07.1-.3-.23h-.17l-.13.56.1.4-.13.2.17.46-.2-.03-.13-.17-.1.03-.3-.13.13-.03.03-.2h.07l.1-.23-.13-.26-.1.03.07-.13-.07-.33.17-.03.07-.1-.36-.3-.13.07-.36-.13.07.59-.23.73-.2-.33.1-.46-.2-.59-.2-.1-.13.07-.4-.1v.13l-.59.1-.36-.23-.2.13h-.23l.07.33.2.07-.26.17.2.17.07.33-.2.17.17.36-.1.26-.13-.07-.03-.56-.17-.07v-.92l-.36-.1-.17.23h-.33l-.2.26-.03-.2-.3-.07-.66.17-.1.17-.23.03-.1.13-.23-.03-.17.1-.2.33-.59-.07v.07h-.17l.03-.4.26-.43.4-.4v-.4l.33-.13.4.03-.03-.13h.33l.1-.13.2-.07.13-.2.23-.13.17.03.53-.43-.03-.17.33.07.56-.36-.03.1.63-.17-.07-.07.59-.23-.07-.13.26-.4.1.17.26.13.2-.13.3-.03.03-.2.3-.03-.07-.26.2-.23.07.33.13.07.46-.2.13.03.1-.2.3-.16.4.13.2-.17.36.03.07-.2.23.13.23-.1.26-.4.33-.07.2-.2-.23-.13.13-.26.2-.07.4.5.36-.07.43-.63.07.1h.2l-.07-.3.17-.03-.07-.2.1-.07v-.2l.2-.1-.13-.33.33-.03v.36l.2.07v.43h.46l.13-.66.26.13.23-.1.03-.17.26-.07.07-.2-.23-.46-.17-.13.33-.43.79.1-.07.1.03.36.17-.1.2-.33.3-.17-.03-.1-.26-.1-.23-.36.17-.2-.1-.66-.33.03.17-.59.26-.43.13.1.03.53.1.07-.03.26h.07l.03.33-.07-.03.13.17.03.36-.1.33.2-.17-.03-.1.2-.23-.07-.1.17-.13-.07-.23.2-.2.03-.53.13-.17-.17-.43.2-.2-.07-.23.1-.33-.1-.13.1-.3-.07-.07Zm-18.35,15.35l-.03-.13.13-.1-.1.23Zm1.22-3.37l-.23-.17v-.1l.3.23-.07.03Zm.1,1.35v-.13h.03l-.03.13Zm.79-1.12l-.03-.17.03.03v.13Zm14.49.63v-.13h.03l-.03.13Zm-.23-3.4l.5.13-.1.13v.33l-.3.5.07-.23-.17-.26.07-.17-.07-.43Zm.23,2.57l.03.5-.33-.03.3-.46Zm-.83-1.55l.13-.17-.1.3-.1-.13h.07Zm-.63.3l.13.07-.26.07-.2-.1.33-.03Zm-1.19-.3l.13.1.1.33-.13.13-.17-.07-.1-.43.17-.07Zm-2.08,1.88l-.13.26-.23.1-.03-.13.4-.23Zm-3,2.11v-.13l.17-.1-.17.23Zm.36-1.49l.03.13-.23.17.03-.17-.23-.2.4.07Zm-.3.63h-.07l.13-.03-.03.26-.17-.13.13-.1Zm-.86-2.21l.03.13-.07.3-.07-.07.1-.36Zm-.13.86l.07-.4.1.1.4-.1-.4.36v.63h-.13l-.07-.23-.17-.13.2-.23Zm-.36.76h.2l.07.1-.3.03.07-.03-.03-.1Zm-.76.3l.03.03h-.1l.07-.03Zm-.13.43l.03.43-.13.07-.07-.13.17-.36Zm-.33-.4v.17l-.03-.17h.03Zm-.1,1.19l.23-.2-.1.13.07.36-.03-.03v.2l-.2-.07.03-.4Zm-.69-1.06l-.13.46-.07-.1.2-.36Zm-2.64-.13l.1.13.2-.03.03.43-.23-.17-.17.13.1-.1-.03-.4Zm1.12-3.8l-.13.23-.07-.2.07-.13-.1-.33.17-.1.17.23-.17.17.07.13Zm1.32-2.34v.1l-.07-.1h.07Zm.3,1.42l-.2.17-.13-.07.17-.13-.26-.13-.07-.4.4-.4.03.66.13.1-.07.2Zm3.3-1.02l-.03-.13h.07l-.03.13Zm2.61-7.13l.03-.17.23.1-.26.07Zm2.31,4.72l-.03.17-.1-.03.13-.13Zm-.13.53l.07-.26.1.13-.17.13Zm2.28-3.76l.07-.17.07.17h-.13Zm.33-.26v.13l-.03-.1.03-.03Zm.66,1.16l-.17.1-.1.5h-.33l-.2-.23.2-.2.1-.3.5.13Zm.69-1.65l-.17.13-.07-.13.1-.3.03.03.13-.03-.03.3Zm-.26-.3l-.03.2-.2-.07.17-.4-.13.07.13-.17-.1-.4.23-.2.13.17.1.59-.3.2Z"/><polygon class="cls-2" points="169.15 304.1 169.28 303.97 169.74 304 169.94 303.41 169.94 303.04 170.04 303.11 170.17 302.94 169.81 302.61 169.55 302.75 169.65 302.75 169.35 303.04 169.08 303.01 168.92 303.18 168.69 303.24 168.69 303.77 168.92 303.9 168.89 303.9 169.15 304.1"/><path class="cls-2" d="m213.07,298.32l-.26-.46.2-.07-.13-1.65-.13-.33.07-.23-.23-.2-.07-.3.1-.2-.3-.23.07-.03-.26-.26v-.13l-.2-.26.03-.26-.13-.1-.26.23-.36-.2.13-.2-.33-.76-.3-.4-.26-.2-.07-.23-.26-.2-.26.36-.2.1-.17-.03-.1.26-.17.03-.1.17-.17-.33-.23-.13v.13l-.17.2-.1-.07-.07.13.03.26-.26.2-.1.33-.26-.5-.26-.07.1-.13h-.2l-.07.17-.53-.07v-.1l-.23.07.26-.26.07.2.17.03.2-.33.4-.13.1.17-.07-.26.17-.03-.1-.2.13-.23-.2-.1.17-.2.03-.2-.1-.23.1-.13.03-.4-.1-.26-.43.1.36-.3-.17-.26.1-.17-.17.07-.2.53-.23-.23.07-.07-.1-.23-.3.66-.17.66.1.3-.3.36-.46-.03.23.13.3-.03-.03.43-.4.3-.13-.23h.03l-.1-.26-.2-.07.03-.46-.13-.07-.07.17.03.3-.1.17-.03.36-.1.1.1.56.17.23h-.1l.2.17-.1.26.03.3-.13.13.1.56.03-.03.03.73.1.17-.07.3h.03l-.07.23.13.13-.17.2.17.13-.1.3.03.63-.1.43.1-.03-.07.17.2.33-.1.33-.03-.03v.5l.1.26-.1-.1v.26l.1.2-.1.26v.5l.1.13-.1.36.03.53v-.03l.07.23-.07.53-.13.13.07.3-.03.53.07.3-.13.03.03.53-.3.3.07.07-.03.3-.13.07.26-.03-.07.36-.13-.03.07.13-.26.4.26-.1.13.26h.1l.03.3-.13.23.2.07-.03.69-.23-.56-.26-.07.07.1-.07.33-.13-.17-.36-.03.33-.23.07-.17.2-.03.1-.3-.46-.03-.4.99.63.4.3-.1.1.23-.5.03-.36.26v-.1l-.2-.13h-.17l.3-.26-.13-.17-.17.17-.76.2-.26.26-.07.2.23.1-.03.13.17.23.13-.03.33.2.3.03-.03-.1.1-.17v-.23l.1-.17.36.13-.13.07.23.46.1-.03-.07-.2.1-.07v-.36l.36-.36.03.13.17.1.07.4.33.3.33-.43h.59l.1-.1.43-.03.07-.17-.07-.1.07-.13-.07-.17.4-.1.03-.26-.13-.43h.07l.07-.3-.1-.13.2-.36.1.03-.03.56.16-.17.23.13-.4.23.03.13-.17.03.23.56-.07.23.2.03.3-.17.03-.1.4-.26.2.03.13-.17v.03l.23-.1.23-.79.26.07.17-.2.1.07.2-.33.5-.5-.07-.13.13-.17-.03-.36.3.2v-.1l.3-.17.26-.73-.07-.13.3-.26.3-.63.07-.63.23-.26-.03-.5.2-.26.03-.36-.07-.2.13-.13-.07-.33.13-.33-.03-.26.13-.13-.13-.76Zm-6.44,8.12l.1-.07.03.17-.17.07.03-.17Zm-.46-13.56l-.13.13-.13-.13.07-.03.2-.3v.33Zm.66,14.59l-.17.17.03-.13-.07.13h-.4l-.03-.13.2-.2.03-.17.13-.1.36.03-.23.43.13-.03Zm1.85-13.99l-.23.1.03-.23.23-.03-.03.17Zm.43,13.04l-.26.13-.07-.3.07-.1h.26v.26Zm.66-13.04l-.26-.26-.3.3v-.17l.13-.17-.13-.1.2-.43v.07l.2-.36.26.13-.1.26.33.36-.4.26.07.1Zm.43,11.65l.13.33-.33.03-.17-.23.53-.26-.16.13Zm.36-11.68l.03-.1.13.13-.17-.03Z"/><polygon class="cls-2" points="200.4 290.17 200.57 290.17 200.66 290.04 200.5 289.81 200.33 289.81 200.4 290.17"/><path class="cls-2" d="m202.55,307.57v-.17l-.36.36-.2.03-.1-.33-.17-.03-.13.1v-.17h-.1l-.3.26.1.07-.3.33.2-.63-.1-.07.07-.17-.69-.4-.26-.4-.2.1v.4h-.1v-.23l.1-.1-.1-.53-.33.07-.03-.43-.36-.73.13-.1-.56.03.07-.3h.07l.07-.46-.07-.3.13-.36-.1-.3.03-.4-.17-.4.13-.2-.1-.07.03-.3.2-.33-.1-.1.07-.3-.1-.3v-.46l.07-.1-.17-.2.07-.3.1-.03-.03-.46-.1-.23.1-.13-.03-.66h.07v-1.02l.1-.17-.1-.1-.03-.53.1-.2v-.26l.13-.2-.17-.2.13-.49-.26.4.07-.03-.23.5-.07-.13.23-.63v-.4l.13-.26-.2-.2h.3l-.1-.43.23-.5.03-.79-.07.03.26-.17.1-.5-.13-.2.13-.07.03-.3.17-.36.17-.17.2-.43-.03-.99.2-.26.23-.13-.1-.17-.03-.36.07-.17-.63-.13-1.09.17.03.07-.1-.03-.2.26-.36-.07-.2.23-.33.03.03-.03-.3.23.07.13.36.26-.23.3-.2.46-.1-.1-.3-.07-.07-.4.1-.07-.03-.36-.13.17-.16-.07-.56.13-.03.17-.33.17-.66.53h.07l-.3.17h.03l-.2.07-.4.5-.23.17-.1.26-.26.13-.2.3v-.03l-.13.3-.23.23.1.23-.07.2-.56.43.33.23-.36.4-.17.66.03.33-.17.2-.26.1-.17.69-.1.13.1.13-.07.26.1.13-.23.5.1.1-.07.59-.13.23.2.66-.13.3.26.4-.17.63-.17.26.23.33.13.69-.03.33.26.59-.03.3.49-.03.07-.1.36.89-.03.17.26.99-.07.2.1.17.23.13.33.56.3.1.1-.23-.1-.46.1.03-.03-.2-.4.03.07-.2.56-.5-.1-.07v-.3l.33.07-.1.17.17.17-.13.2.13.2-.07.23h-.1l-.23.3.1.03-.1.53.17.46-.07.1.23.23-.03.07.13-.03.66.53.16-.1.03.2.13.03.07.23.3-.03.23.23.1-.03.17.4.3-.03.26.1.53-.07.03.13-.2.3.69.2.26-.33.23.13.1-.16-.03-.5.23-.23-.13-.13.13-.73-.13-.83.03-.33h-.07v-.17l.13.17h.1l.2.2.07.69.17.17h.1l-.03.46.07.17-.1.23.03.26-.1.3-.03.56-.1.26.2-.1.17.07.23-.07-.03-.26.26-.03.03-.16.2.03.13.13.03-.1.1.66h.2l.1.2.23-.07.1.07.33-.36.23-.13-.03-.1.2-.03v-.07h.23l.2.2.03-.2.23-.13-.03-.43.07-.03-.2-.1Zm-2.9-17.82l.03-.17h.03l.1.46-.16-.3Zm-.07-1.29h.13l.13.13-.3-.1h.07l-.03-.03Zm-.36,2.15h.1v.07h-.17l.07-.07Zm-3.73,13.99l.1.36-.16.3-.17-.03.13-.59-.07-.13.03-.26.1-.03.13.03.03.23-.13.13Zm2.84-15.38l.03-.13.1.23-.2-.13.07.03Zm-.17-.33l-.1.12v-.18l.1.07Zm-.12.25l.09.11-.1.13h-.1l.11-.24Zm-.54,18.36l.07-.2v-.17l.03.2-.1.17Zm.07-2.01l-.17-.03.17-.13v.07l.3-.03-.3.13Zm.26-1.32l-.1-.4.1-.03.23.23-.23.2Zm.73-14.42l-.13.03-.07.13-.46-.1.69-.26-.03.2Zm1.88,18.22v-.2h.13l-.13.2Z"/><polygon class="cls-2" points="207.83 292.32 207.79 292.32 207.83 292.35 207.83 292.32"/><path class="cls-2" d="m203.6,289.68l.23.03.17.36v-.03l.13.1.23-.03.23-.59.07.1.3.1.07.1.17-.5.26.03.07-.13-.17-.33.3-.26-.59-.07-.13-.23-.5.2-.03.1-.69-.56-.33-.07-.3.4v.33l-.23.03.03-.26-.23.1v.07l-.53.2-.07-.23.07-.07-.07-.17-.43-.23-.5-.07.17.3.03.4-.33.23-.13.4.1.13.03.53v-.1l.23-.1.03-.17.4.13.23-.4v.13l.23.2.03-.33.2.03.69-.2.1.36.2.13.26-.1Zm.86-.46v.13l-.03-.13h.03Zm-.5-.4h.3l-.2.13-.17.26.07-.4Z"/><polygon class="cls-2" points="208.85 290.6 208.78 291.13 209.05 291.39 209.38 291.33 209.08 291.13 209.25 290.57 208.85 290.6"/></svg>