<?xml version="1.0" encoding="UTF-8"?><svg id="_레이어_1" xmlns="http://www.w3.org/2000/svg" viewBox="0 0 300 315"><defs><style>.cls-1{fill:#e60012;stroke-width:0px;}</style></defs><path class="cls-1" d="m12.7,23.42c-2.73.04-5.17.12-6.94.29.12-1.4.12-6.16,0-7.56,5.41.37,17.4.37,22.73,0-.08,1.4-.08,6.16,0,7.56-1.82-.17-4.46-.25-7.31-.29v.08c.87,5.21,3.64,7.73,8.47,11.36.41.29.45.62-.08.99-2.07,1.45-4.34,3.72-5.45,5.17-3.02-2.48-5.45-4.75-7.02-7.31-1.9,2.93-4.46,5.58-7.52,7.52-1.24-1.53-3.76-3.35-5.78-4.79-.41-.29-.95-.58-.25-.99,5.58-3.26,8.39-7.44,9.17-12.02Zm-2.81-14.3c2.85.17,11.61.17,14.42,0-.08,1.36-.12,5,0,6.36-2.81-.17-11.57-.17-14.42,0,.08-1.36.08-5,0-6.36Zm34.21,11.36v8.55c-1.61-.08-3.26-.12-4.88-.08,0,6.53.04,12.85.17,14.92.04.74-.29.99-.83,1.12-1.78.41-6.28.33-8.02.29.17-8.72.17-32.81,0-37.97,1.9,0,5.66.08,8.1.25,1.2.08,1.53.5,1.24,1.32-.29.87-.41,1.78-.5,2.85-.08.95-.12,4.46-.17,8.84,1.65.04,3.26,0,4.88-.08Z"/><path class="cls-1" d="m57.62,10.9c6.94,0,11.65,3.64,11.65,14.21s-4.71,14.13-11.65,14.13-11.57-3.72-11.57-14.13,4.71-14.21,11.57-14.21Zm0,21.2c2.31,0,3.43-2.07,3.43-6.98,0-5.17-1.12-7.07-3.43-7.07s-3.43,2.07-3.43,7.07,1.16,6.98,3.43,6.98Zm24.05,12.93c-1.78.29-6.03.33-7.81.29.21-8.22.21-32.73,0-37.89,1.94,0,5.45.12,7.89.25,1.2.04,1.57.5,1.24,1.32-.33.87-.41,1.78-.5,2.85-.21,2.81-.25,27.56,0,32.07.04.74-.29,1.03-.83,1.12Z"/><path class="cls-1" d="m87.2,11.07c1.9-.04,5.95,0,8.43.25,1.16.12,1.53.5,1.2,1.32-.29.7-.41,1.36-.5,1.94-.17,1.07-.21,12.48-.08,14.46,3.43-.04,8.31-.62,12.15-1.57l1.45,8.31c-6.86,1.41-15.66,2.19-22.64,2.36.17-6.49.17-21.49,0-27.06Zm37.89,9.5v8.26c-1.61-.08-3.18-.12-4.79-.08,0,6.57.04,13.02.17,15.12.04.74-.29.99-.83,1.12-1.78.41-6.28.33-8.02.29.17-8.72.17-32.4,0-37.56,1.9,0,5.66.08,8.1.25,1.2.08,1.53.5,1.24,1.32-.29.87-.41,1.78-.5,2.85-.08.95-.12,4.3-.17,8.51,1.61.04,3.18,0,4.79-.08Z"/><path class="cls-1" d="m127.49,11.4c6.78.21,14.38.21,21.12,0v7.73c-3.97-.12-8.51-.12-12.48,0v2.48c3.76.17,8.02.17,11.78,0v7.07c-3.76-.12-8.02-.12-11.78,0v2.81c3.97.12,9.71-.29,14.38-1.24l.91,7.11c-5.17,1.03-16.49,1.78-23.97,1.74.25-10.21.29-17.48.04-27.68Zm38.43,9.01v8.55c-1.65-.08-3.26-.12-4.92-.08,0,6.57.04,12.93.17,15,.04.74-.29.99-.83,1.12-1.78.41-6.28.33-8.02.29.17-8.72.17-32.81,0-37.97,1.9,0,5.66.08,8.1.25,1.2.08,1.53.5,1.24,1.32-.29.87-.41,1.78-.5,2.85-.08.95-.12,4.42-.17,8.76,1.65.04,3.26,0,4.92-.08Z"/><path class="cls-1" d="m167.4,23.67c7.69.41,31.94.41,39.58,0-.12,1.36-.12,5.95,0,7.35-3.02-.17-8.64-.29-14.83-.33l.12,3.35c.04.74-.29.95-.83,1.07-1.78.41-6.12.37-7.85.33l.12-4.75c-6.74.04-13.06.12-16.32.33.12-1.4.12-5.99,0-7.35Zm3.97-7.97c0-4.63,3.97-7.93,16.03-7.93s15.99,3.31,15.99,7.93-3.97,7.52-15.99,7.52-16.03-2.81-16.03-7.52Zm.25,16.57c2.73-.08,5.87-.04,7.81.12,1.03.08,1.45.29,1.24.79-.21.54-.25.91-.29,1.16-.08.7-.17,1.94-.12,2.64,6.74.17,16.4.21,23.68,0v7.44c-10.04-.21-22.23-.21-32.31,0,.12-3.68.12-8.47,0-12.15Zm15.79-14.83c4.83,0,6.9-.62,6.9-1.86,0-1.07-2.07-1.74-6.9-1.74s-6.94.66-6.94,1.74c0,1.28,1.98,1.86,6.94,1.86Z"/><path class="cls-1" d="m89.29,53.82c-1.21,1.69-3.14,4.15-4.82,5.93-1.45-.53-4.29-1.64-7.04-2.9v27.79c.53.05,1.64.05,2.22.05,4,0,6.85-1.25,8.78-2.75l.39.58c-2.41,3.33-5.93,6.42-13.22,6.42-9.84,0-16.55-5.84-16.55-16.26,0-7.38,5.55-13.85,9.6-15.83l.63.43c-2.99,2.75-4.49,7.82-4.49,11.87,0,4.39.87,7.77,2.61,10.28,1.64-1.21,2.03-2.65,2.03-4.87v-14.33c4.15-3.18,6.85-5.55,9.7-8.06,4.1,1.64,5.93,2.32,7.91,2.32.43,0,.92-.29,1.54-1.21l.72.53Zm-12.74,2.61l-.53-.24-1.45,1.16v18.29s-3.57,2.22-6.75,4.44c1.98,2.51,4.92,4,8.73,4.54v-28.18Z"/><path class="cls-1" d="m104.97,63.91c-.43.34-.82.77-.82,2.17v16.79c-2.22,1.25-5.69,3.43-8.3,5.36-2.12-1.45-4.58-2.99-6.61-4.15v-.19c.58-.24.82-.87.82-1.88v-16.94c2.46-1.4,5.79-3.52,8.3-5.36,2.03,1.3,4.54,2.9,6.61,4v.19Zm-5.79,20.84v-19.11c-1.11-.77-2.75-1.79-4-2.51l-.14.05v19.11c1.06.77,2.94,1.93,4.05,2.56l.1-.1Z"/><path class="cls-1" d="m115.54,84.66l-3.76,3.57c-1.06-.82-3.23-2.36-4.58-3.23v-.19c.63-.39.82-.92.82-2.27v-17.95l-.63-.39c-1.01-.63-1.35-.63-1.88-.63l-.05-.19,3.76-3.62c1.06.82,3.14,2.32,4.58,3.28v.19c-.58.34-.82.82-.82,2.12v18.09c1.5.96,2.03,1.06,2.46,1.06l.1.15Zm-6.08-27.31l-1.54-1.69c1.35-1.35,4.58-4.83,5.4-6.03.39.48,1.35,2.56,1.79,3.67-1.16.96-4.1,3.09-5.65,4.05Z"/><path class="cls-1" d="m133.87,84.66c-.96.92-2.56,2.51-3.72,3.62-1.21-.92-3.62-2.61-4.63-3.28v-.19c.48-.29.82-.87.82-2.32v-17.37c-.87-.68-1.69-1.16-2.46-1.69,0,0-1.4,1.11-1.69,1.35v18.91c.58.48,1.01.72,1.64,1.21v.05c-1.16,1.01-2.51,2.27-3.52,3.28-1.45-1.11-2.99-2.32-3.91-2.99v-.19c.43-.34.82-.87.82-2.46v-18c-.92-.72-1.79-1.06-2.41-1.11l-.1-.1c1.4-1.3,2.46-2.32,3.67-3.62,1.54,1.21,3.28,2.46,4.39,3.23h.05l3.81-3.23c1.59,1.11,3.76,2.6,5.5,3.67v.19c-.53.39-.82.92-.82,1.93v17.9c.77.58,1.88,1.16,2.46,1.11l.1.1Z"/><path class="cls-1" d="m142.7,84.61c-.96.92-2.56,2.51-3.72,3.62-1.4-1.06-3.38-2.41-4.63-3.23v-.19c.58-.24.82-.87.82-2.32v-28.61c0-1.16-.1-1.93-.48-2.46l.19-.1c.68.19,1.64.97,2.03,1.98h.1c.63-1.64,2.07-3.18,3.76-3.67l.15.1c-.39.68-.77,1.54-.77,3.23v30.44c.77.58,1.88,1.16,2.46,1.11l.1.1Z"/><path class="cls-1" d="m158.91,63.91c-.43.34-.82.77-.82,2.17v16.79c-2.22,1.25-5.69,3.43-8.3,5.36-2.12-1.45-4.58-2.99-6.61-4.15v-.19c.58-.24.82-.87.82-1.88v-16.94c2.46-1.4,5.79-3.52,8.3-5.36,2.03,1.3,4.54,2.9,6.61,4v.19Zm-5.79,20.84v-19.11c-1.11-.77-2.75-1.79-4-2.51l-.15.05v19.11c1.06.77,2.94,1.93,4.05,2.56l.1-.1Z"/><path class="cls-1" d="m175.08,63.18c-.87.82-2.75,2.9-3.52,3.67h-.05c-1.4-.72-3.47-2.27-4.87-3.81l-.19.1v18.19c2.94,1.93,4.54,2.32,5.5,2.32.43,0,.77-.19.96-.39l.43-.48.77.72c-1.3,1.25-3.14,3.14-4.68,4.73-1.74-1.11-6.56-3.62-8.78-4.68v-.19c.43-.29.82-.68.82-1.98v-16.26c2.41-1.3,5.6-3.28,8.3-5.36,3.71,3.43,4.73,3.43,5.21,3.28l.1.14Z"/><path class="cls-1" d="m192.4,84.66c-.96.92-2.56,2.51-3.71,3.62,0,0-2.56-1.88-3.81-2.7v-8.06c0-2.32-1.06-3.33-2.56-3.96l-1.59,1.06v9.07c.58.48,1.01.72,1.64,1.21v.05c-.87.77-2.41,2.12-3.57,3.28-.96-.82-2.7-2.03-3.86-2.85v-.19c.48-.34.82-.87.82-2.46v-28.85c0-1.16-.1-1.93-.48-2.46l.19-.1c.72.24,1.69,1.01,2.03,1.98h.1c.67-1.69,1.93-3.09,3.76-3.67l.14.1c-.43.68-.77,1.54-.77,3.23v10.76l5.45-3.96c1.06,1.69,2.8,5.02,3.76,6.95.24-.15.53-.43.72-.72h.05c.1.29.43.97.43,1.16-1.54,1.11-3.28,2.36-5.07,3.57,1.54.72,3.76,2.07,3.76,4.54v8.2c.77.58,1.88,1.16,2.46,1.11l.1.1Zm-9.75-20.94l-1.93,1.25v8.4c1.64-1.11,3.47-2.46,5.07-3.62-.92-1.98-2.22-4.58-3.14-6.03Z"/><path class="cls-1" d="m198.67,73.94v7.38c2.94,1.88,4.15,2.36,5.02,2.36.34,0,.68-.19,1.01-.53l.43-.43.72.77c-1.11,1.06-3.42,3.38-4.63,4.73-2.07-1.3-5.89-3.47-8.35-4.68v-.19c.58-.43.82-.87.82-2.36v-17.37c2.51-.68,5.84-2.07,8.68-3.91,1.11,2.41,3.62,7.19,4.97,9.36-1.74,1.3-5.93,3.38-8.68,4.87Zm.24-11.05l-.24.05v9.75c1.5-.72,3.38-1.64,4.39-2.32-1.21-1.98-3.33-5.65-4.15-7.48Z"/><path class="cls-1" d="m218.64,68.93h-.19c-1.21-1.3-2.99-3.91-3.57-5.31l-1.01,1.06v17.56c2.32,1.45,2.75,1.64,3.47,1.64.34,0,.63-.29.92-.63l.43-.48.82.72c-2.85,2.85-4.68,4.73-4.68,4.73-2.03-1.35-4.25-2.56-6.75-3.76v-.19c.53-.48.82-.92.82-2.41v-17.27c-1.01-.77-1.69-1.06-2.41-1.11l-.1-.14c1.11-1.01,2.56-2.32,3.67-3.57,1.35,1.11,2.8,2.41,4,3.38,1.69-1.45,2.22-2.03,3.62-3.38.92,1.45,2.56,3.76,4.05,5.36-.96.96-2.17,2.56-3.09,3.81Z"/><path class="cls-1" d="m244.7,88.95c-8.93,0-16.36-6.08-16.36-16.11,0-7.62,5.36-14.04,9.65-16.02l.58.48c-2.99,2.75-4.54,8.01-4.54,12.06s.92,7.38,2.51,10.08c1.64-1.11,2.17-2.7,2.17-4.87v-14.38c4.25-3.04,6.71-5.36,9.7-8.01,4.1,1.64,6.42,2.32,8.4,2.32.43,0,.87-.34,1.54-1.21l.72.53c-1.69,2.32-1.88,2.51-3.04,3.86-2.56,2.99-1.25,1.45-4.25,4.92,6.51.14,11.39,4,11.39,11.34,0,9.65-10.13,15-18.48,15Zm1.16-32.52l-.53-.24-1.45,1.21v18.24s-3.71,2.27-6.9,4.49c2.12,3.23,5.26,5.36,8.88,5.98v-29.67Zm7.53,3.04c-2.22-.77-4.68-1.74-6.66-2.61v10.52h.14l6.51-7.91Zm3.67,11.72c-1.21-2.99-3.96-4.2-6.56-4.2-1.83,0-2.65.68-3.76,1.4v7.43l10.33-4.63Zm.77,4.15c-.05-1.35-.24-2.46-.53-3.43l-10.57,4.68v3.72l11.1-4.97Zm-11.1,5.74v5.11c.53.05,1.45.05,2.03.05,5.84,0,8.97-3.62,9.07-10.08l-11.1,4.92Z"/><path class="cls-1" d="m273.6,84.66l-3.76,3.57c-1.06-.82-3.23-2.36-4.58-3.23v-.19c.63-.39.82-.92.82-2.27v-17.95l-.63-.39c-1.01-.63-1.35-.63-1.88-.63l-.05-.19,3.76-3.62c1.06.82,3.14,2.32,4.58,3.28v.19c-.58.34-.82.82-.82,2.12v18.09c1.5.96,2.03,1.06,2.46,1.06l.1.15Zm-6.08-27.31l-1.54-1.69c1.35-1.35,4.58-4.83,5.4-6.03.39.48,1.35,2.56,1.79,3.67-1.16.96-4.1,3.09-5.65,4.05Z"/><path class="cls-1" d="m285.08,68.93h-.19c-1.21-1.3-2.99-3.91-3.57-5.31l-1.01,1.06v17.56c2.32,1.45,2.75,1.64,3.47,1.64.34,0,.63-.29.92-.63l.43-.48.82.72c-2.85,2.85-4.68,4.73-4.68,4.73-2.03-1.35-4.25-2.56-6.75-3.76v-.19c.53-.48.82-.92.82-2.41v-17.27c-1.01-.77-1.69-1.06-2.41-1.11l-.1-.14c1.11-1.01,2.56-2.32,3.67-3.57,1.35,1.11,2.8,2.41,4,3.38,1.69-1.45,2.22-2.03,3.62-3.38.92,1.45,2.56,3.76,4.05,5.36-.96.96-2.17,2.56-3.09,3.81Z"/><path class="cls-1" d="m297.05,84.61c-.96.92-2.56,2.51-3.71,3.62-1.4-1.06-3.38-2.41-4.63-3.23v-.19c.58-.24.82-.87.82-2.32v-28.61c0-1.16-.1-1.93-.48-2.46l.19-.1c.67.19,1.64.97,2.03,1.98h.1c.63-1.64,2.07-3.18,3.76-3.67l.14.1c-.39.68-.77,1.54-.77,3.23v30.44c.77.58,1.88,1.16,2.46,1.11l.1.1Z"/><path class="cls-1" d="m138.33,299.62c-.43.68-1.98,3.28-2.74,4.43-3.49-.07-4.61-.9-7.88-.9-.86,0-1.26.32-1.55.97l-.5-.18c2.09-6.95,8.1-9.21,8.1-13.35,0-3.06-2.09-4.43-5.18-4.43-.76,0-1.37.4-1.73.83l-.5-.29c.61-.97,1.98-3.38,2.38-4.14,5.25.4,8.6,2.27,8.6,6.77s-6.01,6.98-8.24,10.51l.07.07c.47-.07.97-.18,1.48-.18,1.66,0,3.6.79,5.58.79.72,0,1.22-.72,1.55-1.26l.58.36Z"/><path class="cls-1" d="m150.9,300.12c-1.87,1.08-4.57,2.95-6.88,4.61-3.28-1.48-4.68-3.42-4.68-7.77v-9.58c2.16-1.26,4.64-2.88,6.91-4.61,3.63,1.87,4.64,3.02,4.64,8.32v9.03Zm-3.74,1.73v-10.15c0-4.1-.61-5.11-3.67-6.23l-.4.29v10.66c0,2.99.61,4.82,3.78,5.65l.29-.22Z"/><path class="cls-1" d="m160.44,282.85c-.43.4-.68.86-.68,2.27,0,0,.04,12.27,0,18.93-1.22.58-3.13,2.12-4.25,3.38l-.4-.22c.58-.83.97-1.87.97-3.02v-16.85l-.04-.04c-1.01.83-2.52,2.66-2.99,3.24l-.11-.04-.25-1.51c2.92-2.84,5.18-5.08,7.34-6.66l.4.5Z"/><path class="cls-1" d="m173.97,282.85l-2.27,4c-1.62,0-4.46-.83-6.19-.83l-1.19,3.17c5.79,0,9.04,2.38,9.04,7.49,0,5.79-3.96,11.05-10.98,13.07l-.29-.47c4.93-2.66,7.42-6.37,7.42-12.17,0-3.17-2.02-4.68-4.79-4.68-.83,0-1.91.29-2.12.47l-.47-.32,3.56-9.9c1.73.18,4.9.83,6.37.83.68,0,.9-.22,1.4-.9l.5.25Z"/></svg>