<?xml version="1.0" encoding="UTF-8"?><svg id="_레이어_1" xmlns="http://www.w3.org/2000/svg" viewBox="0 0 300 315"><defs><style>.cls-1{fill:#008f41;stroke-width:0px;}</style></defs><path class="cls-1" d="m122.95,108.6h-22.77v-56.54h-18.26v21.99H4.18V7.69h77.75v21.79h18.26V3.76h22.77v104.84Zm-63.81-55.56v-24.34H26.95v24.34h32.2Zm98.75,55.56h-22.77V3.76h22.77v104.84Z"/><path class="cls-1" d="m255.86,75.03h-22.77V28.7h-54.97V7.69h77.75v67.34Zm39.26,33.57h-22.77V3.76h22.77v104.84Z"/><path class="cls-1" d="m23.4,189.61v7.43H5.58v-.72c0-5.65,3.58-9.76,5.33-11.58s3.27-3.18,3.27-4.28c0-.97-.72-1.81-2.04-1.81-2.33,0-3.91,1.89-4.47,4.06h-.63v-8.86c.82-.63,3.57-2.32,8.01-2.32s8.33,2.48,8.33,6.83c0,3.78-2.69,6.11-4.21,7.7-1.58,1.64-2.82,2.57-3.17,3.55h7.4Z"/><path class="cls-1" d="m49.27,184.54c0,7.72-5.36,13.02-12.69,13.02s-12.69-5.3-12.69-13.02,5.36-13.02,12.69-13.02,12.69,5.29,12.69,13.02Zm-9.64,0c0-3.75-1.27-5.27-3.04-5.27s-3.04,1.52-3.04,5.27,1.28,5.27,3.04,5.27,3.04-1.52,3.04-5.27Z"/><path class="cls-1" d="m50.7,197.02v-24.97h8.47v24.97h-8.47Z"/><path class="cls-1" d="m81.62,183.94c0,8.25-5.75,13.62-12.8,13.62-3.02,0-5.48-1.19-6.06-1.63v-7.24h.5c.44,1.03,2.41,2.24,4.64,2.24,3.47,0,5.16-2.45,5.16-4.8-.61.68-2.39,1.71-5.1,1.71-4.08,0-7.36-3.43-7.36-7.8,0-4.89,4.21-8.52,9.8-8.52,6.04,0,11.22,4.12,11.22,12.42Zm-8.6-3.9c0-1.47-.74-2.51-1.92-2.51-1.12,0-1.92,1.04-1.92,2.51s.83,2.51,1.92,2.51,1.92-1.04,1.92-2.51Z"/><path class="cls-1" d="m29,122.21h17.93v31.56h-11.78v-21.09l-3.9,21.09h-11.06l-3.49-21.09v21.09H4.94v-31.56h18.19l2.69,17.62,3.19-17.62Z"/><path class="cls-1" d="m75.18,130.46v23.3h-10.4v-1.66c0-.19,0-.67,0-1.13v-1.03c-.95,2.36-3.42,4.51-6.75,4.51-5.58,0-9.53-4.48-9.53-12.4s3.95-12.26,9.53-12.26c3.28,0,5.82,2.51,6.75,4.58v-3.91h10.4Zm-10.41,11.59c0-2.23-1.06-3.57-2.71-3.57s-2.71,1.34-2.71,3.57,1.06,3.75,2.71,3.75,2.71-1.53,2.71-3.75Z"/><path class="cls-1" d="m103.31,130.46v22.31c0,6.51-6.09,12.05-14.07,12.05-3.85,0-6.09-1.13-7.77-1.98v-7.76h.39c.77,1.03,2.65,2.2,5.26,2.2,2.97,0,5.73-1.61,5.78-5.62,0-.63.01-1.61,0-1.72-.95,2.36-3.42,4.51-6.75,4.51-5.58,0-9.53-4.48-9.53-12.4s3.95-12.26,9.53-12.26c3.28,0,5.82,2.52,6.75,4.58,0-.01.01-.03.04-.05l-.04-1.14v-2.72h10.4Zm-10.41,11.59c0-2.23-1.06-3.57-2.71-3.57s-2.71,1.34-2.71,3.57,1.06,3.75,2.71,3.75,2.71-1.53,2.71-3.75Z"/><path class="cls-1" d="m131.45,130.46v22.31c0,6.51-6.09,12.05-14.07,12.05-3.85,0-6.09-1.13-7.77-1.98v-7.76h.39c.77,1.03,2.65,2.2,5.26,2.2,2.97,0,5.73-1.61,5.78-5.62,0-.63.01-1.61,0-1.72-.95,2.36-3.42,4.51-6.75,4.51-5.58,0-9.53-4.48-9.53-12.4s3.95-12.26,9.53-12.26c3.28,0,5.82,2.52,6.75,4.58,0-.01.01-.03.04-.05l-.04-1.14v-2.72h10.4Zm-10.41,11.59c0-2.23-1.06-3.57-2.71-3.57s-2.71,1.34-2.71,3.57,1.06,3.75,2.71,3.75,2.71-1.53,2.71-3.75Z"/><path class="cls-1" d="m133.21,124.5c0-2.65,1.87-4.45,5.53-4.45,3.35,0,5.53,1.8,5.53,4.45s-2.18,4.45-5.53,4.45c-3.66,0-5.53-1.8-5.53-4.45Zm.33,29.29v-23.3h10.4v23.3h-10.4Z"/><path class="cls-1" d="m169.87,143.49h-13.97c.29,1.34,2.14,3.07,5.74,3.07,2.62,0,4.53-.96,5.52-1.4v7.69c-1.94,1.01-4.85,1.61-8.46,1.61-7.65,0-13.48-5.3-13.48-12.1s5.29-12.55,12.85-12.55,11.85,6.06,11.85,10.98c0,1.28.02,2.28-.04,2.71Zm-8.3-4.73c-.14-.95-.84-2.3-2.87-2.3-1.92,0-2.72,1.25-2.85,2.3h5.72Z"/></svg>