<?xml version="1.0" encoding="utf-8"?>
<!-- Generator: Adobe Illustrator 28.0.0, SVG Export Plug-In . SVG Version: 6.00 Build 0)  -->
<svg version="1.1" id="_레이어_1" xmlns="http://www.w3.org/2000/svg" xmlns:xlink="http://www.w3.org/1999/xlink" x="0px"
	 y="0px" viewBox="0 0 300 315" style="enable-background:new 0 0 300 315;" xml:space="preserve">
<style type="text/css">
	.st0{fill:#FF008F;}
</style>
<path class="st0" d="M51.12,16.85c0,0.75-1.2,0.75-1.72,0.75H34.75c0,3.07-1.05,9.2-1.05,9.2c2.92,1.05,16.75,7.33,16.75,14.43
	c0,2.39-2.24,4.26-4.56,4.26c-5.68,0-9.27-12.19-13.23-15.63c-3.44,9.2-13.23,16.75-23.18,16.75H9.4
	c10.17-8.67,15.18-18.47,14.35-29.01h-6.21c-1.64,0-3.36,0.45-4.93,0.75h-0.3l-1.87-3.51c3.74-0.22,4.78,0.3,8.52,0.3h4.71V6.23
	c2.09-0.15,11.74,0.9,13.31,1.57c0.15,0.07,0.6,0.22,0.6,0.45c0,1.35-2.77,2.62-2.92,6.88h4.49c1.42-1.27,1.72-3.21,3.36-4.34
	C44.45,10.49,51.11,14.6,51.12,16.85L51.12,16.85z M13.96,71.35V53.33h0.3c4.19,0.37,14.8,0.37,14.8,3.81
	c0,2.17-4.04,2.02-4.04,3.66v8.67c0,0.45,0.45,2.09,1.05,2.09h32.37c0.9-1.35,4.78-5.23,6.21-5.68c2.32,0.37,10.69,4.26,10.69,6.88
	c0,1.42-3.66,1.42-4.64,1.42H18.07c-1.87,0-4.11-0.6-4.11-2.84L13.96,71.35z M60.46,55.72V6.16c2.02,0,15.03,0.9,15.03,2.99
	s-3.96,1.72-3.96,3.89v40.82c0,1.72-7.33,2.47-8.75,2.47c-0.75,0-1.79,0.08-2.32-0.6V55.72z"/>
<path class="st0" d="M124.91,11.61c0,0.75-1.27,0.75-1.72,0.75h-14.35c0.15,3.81-0.22,7.7-1.42,11.44
	c5.61,2.02,16.82,6.43,16.82,13.68c0,2.39-2.24,4.34-4.56,4.34c-5.31,0-9.57-11.74-13.31-14.95c-4.41,7.85-13.08,15.93-23.18,14.73
	c7.78-7.63,14.73-13.76,14.73-25.57c0-1.2-0.15-2.47-0.15-3.66h-6.43c-1.64,0-3.36,0.45-4.93,0.75h-0.3l-1.87-3.59
	c2.09-0.15,4.49,0.3,6.58,0.3h22.13c1.5-1.05,2.02-3.07,3.36-4.26c1.94-0.3,8.6,3.81,8.6,6.06V11.61z M148.46,49.97
	c0.07,1.42-2.39,2.02-3.29,2.39h0.15V64.7c0,1.05-6.13,1.42-7.18,1.42c-2.17,0-3.81,0.08-3.89-2.62H98.89v8.15
	c0,0.9,0.37,1.57,1.35,1.57l34.92-0.07c0.9-0.97,3.81-3.81,5.08-3.81c1.57,0,7.78,4.11,7.78,5.76c0,0.67-1.64,0.67-2.09,0.67H90.9
	c-2.09,0-3.07-1.35-3.07-3.36V58.43c1.57,0,10.84,1.27,11.06,2.54h35.36v-9.5H94.92c-2.17,0-4.34,0.45-6.5,0.75H88.2l-1.87-3.74
	c2.02-0.22,4.78,0.37,6.95,0.37c13.38,0,26.77-0.07,40.22-0.22c1.57-1.27,3.81-2.99,5.23-2.99c3.07,1.2,7.18,2.24,9.72,4.34
	L148.46,49.97z M149.28,8.4c0,2.17-3.96,1.94-3.96,3.89v27.96c-1.64,2.32-5.46,2.99-8.15,2.99c-0.45,0-2.92,0-2.92-0.67V24.7h-9.64
	c-2.09,0-4.11,0.67-6.13,1.12h-0.3c-0.52-1.27-1.35-2.69-1.64-4.04c3.21-0.15,6.8,0.37,10.09,0.37h7.63V5.33
	c1.94-0.15,15.03,1.12,15.03,3.07L149.28,8.4z"/>
<path class="st0" d="M155.86,17.59L153.99,14c2.32-0.15,5.08,0.3,7.48,0.3h6.58V6.23c1.94-0.15,14.28,0.75,14.28,2.32
	s-3.07,2.17-3.21,5.76l4.71-0.07c0.97-1.49,2.17-2.84,3.44-4.19c1.94-0.22,8.9,3.81,8.9,6.06c0,0.75-1.49,0.75-2.02,0.75h-32.97
	c-1.72,0-3.36,0.75-5.08,0.75h-0.22L155.86,17.59z M193.02,35.38c0,10.62-10.17,13.23-18.92,13.23c-8.22,0-18.92-2.77-18.92-12.86
	c0-11.29,9.35-13.98,18.84-13.98C182.84,21.77,193.01,24.76,193.02,35.38L193.02,35.38z M158.1,71.72V53.25
	c4.49,0,14.88,1.2,15.03,3.89c0.15,2.09-4.04,1.72-4.04,3.59v9.12c0,0.52,0.45,1.72,1.12,1.72l32.22-0.07
	c1.49-1.65,4.19-4.86,6.21-5.61c2.09,0.52,9.87,4.64,9.87,6.95c0,1.35-3.07,1.35-3.96,1.35h-52.34
	C160.57,74.19,158.1,73.82,158.1,71.72z M181.95,35.76c0-5.38-1.42-11.44-8-11.44s-7.7,6.21-7.7,11.44s2.02,10.32,7.85,10.32
	C180.38,46.08,181.95,41.15,181.95,35.76L181.95,35.76z M227.33,37.4c0,1.05-4.49,1.05-5.31,1.05h-6.5v16.52
	c0,2.02-7.18,2.54-8.67,2.54c-0.67,0-1.87,0.07-2.32-0.6V6.53c1.94-0.22,15.03,0.9,15.03,2.99c0,2.24-4.04,0.9-4.04,3.89v22.58
	l0.6-0.07c1.27-1.42,2.54-2.84,4.19-3.81h0.15c1.72,0.75,6.88,3.29,6.88,5.31L227.33,37.4z"/>
<path class="st0" d="M81.25,121.74c0,0.67-1.57,0.67-2.02,0.67H13.28c-2.54,0-5.08,0.82-7.55,0.82H5.51l-1.87-3.59
	c2.92-0.15,6.13,0.3,9.12,0.3l41.57-0.07c4.49-3.44,5.61-16,5.61-21.38c0-1.35-0.22-2.62-0.07-3.96H19.12
	c-2.09,0-4.11,0.67-6.13,1.12h-0.3c-0.45-1.42-1.12-2.69-1.64-4.04c2.47-0.15,5.31,0.37,7.85,0.37l40.22-0.08
	c1.35-1.12,3.96-3.21,5.68-3.21c3.51,0.82,9.64,3.36,9.64,5.46c0,1.64-2.24,2.09-3.51,2.24c-0.08,6.13-2.47,19.59-7.85,23.55h3.89
	c1.5-1.57,2.92-3.59,4.78-4.64C73.92,115.67,81.25,119.26,81.25,121.74L81.25,121.74z M63.16,129.66c1.64,0,10.02,3.36,10.02,5.08
	c0,1.35-2.32,2.24-3.36,2.62h0.15v16.82c0,2.99-5.98,3.59-8.15,3.59c-3.21,0-2.84-1.05-2.84-3.81H23.6
	c-0.08,2.62-6.21,3.81-8.22,3.81c-0.67,0-2.84,0.07-2.84-0.97v-26.62c1.27-0.15,10.54,1.5,10.84,2.84h34.24
	C58.67,132.27,62.18,129.66,63.16,129.66L63.16,129.66z M23.61,151.42h35.36v-15.93H23.6v15.93L23.61,151.42z"/>
<path class="st0" d="M116.16,153.89c-6.5,0-7.4-12.04-8-16.67c-0.67-5.46-1.72-11.51-4.04-16.6c-0.67,13.98-7.1,31.78-22.73,33.79
	c12.19-10.84,13.08-33.79,13.08-49.35c0-3.36-0.22-6.73-0.22-10.09h-5.61c-1.65,0-3.36,0.75-4.93,0.75h-0.3l-1.94-3.59
	c2.09-0.15,4.49,0.3,6.65,0.3l21.76-0.07c1.35-1.12,1.94-2.92,3.36-4.11c1.87-0.3,8.6,3.74,8.6,5.98c0,0.97-5.68,0.75-6.58,0.75
	h-9.94c0.15,7.03,0.15,14.13-0.9,21.08c7.1,5.68,16.3,22.65,16.3,31.85C120.72,150.75,119.52,153.89,116.16,153.89L116.16,153.89z
	 M154.37,124.73c0,1.12-4.56,0.9-5.38,0.9h-6.43v27.66c0,1.79-7.48,2.47-8.9,2.47c-0.67,0-1.57,0-2.09-0.6V88.02
	c1.94-0.22,15.03,0.9,15.03,2.99c0,2.32-4.04,1.87-4.04,3.89v28.19h0.52c0.75-1.35,2.99-3.07,4.26-3.89h0.15
	C149.13,119.87,154.37,122.86,154.37,124.73L154.37,124.73z"/>
<path class="st0" d="M200.94,153.89c-5.76,0-5.98-7.25-6.13-11.44c-0.15-4.86-0.97-10.92-3.44-15.1
	c0.15,9.87-3.96,26.54-15.93,26.54h-0.08c1.65-2.69,4.86-8.22,4.86-11.29h0.07c-2.99-2.24-5.68-11.07-7.18-14.73
	c0.3,10.92-4.49,25.12-16.37,26.92h-0.07c9.94-14.5,6.73-48.15,7.48-65.79c0.97-0.15,13.68,1.57,13.68,2.99
	c0,2.02-3.74,1.64-3.74,4.34c0,9.05-0.6,18.17-0.6,27.21h-0.07c3.21,2.24,6.8,4.49,8.97,7.78V89c0.75-0.15,13.68,1.35,13.68,2.99
	c0,2.17-3.74,1.49-3.74,4.34c0,9.05-0.6,18.17-0.6,27.21h-0.07c7.55,5.01,13.83,15.4,13.83,24.6c0,2.77-1.35,5.76-4.56,5.76
	L200.94,153.89z M209.91,155.16V88.02c2.02,0,15.03,0.9,15.03,2.99c0,2.47-3.96,1.79-3.96,3.89v58.39c0,1.72-7.33,2.47-8.75,2.47
	C211.48,155.76,210.44,155.83,209.91,155.16L209.91,155.16z"/>
<path class="st0" d="M225.86,296.69c0.22-0.35,0.44-0.52,0.65-0.52c0.35,0,0.22,0.35,0.04,0.65c-0.79,1.35-1.53,2.31-2.49,3.88
	c-1.57,2.53-1.92,3.75-2.44,5.45c-0.22,0.65-0.52,1.09-1.27,1.09c-0.79,0-1.88-0.22-3.88-0.22h-7.5c-3.8,0-5.45,0.22-5.93,0.22
	c-0.44,0-0.65-0.17-0.65-0.35c0-0.26,0.22-0.57,0.61-0.92c8.33-6.98,22.9-19.63,22.9-28.23c0-2.44-1.05-3.88-3.8-3.88
	c-4.49,0-8.46,4.23-10.38,10.51c-0.09,0.39-0.22,0.61-0.52,0.61c-0.26,0-0.31-0.26-0.22-0.61c2.4-7.76,7.5-12.96,12.78-12.96
	c3.71,0,5.32,2.01,5.32,5.28c0,9.47-15.53,21.11-21.73,26.31c-0.52,0.48-0.96,0.96-0.96,1.27s0.26,0.48,0.92,0.48h9.29
	c3.4,0,4.58-0.61,9.25-8.07L225.86,296.69z"/>
<path class="st0" d="M228.56,300.01c0-8.73,6.85-28.57,16.49-28.57c3.8,0,5.5,3.01,5.5,7.59c0,8.72-6.98,28.66-16.58,28.66
	C230.18,307.69,228.56,304.64,228.56,300.01z M234.19,306.99c7.5,0,13.87-22.6,13.87-29.67c0-3.18-0.92-5.19-3.23-5.19
	c-7.46,0-13.96,22.82-13.96,29.75c0,3.23,1,5.1,3.32,5.1V306.99z"/>
<path class="st0" d="M250.68,300.01c0-8.73,6.85-28.57,16.49-28.57c3.8,0,5.5,3.01,5.5,7.59c0,8.72-6.98,28.66-16.58,28.66
	C252.3,307.69,250.68,304.64,250.68,300.01z M256.31,306.99c7.5,0,13.87-22.6,13.87-29.67c0-3.18-0.92-5.19-3.23-5.19
	c-7.46,0-13.96,22.82-13.96,29.75c0,3.23,1,5.1,3.32,5.1L256.31,306.99z"/>
<path class="st0" d="M267.09,305.29c0-0.92,0.87-1.7,1.75-1.7s1.27,0.57,1.57,1.26c0.48,1.05,1.09,2.14,3.49,2.14
	c5.85,0,10.91-12,10.91-17.14c0-3.05-1.44-4.36-3.8-4.36c-1.7,0-3.36,0.61-4.67,1.75c-0.31,0.26-0.57,0.35-0.79,0.35
	c-0.52,0-0.44-0.65-0.17-1.13l6.28-12.39c0.57-1.09,0.7-2.05,1.48-2.05c0.48,0,1.13,0.13,2.49,0.13h4.45c1.75,0,2.7-0.22,3.23-0.22
	c0.13,0,0.17,0.09,0.17,0.26c0,0.83-0.83,2.4-2.49,2.4h-7.37c-1.13,0-1.79,0.39-2.31,1.48l-4.49,8.94
	c-0.09,0.26-0.22,0.57,0.04,0.57c0.13,0,0.35-0.09,0.52-0.26c1.66-1.26,3.58-1.79,5.28-1.79c3.49,0,5.28,2.44,5.28,6.02
	c0,7.15-6.67,18.19-15.31,18.19c-3.01,0-5.54-1.05-5.54-2.44L267.09,305.29z"/>
<path class="st0" d="M80.37,165.74c0.34,0,0.46,0.08,0.46,0.31s-0.11,0.31-0.42,0.31c-2.33,0-4.16,0.46-5,3.25l-7.33,24.05
	c-0.53,1.79-0.38,2.29,1.22,2.29h3.89c3.32,0,4.73-1.45,9.16-8.25c0.27-0.38,0.46-0.57,0.65-0.57c0.23,0,0.23,0.23,0,0.57
	c-1.87,3.02-2.94,4.85-3.93,7.98c-0.19,0.61-0.42,0.99-1.11,0.99c-0.76,0-1.57-0.19-3.28-0.19h-9.09c-1.26,0-3.21,0.19-4.58,0.19
	c-0.34,0-0.46-0.08-0.46-0.3s0.11-0.31,0.42-0.31c2.33,0,4.16-0.46,5-3.25l7.1-23.21c0.84-2.79-0.42-3.25-2.79-3.25
	c-0.27,0-0.42-0.08-0.42-0.31s0.15-0.31,0.46-0.31c1.41,0,3.32,0.19,4.58,0.19h0.92C77.08,165.92,78.99,165.73,80.37,165.74
	L80.37,165.74z"/>
<path class="st0" d="M84.18,192.39c0-6.53,6.07-16.49,11.19-16.49c1.68,0,2.56,1.03,2.94,2.9c0.11,0.84,0.42,0.88,0.69,0.08
	l0.27-0.73c0.23-0.61,0.42-0.84,0.92-0.84c0.8,0,1.41-1.57,2.1-1.57c0.27,0,0.38,0.23,0.19,0.53c-1.6,3.17-3.21,6.3-4.39,10.08
	l-1.76,5.31c-0.61,1.76-0.61,2.75,0.23,2.75c0.92,0,2.21-1.57,4.66-7.02c0.23-0.46,0.38-0.61,0.61-0.61s0.27,0.11,0.08,0.57
	c-1.99,4.5-4.28,9.35-6.6,9.35c-1.53,0-1.83-0.8-1.83-1.76c0-0.8,0.31-1.72,0.8-3.09l0.57-1.72c0.15-0.46,0.04-0.73-0.19-0.73
	c-0.27,0-0.53,0.23-0.73,0.61c-1.03,1.87-4.01,6.91-6.72,6.91c-2.06,0-3.02-1.95-3.02-4.54L84.18,192.39z M88.15,194.91
	c2.71,0,6.22-5.46,8.21-10.69c0.46-1.37,0.92-2.86,0.92-4.39c0-1.95-0.5-3.05-1.87-3.05c-4.28,0-8.82,9.12-8.82,15.04
	C86.59,194.15,87.16,194.91,88.15,194.91L88.15,194.91z"/>
<path class="st0" d="M102.39,192.39c0-6.53,6.07-16.49,11.19-16.49c1.57,0,2.37,0.88,2.86,2.6c0.19,0.8,0.57,0.84,0.84,0.04
	l3.05-9.2c0.5-1.6,0.69-2.6-0.99-2.6c-0.8,0-1.68,0.04-2.21,0.04c-0.27,0-0.46-0.04-0.46-0.27c0-0.27,0.23-0.34,0.65-0.34
	c1.26,0,4.08-0.15,5.27-0.8c0.57-0.27,1.03-0.57,1.45-0.57c0.38,0,0.34,0.15,0.15,0.65c-1.41,3.59-5.38,13.44-6.76,17.98l-2.56,8.21
	c-0.61,1.76-0.61,2.75,0.23,2.75c0.92,0,2.21-1.57,4.62-7.06c0.23-0.46,0.38-0.61,0.61-0.61s0.27,0.11,0.08,0.57
	c-1.95,4.5-4.2,9.39-6.53,9.43c-1.53,0-1.83-0.8-1.83-1.76c0-0.8,0.27-1.72,0.73-3.13l0.8-2.48c0.15-0.46,0.04-0.73-0.19-0.73
	c-0.27,0-0.5,0.23-0.73,0.61c-0.88,1.87-3.93,7.75-7.29,7.75C103.27,196.98,102.39,195.07,102.39,192.39L102.39,192.39z
	 M106.32,194.99c3.36,0,6.91-6.99,8.28-10.96c0.38-1.15,0.84-2.52,0.88-4.2c0-1.6-0.5-3.05-1.87-3.05c-4.28,0-8.82,9.43-8.82,15.35
	C104.79,194.08,105.32,194.99,106.32,194.99z"/>
<path class="st0" d="M115.26,204.03c0-0.96,0.84-1.72,1.87-1.72c1.22,0,1.68,1.03,3.21,1.03c1.11,0,4.66-2.56,5.08-7.1
	c0.53-5.88,0.65-12.14,0.61-15.31c0-2.75-0.27-2.98-0.92-2.98c-0.92,0-2.1,2.52-3.13,4.7c-0.27,0.57-0.69,0.34-0.5-0.15
	c0.8-2.33,2.41-6.49,4.43-6.49c1.64,0,2.18,1.3,2.21,4.77c0,2.98-0.11,8.02-0.65,14.55c-0.08,0.84,0.27,0.96,0.73,0.27
	c4.39-6.45,5.99-11.26,5.99-14.51c0-2.06-0.99-3.05-0.99-4.12c0-0.53,0.34-1.11,1.07-1.11c0.99,0,1.57,1.11,1.57,3.63
	c0,4.08-2.52,9.47-6.53,15.19c-4.12,5.92-7.9,10.54-12.37,10.54c-1.15,0-1.68-0.53-1.68-1.18L115.26,204.03z"/>
<path class="st0" d="M150.99,166.35c-0.23,0-0.31-0.08-0.31-0.31s0.08-0.31,0.34-0.31c0.8,0,2.18,0.19,3.21,0.19h0.99
	c1.6,0,4.08-0.19,5.88-0.19c0.42,0,0.57,0.08,0.57,0.31s-0.15,0.31-0.53,0.31c-3.02,0-5.08,0.5-5.27,3.4l-1.41,22.3
	c-0.08,0.84,0.27,0.95,0.76,0.27l15.84-23.21c1.68-2.41,0.23-2.75-2.79-2.75c-0.38,0-0.53-0.08-0.53-0.31s0.15-0.31,0.61-0.31
	c1.6,0,3.63,0.19,5.34,0.19c0.99,0,2.25-0.19,3.25-0.19c0.27,0,0.34,0.08,0.34,0.31s-0.08,0.31-0.31,0.31
	c-1.87,0-3.59,0.34-5.23,2.75l-18.86,27.79c-0.08,0.11-0.23,0.19-0.34,0.19h-0.57c-0.11,0-0.19-0.08-0.19-0.19l1.76-27.14
	c0.19-2.9-0.99-3.4-2.56-3.4L150.99,166.35z"/>
<path class="st0" d="M167.25,191.78c0-6.11,5.23-15.88,10.54-15.88c1.79,0,3.02,0.92,3.02,2.63c0,3.09-3.44,6.91-9.2,8.7
	c-0.84,0.19-1.64,1.07-1.79,1.87c-0.19,0.95-0.27,1.83-0.27,2.6c0,2.33,1.11,3.36,2.67,3.36c2.56,0,4.96-2.9,7.18-7.6
	c0.27-0.57,0.84-0.31,0.57,0.23c-2.1,4.2-4.81,9.28-8.67,9.28C168.78,196.97,167.25,195.02,167.25,191.78L167.25,191.78z
	 M171.68,186.78c4.81-1.6,7.06-5,7.06-8.17c0-0.92-0.27-1.91-1.34-1.91c-2.71,0-5.34,4.54-6.76,9.05
	C170.41,186.55,170.87,187.01,171.68,186.78L171.68,186.78z"/>
<path class="st0" d="M186.69,178.18c-0.92-0.04-2.56,1.49-5.15,6.87c-0.23,0.46-0.38,0.61-0.61,0.61s-0.31-0.15-0.08-0.57
	c2.1-4.43,4.85-9.24,7.18-9.16c1.49,0.04,1.79,0.84,1.76,1.79c0,0.8-0.38,1.68-0.92,3.05l-1.22,3.13c-0.23,0.57-0.08,0.73,0.08,0.73
	s0.42-0.11,0.65-0.53c3.55-6.18,5.99-8.21,8.06-8.21c1.45,0,2.21,0.92,2.21,2.37c0,2.75-2.52,7.83-4.89,13.59
	c-0.69,1.72-0.76,2.71,0.08,2.75c0.92,0.04,2.29-1.45,5-6.8c0.27-0.42,0.42-0.57,0.65-0.57s0.27,0.15,0.04,0.61
	c-2.18,4.35-4.73,9.12-7.06,9.01c-1.53-0.08-1.76-0.92-1.72-1.87c0.04-0.76,0.31-1.72,0.8-3.09c2.14-5.38,4.73-10.84,4.73-12.83
	c0-0.95-0.31-1.41-0.92-1.41c-2.06,0-6.83,5-9.58,12.98c-0.95,2.94-0.46,4.31-0.69,5.12c-0.23,0.76-1.03,1.22-1.95,1.22
	c-1.11,0-1.6-0.8-0.73-3.4l4.43-12.64C187.49,179.21,187.53,178.18,186.69,178.18L186.69,178.18z"/>
<path class="st0" d="M195.2,200.71c0-2.48,3.25-3.44,6.76-4.05c0.5-0.11,0.61-0.27,0.04-0.57c-0.84-0.5-1.95-1.3-1.95-2.37
	c0-2.02,3.17-2.71,5.19-2.94c0.42-0.04,0.31-0.19,0.04-0.27c-1.79-0.53-3.02-2.52-3.02-5c0-4.89,3.89-9.7,8.06-9.7
	c1.26,0,2.29,0.5,3.02,1.3c0.15,0.19,0.31,0.19,0.46,0.08c0.95-0.76,2.1-1.41,3.4-1.41c0.69,0,1.22,0.42,1.22,1.03
	c0,0.5-0.38,1.07-1.3,1.07c-0.76,0-1.37-0.61-2.29-0.61c-0.65,0-1.15,0.15-0.84,0.8c0.34,0.69,0.61,1.79,0.61,3.02
	c0,4.7-3.47,9.39-7.41,9.7c-2.86,0.42-4.89,1.07-4.89,2.21c0,0.88,0.92,1.53,3.4,2.44l3.78,1.45c2.79,1.07,3.86,1.95,3.86,3.59
	c0,2.98-3.78,4.85-8.86,4.85C198.94,205.33,195.2,203.27,195.2,200.71L195.2,200.71z M205.01,204.49c4.66,0,6.3-1.64,6.3-3.36
	c0-1.11-1.07-1.79-2.63-2.37l-4.31-1.6c-0.42-0.15-1.37-0.42-2.44-0.12c-2.52,0.61-4.7,1.72-4.7,3.47
	C197.23,202.84,201.39,204.48,205.01,204.49L205.01,204.49z M206.73,190.06c3.25,0,5.69-5.38,5.69-9.58c0-2.29-0.61-3.86-2.33-3.86
	c-3.25,0-5.65,5.38-5.65,9.54c0,2.29,0.57,3.89,2.29,3.89V190.06z"/>
<path class="st0" d="M215.66,191.78c0-6.11,5.23-15.88,10.54-15.88c1.79,0,3.02,0.92,3.02,2.63c0,3.09-3.44,6.91-9.2,8.7
	c-0.84,0.19-1.64,1.07-1.79,1.87c-0.19,0.95-0.27,1.83-0.27,2.6c0,2.33,1.11,3.36,2.67,3.36c2.56,0,4.96-2.9,7.18-7.6
	c0.27-0.57,0.84-0.31,0.57,0.23c-2.1,4.2-4.81,9.28-8.67,9.28C217.19,196.97,215.66,195.02,215.66,191.78L215.66,191.78z
	 M220.09,186.78c4.81-1.6,7.06-5,7.06-8.17c0-0.92-0.27-1.91-1.34-1.91c-2.71,0-5.34,4.54-6.76,9.05
	C218.82,186.55,219.28,187.01,220.09,186.78L220.09,186.78z"/>
<path class="st0" d="M228.98,192.39c0-6.53,6.07-16.49,11.19-16.49c1.68,0,2.56,1.03,2.94,2.9c0.11,0.84,0.42,0.88,0.69,0.08
	l0.27-0.73c0.23-0.61,0.42-0.84,0.92-0.84c0.8,0,1.41-1.57,2.1-1.57c0.27,0,0.38,0.23,0.19,0.53c-1.6,3.17-3.21,6.3-4.39,10.08
	l-1.76,5.31c-0.61,1.76-0.61,2.75,0.23,2.75c0.92,0,2.21-1.57,4.66-7.02c0.23-0.46,0.38-0.61,0.61-0.61s0.27,0.11,0.08,0.57
	c-1.99,4.5-4.28,9.35-6.6,9.35c-1.53,0-1.83-0.8-1.83-1.76c0-0.8,0.31-1.72,0.8-3.09l0.57-1.72c0.15-0.46,0.04-0.73-0.19-0.73
	c-0.27,0-0.53,0.23-0.73,0.61c-1.03,1.87-4.01,6.91-6.72,6.91c-2.06,0-3.02-1.95-3.02-4.54L228.98,192.39z M232.95,194.91
	c2.71,0,6.22-5.46,8.21-10.69c0.46-1.37,0.92-2.86,0.92-4.39c0-1.95-0.5-3.05-1.87-3.05c-4.28,0-8.82,9.12-8.82,15.04
	C231.39,194.15,231.96,194.91,232.95,194.91L232.95,194.91z"/>
<path class="st0" d="M253.15,178.18c-0.92-0.04-2.56,1.49-5.15,6.87c-0.23,0.46-0.38,0.61-0.61,0.61s-0.31-0.15-0.08-0.57
	c2.1-4.43,4.85-9.24,7.18-9.16c1.49,0.04,1.79,0.84,1.76,1.79c0,0.8-0.38,1.68-0.92,3.05l-1.22,3.13c-0.23,0.57-0.08,0.73,0.08,0.73
	s0.42-0.11,0.65-0.53c3.55-6.18,5.99-8.21,8.06-8.21c1.45,0,2.21,0.92,2.21,2.37c0,2.75-2.52,7.83-4.89,13.59
	c-0.69,1.72-0.76,2.71,0.08,2.75c0.92,0.04,2.29-1.45,5-6.8c0.27-0.42,0.42-0.57,0.65-0.57s0.27,0.15,0.04,0.61
	c-2.18,4.35-4.73,9.12-7.06,9.01c-1.53-0.08-1.76-0.92-1.72-1.87c0.04-0.76,0.31-1.72,0.8-3.09c2.14-5.38,4.73-10.84,4.73-12.83
	c0-0.95-0.31-1.41-0.92-1.41c-2.06,0-6.83,5-9.58,12.98c-0.95,2.94-0.46,4.31-0.69,5.12c-0.23,0.76-1.03,1.22-1.95,1.22
	c-1.11,0-1.6-0.8-0.73-3.4l4.43-12.64C253.95,179.21,253.99,178.18,253.15,178.18L253.15,178.18z"/>
<path class="st0" d="M266.97,191.36c0-6.83,5.23-15.54,10.27-15.54c1.64,0,3.21,1.07,3.21,3.09s-1.49,4.12-2.75,4.12
	c-0.65,0-1.03-0.53-1.03-1.15c0-1.41,2.25-1.49,2.25-3.47c0-0.65-0.5-1.79-1.83-1.79c-4.28,0-7.83,8.97-7.83,14.35
	c0,2.48,0.8,4.08,2.44,4.08c2.52,0,4.5-2.44,7.18-7.6c0.27-0.57,0.76-0.31,0.53,0.23c-2.83,6.3-5.69,9.28-8.51,9.28
	C268.38,196.96,266.97,194.75,266.97,191.36L266.97,191.36z"/>
<path class="st0" d="M280.52,191.78c0-6.11,5.23-15.88,10.54-15.88c1.79,0,3.02,0.92,3.02,2.63c0,3.09-3.44,6.91-9.2,8.7
	c-0.84,0.19-1.64,1.07-1.79,1.87c-0.19,0.95-0.27,1.83-0.27,2.6c0,2.33,1.11,3.36,2.67,3.36c2.56,0,4.96-2.9,7.18-7.6
	c0.27-0.57,0.84-0.31,0.57,0.23c-2.1,4.2-4.81,9.28-8.67,9.28C282.05,196.97,280.52,195.02,280.52,191.78L280.52,191.78z
	 M284.95,186.78c4.81-1.6,7.06-5,7.06-8.17c0-0.92-0.27-1.91-1.34-1.91c-2.71,0-5.34,4.54-6.76,9.05c-0.23,0.8,0.23,1.26,1.03,1.03
	H284.95z"/>
</svg>
