<?xml version="1.0" encoding="UTF-8"?><svg id="_레이어_1" xmlns="http://www.w3.org/2000/svg" viewBox="0 0 300 315"><defs><style>.cls-1{fill:#e60012;stroke-width:0px;}</style></defs><path class="cls-1" d="m115.23,145.78c-1.71,0-2.96-1.92-3.83-5.87-.81-3.67-1.27-8.8-1.36-15.25l-.28-40.56c-8.57,4.78-18.85,9.34-30.57,13.56-12.07,4.35-23.42,7.38-33.74,8.99-1.14.19-1.99.29-2.5.29-2.01,0-3.74-.56-5.15-1.67-5.41-4.35-8.16-9.6-8.16-15.62l.14-48.82c-1.29-2.29-4.09-4.19-8.34-5.63-.28-.09-.84-.25-1.68-.49-.9-.25-1.56-.49-2.03-.76-.74-.41-.9-.97-.9-1.36,0-.92,1.01-1.7,3.18-2.46,1.95-.68,3.77-1.02,5.43-1.02,2,0,4.71.24,8.04.72,3.29.47,5.94,1.05,7.85,1.71,1.68.09,4.15.06,7.35-.08,3.24-.14,6.08-.35,8.43-.64,2.7-.37,4.78-.79,6.16-1.26,1.36-.45,2.51-1.05,3.4-1.77,1.13-.72,2.17-1.18,3.13-1.38,1.8-.38,5.18-.38,9.81-.08,2.24.14,4.02.36,5.27.65,3.66,1.02,5.51,2.86,5.51,5.47,0,1.69-.86,3.12-2.57,4.26-1.64,1.09-3.58,1.65-5.76,1.65-5.51.28-9,.47-10.06.57l-6.99.43c-6.29.37-12.88.84-19.59,1.38v20.34c6.28-.45,10.11-.77,11.38-.95,2.52-.28,4.47-.68,5.8-1.18,1.34-.51,2.57-1.14,3.67-1.87,1.08-.78,2.12-1.29,3.09-1.5,1.8-.38,5.16-.4,9.82,0,2.29.2,4.01.43,5.26.72,3.66.81,5.51,2.56,5.51,5.18,0,1.79-.85,3.22-2.51,4.27-1.58.99-3.52,1.59-5.77,1.78l-17.09.86-19.16,1.11v20.44c0,.96.23,1.67.69,2.09.48.45,1.26.63,2.33.54,9.21-.94,19.6-2.94,30.86-5.96,11.13-2.98,21.37-6.61,30.43-10.79l-.42-58c-.91-1.32-2.41-2.64-4.46-3.93-2.14-1.34-4.4-2.4-6.72-3.15-.28-.09-.85-.26-1.69-.49-.88-.24-1.58-.49-2.08-.75-.82-.4-.99-.97-.99-1.37,0-.93,1.02-1.71,3.32-2.53,2.04-.73,4.01-1.1,5.86-1.1s5.3.42,10.26,1.29c4.88.85,8.43,1.68,10.54,2.44,1.04.31,1.75.75,2.16,1.32.39.56.59,1.28.59,2.14,0,.79-.05,1.4-.16,1.83-.46,2.95-.7,5.56-.7,7.71l-.42,54.66,4.43-.38c1.86-.18,3.34-.8,4.38-1.85,1.64-1.34,3.37-2,5.19-2,1.36,0,3.18.19,5.56.58,2.37.39,4.08.72,5.23,1,1.74.51,3.01,1.37,3.78,2.56h0c.77,1.18,1.11,2.46,1,3.8-.52,3.83-3.57,5.6-9.06,5.3-2.65-.19-5.08-.28-7.23-.28-2.52,0-6.11.1-10.65.28l-2.8.12-.28,32.82c0,5.5-.43,10.42-1.29,14.61-.86,4.21-1.98,7.49-3.33,9.76-1.42,2.38-2.95,3.59-4.56,3.59Zm-4.49-63.39l.29,42.25c.09,6.38.54,11.44,1.34,15.05.73,3.33,1.72,5.09,2.86,5.09,1.23,0,2.47-1.04,3.7-3.1,1.29-2.17,2.38-5.35,3.21-9.45.84-4.13,1.27-8.98,1.27-14.41l.29-33.77,3.75-.16c4.56-.19,8.16-.29,10.69-.29,2.17,0,4.62.1,7.29.29,4.94.27,7.57-1.17,8.01-4.41.08-1.09-.2-2.16-.85-3.15h0c-.64-.98-1.72-1.7-3.21-2.14-1.09-.27-2.82-.6-5.13-.98-2.3-.37-4.11-.56-5.4-.56-1.58,0-3.1.58-4.52,1.74-1.18,1.18-2.86,1.9-4.96,2.1l-5.53.47.43-55.75c0-2.2.24-4.86.72-7.9.07-.28.14-.75.14-1.63,0-.65-.14-1.17-.41-1.56-.26-.38-.82-.69-1.65-.94-2.08-.75-5.57-1.56-10.4-2.41-4.84-.84-8.23-1.27-10.09-1.27-1.74,0-3.6.35-5.52,1.04-2.58.92-2.66,1.53-2.66,1.59,0,.07,0,.26.43.48.45.22,1.09.45,1.9.68.87.24,1.44.41,1.73.5,2.4.77,4.73,1.86,6.94,3.25,2.23,1.41,3.86,2.87,4.84,4.34l.08.12.43,58.95-.29.14c-9.19,4.26-19.58,7.96-30.88,10.98-11.31,3.03-21.75,5.04-31.02,5.99-1.36.11-2.4-.16-3.1-.8-.67-.62-1.01-1.57-1.01-2.82v-21.39l20.11-1.17,17.08-.85c2.07-.18,3.87-.73,5.31-1.63,1.37-.86,2.04-1.98,2.04-3.42,0-2.12-1.55-3.5-4.73-4.21-1.2-.28-2.92-.51-5.13-.7-4.54-.38-7.84-.36-9.53,0-.83.18-1.75.63-2.73,1.34-1.18.79-2.48,1.45-3.89,1.98-1.41.53-3.43.95-6.03,1.24-1.33.19-5.25.52-11.97,1l-.54.04v-22.34l.46-.04c6.88-.56,13.63-1.04,20.07-1.42l6.97-.43c1.06-.09,4.56-.29,10.11-.57,2,0,3.75-.5,5.23-1.48,1.43-.95,2.12-2.07,2.12-3.43,0-2.14-1.56-3.61-4.76-4.5-1.18-.27-2.9-.48-5.09-.62-4.52-.29-7.85-.29-9.54.06-.84.18-1.76.59-2.75,1.21-.94.76-2.19,1.41-3.67,1.9-1.45.48-3.58.92-6.35,1.3-2.38.29-5.24.5-8.51.64-3.28.14-5.81.17-7.52.07l-.14-.03c-1.86-.65-4.46-1.22-7.73-1.68-3.29-.47-5.94-.71-7.9-.71-1.54,0-3.26.33-5.1.97-2.44.85-2.51,1.45-2.51,1.52,0,.08,0,.28.38.49.4.22,1,.44,1.81.67.87.24,1.44.41,1.73.5,4.56,1.55,7.58,3.64,8.96,6.21l.06.11v.13l-.14,48.94c0,5.69,2.62,10.69,7.78,14.83,1.22.96,2.75,1.46,4.53,1.46.31,0,.97-.05,2.33-.28,10.27-1.6,21.56-4.61,33.56-8.94,12-4.33,22.49-9.01,31.15-13.91l.74-.42Z"/><path class="cls-1" d="m245.84,145.78c-1.98,0-4.65-2.19-4.91-21.12l-.85-106.85c-.91-1.32-2.39-2.64-4.4-3.93-2.09-1.34-4.28-2.4-6.5-3.15-.35-.08-.95-.25-1.76-.49-.83-.24-1.49-.5-1.95-.75-.74-.41-.9-.97-.9-1.36,0-.93,1.02-1.71,3.32-2.53,2.04-.73,4.01-1.1,5.86-1.1s5.04.42,9.76,1.29c4.65.85,8.07,1.68,10.18,2.44,1.04.31,1.75.75,2.16,1.32.39.56.59,1.28.59,2.14,0,.79-.05,1.4-.16,1.83-.37,2.38-.55,4.99-.55,7.71l-.56,51.69,1.88-.11c1.6-.09,2.99-.7,4.24-1.86,1.73-1.33,3.41-1.98,5.04-1.98,1.25,0,2.97.17,5.13.5,2.15.34,3.96.7,5.39,1.08,1.54.41,2.71,1.2,3.49,2.34h0c.77,1.12,1.15,2.37,1.15,3.7,0,1.88-.79,3.36-2.36,4.4-1.51,1.01-3.67,1.42-6.43,1.22-2.45-.18-8.36-.23-17.54.12l-.42,35.52c0,5.49-.41,10.4-1.22,14.6-.81,4.21-1.89,7.49-3.19,9.76-1.37,2.39-2.88,3.59-4.49,3.59ZM233.75,5.49c-1.74,0-3.6.35-5.52,1.04-2.58.92-2.66,1.53-2.66,1.59,0,.08,0,.28.38.49.4.22.98.45,1.75.67.8.24,1.38.4,1.76.49,2.35.78,4.61,1.88,6.77,3.27,2.18,1.41,3.79,2.87,4.77,4.34l.08.12v.15s.86,106.99.86,106.99c.24,17.52,2.55,20.13,3.91,20.13,1.22,0,2.44-1.04,3.62-3.09,1.25-2.17,2.28-5.35,3.07-9.45.8-4.13,1.2-8.99,1.2-14.42l.43-36.48.47-.02c9.49-.38,15.6-.33,18.13-.14,2.52.18,4.48-.17,5.8-1.06,1.29-.86,1.91-2.02,1.91-3.57,0-1.12-.33-2.18-.98-3.13h0c-.65-.95-1.6-1.58-2.92-1.93-1.39-.37-3.17-.73-5.28-1.06-2.1-.33-3.78-.49-4.97-.49-1.4,0-2.88.59-4.39,1.75-1.38,1.28-3.01,1.99-4.83,2.09l-2.95.17.58-52.75c0-2.77.19-5.42.58-7.9.07-.28.14-.75.14-1.63,0-.65-.14-1.17-.41-1.56-.27-.38-.82-.69-1.65-.94-2.08-.76-5.46-1.56-10.05-2.41-4.6-.84-7.82-1.27-9.58-1.27Zm-56.09,106.71c-.08,0-.16,0-.23-.01-.35-.04-.65-.2-.85-.46-.33-.43-.66-.88,4.7-7.73,3.28-4.37,6.25-8.77,8.83-13.07-1.1-.82-1.98-1.73-2.6-2.72-2.96-4.03-6.3-8.25-9.92-12.54-8.31,11.87-16.5,20.82-24.36,26.62-1.46.97-2.84,1.77-4.14,2.4-1.16.56-1.85.7-2.32.47-.2-.1-.34-.26-.41-.47-.47-.66.19-1.73.83-2.6.8-1.08,1.52-2.02,2.15-2.79.62-.76,1.11-1.37,1.49-1.85,5.75-6.5,11.61-15.52,17.45-26.81,5.69-11.01,9.37-20.44,10.94-28.04-1.04,0-3.52.08-9.18.45-1.28.09-2.29.25-3.01.48-.7.22-1.42.6-2.13,1.13-.8.81-1.73,1.24-2.72,1.24-1.26,0-3.24-1.01-6.06-3.09-2.71-2-4.81-3.74-6.25-5.17-.48-.38-.94-.94-1.3-1.61-.38-.69-.56-1.26-.56-1.73,0-.76.51-1.21,1.35-1.21.62,0,1.28.15,1.98.44,4.76.65,8.93.98,12.39.98,2.17,0,4.77-.07,7.73-.21,2.97-.14,5.03-.31,6.13-.49,1.61-.54,2.64-.92,2.99-1.09,2.04-.72,3.46-1.01,4.41-.9,1.49.3,4.43,1.32,9.03,3.14.93.09,2.42.13,4.43.13,2.64,0,5.49-.17,8.48-.5,2.94-.32,5.07-.89,6.33-1.7,1.89-.74,3.22-1.03,4.17-.93,1.28.1,4.31,1.18,9.25,3.31.94.52,1.56.95,1.93,1.31.43.43.64.96.64,1.56,0,.79-.38,1.6-1.13,2.4-.72.77-1.04,1.17-1.19,1.37-2.72,9.45-6.83,19.12-12.23,28.75l4.61,5.43c2.03,2.67,4.19,4.33,6.44,4.96,1.1.3,1.9.63,2.43,1,.51.36,1.1.92,1.8,1.72.91,1.51,1.84,3.47,2.79,5.91h0c.97,2.47,1.58,4.29,1.87,5.55.19.47.3,1.28.3,2.39,0,2.06-.69,3.59-2.06,4.54-.7.35-1.4.52-2.14.52-2.25,0-4.41-1.51-6.39-4.49-1.24-1.81-2.96-4.15-5.1-6.95-4.05-5.63-7.15-9.88-9.24-12.66-7.5,11.69-16.21,21.76-25.89,29.95-4.04,3.15-5.65,3.67-6.47,3.67Zm-.19-1.02s.05.01.08.02c.49.07,1.92-.3,5.95-3.44,9.76-8.26,18.53-18.46,26.07-30.32l.39-.61.43.57c2.09,2.76,5.35,7.21,9.68,13.24,2.15,2.8,3.88,5.16,5.13,6.98,1.79,2.69,3.66,4.05,5.56,4.05.58,0,1.13-.13,1.63-.37,1.04-.73,1.57-1.94,1.57-3.68,0-1.21-.14-1.81-.25-2.09-.3-1.27-.91-3.09-1.85-5.48-.94-2.38-1.83-4.3-2.67-5.69-.58-.65-1.13-1.18-1.57-1.48-.43-.3-1.14-.58-2.12-.85-2.47-.69-4.81-2.47-6.95-5.3l-5.04-5.94.17-.3c5.46-9.69,9.6-19.42,12.33-28.92l.06-.14c.21-.31.64-.82,1.33-1.56.57-.61.86-1.19.86-1.72,0-.34-.11-.61-.35-.86-.3-.3-.86-.68-1.67-1.12-4.72-2.03-7.73-3.12-8.9-3.21-.79-.08-2,.19-3.62.82-1.32.86-3.53,1.47-6.67,1.81-3.03.33-5.92.5-8.59.5-2.13,0-3.64-.05-4.6-.14l-.13-.03c-4.51-1.79-7.5-2.83-8.88-3.1-.73-.08-2.05.2-3.86.84-.34.18-1.36.55-3.14,1.14-1.23.21-3.27.38-6.32.52-2.97.14-5.59.21-7.78.21-3.52,0-7.76-.34-12.59-1l-.13-.04c-.6-.26-1.15-.39-1.65-.39-.35,0-.35.08-.35.21,0,.2.08.59.44,1.26.3.56.66,1.01,1.08,1.34,1.44,1.44,3.5,3.14,6.17,5.11,3.24,2.39,4.76,2.89,5.46,2.89s1.4-.32,2.07-.99c.85-.65,1.67-1.08,2.48-1.33.8-.25,1.89-.42,3.24-.52,5.88-.38,9.12-.52,9.92-.42l.53.07-.1.53c-1.52,7.79-5.27,17.5-11.15,28.87-5.87,11.36-11.78,20.45-17.57,26.99-.37.46-.86,1.07-1.48,1.83-.62.76-1.33,1.69-2.12,2.76-.84,1.13-.8,1.46-.8,1.47l.1.1c.16,0,.54-.08,1.35-.47,1.25-.6,2.6-1.38,4-2.31,7.87-5.81,16.11-14.86,24.48-26.9l.37-.53.42.5c3.8,4.47,7.31,8.89,10.41,13.12.64,1.01,1.55,1.92,2.73,2.73l.38.27-.24.4c-2.65,4.45-5.73,9.02-9.13,13.56-3.71,4.74-4.46,6.16-4.6,6.57Zm17.51-26.76l-.4-.99c-1.4-3.44-2.57-5.74-3.48-6.84-.38-.65-.74-1.03-1.12-1.22-.43-.21-1.15-.41-2.14-.6-1.85-.51-3.88-1.9-6.24-4.26l-.97-1.16.19-.31c5.74-9.32,9.79-17.47,12.04-24.23l.26-.77.57.58c.15.15.39.31.72.47.65.24,1.22.37,1.63.37.72,0,1.4-.32,2.07-.99,1.34-1.13,3.2-1.79,5.58-1.99,3.12-.38,5.64-.52,7.46-.43l.61.03-.15.59c-3.32,13.36-8.74,27.09-16.12,40.81l-.5.94Zm-13.12-15.16l.48.58c2.17,2.17,4.11,3.52,5.73,3.96,1.06.19,1.84.42,2.37.67.56.28,1.06.8,1.49,1.55.85,1.02,1.91,3.02,3.18,6.05,6.98-13.13,12.15-26.26,15.38-39.04-1.71-.04-3.96.11-6.7.45-2.18.18-3.86.77-5,1.73-.82.82-1.75,1.26-2.74,1.26-.54,0-1.2-.15-2.03-.46-.16-.08-.3-.15-.43-.23-2.29,6.62-6.23,14.52-11.73,23.48Z"/><path class="cls-1" d="m72.77,25.33c-.46,2.82-1.18,4-2.55,4s-2.55-.84-2.55-3.84c0-3.31.19-8.33.23-14.39h-1.9v-.8c1.75-.38,2.85-3.01,3.08-6.74h.8l-.23,6.58h2.51v.95h-2.55v14.39c0,1.75.46,2.17,1.07,2.17.69,0,1.03-.76,1.33-2.55l.76.23Z"/><path class="cls-1" d="m85.1,28.11v.76h-5.14v-.76c1.48,0,1.71-1.6,1.71-13.17,0-2.82-.5-3.84-1.6-3.84s-2.74,1.18-2.74,7.38c0,8.41.23,9.63,1.71,9.63v.76h-5.14v-.76c1.52,0,1.75-1.03,1.75-12.33s-.23-12.75-1.75-12.75v-.8h3.65c-.19,2.89-.23,6.43-.23,11.49.69-2.97,1.83-3.88,3.2-3.88,1.75,0,2.89,1.37,2.89,5.14,0,11.49.15,13.13,1.67,13.13Z"/><path class="cls-1" d="m95.33,22.93c-.42,3.88-1.9,6.28-4.15,6.28-3.27,0-4.76-3.43-4.76-9.7s1.56-9.67,4.57-9.67c2.78,0,4.3,3.04,4.3,9.32h-6.81v.34c0,5.9.69,8.68,2.97,8.68,1.29,0,2.59-1.83,2.97-5.4l.91.15Zm-6.85-4.72h4.87c-.04-4.83-.57-7.5-2.36-7.5s-2.44,2.47-2.51,7.5Z"/><path class="cls-1" d="m113.75,10.14h3.92v.76c-.84.19-1.6,3.88-4.53,18.04h-.99l-2.32-11-2.28,11h-.99c-3.43-16.67-3.69-17.85-4.41-18.04v-.76h4.26v.76c-1.41.3-1.29,2.06.99,13.93l1.98-9.32c-.76-3.62-1.14-4.45-1.64-4.6v-.76h4.22v.76c-1.37.3-1.26,1.83,1.07,13.97,2.13-10.66,2.4-13.66.72-13.97v-.76Z"/><path class="cls-1" d="m126.11,20.91c0,5.4.3,6.89,1.37,6.89v.61c-.46.49-.88.8-1.52.8-.95,0-1.6-.72-1.6-2.82v-.04c-.61,2.09-1.75,2.85-3.01,2.85-1.56,0-2.74-1.33-2.74-4.38,0-6.24,5.75-5.9,5.75-8.87v-2.06c0-1.48-.15-3.23-1.86-3.23-1.14,0-1.83.95-1.83,2.06s.46,1.67,1.18,1.71c.34,1.48-.27,2.66-1.26,2.66-.91,0-1.6-.91-1.6-2.85,0-2.89,1.6-4.41,3.73-4.41,2.24,0,3.39,1.37,3.39,4.53v6.55Zm-1.75,1.52v-4.6c-.95,1.94-3.73,1.71-3.73,6.89,0,2.17.68,3.01,1.56,3.01,1.22,0,2.17-1.64,2.17-5.29Z"/><path class="cls-1" d="m136.69,12.43c0,1.64-.76,2.63-1.6,2.63-.5,0-.84-.3-.95-.69.38-.34.65-.91.65-1.6s-.42-1.1-.8-1.1c-.53,0-1.9.88-1.9,6.32v.11c0,8.6.23,10.01,1.75,10.01v.76h-5.14v-.76c1.52,0,1.75-1.41,1.75-8.6s-.23-8.6-1.75-8.6v-.76h3.39v3.46c.53-2.4,1.52-3.77,2.7-3.77s1.9,1.1,1.9,2.59Z"/><path class="cls-1" d="m143.77,19.51c0-6.28,1.52-9.67,4.53-9.67s4.53,3.39,4.53,9.67-1.48,9.7-4.53,9.7-4.53-3.43-4.53-9.7Zm7,0c0-5.9-.53-8.79-2.47-8.79s-2.47,2.89-2.47,8.79.57,8.83,2.47,8.83,2.47-2.93,2.47-8.83Z"/><path class="cls-1" d="m158.57,3.26c-.69,0-1.22.91-1.22,3.35,0,1.37.15,2.28.49,3.54h2.32v.95h-2.32v4.68c0,10.92.27,12.33,1.79,12.33v.76h-5.21v-.76c1.56,0,1.71-1.41,1.71-12.33v-4.68h-1.6v-.95h1.6c0-6.09.99-8.26,2.97-8.26,1.33,0,2.09,1.1,2.09,2.66s-.69,2.59-1.6,2.59c-.38,0-.69-.19-.84-.53,1.03-.99.8-3.35-.19-3.35Z"/><path class="cls-1" d="m178.05,28.11v.76h-5.1v-.76c1.56,0,1.75-1.56,1.75-12.33v-4.68h-4.15v4.68c0,10.81.27,12.33,1.79,12.33v.76h-5.21v-.76c1.56,0,1.71-1.52,1.71-12.33v-4.68h-1.6v-.95h1.6c.04-4.64,1.83-8.26,4.61-8.26.46,0,.84.11,1.18.34h1.9c-.15,2.97-.19,8.87-.19,13.55,0,10.77.27,12.33,1.71,12.33Zm-3.35-17.96v-3.16c-.15.11-.34.15-.53.15-.42,0-.69-.19-.88-.53.95-.95.91-3.35-.49-3.35-1.52,0-2.66,2.32-2.25,6.89h4.15Z"/><path class="cls-1" d="m179.38,19.51c0-6.28,1.52-9.67,4.53-9.67s4.53,3.39,4.53,9.67-1.48,9.7-4.53,9.7-4.53-3.43-4.53-9.7Zm7,0c0-5.9-.53-8.79-2.47-8.79s-2.47,2.89-2.47,8.79.57,8.83,2.47,8.83,2.47-2.93,2.47-8.83Z"/><path class="cls-1" d="m201,10.14h3.92v.76c-.84.19-1.6,3.88-4.53,18.04h-.99l-2.32-11-2.28,11h-.99c-3.43-16.67-3.69-17.85-4.41-18.04v-.76h4.26v.76c-1.41.3-1.29,2.06.99,13.93l1.98-9.32c-.76-3.62-1.14-4.45-1.64-4.6v-.76h4.22v.76c-1.37.3-1.26,1.83,1.07,13.97,2.13-10.66,2.4-13.66.72-13.97v-.76Z"/><path class="cls-1" d="m214.73,22.93c-.42,3.88-1.9,6.28-4.15,6.28-3.27,0-4.76-3.43-4.76-9.7s1.56-9.67,4.57-9.67c2.78,0,4.3,3.04,4.3,9.32h-6.81v.34c0,5.9.69,8.68,2.97,8.68,1.29,0,2.59-1.83,2.97-5.4l.91.15Zm-6.85-4.72h4.87c-.04-4.83-.57-7.5-2.36-7.5s-2.44,2.47-2.51,7.5Z"/><path class="cls-1" d="m224.25,12.43c0,1.64-.76,2.63-1.6,2.63-.5,0-.84-.3-.95-.69.38-.34.65-.91.65-1.6s-.42-1.1-.8-1.1c-.53,0-1.9.88-1.9,6.32v.11c0,8.6.23,10.01,1.75,10.01v.76h-5.14v-.76c1.52,0,1.75-1.41,1.75-8.6s-.23-8.6-1.75-8.6v-.76h3.39v3.46c.53-2.4,1.52-3.77,2.7-3.77s1.9,1.1,1.9,2.59Z"/><path class="cls-1" d="m138.23,299.97v1.93c0,4.23-.69,5.45-1.97,5.45-2.2,0-2.86-3.63-4.05-3.63-.15,0-.27.06-.36.15.39.27.69.83.69,1.73,0,1.01-.45,1.76-1.04,1.76s-1.19-.45-1.19-2.08c0-7.03,5.92-9.14,5.92-15.3,0-2.29-.86-3.28-1.96-3.28-1.04,0-1.73.83-1.73,2.29,0,1.58.6,2.17,1.16,2.17,0,1.13-.57,1.88-1.31,1.88s-1.49-.74-1.49-2.71c0-3.25,1.61-4.38,3.36-4.38,2.32,0,3.6,1.64,3.6,4.38,0,6.31-6.07,7.89-6.7,13.4.03,0,.06-.03.12-.03.27-.54.69-.86,1.22-.86,1.43,0,2.23,1.85,3.54,1.85.95,0,1.49-.8,1.49-4.7h.69Z"/><path class="cls-1" d="m139.96,296.67c0-7.59,1.67-10.72,4.47-10.72s4.47,3.13,4.47,10.72-1.64,10.69-4.47,10.69-4.47-3.1-4.47-10.69Zm7.12,0c0-7.53-.8-9.97-2.65-9.97s-2.65,2.44-2.65,9.97.77,9.95,2.65,9.95,2.65-2.41,2.65-9.95Z"/><path class="cls-1" d="m150.56,296.67c0-7.59,1.67-10.72,4.47-10.72s4.47,3.13,4.47,10.72-1.64,10.69-4.47,10.69-4.47-3.1-4.47-10.69Zm7.12,0c0-7.53-.8-9.97-2.65-9.97s-2.65,2.44-2.65,9.97.77,9.95,2.65,9.95,2.65-2.41,2.65-9.95Z"/><path class="cls-1" d="m169.68,301.37c0,4.29-2.03,5.99-4.32,5.99s-4.29-1.7-4.29-5.99c0-3.48,1.52-5.3,3.28-5.78-1.46-.48-2.62-2.05-2.62-4.64,0-3.01,1.19-4.97,3.63-4.97s3.66,1.96,3.66,4.97c0,2.59-1.16,4.17-2.65,4.64,1.79.48,3.31,2.29,3.31,5.78Zm-1.79,0c0-3.69-1.01-5.36-2.53-5.36s-2.5,1.67-2.5,5.36,1.01,5.3,2.5,5.3,2.53-1.55,2.53-5.3Zm-4.44-10.42c0,3.1.71,4.35,1.91,4.35s1.94-1.25,1.94-4.35-.71-4.29-1.94-4.29-1.91,1.16-1.91,4.29Z"/><path class="cls-1" d="m165.84,264.28c-.13,3.29-.59,4.62-1.37,5.4-1.07,1.07-1.95,1.46-6.12,1.46-7.19,0-7.52-.29-7.52-4.29l.1-5.27v-5.34h-2.6c-.06,3.84-.49,6.05-1.69,8.69-1.56,3.29-4.42,5.56-8.36,6.83-.16.06-.29.1-.39.1-.16,0-.26-.1-.42-.26l-2.93-3.29c4.39-1.2,6.8-3.12,7.94-5.53.81-1.76,1.11-3.77,1.17-6.54h-2.67l-5.24.1-.23-.23v-3.64l.23-.23,5.24.1h6.83v-10.9l.23-.29h4.29l.26.26v10.93h7.16l5.24-.1.23.23v3.64l-.23.23-5.24-.1h-4.07v9.63c0,.78.1.85,2.64.85,2.9,0,3.03-.2,3.25-4.42l3.94,1.43c.33.13.33.23.33.55m-2.93-18.77c-1.01,1.63-2.7,3.94-4.07,5.47-.1.13-.2.2-.29.2-.13,0-.26-.07-.49-.2l-3.38-1.66c1.53-1.89,2.99-4.04,3.94-5.89l.33-.1,3.9,1.85.06.33Zm-17.31,3.09l-.03.33-3.61,2.21-.33-.03c-1.14-1.85-2.44-3.74-3.71-5.14l-.13-.36,3.29-2.02.33.03c1.46,1.33,3.12,3.25,4.2,4.98m27.45,8.1c0-12.73-10.32-23.06-23.06-23.06s-23.06,10.32-23.06,23.06,10.32,23.06,23.06,23.06,23.06-10.32,23.06-23.06"/></svg>