<?xml version="1.0" encoding="UTF-8"?><svg id="_레이어_1" xmlns="http://www.w3.org/2000/svg" viewBox="0 0 300 315"><defs><style>.cls-1{fill:#e60012;stroke-width:0px;}</style></defs><path class="cls-1" d="m103.08,86.78c.76,2.58-1.21,4.55-4.1,5.31-5.16,1.37-21.39,4.4-63.87,4.4H12.51c-1.97,0-3.64-1.67-3.64-3.64s1.67-3.64,3.64-3.64h32.47v-.3c0-4.55,2.28-8.34,5.77-10.17-21.09-1.37-34.29-11.83-34.29-26.85,0-12.29,7.74-19.57,16.39-23.52H14.63c-1.82,0-3.49-1.67-3.49-3.64s1.67-3.64,3.49-3.64h28.52v-.91c0-6.22,5.46-11.38,11.83-11.38s11.83,5.16,11.83,11.38v.91h26.85c1.97,0,3.64,1.67,3.64,3.64s-1.67,3.64-3.64,3.64h-36.11c-11.23,0-19.27,10.62-19.27,23.52,0,14.11,10.01,19.57,17.3,19.57s17.3-5.46,17.3-19.57c0-11.68-4.4-12.9-6.07-16.08-1.21-2.28,1.67-6.52,11.53-4.1,9.1,2.28,16.39,9.1,16.39,20.18,0,14.87-12.9,25.34-33.98,26.85,3.64,1.82,6.22,5.46,6.37,9.86,15.93-.76,23.21-2.28,29.74-3.64,2.88-.61,5.61-.46,6.22,1.82Zm5.16-64.33c0-6.22,5.16-11.38,11.38-11.38s11.38,5.16,11.38,11.38v29.58l14.57-.61c2.12,0,3.94,1.67,3.94,4.25,0,2.43-1.82,4.25-3.94,4.25l-14.57-.46v39.6c0,2.88-2.12,3.34-4.7,3.34h-13.35c-2.58,0-4.7-.3-4.7-3.19V22.45Z"/><path class="cls-1" d="m240.69,82.23c4.55,7.89,1.82,15.02-2.88,17.75-5.16,3.03-13.5,1.52-17.45-8.19-5.31-13.2-10.62-21.39-15.63-25.34-6.22,17.75-17.3,32.16-35.81,33.83-4.1.46-7.89.15-11.83-.76-16.08-4.25-4.7-20.48,3.95-11.53,2.73,2.73,5.16,5.77,9.71,4.86,9.1-1.97,16.08-31.25,16.84-61.75h-25.94c-1.97,0-3.64-1.67-3.64-3.64s1.67-3.64,3.64-3.64h25.94v-1.82c0-6.52,5.61-11.38,11.83-11.38s11.83,4.85,11.83,11.38v1.82h26.55c1.97,0,3.64,1.67,3.64,3.64s-1.67,3.64-3.64,3.64h-26.7c-.3,8.19-1.52,17.14-3.49,25.64,8.8,2.28,23.82,9.41,33.07,25.49Zm12.44-59.78c0-6.22,5.31-11.23,11.53-11.23s11.53,5.01,11.53,11.23v29.74l14.57-.61c2.12,0,3.94,1.52,3.94,4.25,0,2.43-1.82,4.25-3.94,4.25l-14.57-.61v39.75c0,2.73-2.28,3.19-4.85,3.19h-13.35c-2.73,0-4.85-.46-4.85-3.19V22.45Z"/><path class="cls-1" d="m186.75,297.75c-.37,0-.55-.06-.55-.36v-.12c0-.36.18-.42.55-.42h1.15c.85,0,.91-.18.91-4.62v-15.79h-9.23v15.79c0,4.43.06,4.62.91,4.62h1.21c.36,0,.55.06.55.42v.12c0,.3-.18.36-.55.36h-8.26c-.36,0-.55-.06-.55-.36v-.12c0-.36.18-.42.55-.42h1.15c.85,0,.91-.18.91-4.62v-29.95c0-4.43-.06-4.62-.91-4.62h-1.15c-.36,0-.55-.06-.55-.42v-.12c0-.3.18-.36.55-.36h8.26c.36,0,.55.06.55.36v.12c0,.36-.18.42-.55.42h-1.21c-.85,0-.91.18-.91,4.62v13h9.23v-13c0-4.43-.06-4.62-.91-4.62h-1.15c-.37,0-.55-.06-.55-.42v-.12c0-.3.18-.36.55-.36h8.2c.36,0,.55.06.55.36v.12c0,.36-.18.42-.55.42h-1.15c-.85,0-.91.18-.91,4.62v29.95c0,4.43.06,4.62.91,4.62h1.15c.36,0,.55.06.55.42v.12c0,.3-.18.36-.55.36h-8.2Z"/><path class="cls-1" d="m205.27,298.54c-4.68,0-8.2-5.53-8.2-15.85,0-9.17,2.86-16.77,7.78-16.77,3.52,0,6.8,4.25,6.8,12.27v.24c0,1.34-.49,1.76-2.19,1.76h-8.57v2c0,10.21,1.34,14.64,5.1,14.64,3.16,0,4.56-3.28,4.56-9.23,0-.36.06-.61.43-.61h.18c.42,0,.49.24.49.61,0,6.5-1.58,10.93-6.38,10.93Zm-.67-31.71c-2.92,0-3.71,5.28-3.71,12.33h4.07c2.19,0,2.92-.49,2.92-2.49,0-6.62-.91-9.84-3.28-9.84Z"/><path class="cls-1" d="m213.47,297.75c-.37,0-.55-.06-.55-.36v-.06c0-.37.18-.43.55-.43h1.21c.85,0,.91-.18.91-4.62v-34.02c0-4.43-.06-4.62-.91-4.62h-1.21c-.37,0-.55-.06-.55-.43v-.06c0-.3.18-.36.55-.36h5.04c.49,0,.55.18.55.79v38.7c0,4.43.06,4.62.91,4.62h1.22c.36,0,.55.06.55.43v.06c0,.3-.18.36-.55.36h-7.71Z"/><path class="cls-1" d="m232.73,298.54c-1.7,0-3.16-1.09-4.07-2.79h-.06v8.75c0,4.37.06,4.56.91,4.56h1.88c.36,0,.55.06.55.42v.06c0,.3-.18.37-.55.37h-8.38c-.3,0-.49-.06-.49-.37v-.06c0-.36.18-.42.49-.42h1.21c.85,0,.91-.18.91-4.56v-32.44c0-4.37-.06-4.56-.91-4.56h-1.21c-.3,0-.49-.06-.49-.43v-.06c0-.3.18-.36.49-.36h4.86c.49,0,.55.18.55.79v3.71h.06c.79-3.28,2.61-5.29,5.16-5.29,3.77,0,6.74,5.53,6.74,15.79s-2.73,16.89-7.65,16.89Zm-.36-30.92c-1.88,0-3.04,2.25-3.77,5.83v20.71c.79,1.58,1.88,2.98,3.58,2.98,3.04,0,4.25-4.98,4.25-14.94,0-10.57-1.52-14.58-4.07-14.58Z"/><path class="cls-1" d="m242.2,297.75c-.37,0-.55-.06-.55-.36v-.06c0-.37.18-.43.55-.43h1.21c.85,0,.91-.18.91-4.62v-34.02c0-4.43-.06-4.62-.91-4.62h-1.21c-.37,0-.55-.06-.55-.43v-.06c0-.3.18-.36.55-.36h5.04c.49,0,.55.18.55.79v38.7c0,4.43.06,4.62.91,4.62h1.22c.36,0,.55.06.55.43v.06c0,.3-.18.36-.55.36h-7.71Z"/><path class="cls-1" d="m259.88,298.54c-4.68,0-8.2-5.53-8.2-15.85,0-9.17,2.86-16.77,7.78-16.77,3.52,0,6.8,4.25,6.8,12.27v.24c0,1.34-.49,1.76-2.19,1.76h-8.57v2c0,10.21,1.34,14.64,5.1,14.64,3.16,0,4.56-3.28,4.56-9.23,0-.36.06-.61.43-.61h.18c.42,0,.49.24.49.61,0,6.5-1.58,10.93-6.38,10.93Zm-.67-31.71c-2.92,0-3.71,5.28-3.71,12.33h4.07c2.19,0,2.92-.49,2.92-2.49,0-6.62-.91-9.84-3.28-9.84Z"/><path class="cls-1" d="m274.34,298.54c-1.7,0-3.16-.79-4.13-1.7l-.12.67c-.06.43-.12.61-.43.61h-.06c-.36,0-.42-.18-.42-.61l-.49-10.21c0-.36.06-.55.42-.55h.06c.42,0,.42.12.49.55l.06.79c.3,3.71,1.76,9.48,4.74,9.48,1.94,0,3.1-1.88,3.1-4.86,0-4.56-2-6.92-4.13-9.29-2.13-2.43-4.25-4.74-4.25-9.23s2.06-8.26,5.16-8.26c1.46,0,2.67.73,3.4,1.64l.06-.73c.06-.43.12-.61.43-.61h.12c.3,0,.36.24.36.61v9.29c0,.42-.06.61-.42.61h-.12c-.3,0-.37-.18-.37-.61v-.37c0-4.8-1.52-8.93-3.58-8.93-1.52,0-2.37,1.88-2.37,4.19,0,4.43,1.88,6.8,3.89,9.05,2.37,2.79,4.5,5.04,4.5,9.78s-2.25,8.69-5.89,8.69Z"/><path class="cls-1" d="m288,298.54c-1.7,0-3.16-.79-4.13-1.7l-.12.67c-.06.43-.12.61-.42.61h-.06c-.36,0-.42-.18-.42-.61l-.49-10.21c0-.36.06-.55.43-.55h.06c.42,0,.42.12.49.55l.06.79c.3,3.71,1.76,9.48,4.74,9.48,1.94,0,3.1-1.88,3.1-4.86,0-4.56-2-6.92-4.13-9.29-2.13-2.43-4.25-4.74-4.25-9.23s2.07-8.26,5.16-8.26c1.46,0,2.67.73,3.4,1.64l.06-.73c.06-.43.12-.61.42-.61h.12c.3,0,.36.24.36.61v9.29c0,.42-.06.61-.42.61h-.12c-.3,0-.36-.18-.36-.61v-.37c0-4.8-1.52-8.93-3.58-8.93-1.52,0-2.37,1.88-2.37,4.19,0,4.43,1.88,6.8,3.89,9.05,2.37,2.79,4.5,5.04,4.5,9.78s-2.25,8.69-5.89,8.69Z"/><path class="cls-1" d="m226.54,245.61c-.42,0-.49-.06-.49-.42v-1.28c0-.36,0-.61.18-.85,5.83-8.56,8.32-12.76,8.32-23.08,0-7.35-1.15-10.45-3.28-10.45-.97,0-1.88.73-2.55,1.76.61,1.76.91,3.34.91,4.5,0,1.64-.49,2.73-1.64,2.73-1.09,0-1.76-.73-1.76-2.73,0-3.4,2.49-7.41,6.08-7.41s6.62,3.83,6.62,10.75c0,7.9-3.83,13.79-11,22.66v.12h8.14c3.4,0,4.19-1.46,4.19-4.74v-.18c0-.36.06-.55.36-.55h.12c.36,0,.42.18.42.55l-.49,8.14c0,.37-.06.49-.55.49h-13.61Z"/><path class="cls-1" d="m250.83,246.4c-4.8,0-7.17-6.99-7.17-18.35s2.49-19.68,7.41-19.68,7.23,6.8,7.23,18.16-2.55,19.86-7.47,19.86Zm.12-37.12c-2.37,0-3.04,5.65-3.04,18.59,0,12.27.67,17.62,2.98,17.62,2.43,0,3.1-5.83,3.1-18.77,0-12.27-.67-17.43-3.04-17.43Z"/><path class="cls-1" d="m265.11,245.61c-.36,0-.55-.06-.55-.36v-.12c0-.36.18-.42.55-.42h1.76c.85,0,.91-.18.91-4.62v-28.06h-.06c-1.4,1.52-3.65,3.52-5.04,4.5-.18.12-.37.12-.55-.18l-.12-.24c-.12-.24-.12-.3.12-.49,2.37-1.82,4.43-3.58,6.44-6.2.18-.24.3-.24.43-.24h2.31c.18,0,.18.06.18.49v30.43c0,4.43.06,4.62.91,4.62h1.58c.37,0,.55.06.55.42v.12c0,.3-.18.36-.55.36h-8.87Z"/><path class="cls-1" d="m279.02,245.61c-.43,0-.49-.06-.49-.42v-1.28c0-.36,0-.61.18-.85,5.83-8.56,8.32-12.76,8.32-23.08,0-7.35-1.15-10.45-3.28-10.45-.97,0-1.88.73-2.55,1.76.61,1.76.91,3.34.91,4.5,0,1.64-.49,2.73-1.64,2.73-1.09,0-1.76-.73-1.76-2.73,0-3.4,2.49-7.41,6.07-7.41s6.62,3.83,6.62,10.75c0,7.9-3.83,13.79-10.99,22.66v.12h8.14c3.4,0,4.19-1.46,4.19-4.74v-.18c0-.36.06-.55.36-.55h.12c.37,0,.43.18.43.55l-.49,8.14c0,.37-.06.49-.55.49h-13.61Z"/></svg>