<?xml version="1.0" encoding="UTF-8"?><svg id="_레이어_1" xmlns="http://www.w3.org/2000/svg" viewBox="0 0 300 315"><defs><style>.cls-1{fill:#008f41;stroke-width:0px;}</style></defs><path class="cls-1" d="m75.27,93.2c-2.62-.35-8.02-.7-10.37-.79-4.53-.17-9.42-.17-11.68-.17,0,2.01.09,11.59-.26,14.82-.35,3.4-.35,10.55-2.62,10.99-1.66.35-1.74-8.8-1.74-12.03l-.17-13.69-12.47.78c-.09,2.01-.17,4.36-.43,7.59-.26,3.05.17,10.29-2.44,10.81-1.57.35-1.74-8.89-1.74-10.64,0,0-.17-5.67-.17-7.41-1.13,0-2,.09-4.71.26-2.27.17-6.1.7-6.89.78-2.09.26-3.49,1.83-6.54.7-1.05-.35-7.59-2.88-8.37-3.57-2.7-2.27-.09-1.92,2.79-1.31,4.45.96,20.14,1.13,32.7.35,4.97-.35,22.49-.87,25.55-1.83,2.53-.78,6.28-.09,10.03.35,3.92.43,3.14,4.45-.44,4.01Zm-13.25,34.35c-13.34-.7-27.72-.09-29.47-.09-1.22,0-3.4.17-4.97-.96-1.48-1.05-1.57-3.14-1.57-4.8v-8.02c0-1.13-4.01-2.44-5.32-2.53-2.01-.09-2.62-1.13.17-1.83,1.92-.52,4.88.17,6.71.44,4.36.61,2.96,1.66,2.88,4.88l-.26,7.5c0,.43-.26,1.66.17,2.35.44.7,1.57.78,2.62.78l11.86-.35c1.22,0,6.71-.09,8.2-.61,2.53-.96,8.02-.87,9.68-.61,3.57.52,3.14,4.01-.7,3.84Zm-20.23-43.59c-10.11.35-17.17-5.75-16.91-13.43.43-12.29,13.78-12.82,13.78-12.9.61-.61,1.22-1.83.52-2.62-.52-.61-3.14-1.92.61-1.74.87,0,3.49.96,3.92,2.09.44,1.31.26,2.53.35,2.62,0,.17,11.94,1.48,12.73,12.29.52,7.15-6.02,13.43-15,13.69Zm1.22-24.76c-1.48,2.53-6.36,1.83-9.85,4.01-5.41,3.4-6.63,14.91,5.41,17.09,6.19,1.13,14.82-2.01,14.65-10.2-.17-8.72-10.11-10.99-10.2-10.9Z"/><path class="cls-1" d="m140.14,115.17c-.52,10.9-.7,13.86-2.62,14.39-1.05.26-1.22-3.23-1.31-8.2l-.17-18.05c-2.44.96-4.71,2.01-18.05,5.75-12.03,3.31-20.23,5.06-23.54,5.75-1.57.35-2.62,1.92-5.41.52-1.4-.7-6.1-2.79-7.5-3.92-1.66-1.31-1.92-2.96,1.66-1.31,5.32,2.44,17.87-.09,29.91-2.44,11.59-2.27,20.31-5.06,22.93-5.84l-.09-43.77c0-2.01-6.02-4.97-6.98-5.06-2.35-.26-2.96-1.57.96-1.92,1.74-.17,3.66.79,5.84,1.31,7.24,1.74,4.97,3.75,4.97,6.01,0,11.33-.17,48.13-.61,56.76Zm-15.34-41.67c-9.15-.09-14.91.35-17.35.52,1.05.52,2.36,1.05,2.7,2.09.44,1.13.35,1.74.17,2.88.78.26,9.94,1.31,10.9,10.73.7,7.06-5.15,12.29-12.82,12.38-7.85.09-15.34-3.57-14.73-12.82.61-9.5,11.33-10.29,12.12-10.46.52-.44.96-1.05.96-2.35,0-.96-.61-1.4-1.31-2.27-1.83.17-2.79,0-5.75.26-2.53.26-3.66.26-5.32.43-1.48.09-1.92,1.13-4.45.35-.87-.26-3.92-1.92-4.62-2.44-1.13-.87-1.83-2.27.44-1.48,5.67,2.01,28.6.61,31.56-.78,2.27-1.13,7.93-1.13,9.42-.52,2.44.96,1.74,3.49-1.92,3.49Zm-10.64-9.07c-2.09,0-8.11-.35-9.85-.7-1.48-.26-5.67-2.09-6.63-2.7-1.05-.7-1.92-2.18,1.22-1.13,4.8,1.57,11.07-1.22,16.57.78,1.92.7,2.09,3.75-1.31,3.75Zm-4.62,15.43c-.61,2.18-4.1,2.27-6.1,2.79-8.28,2.27-8.37,15.52,3.66,16.3,5.41.35,11.51-2.35,11.16-9.33-.44-7.67-7.67-9.33-8.72-9.76Z"/><path class="cls-1" d="m203.17,106.89c-.35,9.59-.7,13.43-2.62,13.43-1.05,0-1.05-3.31-1.05-8.28l-.17-23.28-5.06.7c-2.18.26-2.88,1.48-4.8.7-.96-.35-1.57-.7-2.09-.96-.26,6.97-5.67,12.99-14.65,13.51-9.15.52-17.44-4.97-17-14.12.52-11.33,12.29-12.82,13.25-13.08.52-.52,1.05-1.74.26-2.36-1.48-1.13-1.05-1.39.78-1.57,1.74-.17,3.05,1.31,3.49,1.92.78,1.05.26,1.66.17,2.44.44.17,12.38.7,13.6,11.25h.09c2.53.44,4.45.35,7.24.09,1.83-.17,2.79-.35,4.71-.7v-20.58c0-2.01-5.06-4.97-6.02-5.06-1.57-.17-2.44-1.13.7-1.48,1.74-.17,3.05.52,4.88,1.13,6.89,2.18,4.62,2.79,4.62,6.71,0,8.89.17,25.81-.35,39.58Zm-30.25-29.82c-1.31,2.18-4.8,1.92-8.2,3.75-6.54,3.57-6.36,13.25.78,16.83,7.24,3.66,18.05.96,18.22-9.5.17-9.5-9.85-10.73-10.81-11.07Zm45.08,38.88c-.35,9.59-.52,13.6-2.7,13.6-.96,0-1.31-3.66-1.31-8.63l-.17-62.78c0-2.01-6.1-5.41-7.06-5.49-1.57-.09-2.7-1.48.7-1.74,2.27-.17,4.36.87,6.19,1.48,7.15,2.35,4.62,2.88,4.62,6.8,0,16.57.09,48.13-.26,56.76Z"/><path class="cls-1" d="m273.19,84.4l-.09-20.05c0-2.01-5.06-4.97-6.02-5.06-1.57-.17-2.44-1.13.7-1.48,1.74-.17,3.05.52,4.88,1.13,6.89,2.18,4.62,2.79,4.62,6.71l-.35,38.88c-.09,9.59-.61,13.43-2.53,13.43-1.05,0-1.13-3.31-1.13-8.28l-.09-23.02-7.24.7c-1.92.17-3.14,1.39-5.23.7-3.05-1.05-3.31-1.66-4.45-2.18-.61.96-2.79,5.06-9.07,11.77-6.1,6.45-12.56,10.81-14.21,11.94-1.05.7-2.01.61-.79-.7,1.13-1.22,7.5-5.49,14.82-15.78,7.76-10.9,11.07-20.23,11.6-21.62-1.05.09-1.74,0-4.45.26-3.14.26-8.81.7-9.42.78-1.48.09-2.18,1.31-3.84.52-1.31-.61-3.92-1.48-5.41-2.44-1.92-1.22-1.13-1.74,1.31-1.22,4.88.96,19.27.43,20.49-.09.78,0,2.09-1.13,2.62-1.13s4.8,2.35,4.8,3.49c0,.7-1.74,1.13-2.09,1.83-.52,1.48-1.74,3.92-2.96,6.36-1.05,2.01-2.27,4.27-2.79,4.97,1.05.17,1.22.17,2.88.26,6.02.26,11.94-.52,13.43-.7Zm8.46-31.74c-1.57-.09-2.7-1.48.7-1.74,2.27-.17,4.36.87,6.19,1.48,7.15,2.35,4.62,2.88,4.62,6.8l-.26,56.93c-.09,9.59-.78,13.43-2.7,13.43-.96,0-1.31-3.49-1.31-8.46l-.17-62.95c0-2.01-6.1-5.41-7.06-5.49Z"/><path class="cls-1" d="m143.96,301.66v2.14c0,4.69-.76,6.04-2.18,6.04-2.44,0-3.17-4.03-4.49-4.03-.17,0-.3.07-.4.17.43.3.76.92.76,1.91,0,1.12-.5,1.95-1.16,1.95s-1.32-.5-1.32-2.31c0-7.79,6.57-10.13,6.57-16.96,0-2.54-.96-3.63-2.18-3.63-1.16,0-1.91.92-1.91,2.54,0,1.75.66,2.41,1.29,2.41,0,1.25-.63,2.08-1.45,2.08s-1.65-.83-1.65-3c0-3.6,1.78-4.85,3.73-4.85,2.57,0,3.99,1.82,3.99,4.85,0,7-6.73,8.75-7.43,14.85.03,0,.07-.03.13-.03.3-.59.76-.96,1.35-.96,1.58,0,2.48,2.05,3.93,2.05,1.06,0,1.65-.89,1.65-5.21h.76Z"/><path class="cls-1" d="m145.87,298c0-8.42,1.85-11.88,4.95-11.88s4.95,3.47,4.95,11.88-1.81,11.85-4.95,11.85-4.95-3.43-4.95-11.85Zm7.89,0c0-8.35-.89-11.06-2.94-11.06s-2.94,2.71-2.94,11.06.86,11.02,2.94,11.02,2.94-2.67,2.94-11.02Z"/><path class="cls-1" d="m157.49,309.55v-.66c2.15,0,2.41-.99,2.41-9.11v-8.55l-2.64,1.42-.33-.59c1.78-1.55,3.04-3.37,3.99-5.91h.73c-.13,3.66-.17,5.02-.17,13.63,0,8.12.36,9.11,2.41,9.11v.66h-6.4Z"/><path class="cls-1" d="m173.96,297.34c0,8.81-1.95,12.51-5.31,12.51-1.62,0-3.27-1.29-3.27-3.66,0-1.82.69-2.77,1.58-2.77.76,0,1.49.46,1.58,1.78-.5.07-1.09.5-1.09,1.78,0,1.39.69,1.98,1.49,1.98,2.01,0,3.04-2.18,3.07-10.5-.66,2.01-1.98,2.57-3.27,2.57-2.18,0-4.06-2.24-4.06-7,0-5.15,1.98-7.89,4.59-7.89,2.9,0,4.69,3,4.69,11.19Zm-1.95-3.93c0-4.72-1.12-6.44-2.74-6.44s-2.67,1.65-2.67,6.44,1.09,6.6,2.67,6.6,2.74-1.68,2.74-6.6Z"/><path class="cls-1" d="m56.16,9.79l-.21.87-3.75.82-6.63,30.32,3.9.98-.15.92h-11.05l.15-.92,4.37-.98,6.01-27.95-18.14,30.47h-1.18l-3.96-29.86-6.99,27.34,3.85.98-.16.92h-9.76l.15-.92,4.32-.98,7.66-30.11-3.85-1.03.21-.87h6.89l3.96,30.06,17.78-30.06h6.58Z"/><path class="cls-1" d="m53.89,35.33c0-8.17,4.47-16.08,11.66-16.08,4.63,0,7.14,3.34,7.14,8.73,0,8.17-4.47,16.34-11.66,16.34-4.68,0-7.14-3.6-7.14-8.99Zm15.67-7.55c0-4.63-1.54-7.3-4.37-7.3-5.45,0-8.22,8.73-8.22,15.16,0,4.73,1.65,7.5,4.37,7.5,5.34,0,8.22-8.68,8.22-15.36Z"/><path class="cls-1" d="m74.19,35.33c0-8.17,4.47-16.08,11.66-16.08,4.62,0,7.14,3.34,7.14,8.73,0,8.17-4.47,16.34-11.66,16.34-4.68,0-7.14-3.6-7.14-8.99Zm15.67-7.55c0-4.63-1.54-7.3-4.37-7.3-5.45,0-8.22,8.73-8.22,15.16,0,4.73,1.64,7.5,4.37,7.5,5.34,0,8.22-8.68,8.22-15.36Z"/><path class="cls-1" d="m116.63,41.71l-5.29,2.72-1.54-1.13,2.67-13.72c.36-1.75.57-3.44.51-4.93-.05-2.11-.72-3.7-2.36-3.7-4.83,0-8.63,9.3-10.74,15.01l-1.54,7.76h-2.83l4.26-21.94-3.29.67.1-.98,6.17-2.26.31.26-2.16,10.95c2.21-5.29,5.7-11.2,10.95-11.2,2.52,0,3.85,2.31,3.96,5.4.05,1.33-.1,2.82-.41,4.42l-2.57,13.1,3.49-1.28.31.87Z"/><path class="cls-1" d="m120.02,43.3l6.37-33.66-3.39.41.15-1.08,6.17-1.75.36.26-6.53,34.22,3.49-.82.26.82-5.24,2.72-1.65-1.13Z"/><path class="cls-1" d="m130.91,43.3l4.26-21.69-3.34.41.15-1.08,6.17-1.75.31.26-4.47,22.61,3.49-1.23.31.87-5.24,2.72-1.65-1.13Zm4.93-31.5c.05-1.13.92-2.06,2.06-2.06s1.95.93,2,2.06c.05,1.18-.87,2.06-2,2.06s-2.11-.87-2.06-2.06Z"/><path class="cls-1" d="m144.68,35.28c-.26,1.39-.41,2.67-.41,3.85,0,2,.51,3.49,2,3.49,1.59,0,4.32-2.62,5.86-6.37l1.03.36c-1.95,4.78-4.88,7.86-7.76,7.86s-4.11-2.26-4.11-5.34c0-1.08.15-2.26.41-3.44l3.24-14.8h-2.72l.21-1.03h2.72l1.18-5.29,3.19-1.13-1.44,6.42h6.99l-.21,1.03h-6.99l-3.19,14.39Z"/><path class="cls-1" d="m209.32,9.79l-.16.87-3.24.87-15.26,32.68h-1.03l-1.7-29.24-13.93,29.24h-1.03l-2.11-32.68-2.77-.87.21-.87h9.87l-.21.87-3.91.87,1.34,26.77,13.67-29.08h1.59l1.44,28.67,12.18-26.36-3.55-.87.15-.87h8.43Z"/><path class="cls-1" d="m206.28,43.3l4.26-21.69-3.34.41.15-1.08,6.17-1.75.31.26-4.47,22.61,3.49-1.23.31.87-5.24,2.72-1.64-1.13Zm4.93-31.5c.05-1.13.93-2.06,2.06-2.06s1.95.93,2,2.06c.05,1.18-.87,2.06-2,2.06s-2.11-.87-2.06-2.06Z"/><path class="cls-1" d="m238.19,41.71l-5.29,2.72-1.54-1.13,2.67-13.72c.36-1.75.57-3.44.51-4.93-.05-2.11-.72-3.7-2.36-3.7-4.83,0-8.63,9.3-10.74,15.01l-1.54,7.76h-2.83l4.27-21.94-3.29.67.1-.98,6.17-2.26.31.26-2.16,10.95c2.21-5.29,5.7-11.2,10.95-11.2,2.52,0,3.85,2.31,3.96,5.4.05,1.33-.1,2.82-.41,4.42l-2.57,13.1,3.49-1.28.31.87Z"/><path class="cls-1" d="m245.02,35.28c-.26,1.39-.41,2.67-.41,3.85,0,2,.51,3.49,2,3.49,1.59,0,4.32-2.62,5.86-6.37l1.03.36c-1.95,4.78-4.88,7.86-7.76,7.86s-4.11-2.26-4.11-5.34c0-1.08.15-2.26.41-3.44l3.24-14.8h-2.72l.21-1.03h2.72l1.18-5.29,3.19-1.13-1.44,6.42h6.99l-.21,1.03h-6.99l-3.19,14.39Z"/><path class="cls-1" d="m259.04,30.81c-.1.98-.21,1.95-.21,2.98,0,5.86,2.83,8.58,5.86,8.58,3.34,0,5.81-2.72,6.63-6.42l.87.15c-.87,4.98-4.37,8.22-8.84,8.22-4.83,0-7.6-4.21-7.6-9.97,0-6.68,3.85-15.11,11.71-15.11,4.16,0,5.91,3.08,5.96,6.99,0,1.44-.26,2.98-.67,4.57h-13.72Zm.21-1.08h11.2c.26-1.08.41-2.36.41-3.55,0-2.93-1.03-5.6-3.8-5.6-3.65,0-6.73,4.01-7.81,9.15Z"/><path class="cls-1" d="m294.19,19.92l-2.67,7.4-.77-.21.57-6.12c-4.11.46-8.22,8.27-10.48,15.06h-.05l-1.49,7.66h-2.83l4.27-22.1-3.34.41.15-1.08,6.17-1.75.31.26-2.16,11.1c1.9-5.19,5.19-11.1,10.79-11.3l1.54.67Z"/></svg>