<?xml version="1.0" encoding="UTF-8"?><svg id="_레이어_1" xmlns="http://www.w3.org/2000/svg" viewBox="0 0 300 315"><defs><style>.cls-1{fill:#008f41;stroke-width:0px;}</style></defs><path class="cls-1" d="m138.32,115.57v2.93c0,4.53-.81,6.01-2.62,6.01-2.83,0-3.43-4.38-4.95-4.38-.14,0-.25.04-.35.11.42.39.74,1.06.74,2.09,0,1.27-.57,2.19-1.38,2.19-.74,0-1.52-.67-1.52-2.65,0-8.17,7.14-10.75,7.14-18.03,0-2.69-.96-3.71-2.12-3.71s-1.94.92-1.94,2.69c0,1.91.71,2.55,1.34,2.58-.04,1.41-.81,2.33-1.8,2.33s-1.98-.99-1.98-3.43c0-3.68,2.12-5.2,4.42-5.2,3.01,0,4.67,1.98,4.67,5.41,0,7.35-7.67,9.3-8.59,15.48.07,0,.14-.04.18-.04.39-.67.99-1.03,1.73-1.03,1.7,0,2.83,1.87,4.35,1.87,1.13,0,1.73-1.13,1.73-5.23h.96Z"/><path class="cls-1" d="m140.19,111.83c0-8.77,2.05-12.73,5.55-12.73s5.55,3.96,5.55,12.73-1.98,12.69-5.55,12.69-5.55-3.92-5.55-12.69Zm8.31,0c0-8.94-.78-11.7-2.76-11.7s-2.72,2.76-2.72,11.7.74,11.67,2.72,11.67,2.76-2.72,2.76-11.67Z"/><path class="cls-1" d="m163,115.57v2.93c0,4.53-.81,6.01-2.62,6.01-2.83,0-3.43-4.38-4.95-4.38-.14,0-.25.04-.35.11.42.39.74,1.06.74,2.09,0,1.27-.57,2.19-1.38,2.19-.74,0-1.52-.67-1.52-2.65,0-8.17,7.14-10.75,7.14-18.03,0-2.69-.96-3.71-2.12-3.71s-1.94.92-1.94,2.69c0,1.91.71,2.55,1.34,2.58-.04,1.41-.81,2.33-1.8,2.33s-1.98-.99-1.98-3.43c0-3.68,2.12-5.2,4.42-5.2,3.01,0,4.67,1.98,4.67,5.41,0,7.35-7.67,9.3-8.59,15.48.07,0,.14-.04.18-.04.39-.67.99-1.03,1.73-1.03,1.7,0,2.83,1.87,4.35,1.87,1.13,0,1.73-1.13,1.73-5.23h.96Z"/><path class="cls-1" d="m164.87,111.83c0-8.77,2.05-12.73,5.55-12.73s5.55,3.96,5.55,12.73-1.98,12.69-5.55,12.69-5.55-3.92-5.55-12.69Zm8.31,0c0-8.94-.78-11.7-2.76-11.7s-2.72,2.76-2.72,11.7.74,11.67,2.72,11.67,2.76-2.72,2.76-11.67Z"/><path class="cls-1" d="m92.62,36.25c-3.83,9.11-5.47,17.69-4.47,27.46.86,8.51,2.14,16.98,5.43,24.98.29.7.43,1.45.71,2.42-5.95.5-14.59.04-20.49.17-.32-1.1-.69-1.96-.8-2.86-1.15-8.98-1.1-17.93.28-26.98,1-6.52,3.97-11.64,6.65-17.58,1.84-4.06,3.06-8.24,3.38-12.72.14-2.03.14-4.15-.25-6.14-1.32-6.68-4.98-10.08-11.5-8.17-1.21.35-1.82.82-2.9,1.47-4.96,3.01-8.08,9.13-9.58,12.85-.32,1.02-.68,2.04-1.06,3.05,0,0,0,.02,0,.03,0,0,0,0,0,0-.26.68-.52,1.35-.8,2.02-3.83,9.11-5.17,17.69-4.17,27.46.86,8.51,2.14,16.98,5.43,24.98.29.7.43,1.45.71,2.42-5.95.5-14.59.04-20.49.17-.32-1.1-.69-1.96-.8-2.86-1.15-8.98-1.1-17.93.28-26.98,1-6.52,3.67-11.64,6.35-17.58,1.84-4.06,3.36-8.24,3.68-12.72.14-2.03.14-4.15-.25-6.14-1.32-6.68-5.28-10.08-11.8-8.17-1.21.35-1.77.91-2.9,1.47-4.52,2.26-10.71,7.22-11.79,15.82-.13,1-.26,3.24-.32,3.74-.27,3.75-.44,7.48-.52,11.2-.28,13.95,1.32,28.36,3.84,42.79-6.18.14-12.05-.09-17.57,0-.75.01-2.28.2-3.34,0,.2-1.1.67-2.6.84-3.48,1.58-8.12,2.5-25.3,2.69-33.54.23-9.99.29-8.03.44-18.02.12-7.8-1.31-18.47-2.49-26.15-.18-1.2-.37-3.04-1.48-4.54,6.4,0,15.39.32,21.81,0-.64,3.37-1.21,6.73-1.73,10.07.53-.64.88-1.08,1.21-1.53,2.73-3.8,5.43-6.92,9.83-8.72,5.79-2.36,11.11-2.74,17.06-.86,4.02,1.27,6.7,4.11,8.13,8.08.17.47.32.94.45,1.41,2.71-3.77,5.4-6.85,9.78-8.64,5.79-2.36,10.81-2.74,16.76-.86,4.02,1.27,6.7,4.11,8.13,8.08,1.31,3.67,1.5,7.43.86,11.25-.68,4.09-1.61,8.01-3.21,11.82Z"/><path class="cls-1" d="m119.89,90.3c.07.28.26,1.03.18,1.56h-8.84c-3,0-5.96.02-8.87-.01-.09-.76.16-1.38.29-1.91,2.6-10.76,2.87-26.94,2.59-31.15-.58-8.98-.21-18.35-2.61-27.19-.07-.27-.49-1.18-.41-1.71,2.89,0,6.12.22,8.89.1,2.66-.12,6.56-.14,9.48-.1-.38.96-.6,1.56-.72,2.09-2.6,10.76-2.59,21.85-2.59,32.79,0,2.41.21,16.7,2.61,25.54ZM102.72,14.64c.44-5.54,4.57-7.43,8.77-7.7,4.95-.31,8.72,3.49,8.59,8.22.3,3.97-3.16,7.7-9.18,7.61-4.57-.07-8.51-4.05-8.18-8.13Z"/><path class="cls-1" d="m174.85,91.77h-8.84c-3,0-5.96.02-8.87-.01-.09-.76.16-1.38.29-1.91,1.15-4.77,1.85-10.62,2.24-16.01,0-1.53-.02-3.04,0-4.53.04-6.19.04-12.72.04-18.9,0-1.75,0-2.9-.09-4.64-.05-.94-.16-1.91-.44-2.8-1.37-4.52-6.36-6.5-9.94-3.45-3.15,2.68-4.88,6.33-5.48,10.28-.64,4.22-.76,8.53-.85,12.8-.08,3.95.12,6.79.09,10.75.32,5.31.98,11.94,2.32,16.87.08.28.26,1.02.18,1.56h-8.84c-3,0-5.96.02-8.87-.01-.09-.76.16-1.38.29-1.91,1.18-4.89,1.88-10.89,2.27-16.38.37-3.95.13-25.11.09-26.4-.15-5.2-.78-5.28-4.12-9.71,2.88-1.48,10.27-6.31,16.2-9.3.41,3.49.32,10.17.26,12.14.63-1.72,2.65-5.47,3.09-6.09,5.13-7.11,14.2-7.34,20.18-4.12,3.4,1.83,5.94,5.58,6.51,9.37.38,2.49.39,5.06.36,7.6-.09,9.69-.17,19.16-.4,28.81.36,4.81,1.01,10.26,2.15,14.47.08.28.26,1.02.18,1.56Z"/><path class="cls-1" d="m228.85,32.06c-2.6,10.76-2.89,21.85-2.89,32.79,0,2.41.21,16.7,2.61,25.54.08.28.26,1.02.18,1.56h-8.84c-3,0-3.05.02-5.97-.01-.05-.45-.48-3.65-.76-7.03-1.52,2.26-3.11,4.24-3.48,4.69-5.49,6.75-17.79,4.86-22.81-3.86-2.26-3.92-3.45-7.13-4.23-11.51-1.23-6.92-1.09-13.66-.38-20.61.6-5.91,2.37-11.51,5.56-16.54,2.83-4.46,8.19-8.77,13.6-8.77s9.17,3.27,11.88,7.85c-.02-3.53-.03-6,0-6.19,2.89,0,3.69.22,6.46.1,2.66-.12,6.86-.14,9.78-.1-.39.96-.6,1.56-.73,2.09Zm-15.4,26.81c0-1.73,0-3.77-.02-5.97-.3-11.42-4.66-16.66-9.53-15.76-2.52.46-5.26,3.75-5.69,6.67-.35,2.34-.66,3.13-.79,5.48-.2,3.48-.25,10.9-.29,10.9-.04,2.69.12,5.39.22,8.07.12,3.16.07,2.13.36,5.28.68,8.04,4.88,10.43,7.58,10.44,1.62,0,2.37-.16,3.73-1.13,2.1-1.49,3.5-3.93,4.2-7.88.38-7.14.22-13.65.22-16.1Z"/><path class="cls-1" d="m272.2,32.26c-.53,1.33-1.43,2.8-1.97,4.26-.59,1.64-2.86,6.7-4.11,8.77-1.05-.64-.22-.08-1.82-1.32-4.95-3.83-11.18-2.55-12.39,3.88-.37,1.99-.16,1.75-.22,3.71-.1,8.11-.16,15.5-.14,21.83.32,5.31.98,11.94,2.32,16.87.07.28.26,1.02.18,1.56h-9.05c-1.51.07-3.02.05-4.5,0-1.4,0-2.79,0-4.17-.02-.09-.76.16-1.38.29-1.91,1.18-4.89,1.88-10.89,2.27-16.38.43-7.11.08-7.79.13-14.91.02-2.09.04-4.58.06-7.2-.14-5.3.02-10.44-1.55-15.6-.5-1.66-.97-3.8-1.61-5.97,5.66,0,10.88,0,16.33,0-.14,1.5-.29,2.55-.35,3.47-.05.77-.03,5.63-.05,7.05.57-1.67,2.12-5.54,2.61-6.21,3.86-5.24,6.16-6.45,12.22-5.44,1.62.27,4.54,1.75,5.49,3.57Z"/><path class="cls-1" d="m293.38,90.3c.07.28.26,1.03.18,1.56h-8.84c-3,0-5.96.02-8.87-.01-.09-.76.16-1.38.29-1.91,2.6-10.76,2.87-26.94,2.59-31.15-.58-8.98-.21-18.35-2.61-27.19-.07-.27-.49-1.18-.41-1.71,2.89,0,6.12.22,8.89.1,2.66-.12,6.56-.14,9.48-.1-.38.96-.6,1.56-.72,2.09-2.6,10.76-2.59,21.85-2.59,32.79,0,2.41.21,16.7,2.61,25.54Zm-17.17-75.66c.44-5.54,4.57-7.43,8.77-7.7,4.95-.31,8.72,3.49,8.59,8.22.3,3.97-3.16,7.7-9.18,7.61-4.57-.07-8.51-4.05-8.18-8.13Z"/><path class="cls-1" d="m61.17,286.91c-1.04,0-1.86-.15-2.61-.3-.82-.07-1.56-.37-2.31-.89l.15-.89c.22,0,.45-.07.74-.22.15-.07.52-.22,1.12-.52.6-.37,1.04-.82,1.19-1.34.07-.45.15-1.04.15-1.94v-28.51c0-.22-.07-.52-.22-.82-.15-.3-.37-.6-.6-1.04.07,0,.22-.07.37-.22.07-.07.15-.15.3-.3.07,0,.15-.07.3-.22,1.94.3,3.42.74,4.47,1.34.89.6,1.41,1.04,1.41,1.27v4.84c2.46-2.01,5.21-3.72,8.34-5.21,2.98-1.34,6.18-2.08,9.45-2.08.52,0,1.19.15,2.08.45.82.37,1.64.74,2.53,1.19.82.45,1.56.97,2.31,1.41.67.6,1.12,1.04,1.34,1.49,0,.52-.22,1.12-.52,1.86-.45.82-.74,1.49-1.04,2.08v5.81c-.07,1.64-.07,3.42-.07,5.28-.07,1.94-.07,3.72-.07,5.36-.07,1.71-.07,3.13-.07,4.32,0,1.26-.07,2.01-.07,2.23-.07.75-.22,1.34-.45,1.86-.3.6-.89.89-1.64.89h-22.11v2.16c-.74.3-1.41.52-2.16.52-.82.15-1.56.15-2.31.15Zm4.47-5.21h14.74c1.64,0,2.68-.22,3.2-.67.45-.37.74-1.19.74-2.38v-25.98c-1.41-.15-2.98-.07-4.76.37-1.79.52-3.57,1.19-5.29,1.94-1.79.89-3.5,1.79-4.99,2.75-1.56,1.04-2.75,2.01-3.65,2.9v21.07Zm43.62,22.33c0,1.34-.22,2.38-.6,3.27-.45.82-1.49,1.27-2.98,1.27-1.19,0-2.16-.22-2.9-.6-.89-.45-1.71-1.04-2.61-1.86l.3-.45c.89,0,1.64-.15,2.31-.52.6-.3.89-1.12.97-2.38v-61.12c0-.22-.15-.52-.3-.97-.22-.3-.45-.67-.67-1.04.15-.15.37-.22.52-.37.07-.07.15-.15.3-.3,1.94.3,3.42.67,4.32,1.12.89.45,1.34.82,1.34,1.04v62.9Z"/><path class="cls-1" d="m147.98,279.82c.88.34,1.55.88,1.95,1.62.4.81.61,1.68.61,2.69,0,.13-.07.34-.07.47-.07.27-.13.47-.27.67-.2.27-.47.4-.81.54-.4.2-.88.27-1.48.27h-18.86c-.67,0-1.21.07-1.68.14-.54.13-1.08.34-1.55.47-.54.2-1.01.34-1.41.47-.47.14-.88.2-1.21.2-.4,0-.88-.13-1.28-.4-.54-.27-.94-.61-1.28-1.01-.4-.34-.67-.74-.88-1.14-.27-.34-.4-.61-.4-.88,0-.54.07-1.08.27-1.62.13-.47.27-1.01.4-1.55v-22.7c0-1.01-.67-1.75-1.89-2.29-.34-.13-.47-.34-.47-.67s.2-.61.74-.74c.47-.13,1.01-.2,1.68-.2.54,0,1.15.07,1.68.07.47.07.81.13,1.08.13.67.13,1.21.4,1.68.81.4.47.67,1.08.67,1.75v23.98c0,.94.4,1.62,1.35,2.02.88.54,2.02.74,3.5.74h11.32c1.41,0,2.63-.07,3.57-.27.88-.14,1.55-.47,2.09-1.08.27-.27.4-.61.47-1.01v-.88l.47-.61Zm28.43-6.6c.07.47.13.81.13,1.01,0,.27-.34.34-.94.2-.4-.07-.81-.13-1.28-.13h-10.98v29.98c0,1.21-.2,2.16-.61,2.96-.47.74-1.41,1.15-2.76,1.15-1.08,0-1.95-.2-2.63-.54-.81-.4-1.55-.94-2.36-1.68l.27-.4c.81,0,1.48-.13,2.09-.47.54-.27.81-1.01.88-2.16v-55.31c0-.2-.13-.47-.27-.88-.2-.27-.4-.61-.61-.94.14-.14.34-.2.47-.34.07-.07.14-.13.27-.27,1.75.27,3.1.61,3.97,1.01.81.4,1.28.74,1.28.94v24.86l2.16-.07c1.48-.07,2.7-.2,3.64-.47.94-.13,1.68-.4,2.29-.67.54-.27,1.01-.54,1.28-.88.27-.27.47-.54.61-.81.07,0,.13,0,.27-.07h.2c.4.4.88.88,1.48,1.48.54.67.88,1.48,1.14,2.49Z"/><path class="cls-1" d="m209.2,285.8c1.64,0,2.98-.07,3.87-.22.82-.15,1.49-.45,2.08-1.04.52-.45.82-.82.97-1.27,0-.37.07-.74.07-1.12l.37-.6c1.19.45,2.16,1.04,2.75,1.94.6.97.67,2.16.3,3.57-.07.22-.3.45-.67.67-.45.3-1.19.45-2.38.45h-23.45c-.67,0-1.26.07-1.79.22-.6.15-1.19.3-1.79.45-.6.15-1.12.3-1.56.37-.52.15-.82.22-.89.22-.45,0-.97-.15-1.41-.45-.6-.3-1.04-.67-1.41-1.12-.45-.37-.75-.82-.97-1.27-.3-.37-.45-.67-.45-.97,0-.52.07-1.19.3-2.01.15-.74.3-1.41.37-2.16v-11.17c0-1.12-.15-1.86-.45-2.16-.3-.3-.89-.45-1.71-.45-.3,0-.45-.07-.52-.37-.15-.22-.22-.45-.07-.67.07-.15.22-.37.52-.52.15-.07.37-.15.67-.22.67-.07,1.41-.15,2.16-.15s1.56.07,2.61.22c1.12.22,2.16.45,3.13.6.89.3,1.34.45,1.49.45h14.74v-14.96h-11.17c-1.41,0-2.61.15-3.57.3-1.04.22-1.94.45-2.61.6-.74.22-1.27.37-1.71.52-.45.22-.82.3-1.12.3-.37,0-.74-.15-1.04-.52-.45-.3-.82-.74-1.12-1.27-.37-.45-.67-1.04-.89-1.64-.3-.52-.52-.97-.67-1.41l.6-.37c.82.3,1.71.6,2.68.74.89.3,1.71.37,2.61.37h15.78c.89-.37,1.79-.75,2.68-1.12.74-.22,1.49-.45,2.38-.74.74-.22,1.49-.37,2.23-.37.15,0,.37.07.75.22.3.22.6.45.89.67.3.3.52.52.82.82.15.3.3.6.3.74,0,.6-.22,1.41-.6,2.31-.45,1.04-.74,1.79-1.04,2.38l-1.12,12.43h2.53c.07,0,.3.07.67.15.3.15.45.67.45,1.41,0,.37-.15.6-.37.67-.3.15-.52.15-.82.15h-23.97v12.73c0,.97.3,1.79,1.04,2.53.67.74,1.79,1.12,3.27,1.12h15.26Zm23.52,18.24c0,1.34-.22,2.38-.6,3.27-.45.82-1.49,1.27-2.98,1.27-1.19,0-2.16-.22-2.9-.6-.89-.45-1.71-1.04-2.61-1.86l.3-.45c.89,0,1.64-.15,2.31-.52.6-.3.89-1.12.97-2.38v-61.12c0-.22-.15-.52-.3-.97-.22-.3-.45-.67-.67-1.04.15-.15.37-.22.52-.37l.3-.3c1.94.3,3.42.67,4.32,1.12.89.45,1.34.82,1.34,1.04v62.9Z"/></svg>