<?xml version="1.0" encoding="utf-8"?>
<!-- Generator: Adobe Illustrator 28.0.0, SVG Export Plug-In . SVG Version: 6.00 Build 0)  -->
<svg version="1.1" id="_레이어_1" xmlns="http://www.w3.org/2000/svg" xmlns:xlink="http://www.w3.org/1999/xlink" x="0px"
	 y="0px" viewBox="0 0 300 315" style="enable-background:new 0 0 300 315;" xml:space="preserve">
<style type="text/css">
	.st0{fill:#FF008F;}
</style>
<path class="st0" d="M78.79,36.49c-2.2-0.68-4.23-1.92-5.69-3.27l0.11-3.16c5.01-2.42,14.65-8.79,18.7-12.79L84.59,18l-5.75,1.18
	c-1.8-1.63-3.66-4.34-4.34-6.7l1.75-3.04l6.76,0.34l11.38-0.51l4.11-0.56c2.31,1.75,5.13,5.3,6.31,8.23
	c-6.87,8.45-16.06,14.82-26.03,19.55L78.79,36.49z M116.82,47.76c1.69,1.41,3.16,3.21,3.72,4.79l-1.86,2.99l-8.62-0.34l-16.39,0.45
	c-1.58,0.68-3.32,1.24-4.96,1.46l-2.87-1.92l0.28-3.21v-9.13l-1.75-2.65l0.56-5.07c3.32-0.34,6.7-0.17,9.75,0.51l14.08-0.45
	l4.73-0.96c2.31,0.9,5.41,3.21,6.48,4.85l-3.16,8.68H116.82z M107.36,47.48v-4.39l-10.87,0.34v4.28L107.36,47.48z M108.66,24.89
	V13.62l-2.31-3.77l0.56-6.25c4.34-0.45,9.24-0.06,13.01,1.13v4.79l-0.56,3.55v9.97l0.34,5.75c-1.69,2.2-5.58,4.11-8.51,4.11
	l-2.87-1.92L108.66,24.89L108.66,24.89z"/>
<path class="st0" d="M173.39,26.63c1.58,1.75,3.16,4.17,3.66,6.37l-1.92,2.14l-9.92-0.45l-30.87,0.56l-7.61,1.13
	c-1.8-1.58-3.49-4-4.34-6.14l1.75-2.59l9.8,0.45l11.21-0.17v-3.27l-2.03,0.06c-1.69,0.96-3.83,1.75-5.86,2.03l-2.65-1.92l0.28-3.1
	v-8.96l-1.75-2.65l0.56-5.07c4.11-0.45,8.17-0.06,11.72,1.13v3.66l9.18-0.23l-0.06-0.06l0.56-5.07c4.11-0.45,8.17-0.06,11.72,1.13
	v3.61l-0.56,2.42v8.23l0.28,2.76c-1.69,1.75-4.96,3.1-7.89,3.55l-2.48-1.8l-0.85,0.06v3.32l10.25-0.17l7.77-0.96L173.39,26.63z
	 M155.53,38.01l3.83-0.96c2.99,0.62,6.87,2.25,8.73,3.72l-0.73,3.89v9.69c-2.25,1.24-5.13,1.8-8.28,1.8l-2.42-1.86v-8.45
	l-13.01,0.56l-5.35,1.13c-2.2-1.35-4.51-4.11-5.47-6.82l1.69-2.76l7.61,0.34l13.41-0.28L155.53,38.01z M144.88,18.35l11.44-0.28
	v-2.2l-11.44,0.28V18.35z"/>
<path class="st0" d="M207.42,30.8l-18.99,1.97l-4.45,0.96c-2.2-1.3-3.78-3.21-4.85-5.63V18.07l-2.31-3.78l0.56-5.63
	c4.34-0.45,9.13-0.06,12.9,1.13v4.17l-0.56,3.55v6.59L206,23.2l1.69,1.63l-0.28,5.97H207.42z M217.5,47.59
	c1.69,1.46,3.16,3.38,3.72,4.96l-1.86,2.99l-8.39-0.34l-15.72,0.45c-1.46,0.68-3.1,1.24-4.73,1.46l-2.87-1.92l0.28-3.32v-9.41
	l-1.75-2.65l0.56-5.24c3.27-0.34,6.54-0.17,9.52,0.51l13.41-0.45l4.51-0.96c2.31,0.9,5.41,3.21,6.48,4.85
	C220.66,38.52,217.5,47.59,217.5,47.59z M208.37,47.31v-4.62l-10.42,0.39v4.45L208.37,47.31L208.37,47.31z M224.88,13.39
	c2.09,1.58,3.83,5.18,4.11,8.11l-1.97,2.25h-6.93l0.28,4.45c-1.69,2.2-5.58,4.11-8.51,4.11l-2.87-1.92l0.34-6.03V13.54l-2.31-3.77
	l0.56-6.2c4.34-0.45,9.24-0.06,13.02,1.13v4.73l-0.56,3.55v1.52l4.84-1.13L224.88,13.39z"/>
<path class="st0" d="M43.97,97.85l-8.68-7.27c-3.66,3.61-7.66,6.87-12.28,9.75c-2.2-0.17-4.28-0.9-6.2-2.2l0.11-3.44
	c4.56-3.32,11.44-9.69,15.04-14.65l-0.79-1.8l5.75-6.03c3.1,0.96,6.82,3.94,8.39,6.42c-1.69,2.37-3.44,4.62-5.24,6.76l9.35,3.27
	c0.06,3.16-0.62,6.31-2.14,8.79l-3.32,0.39L43.97,97.85z M61.66,114.7c1.92,1.41,3.89,3.61,4.9,5.3l-1.69,2.82l-6.82-0.34
	l-18.76,0.51l-4.68,0.39c-1.24-0.9-2.37-2.37-2.82-4l0.34-5.18c-1.24-1.07-2.37-2.54-3.15-4.11l1.75-2.25l5.63,0.34l15.32-0.45
	l0.11-1.63l-13.07,0.51l-4.56,0.85c-1.8-1.07-3.77-3.38-4.62-5.3l1.75-2.54l5.63,0.34l15.27-0.51l4.51-0.96
	c2.2,0.79,5.35,2.99,6.48,4.85l-2.65,5.13c1.07,1.01,1.97,2.25,2.65,3.27l-1.8,2.42l-8.68-0.34l-10.93,0.39v1.86l14.76-0.51
	l5.13-0.84L61.66,114.7z M67.41,79.88c2.08,1.58,3.78,4.85,4.11,7.66l-1.86,2.14h-6.99l0.17,3.61c-1.69,2.2-5.47,4.11-8.39,4.11
	l-2.87-1.92l0.28-5.75v-9.24l-2.31-3.78l0.56-6.08c4.34-0.45,9.24-0.06,13.01,1.13v4.62l-0.56,3.55V81L67.41,79.88L67.41,79.88z"/>
<path class="st0" d="M73.67,89.23c0-8.28,5.13-12.68,14.99-12.68s14.99,4.39,14.99,12.68s-5.13,12.68-14.99,12.68
	S73.67,97.52,73.67,89.23z M84.09,104.44c4.23-0.45,8.11-0.06,11.77,1.13v3.16l-0.56,2.76v1.69l15.66-0.23l7.49-1.47
	c1.97,1.8,3.89,4.9,4.51,7.38l-2.2,2.93l-6.93-0.28l-19.27,0.28l-5.58,0.39c-1.46-1.07-2.93-2.82-3.72-4.79v-5.35l-1.75-3.38
	l0.56-4.23L84.09,104.44z M92.71,89.23c0-3.04-1.13-4.56-4-4.56s-4.11,1.52-4.11,4.56s1.24,4.56,4.11,4.56S92.71,92.27,92.71,89.23z
	 M106.91,70.64c4.34-0.45,9.24-0.06,13.01,1.13v5.41l-0.56,3.55v17.86l0.45,7.1c-1.69,2.2-5.8,4.11-8.73,4.11l-2.87-1.92l0.45-7.44
	V81.28l-2.31-3.77L106.91,70.64z"/>
<path class="st0" d="M145.27,94.3l10.48,7.27c-0.17,3.61-1.24,6.7-2.99,9.18h-4.11l-7.44-10.48c-3.66,4.9-7.83,9.52-12.11,13.01
	c-2.31-0.17-4.56-0.9-6.59-2.2l0.06-3.83c5.01-4.62,12-13.97,15.21-20.11l-1.18-2.2l5.63-7.66c3.1,0.9,7.16,3.66,8.79,6.03
	C149.56,86.8,147.58,90.58,145.27,94.3z M175.13,99.82h-6.87v10.37l0.56,9.01c-1.69,2.2-6.03,4.11-8.96,4.11l-2.87-1.92l0.56-9.35
	V82.07l-2.31-3.77l0.56-7.66c4.34-0.45,9.24-0.06,13.02,1.13v6.2l-0.56,3.55v8.51l4.84-1.13c2.09,1.58,3.89,5.52,4.11,8.56
	l-2.09,2.37L175.13,99.82z"/>
<path class="st0" d="M184.38,105.79c-2.2-0.68-4.23-1.86-5.69-3.15l0.11-3.27c4.96-2.87,14.03-9.86,17.8-14.31l-6.82,0.73
	l-5.35,1.18c-1.8-1.63-3.66-4.45-4.34-6.82l1.75-3.1l6.42,0.34l10.59-0.51l4.11-0.56c2.31,1.8,5.13,5.3,6.31,8.23
	c-0.84,1.18-1.69,2.31-2.65,3.38l6.65,0.34l0.96-0.06v-6.93l-1.75-3.77l0.56-6.87c4.34-0.45,8.68-0.06,12.45,1.13v5.41l-0.56,3.55
	v17.86l0.45,7.1c-1.69,2.2-5.8,4.11-8.73,4.11l-2.87-1.92l0.45-7.44v-4.23l-0.56,0.06l-6.14,1.13c-1.41-1.18-3.21-3.55-4.23-5.69
	c-5.47,5.63-11.89,10.31-18.93,14.08L184.38,105.79z M224.04,111.48c1.97,1.8,3.89,4.9,4.51,7.38l-2.2,2.93l-6.93-0.28l-19.27,0.28
	l-5.58,0.39c-1.46-1.07-2.93-2.82-3.72-4.79v-5.35l-1.75-3.38l0.56-4.23c4.23-0.45,8.11-0.06,11.77,1.13v3.16l-0.56,2.76v1.69
	l15.66-0.23l7.49-1.47L224.04,111.48z"/>
<path class="st0" d="M230.24,104.38l9.24,0.34l23.89-2.25l1.41,1.24l-0.28,6.76l-23.49,3.04l-3.72,1.69
	c-3.21-1.41-6.87-4.62-8.85-7.94L230.24,104.38L230.24,104.38z M233.28,88.38c0-7.55,5.52-11.55,13.86-11.55s13.86,4,13.86,11.55
	s-5.52,11.61-13.86,11.61S233.28,95.93,233.28,88.38z M250.86,88.38c0-1.75-1.24-3.1-3.66-3.1s-3.66,1.3-3.66,3.1s1.24,3.1,3.66,3.1
	S250.86,90.13,250.86,88.38z M265.11,70.63c4.34-0.45,8.68-0.06,12.45,1.13v6.2L277,81.51v28.68l0.56,9.01
	c-1.69,2.2-6.03,4.11-8.96,4.11l-2.87-1.92l0.56-9.35V82.07l-1.75-3.77l0.56-7.66L265.11,70.63z"/>
<path class="st0" d="M123.58,171.54l-6.7-7.72c-4.51,3.49-9.3,6.37-14.08,8.45c-2.2-0.68-4.06-1.69-5.69-2.93v-3.21
	c5.52-2.93,14.54-9.13,18.99-13.92l-6.37,0.79l-5.18,1.13c-1.8-1.58-3.66-4.56-4.34-6.87l1.63-3.16l6.25,0.34l11.44-0.51l4.62-0.56
	c2.37,2.42,4.06,5.01,5.18,7.94l5.58,0.28v-3.27l-1.75-3.77l0.56-6.87c4.34-0.45,8.68-0.06,12.45,1.13v5.41l-0.56,3.55v17.86
	l0.45,7.1c-1.69,2.2-5.8,4.11-8.73,4.11l-2.87-1.92l0.45-7.44v-7.32l-4.45,0.84c-1.41-1.3-3.1-3.89-4.11-6.08
	c-1.24,1.41-2.54,2.76-3.89,4l7.1,3.44c0.11,3.32-0.62,6.42-2.37,8.9C127.19,171.26,123.58,171.54,123.58,171.54z M144.71,178.53
	c1.97,1.8,3.89,4.9,4.51,7.38l-2.2,2.93l-6.93-0.28l-19.27,0.28l-5.58,0.39c-1.46-1.07-2.93-2.82-3.72-4.79v-5.35l-1.75-3.38
	l0.56-4.23c4.23-0.45,8.11-0.06,11.78,1.13v3.16l-0.56,2.76v1.69l15.66-0.23L144.71,178.53L144.71,178.53z"/>
<path class="st0" d="M170.18,163.43l-9.35,0.34c-1.8,1.35-4.34,2.31-6.76,2.7l-2.82-1.92l0.28-3.04v-12.23l-1.75-2.65l0.56-3.83
	c3.44-0.34,6.48-0.17,9.47,0.51l9.47-0.45l4.84-0.96c1.75,0.9,4.34,3.27,5.35,4.85l-2.65,10.2c1.24,1.35,2.25,2.93,2.93,4.39
	l-1.86,2.42l-7.72-0.34L170.18,163.43z M192.88,181.74c1.92,1.41,3.89,3.61,4.9,5.3l-1.69,2.82l-6.82-0.34l-18.76,0.51l-4.68,0.39
	c-1.24-0.9-2.37-2.37-2.82-4l0.34-5.18c-1.24-1.07-2.37-2.54-3.16-4.11l1.75-2.25l5.63,0.34l15.32-0.45l0.11-1.63l-13.07,0.51
	l-4.56,0.85c-1.8-1.07-3.77-3.38-4.62-5.3l1.75-2.54l5.63,0.34l15.27-0.51l4.51-0.96c2.2,0.79,5.35,2.99,6.48,4.84l-2.65,5.13
	c1.07,1.01,1.97,2.25,2.65,3.27l-1.8,2.42l-8.68-0.34l-10.93,0.39v1.86l14.76-0.51L192.88,181.74L192.88,181.74z M168.2,155.65
	l0.17-4.84l-6.87,0.34v4.73L168.2,155.65z M198.62,147.48c2.09,1.58,3.77,4.84,4.11,7.66l-1.86,2.14h-6.99l0.17,3.04
	c-1.69,2.2-5.47,4.11-8.4,4.11l-2.87-1.92l0.28-5.75v-9.24l-2.31-3.77l0.56-6.08c4.34-0.45,9.24-0.06,13.02,1.13v4.62l-0.56,3.55
	v1.63l4.84-1.13L198.62,147.48z"/>
<path class="st0" d="M143.1,296.26v6c0,4.08-0.91,6.86-4.46,6.86c-5.04,0-6.72-6.82-8.93-6.82h-0.1c0.62,0.67,1.1,1.82,1.1,3.26
	c0,2.16-1.25,3.55-2.83,3.55s-3.07-1.73-3.07-4.75c0-10.75,10.66-12.77,10.66-23.23c0-3.36-0.91-3.98-1.82-3.98
	c-1.15,0-2.16,0.96-2.16,3.46s0.77,2.98,1.49,3.07c-0.1,2.83-1.97,3.98-3.74,3.98c-1.87,0-3.79-1.68-3.79-5.14
	c0-5.47,4.03-7.92,8.45-7.92c5.42,0,8.69,2.88,8.69,7.58c0,11.38-13.68,12.14-15.22,19.49c0.1-0.05,0.19-0.1,0.34-0.1
	c0.72-1.06,2.02-1.78,3.5-1.78c2.59,0,5.38,1.54,7.44,1.54c1.63,0,2.35-1.39,2.35-5.09h2.11L143.1,296.26z"/>
<path class="st0" d="M144.3,291.89c0-11.86,3.94-17.28,9.84-17.28s9.89,5.42,9.89,17.28s-3.94,17.23-9.89,17.23
	S144.3,303.74,144.3,291.89z M155.96,291.89c0-13.06-0.53-14.5-1.82-14.5s-1.78,1.44-1.78,14.5s0.53,14.45,1.78,14.45
	S155.96,304.95,155.96,291.89z"/>
<path class="st0" d="M165.99,308.7v-1.82c2.26,0,2.59-2.16,2.59-12.14v-10.61l-2.88,1.54l-0.91-1.58c3.41-2.59,6.34-5.86,9.12-9.46
	h2.59c-0.34,4.66-0.34,8.59-0.34,20.11c0,9.94,0.34,12.14,2.59,12.14v1.82h-12.77L165.99,308.7z"/>
<path class="st0" d="M179.1,291.89c0-11.86,3.94-17.28,9.84-17.28s9.89,5.42,9.89,17.28s-3.94,17.23-9.89,17.23
	S179.1,303.74,179.1,291.89z M190.77,291.89c0-13.06-0.53-14.5-1.82-14.5s-1.78,1.44-1.78,14.5s0.53,14.45,1.78,14.45
	S190.77,304.95,190.77,291.89z"/>
<path class="st0" d="M40.57,245.78c0,10.2-6.05,16.34-18.16,16.34H4.08v-3.37c2.16,0,2.51-5.45,2.51-26.89s-0.35-26.89-2.51-26.89
	v-3.37H22.5c12.88,0,17.29,5.88,17.29,14.78c0,7.44-3.29,12.71-10.2,14.01C36.85,232.38,40.57,237.83,40.57,245.78z M19.99,205.84
	v22.22h1.38c3.2,0,4.24-2.77,4.24-11.07s-1.04-11.15-4.24-11.15H19.99z M21.55,257.89c3.37,0,4.41-3.46,4.41-12.97
	s-1.04-12.62-4.41-12.62h-1.56v25.59H21.55z"/>
<path class="st0" d="M74.37,248.54c-1.82,8.3-6.57,14.35-15.39,14.35c-11.15,0-16.95-8.21-16.95-22.05s5.79-21.96,16.34-21.96
	s15.74,7.87,15.74,22.22H55.78c0,14.09,2.94,16.43,6.66,16.43c2.68,0,6.14-3.11,7.69-10.03L74.37,248.54L74.37,248.54z
	 M55.78,236.61h5.36c-0.09-10.81-0.78-13.31-2.51-13.31C56.64,223.3,55.95,225.81,55.78,236.61z"/>
<path class="st0" d="M109.9,258.74v3.37H94.51v-3.46c-1.3,2.51-3.29,4.24-6.83,4.24c-7.87,0-12.54-8.21-12.54-22.05
	s4.67-21.96,12.54-21.96c2.85,0,5.27,0.95,6.92,3.8c-0.17-14.18-0.78-17.72-2.59-17.72v-3.37h15.82
	c-0.43,8.21-0.52,20.84-0.52,31.73C107.31,255.28,107.66,258.74,109.9,258.74z M94.6,240.84c0-13.23-0.78-16.34-2.85-16.34
	s-2.85,3.11-2.85,16.34s0.69,16.43,2.85,16.43S94.6,253.98,94.6,240.84z"/>
<path class="st0" d="M142.41,248.54c-1.82,8.3-6.57,14.35-15.39,14.35c-11.15,0-16.95-8.21-16.95-22.05s5.79-21.96,16.34-21.96
	s15.74,7.87,15.74,22.22h-18.33c0,14.09,2.94,16.43,6.66,16.43c2.68,0,6.14-3.11,7.69-10.03L142.41,248.54L142.41,248.54z
	 M123.82,236.61h5.36c-0.09-10.81-0.78-13.31-2.51-13.31C124.68,223.3,123.99,225.81,123.82,236.61z"/>
<path class="st0" d="M160.91,219.58h10.89v3.29c-1.47,0.52-4.06,8.21-11.33,39.25h-8.82c-9.34-37.95-9.77-38.82-11.15-39.25v-3.29
	h17.38v3.29c-2.25,0.61-1.47,6.05,2.68,21.7c3.37-13.92,3.63-20.66,0.35-21.7V219.58z"/>
<path class="st0" d="M172.23,262.12v-3.37c2.08,0,2.59-4.06,2.59-17.9c0-12.02-0.52-17.98-2.59-17.98v-3.29h15.65
	c-0.26,6.48-0.35,14.27-0.35,21.27c0,13.83,0.61,17.9,2.59,17.9v3.37h-17.9L172.23,262.12z M188.22,208c0,4.93-2.77,8.13-7.44,8.13
	c-4.93,0-7.52-3.2-7.52-8.13s2.59-8.3,7.52-8.3C185.45,199.7,188.22,202.99,188.22,208z"/>
<path class="st0" d="M190.82,262.12v-3.37c2.16,0,2.59-3.46,2.59-26.37s-0.43-27.41-2.59-27.41v-3.37h15.82
	c-0.35,7.78-0.52,20.84-0.52,30.78c0,22.91,0.43,26.37,2.59,26.37v3.37H190.82L190.82,262.12z"/>
<path class="st0" d="M209.41,262.12v-3.37c2.16,0,2.59-3.46,2.59-26.37s-0.43-27.41-2.59-27.41v-3.37h15.82
	c-0.35,7.78-0.52,20.84-0.52,30.78c0,22.91,0.43,26.37,2.59,26.37v3.37H209.41L209.41,262.12z"/>
<path class="st0" d="M259.9,248.54c-1.82,8.3-6.57,14.35-15.39,14.35c-11.15,0-16.95-8.21-16.95-22.05s5.79-21.96,16.34-21.96
	s15.74,7.87,15.74,22.22h-18.33c0,14.09,2.94,16.43,6.66,16.43c2.68,0,6.14-3.11,7.69-10.03L259.9,248.54L259.9,248.54z
	 M241.31,236.61h5.36c-0.09-10.81-0.78-13.31-2.51-13.31C242.17,223.3,241.48,225.81,241.31,236.61z"/>
<path class="st0" d="M295.43,258.74v3.37h-15.39v-3.46c-1.3,2.51-3.29,4.24-6.83,4.24c-7.87,0-12.54-8.21-12.54-22.05
	s4.67-21.96,12.54-21.96c2.85,0,5.27,0.95,6.92,3.8c-0.17-14.18-0.78-17.72-2.59-17.72v-3.37h15.82
	c-0.43,8.21-0.52,20.84-0.52,31.73C292.84,255.28,293.19,258.74,295.43,258.74L295.43,258.74z M280.13,240.84
	c0-13.23-0.78-16.34-2.85-16.34s-2.85,3.11-2.85,16.34s0.69,16.43,2.85,16.43S280.13,253.98,280.13,240.84z"/>
</svg>
