<?xml version="1.0" encoding="utf-8"?>
<!-- Generator: Adobe Illustrator 28.0.0, SVG Export Plug-In . SVG Version: 6.00 Build 0)  -->
<svg version="1.1" id="_레이어_1" xmlns="http://www.w3.org/2000/svg" xmlns:xlink="http://www.w3.org/1999/xlink" x="0px"
	 y="0px" viewBox="0 0 300 315" style="enable-background:new 0 0 300 315;" xml:space="preserve">
<style type="text/css">
	.st0{fill:#FF008F;}
</style>
<path class="st0" d="M28.8,234.06c1.04,0.35,2.03,1.16,2.61,2.09s0.81,1.68,0.93,2.9c0.06,0.58,0.12,1.16,0.12,1.68
	c1.62-0.06,6.5-0.12,7.66-0.12c1.28,0,2.2,0.46,2.2,1.51s-0.93,1.57-2.2,1.57c-1.1,0-5.74-0.06-7.48-0.12
	c0.17,3.25,0.17,6.61,0.17,9.86h10.03c0.75,0,1.51,0,2.2-0.06c-0.12-0.81-0.12-1.86-0.12-2.96V236.9c0-0.93,0-2.15-0.35-2.9
	s-0.75-1.16-1.28-1.74c-0.46-0.52-0.75-1.04-0.41-1.62s1.28-0.58,2.2-0.12c0.93,0.46,1.91,1.33,2.38,2.32
	c0.46,0.99,0.58,1.97,0.58,4.06v14.33c0,0.87-0.06,1.62-0.23,2.2c0.99,0.17,1.57,0.64,1.57,1.39c0,1.04-1.04,1.51-2.78,1.51
	c-1.16,0-2.38-0.06-3.77-0.06H32.62c-0.29,1.22-0.87,1.97-1.8,1.8c-1.28-0.17-1.16-2.26-1.16-4.58c0-4.52,0-9.11-0.41-13.51
	c-0.12-1.1-0.29-1.86-0.7-2.55c-0.41-0.7-1.04-1.28-1.39-1.62c-0.35-0.35-0.7-0.81-0.41-1.39s0.99-0.7,2.03-0.35L28.8,234.06z
	 M64.76,226.17v41.24c0,3.83-0.52,6.5-2.2,6.26c-1.57-0.23-0.93-3.25-0.93-7.08v-39.67c0-0.87-0.06-2.03-0.7-3.19
	c-0.7-1.22-1.51-1.86-2.09-2.38s-0.81-1.1-0.58-1.62c0.23-0.52,0.93-0.87,2.15-0.41s2.44,1.45,3.31,2.84S64.76,225.29,64.76,226.17
	L64.76,226.17z"/>
<path class="st0" d="M73.17,228.38c1.1,0.41,2.09,1.28,2.84,2.67c0.41,0.75,0.52,1.8,0.58,2.44l0.46,9.22
	c0.75-0.06,1.28-0.06,1.8-0.06h6.96c0.81,0,1.62,0,2.32-0.06c-0.06-0.87,0-1.97,0-3.13c0.06-1.51,0.12-5.57,0.12-7.08
	c0-0.64-0.41-1.04-0.99-1.04l-3.65,0.12c-1.39,0.06-2.55,0.17-3.83,0c-1.1-0.17-2.2-0.75-2.2-1.68c0-0.64,0.64-1.1,1.33-1.1h1.8
	c1.8,0,5.57-0.12,6.26-0.17c0.64-0.06,1.22-0.12,1.86-0.06c0.99,0.06,2.55,0.87,2.61,1.86c0.06,0.7,0,2.15-0.06,3.31
	c-0.06,1.28-0.12,5.39-0.17,6.67c0,0.93-0.12,1.74-0.29,2.44c0.93,0.17,1.45,0.58,1.45,1.33c0,1.04-1.04,1.51-2.78,1.51
	c-1.16,0-2.38-0.06-3.77-0.06h-6.96c-0.52,0-1.1,0-1.86-0.06c-0.23,1.28-0.87,2.09-1.8,1.97c-1.28-0.17-1.1-2.26-1.22-4.58
	l-0.46-8.58c-0.06-0.87-0.17-1.8-0.58-2.55c-0.29-0.52-0.75-1.04-1.16-1.45c-0.35-0.35-0.52-0.87-0.41-1.28
	c0.17-0.64,0.87-0.93,1.8-0.58L73.17,228.38z M87.32,260.74c0.35,0,1.74,0.06,2.67,0.06c0.81,0,9.74-0.06,13.34-0.17
	c0-0.29,0-0.64,0.06-0.99c0.12-0.93,0.41-2.9,0.46-3.65c0.06-0.75-0.41-1.04-0.99-1.04l-9.4,0.17c-1.62,0.06-2.96,0.29-4.41,0.06
	c-1.1-0.17-2.15-0.93-2.15-1.8c0-0.7,0.52-1.16,1.28-1.16c0.29,0,1.51,0.06,2.38,0.06c1.86,0,9.45-0.06,11.14-0.12l2.73-0.06
	c1.33,0,2.73,1.1,2.78,1.86c0.06,0.75,0,1.22-0.12,2.15s-0.46,2.78-0.75,4l-0.17,0.64c0.64,0.17,1.04,0.58,1.04,1.22
	c0,1.04-0.99,1.45-2.61,1.45l-12.59,0.12c-0.35,0-0.75,0-1.1,0.06c0.29,1.04,0.29,2.26,0.52,3.65c0.29,1.57,1.68,2.49,3.07,2.55
	c2.09,0.12,4.47,0.06,6.55,0c2.2-0.06,2.49-0.23,4.52-0.23c1.51,0,2.15,0.7,2.15,1.51s-0.64,1.33-1.39,1.45
	c-0.75,0.12-1.45,0.12-2.26,0.12c-3.31,0-6.9,0.06-10.21,0c-2.67-0.06-4.99-1.51-5.51-4.81c-0.17-1.16-0.17-2.38-0.35-3.25
	c-0.12-0.58-0.35-0.93-0.7-1.33c-0.81-0.35-1.28-0.81-1.28-1.39c0-0.75,0.58-1.1,1.28-1.1L87.32,260.74z M108.26,226.17v16.94
	c0,3.83-0.52,6.5-2.2,6.26c-1.57-0.23-0.93-3.25-0.93-7.08v-15.37c0-0.87-0.06-2.03-0.7-3.19c-0.7-1.22-1.51-1.86-2.09-2.38
	c-0.58-0.52-0.81-1.1-0.58-1.62c0.23-0.52,0.93-0.87,2.15-0.41s2.44,1.45,3.31,2.84c0.87,1.39,1.04,3.13,1.04,4L108.26,226.17z"/>
<path class="st0" d="M115.28,248.39c3.89,0.23,5.8,0.06,8.24,0.06l29.23-0.17c2.78,0,7.66-0.06,9.45,0
	c1.86,0.06,2.78,0.93,2.55,1.97c-0.23,1.04-1.22,1.39-3.02,1.22c-1.86-0.17-4.41-0.35-8.99-0.35l-29.23,0.17
	c-1.33,0-3.31,0.17-4.35,0.23c-1.68,0.12-3.36-0.17-4.58-0.64c-0.87-0.35-1.51-0.87-1.39-1.68
	C113.31,248.45,114.18,248.33,115.28,248.39z M127.63,258.13c1.74,0,3.42,1.39,4.06,2.9c0.7,1.62,0.64,3.83,0.99,5.34
	c0.35,1.57,1.8,2.49,3.19,2.55s7.48,0.12,9.11,0.06c1.62-0.06,2.44-0.23,3.89-0.23s2.15,0.58,2.26,1.28
	c0.12,0.7-0.35,1.28-0.93,1.51c-0.58,0.23-1.39,0.29-2.2,0.29c-2.32,0-10.09,0-12.76-0.06s-4.81-1.57-5.57-4.81
	c-0.35-1.45-0.29-3.25-0.81-4.58c-0.41-0.99-1.16-1.62-1.91-2.26c-0.41-0.35-0.64-0.75-0.52-1.22c0.12-0.46,0.52-0.75,1.22-0.75
	L127.63,258.13z M149.84,232.2c0,5.57-4.81,9.63-10.44,9.63s-10.44-4-10.44-9.63s4.81-9.63,10.44-9.63S149.84,226.63,149.84,232.2z
	 M139.4,238.93c4,0,7.31-2.73,7.31-6.73s-3.31-6.73-7.31-6.73s-7.31,2.73-7.31,6.73S135.4,238.93,139.4,238.93z"/>
<path class="st0" d="M199.72,227.68c5.45,0,10.21,4,10.21,9.86s-4.76,9.86-10.21,9.86s-10.21-3.94-10.21-9.86
	S194.27,227.68,199.72,227.68z M199.72,244.5c3.89,0,7.08-2.9,7.08-6.96s-3.19-6.96-7.08-6.96s-7.08,2.84-7.08,6.96
	S195.83,244.5,199.72,244.5z M195.08,254.48c0.81,0.06,1.86,0.46,2.61,1.04s1.22,1.33,1.22,2.73v0.87c1.16-0.06,3.36-0.12,4.47-0.12
	c1.28,0,2.2,0.46,2.2,1.51s-0.93,1.57-2.2,1.57c-1.1,0-3.31-0.06-4.47-0.12l0.06,6.21h5.45c1.1,0,2.09-0.06,3.07-0.06
	c-0.06-0.81,0.06-1.8,0.06-2.84v-7.13c0-1.62-0.06-2.15-0.35-2.67c-0.29-0.52-0.7-0.75-1.33-1.16s-1.1-0.87-0.81-1.57
	c0.29-0.7,1.39-0.81,2.84-0.29c3.19,1.16,2.78,3.36,2.78,4.76l-0.06,8.87c0,0.93-0.12,1.74-0.41,2.38c0.52,0.23,0.75,0.58,0.75,1.1
	c0,1.04-1.04,1.51-2.78,1.51c-1.16,0-2.38-0.06-3.77-0.06h-5.63c-0.23,1.28-0.81,2.03-1.74,1.91c-1.28-0.17-1.22-2.26-1.22-4.58
	l-0.06-9.05c0-0.93-0.17-1.33-0.52-1.74c-0.35-0.46-0.93-0.7-1.33-0.99c-0.41-0.29-0.87-0.81-0.58-1.45
	c0.23-0.58,0.93-0.7,1.74-0.64L195.08,254.48z M214.45,267.47c2.03-2.55,4.64-6.9,6.15-11.37c0.29-0.87,0.29-1.22,0-1.68
	c-0.35-0.52-0.75-0.99-1.28-1.62c-0.58-0.58-0.7-1.28-0.23-1.8c0.52-0.58,1.39-0.41,2.32,0.12c0.99,0.52,1.91,1.39,2.49,2.26
	s0.52,2.15,0.06,3.48c-0.52,1.45-1.16,2.84-1.86,4.23c3.31,2.55,6.67,5.97,8.64,8.29c0.75,0.87,1.1,1.57,1.04,2.38
	c-0.06,0.81-0.64,1.39-1.39,1.45s-1.51-0.29-2.26-1.28c-1.8-2.38-4.58-5.63-7.42-8.35c-1.39,2.38-2.84,4.35-3.94,5.57
	c-2.03,2.32-3.25,3.42-4.64,3.94s-2.44-0.75-1.33-1.74C211.9,270.36,212.42,270.02,214.45,267.47L214.45,267.47z M212.48,237.31
	c0-0.64,0.52-1.16,1.28-1.16c0.29,0,1.51,0.06,2.38,0.06c1.45,0,5.8-0.06,7.66-0.12v-9.16c0-0.87-0.06-2.03-0.7-3.19
	c-0.7-1.22-1.51-1.86-2.09-2.38s-0.81-1.1-0.58-1.62c0.23-0.52,0.93-0.87,2.15-0.41c1.22,0.46,2.44,1.45,3.31,2.84s1.04,3.13,1.04,4
	v18.04c0,3.83-0.52,6.5-2.2,6.26c-1.57-0.23-0.93-3.25-0.93-7.08v-4.47c-1.57,0-3.94,0.12-4.76,0.17c-1.74,0.12-2.96,0.23-4.47,0
	c-1.1-0.17-2.09-0.87-2.09-1.8L212.48,237.31z"/>
<path class="st0" d="M283.94,245.61c-0.06,1.1-0.99,1.45-2.61,1.45c-2.32,0-6.55-0.12-10.03-0.12v20.47c0,3.83-0.52,6.5-2.2,6.26
	c-1.57-0.23-0.93-3.25-0.93-7.08v-12.47c-7.54,0.29-17.23,0.93-25.64,1.86c-0.99,0.12-2.61-1.16-2.61-2.26v-14.09
	c0-1.51-0.52-2.2-1.1-2.78c-1.51-0.06-2.78-0.46-3.19-1.28c-0.46-0.87,0.17-1.62,1.28-1.62l2.26,0.06
	c3.42,0.12,11.6,0.06,15.02-0.06c2.09-0.06,2.9,0.64,2.78,1.62c-0.12,0.87-1.04,1.39-2.78,1.33c-2.55-0.06-7.77-0.12-11.66-0.12
	c0.35,0.64,0.52,1.39,0.52,2.26v12.82c0,0.7,0.52,0.99,1.16,0.93c4.7-0.41,17.92-1.1,23.95-1.28v-24.59c0-0.87-0.06-2.03-0.7-3.19
	c-0.7-1.22-1.51-1.86-2.09-2.38s-0.81-1.1-0.58-1.62c0.23-0.52,0.93-0.87,2.15-0.41c1.22,0.46,2.44,1.45,3.31,2.84s1.04,3.13,1.04,4
	v18.1c3.48,0,8.12-0.29,10.03-0.29c1.62,0,2.67,0.58,2.61,1.62L283.94,245.61z"/>
<path class="st0" d="M134.74,26.2h-10.7v-2.33c0.19-0.16,0.43-0.37,0.72-0.64c0.29-0.26,0.61-0.56,0.97-0.9s0.74-0.7,1.14-1.1
	s0.79-0.82,1.18-1.25c0.54-0.61,1.02-1.16,1.43-1.66c0.41-0.5,0.74-0.96,1.01-1.4s0.46-0.87,0.59-1.3s0.19-0.86,0.19-1.31
	c0-0.32-0.07-0.63-0.22-0.94c-0.14-0.3-0.34-0.57-0.6-0.8c-0.26-0.23-0.56-0.42-0.92-0.55c-0.36-0.14-0.76-0.2-1.19-0.2
	c-0.58,0-1.1,0.09-1.57,0.26c-0.47,0.18-0.96,0.47-1.48,0.89l-1.25-2.21c0.67-0.48,1.42-0.88,2.24-1.21s1.77-0.49,2.84-0.49
	c0.69,0,1.35,0.1,1.98,0.29c0.63,0.19,1.19,0.48,1.68,0.85c0.49,0.38,0.88,0.84,1.16,1.4s0.43,1.21,0.43,1.94
	c0,0.51-0.04,0.99-0.13,1.43c-0.09,0.44-0.22,0.88-0.41,1.32c-0.18,0.44-0.42,0.89-0.72,1.36c-0.3,0.46-0.65,0.97-1.07,1.51
	c-0.32,0.42-0.67,0.84-1.04,1.26c-0.38,0.42-0.75,0.83-1.12,1.21c-0.37,0.38-0.73,0.74-1.09,1.08s-0.68,0.62-0.97,0.84h6.91v2.64
	L134.74,26.2z"/>
<path class="st0" d="M136.58,17.78c0-1.46,0.15-2.73,0.46-3.83c0.31-1.1,0.74-2,1.29-2.72c0.55-0.72,1.22-1.26,1.99-1.62
	s1.63-0.54,2.58-0.54c2.02,0,3.58,0.71,4.67,2.12s1.64,3.61,1.64,6.59c0,1.47-0.15,2.76-0.46,3.85c-0.31,1.1-0.73,2.01-1.29,2.74
	c-0.55,0.73-1.22,1.27-2,1.63c-0.78,0.36-1.64,0.54-2.59,0.54c-2.04,0-3.6-0.75-4.67-2.24c-1.08-1.5-1.61-3.67-1.61-6.52H136.58z
	 M139.7,17.78c0,0.24,0,0.47,0.01,0.68c0,0.22,0.02,0.44,0.04,0.66l5.81-5.35c-0.48-1.38-1.37-2.06-2.69-2.06
	c-1.02,0-1.8,0.49-2.34,1.48c-0.55,0.98-0.82,2.52-0.82,4.6L139.7,17.78z M146.08,17.78c0-0.26,0-0.5-0.01-0.73
	s-0.02-0.46-0.04-0.68l-5.83,5.35c0.49,1.46,1.39,2.18,2.69,2.18c1.02,0,1.8-0.49,2.36-1.46C145.8,21.46,146.08,19.91,146.08,17.78
	L146.08,17.78z"/>
<path class="st0" d="M151.97,23.56h3.67V13.07l-3.17,2.42l-1.44-1.92l5.47-4.18h2.11v14.16h3.6v2.64h-10.25v-2.64L151.97,23.56z"/>
<path class="st0" d="M175.97,21c0,0.78-0.15,1.51-0.44,2.18c-0.3,0.67-0.7,1.26-1.21,1.75c-0.51,0.5-1.12,0.89-1.84,1.18
	c-0.71,0.29-1.48,0.43-2.29,0.43s-1.61-0.13-2.34-0.4c-0.73-0.26-1.36-0.66-1.91-1.19s-0.98-1.19-1.3-1.99s-0.48-1.73-0.48-2.78
	c0-1.58,0.28-3.02,0.83-4.32s1.26-2.42,2.12-3.37s1.83-1.72,2.9-2.3c1.07-0.58,2.14-0.96,3.19-1.12l0.7,2.47
	c-0.85,0.16-1.64,0.42-2.38,0.78s-1.39,0.8-1.97,1.31s-1.06,1.08-1.45,1.7s-0.66,1.27-0.8,1.94c0.32-0.4,0.8-0.74,1.44-1.02
	c0.64-0.28,1.34-0.42,2.11-0.42c0.72,0,1.39,0.12,2.02,0.35c0.63,0.23,1.16,0.57,1.62,1.01c0.46,0.44,0.82,0.98,1.08,1.62
	C175.83,19.45,175.97,20.18,175.97,21L175.97,21z M172.95,21.12c0-0.86-0.26-1.52-0.78-1.97c-0.52-0.45-1.22-0.67-2.1-0.67
	c-0.64,0-1.22,0.14-1.73,0.43s-0.89,0.62-1.13,1.01c-0.03,0.18-0.05,0.37-0.06,0.59c0,0.22-0.01,0.39-0.01,0.52
	c0,0.38,0.06,0.75,0.19,1.1s0.32,0.66,0.56,0.92c0.25,0.26,0.55,0.47,0.9,0.62c0.35,0.15,0.76,0.23,1.22,0.23
	c0.37,0,0.73-0.07,1.08-0.2c0.35-0.14,0.66-0.32,0.94-0.56c0.27-0.24,0.49-0.53,0.66-0.88C172.86,21.92,172.94,21.54,172.95,21.12
	L172.95,21.12z"/>
<path class="st0" d="M6.47,286h15.08v5.31H19.4v-3.16h-4.21v16.01h3.19v2.15H9.59v-2.15h3.19v-16.01H8.6v3.16H6.45V286H6.47z"/>
<path class="st0" d="M23.55,286h4.52v7.6h0.15c0.6-0.68,1.29-1.2,2.09-1.58c0.79-0.38,1.78-0.57,2.96-0.57
	c0.93,0,1.73,0.1,2.42,0.29s1.25,0.53,1.68,1.01s0.76,1.15,0.97,1.99s0.32,1.91,0.32,3.21v8.35h-2.29v-7.92
	c0-0.83-0.05-1.56-0.14-2.17s-0.28-1.14-0.56-1.55c-0.28-0.42-0.66-0.73-1.14-0.94s-1.1-0.32-1.85-0.32c-0.52,0-1.03,0.09-1.53,0.28
	c-0.5,0.18-0.96,0.44-1.37,0.75c-0.41,0.32-0.77,0.71-1.07,1.16c-0.3,0.46-0.51,0.95-0.62,1.49v9.22h-2.23v-18.36h-2.29V286H23.55z"
	/>
<path class="st0" d="M56.01,304.47c-0.35,0.31-0.76,0.6-1.23,0.87s-0.99,0.5-1.55,0.7c-0.56,0.19-1.15,0.34-1.75,0.45
	s-1.22,0.16-1.84,0.16c-1.16,0-2.18-0.18-3.07-0.54c-0.89-0.36-1.63-0.87-2.23-1.54s-1.05-1.46-1.36-2.39s-0.46-1.97-0.46-3.13
	c0-1.22,0.17-2.3,0.51-3.25s0.83-1.74,1.46-2.38c0.64-0.64,1.41-1.13,2.32-1.46c0.91-0.34,1.92-0.51,3.04-0.51
	c0.81,0,1.61,0.11,2.41,0.32c0.79,0.21,1.49,0.61,2.1,1.2s1.08,1.4,1.41,2.44s0.44,2.37,0.35,4.02H44.93c0,1.74,0.47,3.04,1.4,3.9
	c0.94,0.86,2.18,1.29,3.75,1.29c0.52,0,1.04-0.06,1.55-0.19s1-0.28,1.46-0.45s0.87-0.37,1.23-0.58s0.63-0.41,0.82-0.58l0.9,1.65
	H56.01z M49.9,293.36c-0.64,0-1.24,0.07-1.81,0.2c-0.57,0.14-1.07,0.36-1.5,0.68s-0.79,0.74-1.07,1.25s-0.46,1.15-0.53,1.9h8.99
	c-0.1-1.28-0.51-2.27-1.23-2.97C52.03,293.71,51.08,293.36,49.9,293.36z"/>
<path class="st0" d="M76.62,286H91.7v5.31h-2.15v-3.16h-4.21v16.01h3.19v2.15h-8.79v-2.15h3.19v-16.01h-4.18v3.16H76.6V286H76.62z"
	/>
<path class="st0" d="M92.98,306.3v-1.94h3.92v-10.61h-3.92v-1.94h5.42l0.46,1.88H99c0.66-0.6,1.39-1.11,2.2-1.54
	c0.81-0.42,1.78-0.64,2.9-0.64c0.66,0,1.18,0.13,1.58,0.38s0.71,0.62,0.93,1.1s0.37,1.07,0.45,1.75c0.08,0.69,0.12,1.46,0.12,2.33
	l-2.03,0.03c0-1.23-0.12-2.13-0.36-2.7c-0.24-0.58-0.68-0.86-1.32-0.86c-0.6,0-1.14,0.09-1.62,0.26s-0.9,0.38-1.26,0.64
	c-0.36,0.25-0.66,0.5-0.91,0.75s-0.43,0.46-0.55,0.64v8.53h5.57v1.94L92.98,306.3L92.98,306.3z"/>
<path class="st0" d="M119.31,291.8h4.15v9.89c0,0.95,0.06,1.86,0.17,2.73h1.94v1.88h-3.89l-0.09-2.46h-0.12
	c-0.5,0.83-1.17,1.51-2,2.03s-1.83,0.78-3.01,0.78c-0.89,0-1.64-0.1-2.27-0.3c-0.63-0.2-1.14-0.56-1.55-1.06s-0.7-1.17-0.9-2.02
	c-0.19-0.84-0.29-1.89-0.29-3.15v-6.38h-1.94v-1.94h4.23v7.86c0,0.79,0.03,1.5,0.1,2.13s0.21,1.16,0.42,1.6
	c0.21,0.43,0.52,0.76,0.94,0.99c0.41,0.22,0.96,0.33,1.65,0.33c1,0,1.87-0.33,2.6-0.99c0.74-0.66,1.3-1.48,1.68-2.46v-7.51h-1.86
	v-1.94L119.31,291.8z"/>
<path class="st0" d="M126.76,291.8h3.45v-2.87l2.29-0.64v3.51h7.74v1.94h-7.74v6.84c0,1.41,0.34,2.46,1.03,3.13s1.66,1.01,2.93,1.01
	c0.87,0,1.62-0.16,2.27-0.49c0.64-0.33,1.23-0.69,1.75-1.07l0.75,1.71c-0.68,0.54-1.48,0.98-2.42,1.3c-0.94,0.33-1.9,0.49-2.88,0.49
	c-0.77,0-1.5-0.11-2.19-0.33s-1.29-0.57-1.81-1.03s-0.94-1.06-1.25-1.78s-0.46-1.59-0.46-2.6v-7.19h-3.45v-1.94L126.76,291.8z"/>
<path class="st0" d="M142.66,286h4.52v7.6h0.15c0.6-0.68,1.29-1.2,2.09-1.58c0.79-0.38,1.78-0.57,2.96-0.57
	c0.93,0,1.74,0.1,2.42,0.29c0.69,0.19,1.25,0.53,1.68,1.01s0.76,1.15,0.97,1.99s0.32,1.91,0.32,3.21v8.35h-2.29v-7.92
	c0-0.83-0.05-1.56-0.14-2.17c-0.1-0.62-0.28-1.14-0.56-1.55c-0.28-0.42-0.66-0.73-1.14-0.94s-1.1-0.32-1.85-0.32
	c-0.52,0-1.03,0.09-1.53,0.28c-0.5,0.18-0.96,0.44-1.37,0.75c-0.42,0.32-0.77,0.71-1.07,1.16c-0.3,0.46-0.51,0.95-0.62,1.49v9.22
	h-2.23v-18.36h-2.29V286H142.66z"/>
<path class="st0" d="M192.45,290.64c0,0.48-0.08,0.98-0.23,1.48s-0.39,0.97-0.69,1.41c-0.31,0.43-0.7,0.82-1.19,1.15
	c-0.48,0.33-1.05,0.58-1.71,0.75v0.12c0.58,0.1,1.13,0.26,1.66,0.49c0.53,0.23,1,0.55,1.4,0.96c0.41,0.41,0.73,0.9,0.98,1.48
	s0.38,1.27,0.38,2.06c0,1.04-0.22,1.95-0.65,2.71c-0.43,0.76-1,1.39-1.71,1.87c-0.7,0.48-1.51,0.84-2.42,1.07s-1.83,0.35-2.78,0.35
	h-1.16c-0.44,0-0.91-0.01-1.39-0.04s-0.96-0.07-1.45-0.12s-0.91-0.12-1.27-0.22v-19.98c0.71-0.12,1.54-0.21,2.49-0.29
	c0.95-0.08,1.98-0.12,3.1-0.12c0.75,0,1.52,0.06,2.3,0.19s1.49,0.37,2.13,0.73s1.16,0.86,1.58,1.49
	C192.23,288.82,192.44,289.64,192.45,290.64L192.45,290.64z M184.16,294.93c0.33,0,0.72,0,1.19-0.03c0.46-0.02,0.85-0.05,1.16-0.09
	c0.46-0.15,0.9-0.34,1.3-0.57c0.41-0.22,0.77-0.49,1.09-0.8s0.57-0.66,0.75-1.04s0.28-0.81,0.28-1.28c0-0.64-0.12-1.17-0.36-1.59
	c-0.24-0.43-0.57-0.76-0.97-1.02c-0.41-0.25-0.87-0.42-1.39-0.52c-0.52-0.1-1.05-0.15-1.6-0.15c-0.64,0-1.22,0.01-1.75,0.04
	s-0.93,0.07-1.2,0.13v6.9h1.51L184.16,294.93z M185.75,304.44c0.62,0,1.22-0.08,1.8-0.23c0.58-0.15,1.09-0.39,1.54-0.7
	c0.44-0.31,0.8-0.7,1.06-1.16s0.39-1.01,0.39-1.65c0-0.79-0.16-1.43-0.48-1.91c-0.32-0.48-0.74-0.86-1.25-1.13
	c-0.51-0.27-1.09-0.45-1.73-0.55c-0.64-0.1-1.28-0.14-1.91-0.14h-2.52v7.28c0.14,0.04,0.33,0.07,0.58,0.09s0.52,0.04,0.81,0.06
	s0.59,0.03,0.9,0.04S185.52,304.45,185.75,304.44L185.75,304.44z"/>
<path class="st0" d="M209.67,304.47c-0.35,0.31-0.76,0.6-1.23,0.87s-0.99,0.5-1.55,0.7s-1.15,0.34-1.75,0.45
	c-0.61,0.11-1.22,0.16-1.84,0.16c-1.16,0-2.18-0.18-3.07-0.54s-1.63-0.87-2.23-1.54c-0.6-0.67-1.05-1.46-1.36-2.39
	c-0.31-0.93-0.46-1.97-0.46-3.13c0-1.22,0.17-2.3,0.51-3.25s0.83-1.74,1.46-2.38s1.41-1.13,2.32-1.46c0.91-0.34,1.92-0.51,3.04-0.51
	c0.81,0,1.61,0.11,2.41,0.32c0.79,0.21,1.49,0.61,2.1,1.2c0.61,0.59,1.08,1.4,1.41,2.44c0.33,1.03,0.44,2.37,0.35,4.02h-11.19
	c0,1.74,0.47,3.04,1.4,3.9s2.18,1.29,3.75,1.29c0.52,0,1.04-0.06,1.55-0.19c0.51-0.13,1-0.28,1.46-0.45s0.87-0.37,1.23-0.58
	s0.63-0.41,0.82-0.58l0.9,1.65H209.67z M203.56,293.36c-0.64,0-1.24,0.07-1.81,0.2c-0.57,0.14-1.07,0.36-1.5,0.68
	s-0.79,0.74-1.07,1.25c-0.28,0.51-0.46,1.15-0.53,1.9h8.99c-0.1-1.28-0.51-2.27-1.23-2.97
	C205.69,293.71,204.74,293.36,203.56,293.36z"/>
<path class="st0" d="M214.23,296.87c0-0.17,0-0.4-0.01-0.68s-0.02-0.57-0.04-0.87s-0.04-0.59-0.07-0.88s-0.06-0.54-0.1-0.75h-1.94
	v-1.88h3.89l0.26,2.35h0.15c0.19-0.33,0.45-0.65,0.77-0.97s0.69-0.61,1.12-0.87c0.42-0.26,0.9-0.47,1.42-0.62s1.07-0.23,1.65-0.23
	c0.89,0,1.68,0.1,2.36,0.29c0.69,0.19,1.26,0.54,1.71,1.03c0.45,0.49,0.8,1.16,1.03,2s0.35,1.91,0.35,3.2v8.32h-2.29v-7.87
	c0-1.6-0.26-2.81-0.78-3.62s-1.46-1.22-2.83-1.22c-0.5,0-0.99,0.1-1.46,0.3c-0.47,0.2-0.9,0.47-1.29,0.8
	c-0.38,0.33-0.72,0.71-1.01,1.14c-0.29,0.43-0.5,0.89-0.64,1.38v9.08h-2.23v-9.42L214.23,296.87z"/>
<path class="st0" d="M244.1,304.47c-0.35,0.31-0.76,0.6-1.23,0.87s-0.99,0.5-1.55,0.7s-1.15,0.34-1.75,0.45
	c-0.61,0.11-1.22,0.16-1.84,0.16c-1.16,0-2.18-0.18-3.07-0.54s-1.63-0.87-2.23-1.54c-0.6-0.67-1.05-1.46-1.36-2.39
	c-0.31-0.93-0.46-1.97-0.46-3.13c0-1.22,0.17-2.3,0.51-3.25s0.83-1.74,1.46-2.38s1.41-1.13,2.32-1.46c0.91-0.34,1.92-0.51,3.04-0.51
	c0.81,0,1.61,0.11,2.41,0.32c0.79,0.21,1.49,0.61,2.1,1.2c0.61,0.59,1.08,1.4,1.41,2.44c0.33,1.03,0.44,2.37,0.35,4.02h-11.19
	c0,1.74,0.47,3.04,1.4,3.9s2.18,1.29,3.75,1.29c0.52,0,1.04-0.06,1.55-0.19c0.51-0.13,1-0.28,1.46-0.45s0.87-0.37,1.23-0.58
	s0.63-0.41,0.82-0.58l0.9,1.65H244.1z M237.99,293.36c-0.64,0-1.24,0.07-1.81,0.2c-0.57,0.14-1.07,0.36-1.5,0.68
	s-0.79,0.74-1.07,1.25c-0.28,0.51-0.46,1.15-0.53,1.9h8.99c-0.1-1.28-0.51-2.27-1.23-2.97
	C240.12,293.71,239.17,293.36,237.99,293.36z"/>
<path class="st0" d="M248.53,292.93c0.83-0.48,1.77-0.83,2.81-1.04s2.07-0.32,3.07-0.32s1.79,0.16,2.42,0.46
	c0.63,0.31,1.12,0.71,1.48,1.2c0.36,0.49,0.6,1.05,0.72,1.68s0.19,1.26,0.19,1.9c0,0.74-0.02,1.52-0.06,2.35
	c-0.04,0.83-0.07,1.66-0.09,2.49c0,0.97,0.06,1.88,0.17,2.75h1.94v1.88h-3.83l-0.26-2.17h-0.15c-0.12,0.17-0.29,0.4-0.52,0.67
	c-0.23,0.27-0.54,0.54-0.92,0.8c-0.38,0.26-0.84,0.49-1.38,0.68c-0.54,0.19-1.18,0.29-1.92,0.29c-1.44,0-2.57-0.37-3.4-1.1
	s-1.25-1.74-1.25-3.02c0-0.99,0.22-1.81,0.65-2.46c0.44-0.66,1.06-1.16,1.88-1.51c0.81-0.35,1.8-0.55,2.95-0.61s2.45,0.02,3.88,0.23
	c0.1-0.89,0.11-1.63,0.04-2.22c-0.07-0.59-0.22-1.06-0.47-1.41c-0.24-0.35-0.58-0.59-1.02-0.74s-0.98-0.22-1.62-0.22
	c-0.87,0-1.71,0.12-2.5,0.36c-0.8,0.24-1.5,0.49-2.12,0.74l-0.73-1.68L248.53,292.93z M252.82,304.62c0.54,0,1.04-0.09,1.51-0.26
	c0.46-0.17,0.87-0.4,1.22-0.67c0.35-0.27,0.64-0.57,0.87-0.88c0.23-0.32,0.41-0.62,0.52-0.91v-2.03c-1.01-0.17-1.93-0.26-2.78-0.26
	s-1.58,0.09-2.2,0.28c-0.62,0.18-1.1,0.47-1.45,0.86c-0.35,0.39-0.52,0.89-0.52,1.51s0.22,1.19,0.65,1.67
	c0.44,0.47,1.17,0.71,2.19,0.71L252.82,304.62z"/>
<path class="st0" d="M262.72,291.8h3.45v-2.87l2.29-0.64v3.51h7.74v1.94h-7.74v6.84c0,1.41,0.34,2.46,1.03,3.13s1.66,1.01,2.93,1.01
	c0.87,0,1.62-0.16,2.27-0.49c0.64-0.33,1.23-0.69,1.75-1.07l0.75,1.71c-0.68,0.54-1.48,0.98-2.42,1.3c-0.94,0.33-1.9,0.49-2.88,0.49
	c-0.77,0-1.5-0.11-2.19-0.33s-1.29-0.57-1.81-1.03s-0.94-1.06-1.25-1.78s-0.46-1.59-0.46-2.6v-7.19h-3.45v-1.94L262.72,291.8z"/>
<path class="st0" d="M278.61,286h4.52v7.6h0.15c0.6-0.68,1.29-1.2,2.09-1.58c0.79-0.38,1.78-0.57,2.96-0.57
	c0.93,0,1.74,0.1,2.42,0.29c0.69,0.19,1.25,0.53,1.68,1.01s0.76,1.15,0.97,1.99s0.32,1.91,0.32,3.21v8.35h-2.29v-7.92
	c0-0.83-0.05-1.56-0.14-2.17c-0.1-0.62-0.28-1.14-0.56-1.55c-0.28-0.42-0.66-0.73-1.14-0.94s-1.1-0.32-1.85-0.32
	c-0.52,0-1.03,0.09-1.53,0.28c-0.5,0.18-0.96,0.44-1.37,0.75c-0.42,0.32-0.77,0.71-1.07,1.16c-0.3,0.46-0.51,0.95-0.62,1.49v9.22
	h-2.23v-18.36h-2.29V286H278.61z"/>
</svg>
