<?xml version="1.0" encoding="utf-8"?>
<!-- Generator: Adobe Illustrator 28.0.0, SVG Export Plug-In . SVG Version: 6.00 Build 0)  -->
<svg version="1.1" id="_레이어_1" xmlns="http://www.w3.org/2000/svg" xmlns:xlink="http://www.w3.org/1999/xlink" x="0px"
	 y="0px" viewBox="0 0 300 315" style="enable-background:new 0 0 300 315;" xml:space="preserve">
<style type="text/css">
	.st0{fill:#FF008F;}
</style>
<path class="st0" d="M10.77,35.58c-3.72-1.89-6.25-3.39-7.59-4.5c-0.67-0.78-1-1.39-1-1.83s0.25-0.67,0.75-0.67l1,0.17
	c3.28,0.5,5.97,0.75,8.09,0.75c7.22,0,12.76-0.17,16.59-0.5c2.05-0.17,3.81-0.64,5.25-1.42c0.56-0.33,0.96-0.56,1.21-0.67
	s0.65-0.14,1.21-0.08c0.94,0,2.81,0.28,5.59,0.83c0.94,0.28,1.63,0.61,2.04,1c0.42,0.39,0.63,0.92,0.63,1.58
	c0,0.95-0.32,1.68-0.96,2.21s-1.49,0.79-2.54,0.79l-7.25-0.08c-2.56,0-5.52,0.08-8.88,0.25s-5.82,0.39-7.38,0.67
	c-0.67,0.11-1.24,0.28-1.71,0.5s-0.93,0.47-1.37,0.75C13.84,35.78,13.23,36,12.62,36c-0.39,0-1-0.14-1.83-0.42L10.77,35.58z
	 M58.17,12.61c0.19,0.25,0.29,0.6,0.29,1.04s-0.03,0.78-0.08,1c0,0.28-0.06,0.86-0.17,1.75c-0.11,0.89-0.17,1.89-0.17,3l-0.58,49.94
	c-0.06,3.94-0.53,7.13-1.42,9.54c-0.89,2.42-1.97,3.63-3.25,3.63c-0.67,0-1.21-0.89-1.63-2.67c-0.42-1.78-0.65-4.2-0.71-7.25
	l-0.17-23.93c-1.17,0.11-1.95,0.22-2.33,0.33c-0.56,0.06-1.22,0.28-2,0.67c-0.78,0.45-1.36,0.67-1.75,0.67
	c-0.5,0-0.97-0.17-1.42-0.5c-1.67-0.89-2.95-1.67-3.83-2.34c0.5,1.39,0.75,2.67,0.75,3.84c0,2.33-0.63,4.53-1.88,6.59
	s-2.97,3.7-5.17,4.92s-4.66,1.83-7.38,1.83s-5.02-0.54-7.21-1.63s-3.96-2.59-5.29-4.5s-2-4.13-2-6.63c0-3.28,1.04-6.03,3.13-8.25
	c2.08-2.22,4.85-3.61,8.3-4.17c1-0.17,1.5-0.64,1.5-1.42c0-0.5-0.17-1.11-0.5-1.83c0.28-0.05,0.64-0.08,1.08-0.08
	c1.28,0,2.29,0.39,3.04,1.17s1.04,1.61,0.88,2.5c1.89,0.22,3.6,0.75,5.13,1.58s2.82,1.89,3.88,3.17h0.5c0.56,0,0.94,0.03,1.17,0.08
	c1.33,0.17,2.92,0.25,4.75,0.25l3.08-0.08c0.89,0,2.06-0.05,3.5-0.17L50.04,16.9c-0.39-0.72-1.03-1.45-1.92-2.17s-1.89-1.28-3-1.67
	c-0.22-0.05-0.56-0.15-1-0.29c-0.45-0.14-0.79-0.28-1.04-0.42s-0.37-0.32-0.37-0.54c0-0.33,0.54-0.71,1.63-1.13s2.07-0.63,2.96-0.63
	s2.46,0.21,4.71,0.63s3.93,0.82,5.05,1.21c0.56,0.22,0.93,0.46,1.12,0.71L58.17,12.61z M13.36,17.9c-0.95-1.11-1.31-1.92-1.08-2.42
	c0.11-0.17,0.36-0.25,0.75-0.25c0.56,0,1.45,0.14,2.67,0.42c1.56,0.33,3.03,0.58,4.42,0.75c2,0.22,5.5,0.33,10.5,0.33
	c1.11,0,2.01,0.24,2.71,0.71c0.69,0.47,1.04,1.1,1.04,1.88c0,0.95-0.43,1.72-1.29,2.33s-1.85,0.95-2.96,1
	c-4.06,0.11-6.5,0.22-7.34,0.33c-1,0.17-1.67,0.25-2,0.25c-0.5,0-0.93-0.05-1.29-0.17c-0.36-0.11-0.74-0.33-1.13-0.67
	c-2.06-1.56-3.72-3.06-5-4.5L13.36,17.9z M31.33,56.5c1.53-1.5,2.29-3.31,2.29-5.42c0-1.89-0.56-3.54-1.67-4.96
	c-1.11-1.42-2.75-2.21-4.92-2.38c-0.39,0.56-1.03,0.95-1.92,1.17c-2.11,0.22-3.77,0.97-4.96,2.25s-1.79,2.86-1.79,4.75
	s0.71,3.43,2.13,4.79c1.42,1.36,3.24,2.04,5.46,2.04C28.01,58.74,29.8,57.99,31.33,56.5L31.33,56.5z M74.01,6.4
	c0.19,0.28,0.29,0.64,0.29,1.08s-0.03,0.78-0.08,1c-0.28,1.78-0.42,3.31-0.42,4.59l-0.42,56.61c-0.06,3.22-0.32,6.06-0.79,8.5
	c-0.47,2.45-1.08,4.32-1.83,5.63s-1.51,1.96-2.29,1.96s-1.39-1.07-1.83-3.21c-0.45-2.14-0.69-5.1-0.75-8.88l-0.42-62.7
	c-0.5-0.83-1.36-1.65-2.59-2.46c-1.22-0.8-2.47-1.43-3.75-1.88c-0.17-0.05-0.5-0.15-1-0.29s-0.88-0.28-1.12-0.42
	c-0.25-0.14-0.38-0.32-0.38-0.54c0-0.39,0.56-0.79,1.67-1.21c1.11-0.42,2.2-0.62,3.25-0.62c1,0,2.85,0.25,5.54,0.75
	c2.69,0.5,4.65,0.97,5.88,1.42C73.47,5.9,73.82,6.12,74.01,6.4z"/>
<path class="st0" d="M143.46,6.4c0.2,0.28,0.29,0.64,0.29,1.08s-0.03,0.78-0.08,1c0,0.33-0.06,0.95-0.17,1.83
	c-0.11,0.89-0.17,1.81-0.17,2.75l-0.58,56.61c0,3.22-0.25,6.06-0.75,8.5c-0.5,2.45-1.14,4.32-1.92,5.63s-1.58,1.96-2.42,1.96
	s-1.47-1.06-1.92-3.17s-0.69-5.09-0.75-8.92l-0.25-33.77c-3.28,0.22-5.34,0.42-6.17,0.58c-1.11,0.06-2.06,0.39-2.83,1
	c-0.45,0.33-0.89,0.62-1.33,0.88c-0.45,0.25-0.86,0.37-1.25,0.37c-0.72,0-1.64-0.36-2.75-1.08l-1.92-1.08
	c-0.22,3.11-1.21,5.92-2.96,8.42s-3.99,4.48-6.71,5.92c-2.72,1.45-5.59,2.17-8.59,2.17c-3.61,0-6.92-0.74-9.92-2.21
	c-3-1.47-5.39-3.51-7.17-6.13c-1.78-2.61-2.67-5.56-2.67-8.84c0-2.78,0.65-5.38,1.96-7.8s3.1-4.42,5.38-6s4.84-2.6,7.67-3.04
	c1.17-0.33,1.75-1.03,1.75-2.08s-0.42-2.03-1.25-2.92c0.83-0.17,1.64-0.25,2.42-0.25c2.06,0,3.6,0.57,4.63,1.71s1.4,2.49,1.13,4.04
	c3.61,0.61,6.68,2.07,9.21,4.38s4.13,4.99,4.79,8.05c1.33,0.06,3.56,0.03,6.67-0.08c2.56-0.05,5.83-0.3,9.84-0.75l-0.17-24.18
	c-0.5-0.83-1.4-1.65-2.71-2.46c-1.31-0.8-2.66-1.43-4.04-1.88c-0.22-0.05-0.57-0.15-1.04-0.29s-0.85-0.28-1.12-0.42
	c-0.28-0.14-0.42-0.32-0.42-0.54c0-0.39,0.6-0.79,1.79-1.21c1.2-0.42,2.32-0.62,3.38-0.62s3.03,0.25,5.92,0.75s4.92,0.97,6.09,1.42
	C142.91,5.9,143.28,6.12,143.46,6.4L143.46,6.4z M105.98,48.71c1.72-0.97,3.08-2.31,4.09-4c1-1.69,1.5-3.54,1.5-5.54
	c0-2.61-0.75-4.92-2.25-6.92s-3.75-3.31-6.75-3.92c-1.28,0.72-2.47,1.17-3.59,1.33c-2.89,0.45-5.22,1.63-7,3.54
	c-1.78,1.92-2.67,4.21-2.67,6.88c0,1.83,0.49,3.52,1.46,5.04c0.97,1.53,2.29,2.75,3.96,3.67s3.56,1.37,5.67,1.37
	c2,0,3.86-0.49,5.59-1.46L105.98,48.71z"/>
<path class="st0" d="M179.51,34.58c-3.78,3.17-7.81,6.1-12.09,8.8s-8.5,4.91-12.67,6.63c-1.11,0.45-2.22,0.79-3.34,1.04
	c-1.11,0.25-1.67,0.18-1.67-0.21c0-0.33,0.51-0.83,1.54-1.5s1.74-1.14,2.13-1.42c5.56-3.61,11.13-8.17,16.72-13.67
	s9.8-10.67,12.63-15.51c-5.5,0-9.78,0.2-12.84,0.58c-1.83,0.28-3.17,0.7-4,1.25c-0.61,0.39-1.2,0.58-1.75,0.58
	c-0.39,0-1-0.14-1.83-0.42c-1.06-0.5-2.32-1.21-3.79-2.13c-1.47-0.92-2.6-1.71-3.38-2.38c-0.33-0.33-0.61-0.69-0.83-1.08
	s-0.33-0.69-0.33-0.92c0-0.33,0.25-0.5,0.75-0.5s0.92,0.03,1.25,0.08c3.11,0.45,6.64,0.67,10.59,0.67s9.11-0.22,15.34-0.67
	c0.72,0,1.92-0.28,3.59-0.83c0.45-0.22,0.89-0.33,1.33-0.33s0.92,0.11,1.42,0.33c2.33,0.78,4.08,1.5,5.25,2.17
	c0.78,0.45,1.17,0.95,1.17,1.5c0,0.39-0.25,0.81-0.75,1.25c-0.11,0.11-0.33,0.32-0.67,0.63c-0.33,0.31-0.58,0.62-0.75,0.96
	c-2.11,3.78-5.28,7.73-9.5,11.84l3.5,2.33c1.83,1.39,3.53,2.08,5.09,2.08c0.17,0,0.49,0.03,0.96,0.08c0.47,0.06,0.86,0.14,1.17,0.25
	s0.57,0.28,0.79,0.5c0.78,0.78,1.67,1.78,2.67,3s1.67,2.2,2,2.92c0.45,0.78,0.67,1.56,0.67,2.33c0,0.61-0.17,1.08-0.5,1.42
	c-0.5,0.56-1.11,0.83-1.83,0.83c-1.11,0-2.59-0.64-4.42-1.92c0.06,0.06-0.47-0.39-1.58-1.33c0.22,0.17-0.97-0.78-3.59-2.83
	c-3.5-2.72-6.31-4.86-8.42-6.42L179.51,34.58z M220.86,78.1c0,0.83-0.46,1.49-1.38,1.96s-2.02,0.74-3.29,0.79l-5,0.25l-6,0.25
	l-7.09,0.17c-7,0.22-12.06,0.33-15.17,0.33c-2.72,0-4.74-0.49-6.05-1.46s-1.99-2.54-2.04-4.71l-0.17-6.34
	c-0.33-0.61-0.95-1.17-1.83-1.67c-0.89-0.5-1.75-0.83-2.59-1c-1.61-0.22-2.42-0.61-2.42-1.17c0-0.28,0.5-0.61,1.5-1
	s1.92-0.58,2.75-0.58c1.83,0,3.79,0.08,5.88,0.25s3.82,0.39,5.21,0.67h3.34c7.45-0.11,13.53-0.36,18.26-0.75
	c0.5-0.05,0.8-0.39,0.92-1c0.05-0.83,0.08-3.22,0.08-7.17c-2.78,0.06-6.5,0.2-11.17,0.42c-4.67,0.22-7.92,0.42-9.75,0.58
	c-1.78,0.11-3.14,0.47-4.09,1.08c-0.72,0.45-1.33,0.67-1.83,0.67c-0.45,0-1-0.17-1.67-0.5c-1.11-0.5-2.43-1.21-3.96-2.13
	s-2.68-1.71-3.46-2.38c-0.78-0.67-1.17-1.31-1.17-1.92c0-0.28,0.25-0.42,0.75-0.42s0.94,0.03,1.34,0.08
	c2.83,0.5,6.39,0.75,10.67,0.75c7.34,0,14.76-0.25,22.26-0.75c0.61-0.05,1.67-0.33,3.17-0.83c0.5-0.22,1.03-0.33,1.58-0.33
	c0.17,0,0.64,0.06,1.42,0.17c0.89,0.17,1.97,0.45,3.25,0.83c1.28,0.39,2.17,0.7,2.67,0.92c0.78,0.22,1.17,0.64,1.17,1.25
	c0,0.45-0.31,0.92-0.92,1.42c-0.5,0.45-0.89,0.86-1.17,1.25c-0.89,4.22-1.64,6.97-2.25,8.25c2.06,0.67,3.09,1.39,3.09,2.17
	c0,1.28-1.47,1.92-4.42,1.92c-4.95,0.06-12.31,0.25-22.09,0.58l-5.67,0.25v6.34c0,1.28,0.78,1.92,2.33,1.92l3.34,0.08
	c3.61,0,8.03-0.17,13.25-0.5c1.56-0.06,2.75-0.2,3.59-0.42s1.58-0.56,2.25-1c0.11-0.06,0.45-0.21,1-0.46s1.22-0.37,2-0.37
	c2.28,0,4.42,0.17,6.42,0.5C219.81,75.95,220.87,76.87,220.86,78.1L220.86,78.1z M198.61,6.35c-0.5-0.14-0.89-0.28-1.17-0.42
	s-0.42-0.32-0.42-0.54c0-0.39,0.58-0.79,1.75-1.21s2.28-0.62,3.34-0.62s3.1,0.25,5.96,0.75s4.9,0.97,6.13,1.42
	c0.55,0.17,0.93,0.39,1.13,0.67c0.19,0.28,0.29,0.64,0.29,1.08s-0.03,0.78-0.08,1c-0.28,1.78-0.42,3.31-0.42,4.59l-0.17,23.51
	c0,2.06-0.26,3.92-0.79,5.59c-0.53,1.67-1.2,2.97-2,3.92c-0.81,0.95-1.63,1.42-2.46,1.42s-1.49-0.69-1.96-2.08
	c-0.47-1.39-0.74-3.31-0.79-5.75L206.37,11c-0.56-0.83-1.47-1.65-2.75-2.46c-1.28-0.8-2.61-1.43-4-1.88c-0.17-0.05-0.5-0.15-1-0.29
	L198.61,6.35z"/>
<path class="st0" d="M27.4,133.5c-6.25,5.14-12.52,9.1-18.8,11.88c-0.95,0.45-2.02,0.81-3.21,1.08s-1.79,0.22-1.79-0.17
	c0-0.33,0.53-0.86,1.58-1.58s1.75-1.19,2.08-1.42c5.56-3.72,11.06-8.62,16.51-14.67c5.45-6.06,9.5-11.92,12.17-17.59
	c-5.06,0-9.34,0.22-12.84,0.67c-1.83,0.28-3.17,0.7-4,1.25c-0.72,0.45-1.28,0.67-1.67,0.67c-0.33,0-0.97-0.19-1.92-0.58
	c-1.06-0.44-2.32-1.14-3.79-2.08s-2.6-1.78-3.38-2.5c-0.33-0.33-0.61-0.69-0.83-1.08s-0.33-0.69-0.33-0.92
	c0-0.39,0.28-0.58,0.83-0.58c0.44,0,0.83,0.03,1.17,0.08c2.95,0.5,6.47,0.75,10.59,0.75c3.67,0,8.61-0.22,14.84-0.67
	c0.72-0.05,1.92-0.36,3.59-0.92c0.44-0.22,0.89-0.33,1.33-0.33s0.92,0.11,1.42,0.33c0.89,0.28,1.85,0.64,2.88,1.08
	c1.03,0.45,1.82,0.83,2.38,1.17c0.78,0.45,1.17,0.95,1.17,1.5c0,0.45-0.25,0.89-0.75,1.33c-0.78,0.78-1.25,1.33-1.42,1.67
	c-0.28,0.61-0.75,1.53-1.42,2.75c1.56,0.11,2.97,0.17,4.25,0.17l3-0.08c1.78-0.05,3.75-0.15,5.92-0.29c2.17-0.14,3.83-0.29,5-0.46
	l-0.25-11.25c-0.56-0.83-1.47-1.65-2.75-2.46c-1.28-0.8-2.61-1.43-4-1.88c-0.17-0.06-0.5-0.15-1-0.29s-0.89-0.28-1.17-0.42
	s-0.42-0.32-0.42-0.54c0-0.39,0.58-0.79,1.75-1.21s2.28-0.63,3.34-0.63c1.11,0,3.1,0.25,5.96,0.75c2.86,0.5,4.9,0.97,6.13,1.42
	c0.56,0.17,0.93,0.39,1.12,0.67s0.29,0.64,0.29,1.08s-0.03,0.78-0.08,1c-0.28,1.78-0.42,3.31-0.42,4.59l-0.17,24.34
	c0,2.06-0.26,3.92-0.79,5.59s-1.2,2.97-2,3.92c-0.81,0.95-1.63,1.42-2.46,1.42s-1.49-0.69-1.96-2.08c-0.47-1.39-0.74-3.31-0.79-5.75
	v-0.42c-1.61-0.05-3.6-0.01-5.96,0.12c-2.36,0.14-4.02,0.26-4.96,0.38c-0.61,0.11-1.39,0.36-2.34,0.75l-0.83,0.42
	c-0.33,0.17-0.67,0.25-1,0.25s-0.83-0.17-1.5-0.5c-0.45-0.28-1.18-0.69-2.21-1.25s-1.93-1.19-2.71-1.92
	c-0.78-0.78-1.17-1.36-1.17-1.75c0-0.28,0.28-0.42,0.83-0.42c0.33,0,0.78,0.06,1.33,0.17c1.28,0.17,2.86,0.25,4.75,0.25l4.5-0.08
	l1.92-0.08c1.39-0.11,4.47-0.33,9.25-0.67l-0.17-8.75c-1.45,0-3.21,0.04-5.29,0.12c-2.08,0.08-3.43,0.21-4.04,0.38
	c-0.83,0.11-1.56,0.33-2.17,0.67c-0.78,0.45-1.36,0.67-1.75,0.67c-0.5,0-1.03-0.17-1.58-0.5c-1.78-0.94-3.36-2-4.75-3.17
	c-3.78,5.95-8.8,11.49-15.05,16.63L27.4,133.5z M76.55,169.81c0,0.83-0.46,1.49-1.38,1.96s-2.02,0.74-3.29,0.79l-5,0.25l-6,0.25
	l-7.09,0.17c-7,0.22-12.06,0.33-15.17,0.33c-2.72,0-4.74-0.49-6.04-1.46c-1.31-0.97-1.99-2.54-2.04-4.71l-0.17-5.92
	c-0.33-0.61-0.95-1.17-1.83-1.67c-0.89-0.5-1.75-0.83-2.59-1c-1.61-0.22-2.42-0.61-2.42-1.17c0-0.28,0.5-0.61,1.5-1
	s1.92-0.58,2.75-0.58c1.83,0,3.79,0.08,5.88,0.25c2.08,0.17,3.82,0.39,5.21,0.67h3.33c7.67-0.11,13.84-0.36,18.51-0.75
	c0.5-0.05,0.8-0.39,0.92-1c0.05-0.83,0.08-3.09,0.08-6.75c-2.78,0.06-6.62,0.2-11.51,0.42s-8.25,0.42-10.09,0.58
	c-1.78,0.11-3.14,0.47-4.08,1.08c-0.72,0.45-1.33,0.67-1.83,0.67c-0.45,0-1-0.17-1.67-0.5c-1.11-0.5-2.43-1.21-3.96-2.13
	c-1.53-0.92-2.68-1.71-3.46-2.38c-0.78-0.67-1.17-1.31-1.17-1.92c0-0.28,0.25-0.42,0.75-0.42s0.94,0.03,1.33,0.08
	c2.83,0.5,6.39,0.75,10.67,0.75c7.61,0,15.17-0.25,22.68-0.75c0.61-0.05,1.67-0.33,3.17-0.83c0.5-0.22,1.03-0.33,1.58-0.33
	c0.17,0,0.64,0.06,1.42,0.17c0.83,0.17,1.81,0.43,2.92,0.79s1.94,0.65,2.5,0.88c0.78,0.22,1.17,0.64,1.17,1.25
	c0,0.45-0.31,0.92-0.92,1.42c-0.5,0.39-0.89,0.81-1.17,1.25c-0.67,3.06-1.39,5.42-2.17,7.09c1.11,0.28,1.97,0.71,2.58,1.29
	s0.92,1.15,0.92,1.71c0,1.28-1.47,1.92-4.42,1.92c-4.95,0.06-12.31,0.25-22.09,0.58l-5.67,0.25v5.92c0,1.28,0.78,1.92,2.34,1.92
	l3.33,0.08c3.61,0,8.03-0.17,13.26-0.5c1.56-0.06,2.75-0.2,3.59-0.42c0.83-0.22,1.58-0.56,2.25-1c0.11-0.06,0.44-0.21,1-0.46
	c0.56-0.25,1.22-0.37,2-0.37c2.28,0,4.42,0.17,6.42,0.5C75.49,167.67,76.55,168.59,76.55,169.81L76.55,169.81z"/>
<path class="st0" d="M83.97,142.21c-0.67,0.45-1.53,0.92-2.59,1.42s-1.83,0.75-2.33,0.75c-0.67,0-0.78-0.26-0.33-0.79
	s1.42-1.49,2.92-2.88c4.34-3.89,8.32-8.49,11.96-13.8s6.43-10.71,8.38-16.22c-0.28-0.89-0.88-1.83-1.79-2.83s-1.99-1.75-3.21-2.25
	c-1.5-0.61-2.25-1.08-2.25-1.42c0.05-0.28,0.63-0.58,1.71-0.92c1.08-0.33,2.07-0.45,2.96-0.33c1.22,0.06,3.06,0.49,5.5,1.29
	c2.45,0.81,4.39,1.57,5.84,2.29c1.06,0.56,1.58,1.31,1.58,2.25c0,0.56-0.17,1.22-0.5,2c-1.56,3.67-3.31,6.95-5.25,9.84
	c1.78,1.45,3.7,2.97,5.75,4.59c0.83,0.67,1.71,1.17,2.63,1.5s1.79,0.5,2.63,0.5c1.28,0.17,2.28,0.58,3,1.25
	c0.72,0.78,1.64,1.89,2.75,3.33c1.11,1.45,1.8,2.53,2.08,3.25c0.28,0.67,0.42,1.33,0.42,2c0,1.22-0.42,2.11-1.25,2.67
	c-0.17,0.11-0.45,0.17-0.83,0.17c-0.78,0-1.72-0.32-2.83-0.96s-2.11-1.38-3-2.21c-2.72-2.45-7.42-6.5-14.09-12.17
	c-5.39,7.11-12.01,13.01-19.84,17.67L83.97,142.21z M144.25,148.96c0,0.56-0.22,1-0.67,1.33c-0.67,0.61-1.11,1.2-1.33,1.75
	c0.05-0.17-0.08,0.7-0.42,2.59c-0.22,1.11-0.45,2.31-0.67,3.59s-0.47,2.53-0.75,3.75c-0.28,1.17-0.7,2.61-1.25,4.34
	c1.06,0.22,1.89,0.57,2.5,1.04s0.92,0.99,0.92,1.54c0,0.78-0.36,1.36-1.08,1.75s-1.78,0.58-3.17,0.58c-5.34,0-13.26,0.17-23.76,0.5
	l-2.83,0.08c-0.39,1.22-1.03,2.28-1.92,3.17s-1.72,1.33-2.5,1.33c-0.67,0-1.15-0.54-1.46-1.63c-0.31-1.08-0.65-2.91-1.04-5.46
	l-2.42-17.01c-0.33-0.67-0.92-1.25-1.75-1.75s-1.75-0.86-2.75-1.08c-0.83-0.17-1.45-0.33-1.83-0.5c-0.39-0.17-0.58-0.39-0.58-0.67
	c0-0.33,0.51-0.72,1.54-1.17s1.96-0.67,2.79-0.67c1.78,0,3.7,0.08,5.75,0.25c2.06,0.17,3.75,0.39,5.09,0.67
	c1.44,0.06,3.61,0.08,6.5,0.08c4.78,0,9.42-0.25,13.92-0.75c1.33-0.17,2.5-0.47,3.5-0.92c0.44-0.22,0.92-0.33,1.42-0.33
	c0.39,0,0.86,0.08,1.42,0.25c0.67,0.11,1.63,0.39,2.88,0.83c1.25,0.45,2.18,0.81,2.79,1.08c0.78,0.33,1.17,0.81,1.17,1.42
	L144.25,148.96z M133,151.79c-3.11-0.06-9.62,0.14-19.51,0.58l-1.83,0.08l0.67,14.34c8.28-0.22,14.56-0.47,18.84-0.75
	c0.39-0.06,0.74-0.22,1.04-0.5c0.31-0.28,0.49-0.61,0.54-1L133,151.79L133,151.79z M126.2,98.06c-0.47-0.14-0.85-0.28-1.12-0.42
	c-0.28-0.14-0.42-0.32-0.42-0.54c0-0.39,0.6-0.79,1.79-1.21s2.29-0.63,3.29-0.63c1.11,0,3.1,0.25,5.96,0.75s4.91,0.97,6.13,1.42
	c0.56,0.17,0.93,0.39,1.13,0.67c0.19,0.28,0.29,0.64,0.29,1.08s-0.03,0.78-0.08,1c0,0.33-0.06,0.95-0.17,1.83
	c-0.11,0.89-0.17,1.81-0.17,2.75l-0.33,26.18c0,2.11-0.26,4.02-0.79,5.71c-0.53,1.7-1.2,3.02-2,3.96c-0.81,0.95-1.63,1.42-2.46,1.42
	c-0.89,0-1.57-0.71-2.04-2.13c-0.47-1.42-0.74-3.38-0.79-5.88L134,102.67c-0.5-0.83-1.4-1.65-2.71-2.46
	c-1.31-0.8-2.65-1.43-4.04-1.88c-0.22-0.06-0.57-0.15-1.04-0.29L126.2,98.06z"/>
<path class="st0" d="M193.23,101.85l0.57,1.15l0.93,0.5l0.21,0.36l-0.21,0.22l0.21,0.43h0.5l0.57,0.64l-0.36,1.15l0.36,1.43
	l-0.86,0.71h0.29l0.64,0.5l-0.43,0.43h-0.93v0.64l0.71,0.64l-1.07,1.15v1.29l-0.22,0.43l-0.29,1.5l-0.72,1.07l0.43,0.93h-0.79
	l-0.64,1.5l-0.93,0.93v0.79l-0.64,0.72l-0.36,0.71l-0.93,0.5v0.79h-0.64l-1.07,1.07l-0.5,0.22l-0.43,0.86h-0.79l-1.14,1.07
	l-0.64,0.43l-0.57,1.07l-1.43,0.5l-1.43,1.43l-0.29,1.22l-0.43,0.43h-0.43v-0.43l-0.5,0.43l-0.21,0.43l-0.79,0.79v0.5l0.57,0.64
	l-0.29,0.64l-0.93-0.5l-0.43,0.79l0.36,0.43h0.29l0.22,0.22l-0.29,0.29l0.29,0.79l-0.22,0.22v0.21h1l-0.79,0.86l0.36,1.57l0.43,0.64
	v0.64l0.22,0.43v0.64l0.21,0.21v0.22h-0.43v2l-0.57,0.64l-0.72,0.22l-0.29,0.64l-2.15,0.22l-0.43-0.22l-0.29,0.29l-0.79-0.29h-1.29
	l-1.14-0.21h-1.22l-0.5-0.22h-0.64l-0.64-0.43l-0.43,0.22l-1.72-1.29l-0.93-0.93l-0.21-0.64l-0.22-0.22v-1.14l0.22-0.79v-1.15
	l0.93-1.72l0.36-0.86l0.5-1.57l2.57-3.65l0.79-1.5l3.65-4.65l1-0.64l0.36-0.71l0.79-0.36l0.43-0.5l3.5-3.22l0.64-0.43l1.57-1.57
	l1.22-1.07l0.21-0.43l0.93-0.86l1.57-3.08v-2.22l-0.5-1.36V107l-0.43-0.29l-0.22-0.43h-0.57l-1-0.64V105h-0.43l-0.5,0.29l-1.65-0.29
	l-0.64,0.43h-0.5l0.5-1.15l1,0.36l0.5-0.79l-0.43-0.14v-0.21h-0.21l-0.22-0.22h-0.64l-0.5,0.43l-1.22,0.14l0.57,0.36v1.43
	l-1.29-0.64l-0.43,0.43l-0.29,0.86h-0.57l-0.57-0.22l-1.43,0.43h-0.29l-0.79,1.15l-0.64,1.29l-1.07,1l-2.22-0.36l-0.64-0.43
	l-2.29-0.43l-0.29-0.72l-0.71-0.57v-1.93l1.07-2.93l0.64-1.07l0.29-0.79l0.64-0.36l0.21-0.64l1.79-1.72l2.36-1.07l0.36-0.36
	l3.58-0.93h2l1.22,0.72l0.5,1.65v0.64l0.64,0.29v1.14l0.64-0.36l-0.43-0.14l0.93-0.29v-2.15l0.71-0.86l1.79-0.43l1.86,0.36l0.93,0.5
	l2.08,0.64l0.71,0.64l0.64,0.21l1,0.93l0.93,0.43l0.21,0.36l0.43,0.43v0.21l0.86,0.29l-0.43,1L193.23,101.85z M175.92,135.05
	l0.57,0.86l-0.29,0.57l0.43,0.21l0.29-0.79l-0.29-0.5v-0.64l-0.36-0.43L175.92,135.05L175.92,135.05z M180.36,143.06h-0.21
	l-0.22,0.21h-0.43v-0.71h0.86V143.06z M179.72,100.13v0.22h0.21v-0.22H179.72z M194.74,144.27l-0.64,1l-1.07,0.36l-5.94-0.22h-3.65
	l-1.15-0.21l-0.57-0.64l-0.5-1.07l0.29-0.64v-1.36l-0.79-0.79l0.29-0.29v-0.86l0.71-0.64l0.29-0.86l0.93-0.71h2.22l1.29,0.21h6.8
	l1.5,1L194.74,144.27L194.74,144.27z M180.79,102.13l0.43-0.22l-0.21-0.21L180.79,102.13L180.79,102.13z M181.51,103.85v0.43h1.22
	l-0.21-0.43H181.51L181.51,103.85z M195.18,106.71V107h0.29v-0.29H195.18z"/>
<path class="st0" d="M212.18,98.85v1.93l-0.21,0.43v2.15l-1.57,0.72l-1.07,1.29l-0.64,0.29l0.21,0.22h0.43l0.21,0.64l-0.21,0.22
	l-0.57-0.29l-0.5,0.5v0.93l-0.22,0.36l0.29,0.57l-1.22,2v2.43l-0.29,0.64l0.71,0.72l-0.43,0.43v0.5h0.43v0.93l-0.86,0.29v0.43h0.22
	v0.93l-0.64,0.64v1.36l0.43-0.22h0.43v0.36l-0.86,1.22v2.57l-0.36,1.79l0.36,1.22l0.43,0.93l-0.21,1l0.43,0.29l-0.43,0.21l-0.29,2.5
	l0.57,1.64h1.07l0.21-0.5l0.43,1.15v0.43l-0.93-0.43l-0.64,0.43l0.21,0.21v1.65l0.72,1.07l1.07-0.36v0.29l-0.64,0.43v0.43h0.86
	l0.43-0.43l0.29,0.43l-0.29,0.64l1.07,1.15h0.43l0.43,0.36V141l-0.43,0.29v1.07l-0.29,1l0.29,0.36v1.22l0.43,0.29v0.21l0.29,0.22
	l-0.29,0.21h-0.43l-1.72,2.08l-3.29-0.29l-2.15-0.72l-0.72-0.43l-0.64-0.22l-1.29-0.86l-0.86-1.07l-0.93-0.29l-1.07-2.36l-1.07-1.65
	v-1l-0.22-1.5v-2.43l-0.21-0.22l0.21-2.57v-11.23l0.43-2.15v-5.01l0.14-0.93v-1.72l0.72-4.58l0.21-0.22l0.36-2.57l0.29-0.22v-0.5
	l0.43-0.86v-0.43l2-2.65l0.64-0.43l0.64-0.64l1.79-1.14h0.64l0.86-0.43l2.43-0.43h2.15l1,1l0.36,1.64L212.18,98.85z M209.1,110.23
	h-0.43v-0.43h0.43V110.23z M210.6,106.3h-0.22v-0.64h0.86L210.6,106.3z M224.84,99.5l1.36,1.29l0.14,0.43l0.64,1.14l0.71,0.64v1.07
	l0.43,3.22l0.86,0.43v0.29l-0.43,0.22v3.58h0.86l0.71,0.57l-0.43,0.43h-0.72v1.57l0.43,0.22l0.5-0.43l0.5,0.57l-0.71,0.43v0.79
	l-1.15,0.5v4.44l0.21,0.21l-0.64,0.72l0.43,1.79l0.43,0.21l-0.29,0.43l0.29,0.79l0.43,0.43l-1.07,0.36v0.79l0.43,0.43v0.5
	l-0.64,0.29v2.07l0.43,0.43v0.43l-0.43,0.43h-0.5l0.29,1.79l-0.5,1.5v1.79l-0.43,0.79v2.29l0.21,0.64l-0.21,0.43h0.21l0.29,0.22
	l-0.86,0.5l-0.29,0.79l-1.14,2.15l-0.57,0.29l-1.43,1.07l-1.14,0.43l-1.79,1.36h-1.36l-0.29,0.22l-2.72,0.64h-1.36l-1.29-0.64
	l-0.64-0.72v-1.29l-0.43-0.5l0.22-0.21l0.21-0.57l0.43-0.64l-0.36-0.86l0.36-1.14v-0.72l1.07-1l0.64-0.43l1.36-1.36v-0.43l0.43-0.5
	l0.43-1l0.21-1.15l0.43-1.29v-1.14l0.64-0.57l-0.29-1.15l0.29-2.22l0.21-0.57l0.43-7.3l-0.22-2.57v-2.58l-0.21-0.93v-3.36
	l-0.57-3.58l-0.5-0.5v-0.64l-0.64-0.43l-0.36-1.14h-0.79l-0.86-1.22l-0.79-0.93l0.14-1.07v-3.51l0.86-1.79l2.65-0.36l2.43,0.57
	l0.43,0.43h0.57l2.86,1.29l0.71,0.72l0.22,0.43L224.84,99.5z M228.99,115.74l0.21-0.21v-0.29L228.99,115.74z"/>
<path class="st0" d="M259.26,100.49l0.93,1l0.71,3.15l0.72,2.22l-0.43,1.07v1.79l0.43,0.43l-0.22,0.43h0.43v0.57l-0.86,0.43v2.72
	l-0.21,0.22l-0.43,0.93l-0.43,0.57l-1.14,2.36l-0.57,0.29v0.71l-1.57,2.36l-0.57,0.29l-0.72,1.07l-3.08,3.01h-0.29l-0.36,0.43
	l-0.22,0.93h-0.64l-0.21,0.21l-0.93,0.22l-0.43,1.07l-1,0.29l-1.14,1.22l-0.29,0.57l-1.5,1l-0.43,0.86l-1.5,1.5l-0.22,0.72
	l-0.43,0.36l0.86,0.29l-0.43,0.22v0.5l0.79,0.57h0.72v1.29l0.57,0.36l0.29,0.79l0.43,0.43l-0.43,0.43v0.86l-0.43,2l0.43,0.43
	l0.22-0.43l0.71-0.64v-0.72l-0.79-0.36l0.29-0.29l0.36,0.36l0.57-0.57l-0.43-0.86l0.22-0.22l0.86-1.72l1.29-0.29l0.71-0.43
	l1.72,0.21l0.72,0.29l1.79-0.29l5.15,0.22l1.72,0.57v0.57l0.64,0.64v1.29l-0.36,0.29l0.36,1l0.29,2.08l-0.71,2.15l-1.29,0.64h-3.72
	l-3.79,0.21l-1.43-0.21h-1.15l-2.07-0.5l-0.72-1.07l-0.29-1.15l-0.79-0.43l-0.29,0.29v0.86l-1.5,1.5l-3.08,0.43l-0.72-0.36
	l-1.22,0.43l-0.93-0.43h-2.43l-0.86-0.21h-0.86l-1.57-0.93v-0.43l-0.79-0.43l-1.36-1.29v-0.86l-0.36-1.07l0.36-0.72v-1.72l0.43-0.43
	v-0.5l0.5-0.64l0.21-0.86l1-2.22l0.93-0.86l0.86-1.72l0.93-0.86l0.79-1.36l2.65-3.29l2.65-2.57l0.64-0.22l3.08-3.15l1-1.22
	l1.43-0.93l0.43-0.64l1.14-1.22l1.93-3.08l1.07-2.93v-2.22l-0.22-0.22l-0.21-0.57l-0.86-1.57l-0.93-0.43l-1.57-1.57l-0.57-1.5v-0.64
	l-0.29-0.79l0.29-1.15v-0.71l0.22-0.64v-0.43l0.86-1.79l1.36-0.5l2.29,0.29l2.43,0.72l0.93,0.57h0.21l1.29,0.71l0.64,0.64l1.22,0.79
	L259.26,100.49L259.26,100.49z M245.67,96.55l0.21,0.64l0.64,0.64l-0.57,1l0.43,0.36v0.64l0.22,1.07l-0.36,2.22l-1,0.5l-0.64,0.57
	l-1.93,0.64l-1.57,1.57l-0.64,0.29l-0.29,0.86v0.36l-0.64,1.57l-0.36,0.43l-0.29,0.57l-1.43,0.71l-1.86-0.64l-0.36-0.21l-2.72-0.64
	l-1.43-1.57v-2.15l0.22-0.93v-1.07l0.79-1.72l0.22-0.22l0.5-1.36l1.72-1.72l1.29-0.86l0.43-0.43l1.79-0.93h0.43l0.72-0.43l3.15-0.86
	h2.29l1.07,1.07L245.67,96.55z M245.45,136.62l-0.43,0.43l-0.43-0.43l0.21-0.43h0.64L245.45,136.62L245.45,136.62z M245.45,134.19
	h-0.21l-0.21-0.86h0.21l0.43,0.43L245.45,134.19L245.45,134.19z M294.67,102.28l0.5,1l0.43,1.79v1.57l-0.21,0.43l0.21,0.86h0.43
	v0.64L295.1,110l0.36,1.22l-0.36,0.72v0.79l-0.64,1.79l-0.5,0.5l0.29,0.93l-0.21,0.93v0.71l-0.57,0.29l-1.57,1.93l-0.29,0.72
	l-0.64,0.29l-0.22,0.29h-0.43l-0.71,1.43l-1.65,1.43l-0.21,0.79l-0.5,0.5l-0.29,0.64h-0.79l-1,0.21l-1.36,1.79l-0.5,0.43v0.86
	l-0.86,0.29v1.22h-0.43v-0.86l-0.93,0.86v1.15h0.22v0.21l-0.64,0.36v0.93l-1.5,0.86v0.93l-0.21-0.22l-0.79,0.22l-0.93,1.5l0.36,0.43
	l0.5,0.21l0.64,0.64h0.64v-0.86h-0.22l-0.21-0.64l0.43-0.43v-0.43h0.5l0.57,0.43v0.21h-0.14l-0.43,0.43v0.43h0.21l0.22-0.36
	l0.64,0.64l-0.29,0.57l-0.57,0.21v0.93h0.57l0.43-0.21h0.72v0.21l-0.72,0.22v0.64h-0.79v0.43l0.43,0.72l-1.07,0.36v1.36h0.43
	l0.22-0.29l0.57,0.29h0.71V143l-1.22,0.21l-0.86,1.22l0.36,0.29h0.43v0.21l-0.43,0.22l-0.86,1.43l-1.15,0.57h-1.93l-0.5-0.43
	l-0.22,0.21l-1.07,0.22l-0.86-0.36l-0.79,0.36l-2.5-0.22h-1.79l-0.64-0.71h-0.22l-2-1.93l-0.64-1.07V141l0.86-1.72l0.5-0.43v-1.15
	l0.86-0.86l0.22-0.64l1.29-2.65l1.07-1.57l2.5-3.01l0.57-0.86l1.07-1.07l0.29-0.5l2.86-3.36l2.58-2.36l1.93-1.22l2.72-3.22
	l1.93-2.72v-0.43l0.64-0.72v-1.5l0.36-2.36l-0.57-2.43l-3.36-3.36l-0.36-1l-0.22-0.21l-0.29-0.86l0.86-0.43l-0.5-1.29l0.79-3.08
	l0.72-0.29h2.15l0.86,0.43h0.72l2.07,0.71l1.65,1.07l2.86,2.86l0.36,1.5L294.67,102.28z M280.07,96.13l0.57,0.64v2.22l-0.21,0.71
	v2.15l-0.57,0.64l-0.57,0.86l-1.72,0.29v0.79h-0.86l-1.15,0.71l-0.57,0.86l-0.57,0.57l-1,2.93l-1.79,0.86l-0.79-0.64l-0.86-0.21
	l-1.36-0.5h-0.86l-1.5-1l-0.57-1.86l0.57-0.79v-1.15l0.21-0.43v-0.64l0.43-0.64v-0.71l1.15-1.93l2.36-2.43l0.64-0.21l0.43-0.43
	l3.08-1.07l2.15-0.43h2.65l0.5,0.43l0.21,0.43L280.07,96.13z M294.88,140.13l0.5,0.64v2.86l-0.29,0.43v1.72l-0.5,0.57l-1,0.36h-10.3
	l-0.64-0.72v-0.43l-0.22-0.64v-2.86h-0.64l-0.22-0.22l0.86-0.21l-0.21-0.22h-0.93l0.29-0.43l0.64-0.36v-0.5l-0.29-0.5l0.29-0.57
	h0.43l0.93-0.43h7.15l1.36,0.43h2.58l0.21,0.43v0.64L294.88,140.13z"/>
<path class="st0" d="M173.23,155.9l0.25,0.38v2.04l-0.25,0.46h-0.13l-0.42,0.29h-0.62v0.88l-0.38,0.79v2.04l-0.25,0.25h-0.12v0.12
	l0.12,0.12l-0.12,0.75h0.5l-0.37,0.21v2.21l-0.25,0.54l0.33,2.17l-0.21,0.25l0.25,0.5v2.04l0.12,0.37v4.21l0.17,0.33l-0.29,0.58
	h0.12v0.92l0.5,0.21l0.5,0.75l0.54,0.25l0.25,0.75h-0.25v0.79l0.17,0.17l-0.17,0.75l-0.38,1.08l-0.37,0.37l-0.79,0.17h-2.17
	l-0.38-0.12h-3.79l-0.54-0.38h-0.25v-1.42l-0.12-0.63v-2.54l0.12-0.42v-0.33l0.17-0.63l-0.21-0.42l0.17-0.37l0.25-1.67v-1.67
	l0.25-0.21v-0.54l-0.12-0.12V171l0.21-0.37l-0.33-0.38v-0.5l0.12-0.25v-1.17l0.12-0.12l-0.12-0.5v-2.04l0.12-0.83l-0.12-0.46V164
	l-0.12-0.37l0.33-0.54l-0.21-0.21v-1.17l-0.12-0.38v-5.88l0.62-0.63h0.5l0.29-0.12h2.17l0.75,0.25l0.25-0.12h1.12l0.33-0.17
	l0.46,0.17l0.63,0.12l0.33-0.17l0.29,0.29l0.54,0.25v0.54L173.23,155.9z M181.48,158.32l0.21,0.25l0.54,1.13v0.25l0.12,0.25v0.17
	l0.25,0.38v0.46l0.13,0.42v1.17h0.25l0.42,0.37l-0.67,0.33v0.29l0.29,0.12l-0.17,0.75l0.12,0.42v1.88l0.12,0.29v0.25h0.29
	l-0.29,0.25l0.17,0.75l-0.17,0.25v1.29l0.29,0.75v0.63l0.12,0.12v0.29l-0.42,0.25l0.33,0.33l-0.17,0.17l-0.17,0.42l0.29,0.08
	l-0.17,0.71l0.42,0.21v0.38l-0.25,0.5l-0.12-0.25l-0.29,0.37v1.29l-0.12,0.25l-0.12,0.92l-0.25,1.12l-0.25,0.5v0.67l-0.75,0.71
	l-0.17,0.62l-0.63,0.42l-0.25,0.54l-0.5,0.25l-0.29,0.25l-0.58,0.08l-0.96,0.58l-2.5,0.33l-0.25-0.12h-0.83l-0.71-1.08V181
	l-0.29-0.17l0.29-0.96l0.25-0.46l-0.37-0.21l0.37-0.63h0.17l0.58-0.75l0.25-0.12l0.63-1.08l0.21-1.25l0.21-0.5v-0.63l0.12-0.67
	v-0.58l0.29-0.54v-1.42l0.13-0.88v-1.42l0.25-0.58l-0.17-0.17l0.12-1.17v-2.67l-0.08-0.54v-1.25l-0.25-0.75l-0.29-0.5l-0.29-0.92
	l-1.12-0.88l-0.12-0.42l-0.25-0.21v-2.54l0.29-0.88l1.17-0.42l0.21,0.25h0.75l0.5,0.25h0.42l0.25,0.12h0.25l1,0.54l0.79,0.58
	l1.17,1.17l0.25,0.54V158.32z M183.65,165.07h-0.25v-0.29h0.25V165.07z"/>
<path class="st0" d="M200.87,164.41l0.42,0.37l0.38,0.79l0.12,0.71l0.37,0.42v1.17l0.42,0.96l-0.17,0.17l0.13,1.17v2.04l-0.13,0.25
	v1h-0.25l-0.46,0.96l-0.67-0.21h-1.92l-0.54,0.42l-0.25-0.25h-1.63l-0.42,0.17l-0.38-0.17l-1.08-0.33l-0.67,0.46l-0.38-0.38
	l-0.67,0.38v0.25l-0.92,0.92l-0.21-0.42l0.25-0.25l-0.25-0.37l0.12-0.12v-0.12h-0.92v0.5l0.12,0.12l0.12,0.38l-0.5,0.12l0.37,0.37
	h0.33l-0.29,0.54l0.21,0.25h0.25l0.21-0.54h0.88l-1.08,0.67l-0.25,0.5h0.25l0.17,0.12l-0.29,0.42h-0.25v0.21l0.38,0.37v0.25
	l1.12,1.17l0.17,0.29l0.25,0.08v0.25l0.12,0.25l0.25-0.12h0.25v0.25l-0.71,0.17l-0.17,0.5l0.21,0.92l-0.21,0.21v0.37l-0.29,0.25
	l-0.17,0.37l-0.75,0.33l-1.67-0.21l-1.75-0.62l-0.25-0.25l-0.38-0.12l-0.71-0.54l-0.17-0.33l-0.92-0.92l-1-2.17l-0.37-2.29v-1.25
	l-0.12-0.38v-4.13l0.54-3.08l0.33-0.58v-0.25l0.25-0.79l0.67-1.25l1.25-1.25l0.75-0.25l0.42-0.42h0.25l0.33-0.33l1.04-0.17
	l0.96-0.25l0.21,0.25l0.21-0.21l0.33,0.33v0.25l0.25,0.12v0.88l0.21,0.25v0.54l0.25,0.25l-0.12,0.12v0.42l0.25,0.25h0.83l-0.17,0.88
	l-0.5,0.75v0.25l0.37,0.17l0.25-0.17l-0.17-0.75h0.42l0.12-0.88v-2.67l0.42-0.79l0.33-0.38h2.08l0.46,0.25h0.54l1.75,0.92l0.92,0.83
	l0.25,0.42L200.87,164.41z M191.82,166.95l-0.25,0.25l0.67-0.25H191.82z M192.11,169.91l-0.21,0.17l0.21,0.21h0.33l0.25-0.12h-0.25
	v-0.25h-0.33V169.91z M192.53,168.87l-0.17,0.37l0.08,0.12l0.5-0.5h-0.42L192.53,168.87z M193.24,168.33h0.25v-0.08l-0.25-0.25
	V168.33z M195.41,168.87l-0.17-0.12h-0.38l-0.46,0.37l0.33,0.37v0.42l-0.17,0.17l-0.29-0.33l-0.54-0.38v-0.62h-0.25l-0.25,0.37v0.25
	l0.38,0.25l-0.17,0.67h1.29l0.33-0.33l0.33,0.33l0.13-0.25v-0.42h0.25l0.25-0.25v-0.29l-0.63-0.21L195.41,168.87z M193.78,177.79
	l-0.54-0.38l0.12-0.12h0.25L193.78,177.79z M202.08,177.66l-0.29,1.29l-0.5,1.37l-0.67,0.63l-0.25,0.54l-0.5,0.5l-0.29,0.12
	l-0.5,0.54l-0.88,0.21l-1.04,0.38l-0.33,0.42h-1.96l-0.46-0.54v-0.58l-0.46-0.46l0.46-0.67v-1.58l0.83-0.88l0.33-0.63l0.33-0.17
	l0.12-0.33l0.38-0.54l0.17-0.38l0.54-0.58l-0.17-0.21l0.12-0.25l0.33,0.25h0.42l0.38,0.12h0.92l0.37,0.12l0.54-0.12l1.83,0.58
	l0.21,0.83L202.08,177.66z M194.66,167.03v-0.21l-0.25,0.13l-0.29,0.5l0.17,0.33l0.79-0.54L194.66,167.03z M194.28,166.15v0.12
	l0.25,0.29l0.13-0.12v-0.29H194.28z M194.86,168.23l0.17-0.33l-0.17-0.29v0.63V168.23z M195.9,168.11l-0.25,0.21h0.37v-0.21H195.9z"
	/>
<path class="st0" d="M220.17,164.53l0.37,0.37l0.13,0.67l0.37,0.54v0.46l0.12,0.5v0.67l0.12,0.38v1.12l-0.62,0.67h-1.17l-0.5,0.25
	h-2.54l-0.88-0.46v-0.58l-0.12-0.25l-0.12,0.5h-0.13v-0.25l-0.92-0.37l-0.12-0.29l0.75-0.12l-0.29-0.25l-0.71,0.37V169h0.38
	l-0.5,0.5l-0.63-0.25l-0.21,0.38h-0.33v0.54h0.29l0.25,0.25v0.12h-0.67l-0.12,0.21h-0.38l-0.12,0.29l0.25,0.38v0.5l-0.25,0.54h-0.88
	v0.37l-0.5,0.5l-0.42,0.17v0.54l0.42,0.17l0.21,0.25l0.42-0.25l0.12,0.54h-0.63l-0.29,0.5v0.5l0.17,0.12v0.38h0.63v-0.38l-0.25-0.42
	h0.46v0.54l0.37,0.5h-0.5l-0.46,0.29v0.12l0.42,0.17l-0.42,0.46h-0.13l-0.12,0.12l0.38,0.25v0.88l0.33,0.42l0.25,0.12l0.17,0.5
	l0.5,0.5l0.29,0.58l0.63,0.29l-0.12,0.13h-0.67v2.46l-0.5,0.5h-1.92l-0.79-0.38l-1.12-0.42l-0.38-0.37l-0.5-0.25l-0.54-0.5v-0.29
	l-0.5-0.29l-1.13-2.21v-0.79l-0.33-0.29l-0.46-2.75l-0.08-1.58l0.08-1.33v-3.04l0.37-2.46l0.17-0.25v-0.25l0.63-1.25l0.37-0.38
	l0.96-1.46l0.46-0.21l0.37-0.38l0.79-0.42l1.12-0.5h0.5l0.12-0.12l1.17-0.33l0.88,0.46l0.25,0.79l0.13,0.12v1.88h0.42l0.25-0.38
	v-1.12l0.25-0.5l0.25-0.92l1.17-0.29l2.25,0.42l0.25,0.13l0.71,0.17l0.83,0.5l0.25,0.25l0.25,0.13l0.67,0.62L220.17,164.53
	L220.17,164.53z M211.08,171.78l-0.71,0.17l0.5,0.5l0.12-0.25l0.54-0.29l-0.33-0.5L211.08,171.78L211.08,171.78z M211.75,170.53H212
	l0.12-0.25l-0.17-0.17l-0.21,0.42H211.75z M212.63,179.2l-0.25-0.12v-0.17l-0.17-0.5h0.42V179.2z M212.8,167.07l-0.17-0.12h-0.12
	v0.25l0.25,0.25l-0.5,0.17l0.13,0.12l0.54-0.12l0.12,0.12l0.12-0.25h0.25v-0.63l-0.63,0.21H212.8z M212.51,165.57v0.33l0.21,0.37
	l0.54,0.17l0.17-0.12l-0.79-0.75h-0.12H212.51z M212.63,168.74l-0.12,0.25h0.42v-0.25h-0.29H212.63z M213.17,168.32l-0.12,0.12
	l0.21,0.25l0.17-0.38h-0.25L213.17,168.32z M213.17,165.44h0.08l-0.08-0.12V165.44z M221.17,179.2l-0.25,0.5l-0.63,2.04v0.25
	l-0.37,0.25l-1.25,1.21l-1.71,0.58h-0.38l-0.75,0.25h-1.04l-0.83-0.88l-0.25-1.33l-0.17-0.21l0.08-0.12h0.12l0.33-0.33l-0.37-0.58
	l0.33-0.63l0.13-0.5l0.75-0.38l0.79-1.54v-0.75l0.25-0.58l0.96-0.29l0.71,0.21h1.75l0.54,0.25h0.37l0.25,0.17h0.38l0.25,0.25
	L221.17,179.2L221.17,179.2z M213.75,167.61v0.38l0.29-0.13l0.29-0.46l-0.17-0.21l-0.42,0.42L213.75,167.61z"/>
<path class="st0" d="M228.76,155.48v1.92l-0.46,0.92h-0.67l-0.79,0.25h-0.38l-0.5,0.12l-0.29-0.25h-0.25l-0.21-0.25h-0.25
	l-0.13,0.12h-0.79l-0.54-0.54l-0.37-0.62v-0.67l-0.12-0.21v-0.92l0.25-0.63l0.42-0.17l0.17-0.37h0.58l1.25-0.21h1.83l0.33,0.33h0.25
	l0.42,0.42l0.25,0.75L228.76,155.48z M228.88,163.15l0.25,0.46v0.42l0.29,0.25l-0.46,0.42l0.71,1.33v0.54l0.37,0.21v1.08l0.08,0.25
	v1l-0.33,0.37l-0.46,0.88l0.79,0.79v0.25h-0.21l-0.29-0.29l-0.5,0.17v0.5l-0.17,0.37l0.88,0.17l-0.17,0.38v0.37h-0.12l-0.12-0.12
	H229v0.25l0.42,0.25l0.12,0.37l0.37,0.12l0.12,0.42l-0.12,0.12l-0.5-0.12v-0.17h-0.29v0.29l0.17,0.33l-0.17,0.17l0.21,0.21
	l-0.21,0.42v0.63h0.42v0.42l0.5,0.5l-0.37,0.37l-0.42,0.12l-0.13,0.25l0.38,0.54l-0.25,0.5v1l0.17,0.25l0.12-0.08v-0.29h0.37v0.42
	l-0.5,0.25v2.13l0.17,0.33l-0.17,0.17v0.25l-0.29,0.29h-0.37l-0.37,0.37l-3.96-0.12l-0.75-0.29v-7.5l-0.17-0.38v-1.79l-0.25-0.5
	v-2.54l-0.12-0.88v-3.34l0.25-1.17l-0.25-0.25l0.12-0.88l0.12-0.38l-0.17-0.33l0.21-1.46l0.37-0.37h1.42l0.5-0.29l0.71,0.17
	l0.17-0.12l1.5-0.17l0.29,0.29l0.37,0.17l0.12,1.25L228.88,163.15z M229.26,167.32l0.37,0.21l0.17-0.17l-0.37-0.63L229.26,167.32
	L229.26,167.32z M229.26,169.65l0.17,0.13v-0.13H229.26z M229.68,168.32l-0.17,0.5l0.17,0.29l0.29-0.29l-0.17-0.5H229.68z
	 M237.06,178.03l0.21,0.25l0.12,0.38l0.42,0.29l0.75,0.75h0.29v0.37l0.58,0.75l-0.21,1.29l-0.12,1.54l-0.25,0.25h-1.29l-0.5-0.25
	l-0.92-0.29h-0.42l-1.21-0.75l-0.79-0.58l-0.63-0.96l-0.33-0.29l-0.42-1.33l-0.33-0.5h-0.29l-0.29-0.29l-0.58,0.21l0.21,0.21
	l-0.38,0.17v0.88h-0.29l-0.25-0.29l0.12-0.38v-0.5l-0.12-0.21l0.92-0.33h0.67l0.38-0.75l0.58-0.37h1.04l0.29-0.25h1.25l0.5-0.25
	l0.96,0.63l0.33,0.63L237.06,178.03z M231.85,170.53l-0.12-0.12v-0.75h0.33l-0.21,0.88V170.53z M239.15,164.24l-0.17,0.96l0.38,0.17
	v0.33l0.25,0.21l-0.25,0.67l0.12,0.12l0.5-0.12h0.5l0.12-0.12h0.21l-0.21,0.37h-0.5v0.54l-0.25,0.5L239.6,168v0.5h0.25v-0.21
	l0.63-0.17l-0.12-0.12l0.12-0.13v-0.5l0.25-0.29V168l0.54,0.25v0.5l-0.25,0.25v0.12l-0.33,0.46l0.17,0.33l0.17,0.12l-0.29,0.29
	l0.54,0.33v0.21l0.88,0.67l0.63-0.12l0.79,0.12l0.63,0.46l1,0.33l0.67,0.63l0.75,0.42l0.37,0.83l1.04,1.42l-0.12,1.29l0.12,0.5
	l0.25,0.12l-0.12,0.12v1.13l-0.29,1.88l-0.88,1.46l-0.88,0.63l-1.71,1l-1.25,0.17l-0.5,0.17l-0.88-0.17h-0.54l-0.38-1.17l-0.12-0.17
	l0.12-0.46l-0.54-0.29l0.67-1.29l-0.58-0.54l0.62-0.29l0.25-0.25h0.37l0.63-0.67l0.12-0.63l0.21-0.37l-0.21-0.25h-0.25l-0.25-0.5
	l0.13-0.25l-0.63,0.5l-0.21-0.21l0.21-0.17l0.37-0.12l-0.12-0.54l-0.46-0.63l-0.58-0.12l-0.25-0.12l-1.13-0.25h-0.37l0.12-0.25
	h-0.25l-0.17,0.25h-0.12l-0.17-0.33l-1.58-0.96l-0.25,0.12l-0.54-0.33l-0.5-0.17l-1.37-0.92v-0.33l-0.29-0.29h-0.29l-0.75-1.25
	l-0.58-2.21l0.12-1.08v-1.13l0.33-1.33l0.29-0.37l0.13-0.42l1.5-1.29l0.92-0.33h0.25l0.79-0.5h0.75l1.21-0.21l0.58,0.58l0.17,1.88
	L239.15,164.24z M238.07,168.62v0.25l0.12,0.12l0.13-0.25l-0.25-0.13V168.62z M238.99,166.45l0.17-0.37l-0.17-0.17V166.45z
	 M246.49,164.16l0.5,0.92v0.38l0.5,1.67l-0.25,0.75l-0.58,0.75h-1.04l-0.54,0.13h-1.12l-0.38,0.37l-0.12-0.25l-0.42-0.21l-0.38-0.54
	l-0.25-0.12v-0.38l-0.25-0.12v-0.67l-0.5-0.25l-1.17-0.75l-0.25,0.38h-0.38v-0.17l0.5-0.46v-0.5l0.12-0.67l-0.25-1v-0.96l1.21-0.79
	l0.58,0.21l1.08,0.17l1.83,0.75l0.37,0.37l0.42,0.25l0.75,0.75L246.49,164.16z M240.86,178.67h-0.25v-0.25l0.46-0.46l0.25,0.25
	L240.86,178.67z M242.4,170.29h-0.12v-0.25h-0.25l-0.25,0.12l-0.25-0.25v-0.54h0.37l0.5,0.54v0.37V170.29z"/>
<path class="st0" d="M255.15,155.98l0.25,1.63l-0.38,1.13l-0.42,0.17l-0.38,0.37l-1.54,0.17l-0.5-0.12h-1.79l-0.79-0.54l-0.13-0.33
	l-0.33-0.58v-1.96l0.29-0.71l0.96-0.46h0.54l0.62-0.12h2.17l1.17,0.58l0.25,0.79L255.15,155.98z M266.57,162.78v1l0.12,0.25v0.79
	l0.29,0.25l-0.17,0.17l0.17,0.54l-0.88,0.33l-0.17-0.21l-0.21,0.42v0.25l-0.42,0.38v0.42l-0.25,0.25v0.25l-0.46,0.17l-0.21,0.33V169
	l-0.17,0.54l0.17,0.38v0.54l0.63,0.25l-0.46,0.46h-0.29v0.54h0.29l0.25,0.12l-0.42,0.37v0.12h0.29l0.12,0.25h-0.25l-0.42,0.42
	l0.54,0.58l-0.12,0.29l-0.29,0.12v0.75l0.37,0.71l-0.25,0.17v0.25l0.54,0.54h0.12l0.12,0.12l-0.5,0.5l0.12,0.29l0.5,0.17v0.71
	l0.62,0.25v0.37l0.46,0.33l0.17,0.29l0.42,0.25l-0.12,0.75l-0.29,0.29v1l0.29,0.29l-0.29,0.25l-0.46,0.88h-1.29l-1-0.33l-1.75-0.25
	l-0.58-0.54l-0.79-0.42l-0.58-0.88l-0.29-0.29l-0.75-1l-0.29-0.75v-0.54l-0.33-0.33v-0.67l-0.58-0.42l0.58-0.29l-0.12-0.96
	l-0.25-0.21v-0.25l0.17-0.21l-0.17-0.21l0.12-0.12v-0.63l-0.25-0.29l0.25-0.5v-0.33l-0.12-0.17v-0.25h-0.42v-0.12l0.54-0.17v-1
	h-0.79l-0.37,0.38h0.12l0.25,0.29v0.5h-0.12l-0.21-0.21l-1.04,0.21v0.63l0.63,0.17l0.38,0.33l0.5-0.46h0.12v0.46l-0.25,0.12
	l-0.37,0.54v0.5l-0.63,0.29l0.54,0.54l-0.17,0.17l-0.21-0.17l-0.88-0.29l-0.21,0.42l0.33,0.71h0.29l0.17-0.42l0.83,0.17l-0.46,0.75
	l-0.17-0.12v-0.38h-0.33v0.63l-0.12,0.12h0.46l0.29,0.25l-0.37,0.21l-0.12-0.21h-0.25l-0.12,0.54l0.54,0.54l-0.42,0.46v0.58
	l0.46,0.25l-0.46,0.33v1l-0.37,0.54l0.25,0.5v0.25h-0.12v0.58l-0.54,0.54l-1.63,0.25h-2.17l-1.37-0.12l-0.46-0.67v-4.04l0.17-0.33
	l-0.17-1.46v-1.29l-0.25-3.29v-4.04l-0.12-1.21l0.17-0.42l-0.12-0.33v-2.04l0.12-0.75l-0.21-0.21l0.38-1.33l2.08-0.29l0.17,0.21
	l0.88-0.29h1.67l1.08,0.54l0.21,0.63l-0.21,0.92l0.33,0.33v0.12l0.37,0.38l-0.12,0.12h-0.25l-0.25,0.29v0.63l0.12,0.25l-0.17,0.33
	l0.17,0.17h0.5v0.12l-0.12,0.12l0.29,0.17l-0.17,0.38l0.21,0.17l-0.21,0.21h-0.12v0.25l-0.25,0.25l0.12,0.42l-0.17,0.58h0.17
	l0.17-0.33l0.5,0.5l-0.17,0.37v1.38h0.25l0.46,0.29l0.17-0.5h0.37l0.29-0.25h-0.42l-0.25-0.17l0.12-0.12h0.42l0.12-0.25h-0.42
	l-0.46-0.5l0.75-0.29h0.25v-0.5l0.5-0.75v-1.54l-0.17-0.21l0.67-0.67v-0.33l0.37-0.96l0.25-0.25l0.12-0.37l1.04-1l1.25-0.83
	l1.33-0.21h2.29l0.58,0.5l0.25,0.79L266.57,162.78z M256.4,173.58l-0.12-0.12h-0.13v0.25l-0.58,0.46l0.71,0.71l0.17-0.17l-0.21-0.25
	l0.42-0.46v-0.54l-0.25,0.12L256.4,173.58z M255.77,178.29l0.12,0.17v-0.17l-0.12-0.12V178.29z M256.48,168.49h-0.33v-0.21
	l0.13-0.17l0.21,0.17v0.21H256.48z M257.19,179.45l-0.21,0.21l-0.33-0.21l0.12-0.37l0.25-0.12l0.17,0.5L257.19,179.45z
	 M257.27,178.28v0.21l-0.5-0.33l0.12-0.25l0.25,0.12l0.12,0.25H257.27z M257.27,167.23l-0.12-0.29l0.12-0.25l0.5,0.33L257.27,167.23
	L257.27,167.23z M257.69,175.19l-0.42,0.21l-0.12-0.13l0.12-0.42h0.25L257.69,175.19L257.69,175.19z M257.77,178.78l-0.25-0.21
	l-0.12-0.54l0.12-0.12l0.63,0.29L257.77,178.78z M257.94,169.53l0.13,0.12v-0.12H257.94z M265.07,173.87h-0.25v-0.42h0.25V173.87z
	 M265.19,169.91h-0.25v-0.92h0.25V169.91z M265.4,175.83l-0.21-0.21v-0.12h0.25l0.12,0.12l-0.17,0.21H265.4z M265.73,167.87
	l-0.42-0.25l0.21-0.21l0.42,0.21L265.73,167.87z M265.9,168.54l-0.17-0.17l0.12-0.08h0.21l0.12,0.08l-0.29,0.17H265.9z
	 M267.73,164.66l-0.37,0.29l-0.21-0.21l0.21-0.21h0.37v0.12V164.66z M274.73,164.03l0.67,0.79v0.63l0.46,0.75v1.29l0.25,0.71
	l-0.33,0.58l0.37,0.33v0.92l0.25,0.25l-0.38,0.17v0.58l0.12,0.38v0.42l0.13,0.37v3.67l-0.25,0.79v0.79l0.25,0.25l-0.13,0.12h-0.42
	v0.33l-0.12,0.54v0.63l-0.29,0.33l-0.25,0.79h-0.46l-0.58,0.92l-0.46,0.12l-0.5,0.54l-1.12,0.5l-1.17,0.5h-0.33l-0.42,0.12
	l-1.42,0.25l-0.58-0.88v-3l0.33-0.58l0.12-0.46l1-0.63l0.17-0.83l0.12-0.25v-0.5l0.25-1.42v-3.83l0.12-0.46l-0.12-0.92v-1.04
	l-0.12-0.33l0.17-0.17l-0.42-1.29l-1.17-1l-0.21-0.88l-0.25-0.29l0.25-0.75v-1l0.21-0.25l-0.12-0.13v-0.42l0.5-0.5h1.04l1.79,0.37
	l2.04,1.04l1,1L274.73,164.03z"/>
<path class="st0" d="M294.92,164.15l0.58,0.96v0.92l0.17,0.42v0.25l0.25,0.5v2.04l-0.12,0.12v0.54l0.21,0.67l-0.21,0.21l0.12,0.25
	v1.17l0.12,0.25l-0.29,0.29l0.17,0.58l-0.12,0.5v1.79l-0.29,0.38l0.17,0.29v0.25l0.12,0.29l-0.42,1.46l0.21,0.92l-0.21,0.63
	l0.17,0.88l-0.25,0.46l0.21,0.21l0.17,0.54l-0.17,0.25l-0.25,1l-0.54,0.38h-2.21l-1.04-0.12h-1.04l-0.33-0.54l-0.5-0.12l-0.17-0.33
	v-0.5l-0.12-0.67l0.17-0.83l-0.21-0.38l0.17-0.29l-0.12-1.46l0.33-0.63l-0.21-1.92v-3.92l0.12-1.83l-0.12-1.38l-0.25-0.75v-0.46
	l-1.63-0.96l-0.17-0.54v-0.46h-0.13l-0.42,0.42l0.17,0.58l0.17,0.33l-0.17,0.17v0.25h-0.67v0.54l0.12,0.25l-0.12,0.12l-0.21,0.88
	l-0.67,0.54l-0.21-0.25l-0.17,0.37v1.38l0.12,0.38l-0.33,0.71l0.21,0.88v0.46h-0.25l-0.12,0.79l-0.13,0.13l0.25,0.62v0.88l0.5,0.17
	l-0.5,0.5v0.63l0.12,0.54l-0.25,0.21v0.5l-0.13,0.17v2.29l-0.12,0.12l-0.29,0.92v0.17l-0.5,0.75l-0.33,0.21h-1.96l-2.5-0.33
	l-0.42-0.42l-0.25-0.79l0.13-1.25l-0.21-0.42l0.25-0.75l-0.17-0.67v-3.92l0.17-0.71l-0.25-0.5l0.33-1.75v-3.92l0.17-0.58l-0.17-0.58
	v-3.29l-0.12-0.54v-0.88l0.33-0.42l0.29-0.13l0.25-0.21h2.04l0.37,0.12l0.54-0.12l1.46,0.17l0.96,0.58h0.88l0.25-0.17h0.75
	l0.42,0.42h0.5l0.83-0.58l1.21-0.46l1.63,0.5h0.42l1.17,0.67h0.33l0.92,0.92v0.12l0.62,0.21l0.42,0.79V164.15z M285.33,168.74v0.25
	l0.29-0.12v-0.12h-0.29V168.74z M287.5,163.28v0.13l0.12-0.13v-0.12L287.5,163.28z"/>
<path class="st0" d="M172.11,189.96l0.25,0.12v1.04l0.12,0.08l0.21,1l0.63,0.38l-0.25,0.25l0.33,0.29l-0.13,0.17l0.67,0.58v0.79
	l0.25,0.63h0.33l-0.12,0.37l0.67,0.25h1.25l0.17,0.5v2.46l-0.5,0.5l-0.29,0.12l-0.25,0.25l-0.38-0.5v-0.38l-0.12-0.29v-0.25
	l-0.12-0.08l-0.29,0.08l-0.21-0.08l-0.37,0.08l-0.29,0.25l0.17,0.17v0.75l0.12,0.25v0.29h0.12l0.25-0.29h0.21l0.21,0.37l-0.54,0.29
	v0.21l-0.25,0.29h-0.29l-0.17,1.08l-0.21,0.21l-0.25-0.29l-0.21,0.21l0.21,0.21l0.5,0.12l0.12,0.38h-0.5v0.5l0.12,0.13v0.75
	l0.54,0.17l-0.54,0.25v0.5l0.33,0.17l-0.21,0.33l0.12,0.5l-0.21,0.21l0.21,0.46l0.21,0.17l-0.21,0.21l0.33,0.79l-0.33,0.33v0.67
	l-0.12,0.13l0.12,0.79v0.71h0.12l0.29-0.46l0.25,0.08l-0.12,0.12v0.5l-0.17,0.33l0.17,0.46v0.25h0.37v0.29l-0.12,0.25l0.12,0.33
	l0.13-0.17l0.42,0.21l-0.25,0.62h0.92l0.67-0.46l1.08,0.54l1.21,2.38l-0.46,0.75l-0.17,0.12l-0.21,0.42l-0.96,0.46l-1.25,0.25
	l-0.75,0.25h-2.04l-1.54-0.38h-0.25l-1.29-0.63l-0.63-0.37l-0.75-0.79l-0.83-1.58l-0.42-2.38v-0.5l-0.17-0.79l0.17-0.25l-0.29-0.25
	v-4.08l0.12-3.09l0.17-0.83l-0.29-0.42l0.21-0.17l-0.29-1.38l-1.79-0.5l-0.42-0.38l-0.25-0.96l0.13-0.54v-1.37l1-0.58l0.67-0.17
	l1.33-0.83l0.17-0.63l0.5-0.54l0.42-1.92l0.25-1.96l0.92-0.33h2.33l0.17,0.42L172.11,189.96z M173.53,194.79v0.12l0.12-0.12H173.53z
	 M174.11,202.25l-0.17-0.17v-0.46l0.5,0.25L174.11,202.25z M174.32,196.96v0.13h-0.25v0.12l0.25,0.12l0.12-0.12v-0.38l-0.12,0.12
	V196.96z M174.65,199.25h-0.46v-0.5h0.12l0.12,0.25l0.21,0.12v0.12L174.65,199.25z M187.91,197.42l0.17,0.21h0.17l0.5,0.5h-0.25
	l-0.21-0.21l-0.33,0.42v0.42l0.21,0.33l-0.71,0.42v0.25h0.37v0.29l-0.37,0.37l-0.25,0.5h-0.12l-0.42,0.25v-0.42l-0.88,0.46v1.37
	l0.29,0.38l-0.12,0.37l0.37,0.25l-0.25,0.25l-0.12,0.37l-0.42,0.42v0.25h0.67l-0.21,0.21l0.21,0.54l-0.25,0.75l-0.29,0.29v0.37
	l0.5,0.46l-0.67,0.42l0.17,0.38h0.12l0.42,0.42l0.33,0.12l-0.21,0.5h-0.54v1l0.17,0.67v0.5l0.33,0.38l0.12,0.75l0.25-0.08l0.12,0.21
	v0.46l0.67,0.33l0.25,0.25l0.25-0.12v0.12l-0.37,0.37v1l0.12,0.92l-0.37,0.79v0.46l-0.54,0.29l-0.58,0.12l-0.25-0.29l-1.42-0.12
	l-0.67-0.46l-0.79-0.17l-0.75-0.75l-0.12-0.25h-0.37l-0.5-0.54l-0.5-0.83l-0.37-0.37l-0.79-2.63v-1l-0.12-0.21v-3.09l0.12-0.5
	l-0.12-0.29l0.12-0.38l0.12-2.67l0.25-1.79l0.25-0.79v-0.58l1.17-2.17l0.38-0.42l0.5-0.29l0.12-0.33l0.79-0.42l0.42-0.42l0.83-0.17
	l0.25,0.08l0.42-0.33h0.38l0.42-0.12l0.37,0.12l0.33-0.21l1.04,0.42l0.21,1.63L187.91,197.42z M185.66,208.97h0.12l-0.12-0.12
	V208.97z M188.74,215.72l-0.25,0.25h-0.33l0.42-0.63L188.74,215.72L188.74,215.72z M196.37,199l0.25,0.25l0.25,0.92l0.42,0.58
	l-0.17,0.71l0.17,0.88l0.25,0.12v0.38h-0.12v0.37l0.25,0.12l-0.25,0.13v0.62l0.12,0.54v0.37l0.37,0.5l-0.25,0.25h-0.37v0.92
	l0.12,0.12l0.12,0.38l0.33,0.5l-0.79,0.21l0.21,0.42l0.37,0.12l-0.25,0.29l-0.38,0.17v0.21l0.25,0.25v0.88l-0.25,0.5l-0.29,0.29
	v1.42l-0.5,1.38l-0.37,0.37v0.79l-0.5,0.33l-0.67,0.67l-0.5,0.25l-0.58,0.58l-1.83,0.67h-0.42l-0.37,0.17l-1.25-0.17l-0.37-0.33
	v-2.21l-0.29-0.21l0.17-0.79h0.25v-0.33l0.54-0.25l0.21-0.46l0.88-0.88v-0.38l0.25-0.5l0.29-1.13l0.25-0.29v-0.88l0.12-1.04
	l0.12-2.17l-0.17-0.46l0.17-0.79l-0.12-1.42l-0.12-0.25v-0.79l-0.38-0.38v-0.5l-0.42-0.42l-0.25-0.58l-0.88-0.29v-0.25l0.17-0.17
	l-0.17-0.46v-0.29l-0.17-0.17l0.37-0.38l-0.25-0.21l0.17-1.54h0.29v-0.38l0.25-0.21h1l0.25,0.12h0.5l1.29,0.58l0.83,0.29l0.33,0.63
	l0.46,0.17l0.17,0.37l0.46,0.33l0.17,0.25h0.25v0.54L196.37,199z M198.33,207.09l-0.21-0.25l0.29-0.29h0.17L198.33,207.09
	L198.33,207.09z"/>
<path class="st0" d="M215.09,190.5v0.5l0.12,0.5v0.75l0.42,0.25l0.21,0.46l-0.46,0.25l0.33,0.83l0.37,0.38v0.42h-0.25l-0.46-0.17
	l-0.17,0.17v0.63h0.25l0.12,0.25l0.42,0.21l-0.46,0.25l0.21,0.67l-0.17,0.17h-0.12v0.63l-0.25,0.25v0.5l-0.12,0.25l0.25,0.25v0.54
	l0.17,0.5h-0.37l-0.21,0.46l0.17,0.21v0.33h-0.25v0.25l0.25,0.12l0.12,0.25l-0.25,0.54v0.25l-0.12,0.12v0.54l-0.17,0.46v0.37
	l-0.13,0.29l0.42,0.38v0.12l0.12,0.12l-0.25,0.54v2.42l-0.29,0.21l0.13,0.13v1.29l0.42,0.37l0.37,0.21v0.29h-0.62l-0.17,0.63
	l0.17,0.79l0.12,0.25l-0.29,0.42l0.17,0.83l-0.21,0.42l0.21,0.46l0.25-0.46l0.25,0.13v0.5h-0.67v0.54l0.29,0.33v0.25h0.25l0.25,0.25
	l-0.46,0.46l0.25,0.25l-0.58,0.75l-0.25,1.25l-1.25,0.25h-3.59l-0.63-0.25l-0.63-0.67v-1.25l0.13-0.92v-1.38l0.12-0.37l-0.12-0.88
	l0.12-0.38l0.25-2.88l0.25-1.37l-0.21-0.21l0.21-0.79v-1.67l0.12-1.5v-2.17l0.13-1.25l-0.25-3.17l0.29-0.5l-0.17-0.33v-2.67
	l0.38-3.54l0.42-0.46l0.88-0.21h3.04l0.92,0.33l0.25,0.46L215.09,190.5z M214.84,199.3v0.12h0.25v-0.12H214.84z M215.21,196.71v0.12
	l0.12-0.12H215.21z M223.34,217.47l-0.33,0.67h-0.79l-0.33,0.33l-2.88-0.21l-0.12,0.25h-2.21l-0.46-0.79v-1.17l-0.37-0.21h-0.25
	l0.5-0.5v-0.79l0.63-0.58l0.79-0.33l1.25,0.17h2.67l0.67,0.17h0.88l0.37,0.38v2.63L223.34,217.47z M216.13,212.84l-0.29,0.29
	l-0.17-0.5h0.29L216.13,212.84z"/>
<path class="st0" d="M239.68,198.25l0.75,0.67l0.54,1.71l0.75,0.42v0.63l-0.42,1l0.29,0.29v0.63l0.12,0.12l-0.37,0.37v0.54
	l0.25,0.25l0.25,0.58v0.17l0.12,0.25l-0.12,0.25l-0.13-0.25h-0.25l0.12,1.17v0.63h0.12l0.13,0.12l-0.13,0.12h-0.12l-0.5,0.33
	l-0.58,0.21l0.46,0.21v0.42h-0.63l-0.25-0.13l-0.25,0.13v-0.13h-0.54l-0.12-0.17h-1l-0.17-0.17l-0.46,0.33l-0.29-0.29h-0.75
	l-0.29-0.25h-1.25l-0.37,0.38l-0.21-0.38h-0.33l-0.46,0.25h-0.25v-0.17l-0.46-0.25l-0.33,0.17l-0.58-0.21l-0.33,0.33l-0.12,0.25
	l-0.46,0.17h-0.21l-0.21,1v0.29l-0.37,0.21l-0.25,0.5h-0.12v0.42h0.29l-0.17,0.75l0.38,0.29l0.12-0.67h0.29v0.37h0.5v0.29
	l-0.25,0.33l-0.25-0.21h-0.29v0.21l0.79,0.92v0.25l0.21,0.12l0.25,0.79v0.46l0.17,0.42l-0.29,0.5v0.38l0.13,0.29l-0.25,0.37
	l0.25,0.08l-0.71,0.5l-0.92,0.29l-0.38-0.13l-0.42,0.5l-1.63-1l-0.25-0.25h-0.13l-1.25-0.62l-1.71-2.34v-0.37l-0.33-0.79v-0.5
	l-0.17-0.21v-0.42l-0.25-0.5v-0.25l0.13-0.17l-0.25-0.25v-1l0.21-0.17l-0.33-0.33v-4.59l0.25-1.71l0.25-0.58v-0.62l0.88-2.13
	l0.92-1.38l0.25-0.08l0.88-0.92h0.54l0.17-0.33l1.13-0.58h0.58l0.58-0.37h1.58l0.67,0.67l0.25,0.38v0.25h0.37l0.21-0.17l0.21,0.17
	h0.37l0.25-0.88l0.96-0.29l1.96,0.25l1.17,0.42l0.71,0.5l0.58,0.21l0.46,0.46l0.12,0.25L239.68,198.25z M229.88,209.84v0.58
	l0.5-0.29l-0.12-0.29L229.88,209.84L229.88,209.84z M231.63,211.09h-0.25l-0.42-0.46l0.37-0.21l0.29,0.17v0.5L231.63,211.09z
	 M231.05,210.21v-0.63l0.13-0.12l0.29,0.33L231.05,210.21z M231.93,213.67h-0.42v-0.54l0.58,0.17l-0.17,0.38L231.93,213.67z
	 M232.18,203.83l-0.12,0.12l0.37-0.12H232.18z M232.55,209.58h-0.37l-0.12-0.37h0.71l-0.21,0.37H232.55z M232.3,213.12l-0.12-0.12
	l0.17-0.46l0.29,0.25L232.3,213.12L232.3,213.12z M232.42,199.36v0.12l0.12-0.12H232.42z M232.67,202.03v0.17l0.21,0.17l0.21-0.17
	L232.67,202.03L232.67,202.03z M232.84,197.9l0.25,0.21h0.25v-0.46L232.84,197.9z M233.67,202.19l-0.21-0.42h-0.54l0.17,0.12h0.25
	v0.42l0.12,0.12l0.46-0.25h-0.25V202.19z M232.92,203.11l0.17,0.33v0.25l0.5,0.17v-0.5L232.92,203.11z M241.09,212.24v0.38
	l-0.25,0.5l-0.12,0.42l-0.37,0.75l-0.25,0.75l-1.42,1.42l-0.75,0.42l-0.5,0.42l-1.33,0.54l-1.12,0.29l-0.92,0.12l-0.71-0.38
	l-0.25-1.42l0.12-0.46l-0.17-0.38l0.17-0.33l0.12-0.75l-0.12-0.5l0.25-0.25l0.12-0.42h0.67l0.58-0.96l0.42-0.29l0.5-0.63l0.21-0.42
	l0.67-0.25h0.37l0.12-0.12h0.79l0.25,0.12l0.63,0.12l0.5,0.29l0.12-0.17l0.75-0.12l0.79,0.92l0.25,0.12l-0.12,0.25L241.09,212.24z
	 M233.09,198.69l0.12,0.29l0.12-0.29v-0.25l-0.25,0.25H233.09z M234.84,203.57l-0.25,0.25h0.37v-0.25H234.84z M234.72,202.82h0.25
	l-0.25-0.25V202.82z M259.61,199.9l0.46,0.71l0.17,0.92l0.25,0.5l0.25-0.75v0.92l0.38,0.17l-0.38,0.58v1.12l0.17,0.46l0.21-0.46
	l0.17,0.25v0.17l0.46,0.92l-0.33,0.21v0.37l-0.38,0.17l0.25,0.21l-0.17,0.25l0.29,0.42l-0.12,0.13l-0.17-0.13l-0.25,0.75l0.25,0.12
	l-0.13,0.46l0.21,0.42l-0.21,0.42v0.5l0.29,0.25v0.5l-0.29,0.79l0.13,0.5v0.79l0.29,0.38l-0.17,0.54l0.17,0.33l-0.21,0.37h0.21v0.12
	l-0.12,0.13l0.17,0.54l-0.21,1.17l0.17,0.46l0.17,0.17l-0.17,0.83v0.46l-0.71,0.46h-2.13l-0.25-0.25l-0.17,0.17l-0.83-0.17
	l-0.25-0.25l-0.54-0.17l-0.25-0.5l-0.88-0.12l-0.5,0.25h-0.25l-0.29,0.12l-0.5-0.25l-0.25-0.75v-1.04l-0.12-0.25l1.04-0.75
	l0.58-0.75l-0.33-0.12l0.13-0.46l0.33,0.17l0.12-0.83l0.21-0.54l-0.33-0.63v-0.54l-0.21-0.5v-0.37h-0.38l-0.12-0.25l-0.42-0.17
	v-0.21h0.54l0.12,0.25h0.29l-0.21-0.58l-1.08-0.71h-0.42v0.71l-1-0.21l-0.5,0.17l-0.17-0.17l0.25-0.25v-0.37h-0.25l-0.37,0.63h-0.54
	l-0.25,0.29l-0.12,0.75l-0.46,0.17l-0.17,0.46v0.63l0.54-0.5v-0.25l0.21-0.21l0.12-0.42l0.54-0.37h0.25v0.37l0.25,0.25v0.37h-1.12
	l-0.21,0.63l0.17,0.12h0.54v0.54l-0.54-0.12l-0.12-0.12l-0.08,0.12l-0.42,0.12v0.38l-0.17,0.42l0.21,0.67l0.37,0.17v0.79l0.21,0.25
	l0.67,0.17v0.46l0.25,0.25l0.5-0.13l0.12-0.21l0.33,0.29l-0.58,0.58l-0.25,0.12v0.75l0.5,0.54l-0.12,0.12h-0.5v0.58l-0.38,0.54h-1
	l-0.54-0.12h-0.38l-0.25-0.25l-0.17,0.25l-1.67-0.46l-1.75-1.38l-1.12-1.58l-0.42-1.17v-0.54l-0.12-0.25v-0.33l-0.38-1.12l0.38-1.83
	v-0.5l0.46-1.46l1.04-1.58l1.13-0.5l0.46-0.42l0.37-0.12l0.25-0.25h0.42l0.21-0.12h1.17l0.25-0.29h0.25l0.12,0.17l1.92,0.25
	l0.46-0.25l0.25,0.5h0.5l0.17-0.37v-0.54h0.29v0.92l-0.17,0.12l0.67,0.12l0.25,0.21h0.12l0.12,0.17l0.42-0.25l0.13-0.25h0.21
	l0.12-0.37l-0.12-0.21l-0.33,0.46l-0.12-0.25l0.54-0.58l0.17,0.17l0.13-0.25l-0.13-0.12h-0.33v-0.37l0.21-0.54h-0.21l-0.25,0.12
	l-0.12-0.12v-0.21l0.29-0.33l-0.29-0.29v-0.29l-0.29-0.12l-0.33-0.71l-1.21-0.21v-0.46l0.25-0.25v-0.25l-0.12-0.17v-0.38l0.25-0.25
	v-1.54l0.67-0.63h1.5l0.54,0.25h0.58l1.71,1.12l0.63,0.67l0.5,0.33l0.29,0.58L259.61,199.9z M251.44,198.44l0.12,0.54v0.37
	l0.12,0.25l0.12-0.5l0.25-0.25h0.17v0.25l0.37,0.21v0.33l-0.75,0.25l-0.42,0.71l0.12,0.25h-0.67l-0.38,0.42h-0.21l-0.42,0.5
	l-0.12,0.58l-0.37,0.21h-0.12l-0.67,0.33l-1-0.33h-0.12l-1.42-0.37l-0.25-0.17l-0.88-0.33l-0.5-0.83l0.63-1.5l1.12-1.12l0.54-0.25
	h0.33l0.71-0.54h0.46l0.37-0.25l1.79-0.29l0.37,0.17l0.67,0.67v0.71L251.44,198.44z M251.06,212.74h-0.17v-0.21l-0.13-0.12
	l-0.12,0.12v0.58h-0.12l-0.21-0.71v-0.42h0.46l0.29-0.12V212.74z M251.19,213.78l0.25,0.12v0.25h-0.25l-0.58-0.37l0.29-0.12v-0.67
	h0.29L251.19,213.78L251.19,213.78z M251.94,213.36h-0.25l-0.25-0.25l0.12-0.12h0.38v0.38V213.36z M252.06,211.07h-0.25l-0.25-0.25
	l0.25-0.12h0.25V211.07z M252.23,212.53h-0.29v-0.29l0.12-0.12l-0.12-0.37l-0.13-0.13h0.25l0.29,0.38l0.37,0.21l-0.5,0.33
	L252.23,212.53z M254.36,203.15h-0.25v-0.12l-0.12-0.08l0.12-0.12h0.25v0.33V203.15z M260.99,204.86l0.13,0.12v-0.12l-0.13-0.12
	V204.86z M261.53,211.74h-0.12v-0.38h0.29L261.53,211.74z"/>
<path class="st0" d="M278.78,197.38l-0.37,1.25l-0.33,0.63v1.33l-0.38,0.33l-0.37,0.79l0.12,0.46l-0.42,0.42h0.42v0.63l-0.58,0.12
	l-0.29,0.5l0.21,0.46l-0.58,0.58v0.42l-0.17,0.12l0.17,0.33l0.25,0.25v0.29h0.17l-0.17,0.38H276l-0.21,0.63l-0.25,0.29v1l0.17,0.33
	l-0.67,0.25l-0.17,0.83l-0.13,0.21v0.58l-0.33,0.58l-0.46,1.33l-0.38,0.38l0.17,0.58h-0.96l-0.21-0.5v-0.54l-0.12-0.88l-0.54-0.29
	l-0.17,0.17v0.67h-0.67v0.25l0.46,0.88h-0.21l-0.29-0.46l-0.29,0.29l0.33,0.67l0.38,0.42v0.38l0.17,0.12l-0.29,0.21v0.42l0.12,0.12
	l-0.29,0.29l0.21,0.67l-0.29,0.58l-0.67,0.46h-1.08l-0.63-0.12l-0.54,0.29l-1.38-0.46l-0.33-0.96l-0.33-2l-0.12-0.29v-0.5
	l-0.38-0.71l-0.29-1.58l-0.25-0.79l-0.12-0.71l-0.38-1.5v-0.67l-0.29-1.29l0.21-0.62l-0.42-0.38v-0.54l-0.37-0.25v-0.5l-0.29-0.54
	l-0.25-1l0.17-0.17l-0.29-0.75l-0.25-0.37l0.12-0.37l-0.46-0.67v-0.75l-0.29-0.5v-0.5l-0.37-0.75v-0.67l0.25-0.25v-0.37h0.88
	l0.63-0.29l0.75,0.17l0.29-0.12h1.29l1.33-0.17l0.79,0.63l0.29,0.54v0.67l0.12,0.25v1l0.12,0.25v1.33l0.5,0.21v0.37l-0.5,0.54v0.13
	h0.5v1.04h0.42l0.46,0.21v0.38l0.42,1l-0.17,0.17H270l-0.42,0.67v0.33h0.33l0.46,0.46l0.58-0.58h0.21l-0.54,0.71l0.21,0.21h0.25
	l0.12,0.37h0.25l0.54-0.37v-0.29h-0.79v-0.25l0.88-0.25l0.13-0.21l-0.13-0.12v-0.42h0.25l0.12-0.25h-0.12l-0.29-0.29l0.17-0.33
	l0.37-0.17l0.29-0.63v-0.33l0.21-0.25l-0.25-0.79l0.54-1.54v-1.17l0.25-0.88v-0.38l0.12-0.37v-0.25l0.5-1l0.92-0.17h2.79l0.58,0.58
	l0.25,0.71L278.78,197.38z M270.03,202.34h-0.12l-0.12-0.12l-0.46-0.17l0.25-0.21l0.46,0.25v0.25H270.03z M269.32,203.59v0.12h0.25
	L269.32,203.59z M269.44,204.26v0.63l0.33-0.25v-0.38H269.44z M270.15,206.55l-0.5,0.5h-0.08v0.25l0.21-0.12l0.37,0.12l0.42,0.29
	l0.37-0.12l0.25-0.29l-0.62-0.38v-0.25H270.15z M269.65,206.55v0.12h0.12v-0.12H269.65z M269.9,208.3v0.46l0.54-0.71L269.9,208.3z
	 M270.69,205.3l-0.42,0.33l-0.17-0.5l0.58-0.29v0.46L270.69,205.3z M271.06,208.84l-0.71,0.17l0.33,0.33h0.5l0.42-0.38v-0.25
	l-0.21-0.21l-0.33,0.33L271.06,208.84z M270.43,210.22v0.12l0.13,0.12l0.25-0.12l-0.12-0.12h-0.25H270.43z M271.06,202.34
	l-0.12,0.12l0.12,0.12h-0.25l-0.21-0.17l0.46-0.46v0.37V202.34z M270.69,210.59v0.67l0.25,0.12l-0.25,0.12v0.79h0.25l0.29-1.21
	l-0.21-0.5h-0.33L270.69,210.59z M270.81,208.05v0.25l0.25-0.25H270.81z M271.31,210.01l-0.21,0.17l0.71,0.33l0.17-0.17l-0.12-0.12
	l0.12-0.33l-0.12,0.12h-0.54H271.31z M271.85,205.18l-0.12,0.12l-0.33-0.33l0.25-0.25l0.21,0.46H271.85z M271.85,210.89l0.12,0.25
	l0.21-0.12l-0.17-0.38l-0.17,0.25H271.85z M276.77,207.06l-0.21,0.25l-0.12-0.12v-0.38h0.25L276.77,207.06z M278.06,206.44
	l-0.25,0.25l-0.21-0.21l0.33-0.33h0.12v0.29L278.06,206.44z M277.94,205.31h-0.25v-0.42h0.25V205.31z M278.86,202.89h-0.13
	l-0.54-0.54l0.12-0.12h0.54v0.67L278.86,202.89z M278.94,205.35l-0.71-0.21l0.42-0.42L278.94,205.35L278.94,205.35z M295.57,199.26
	l0.33,0.42l0.5,1v0.5l0.42,1.17v1.25l0.13,0.42v1.29l0.12,0.58v1.42l-0.29,1h-0.75l-0.96,0.33l-0.42-0.21h-0.79l-0.25,0.17h-0.5
	l0.75,0.37h-0.58l-0.29-0.25l-0.12,0.12h-0.5l-0.46,0.21l-0.33-0.33h-0.88l-0.38,0.38h-0.37l-0.29-0.13h-0.63l-0.33,0.38h-0.17
	v-0.38h-0.62v1.17l-0.29,0.25l-0.38-0.17h-0.37l-0.17,0.17l0.83,0.33l-0.58,0.58l-0.58-0.58l-0.25,0.17v0.29l0.62,0.33v0.25
	l-0.25-0.13l-0.63,0.13l-0.17,0.5l0.29,0.29v0.46h0.46l0.17,0.54l0.25,0.13l0.67,0.67l0.12,0.58l0.25,0.25v0.29l0.12,0.25
	l-0.29,0.29l0.21,0.58l-0.29,0.29V217h0.12l0.13-0.12h0.12v0.37h-0.25l-0.96,0.92l-1.75-0.17l-0.5-0.25l-0.5-0.17l-1.12-0.58
	l-0.67-0.67l-0.75-0.5l-0.25-0.54l-0.37-0.25l-0.67-1.25v-0.5l-0.25-0.29v-0.25l-0.12-0.21l-0.12-1.29l-0.29-0.79v-1l-0.25-1.17
	l-0.21-0.12l0.21-0.25l0.25-0.46l-0.17-0.71l0.21-0.37l-0.17-0.88v-0.75l-0.13-0.25l0.13-0.13l-0.13-0.62l0.25-0.29v-0.58l0.17-0.17
	l0.25-0.83l-0.42-0.17v-0.17l0.42-0.12l0.12-0.37l0.29-0.42l-0.21-0.58h0.46l0.38-1.04l1.33-0.67l0.25-0.5l0.79-0.54l1.54-0.63
	l1.04-0.21h1.13l0.46,0.46l0.21,1.08l0.12,1.25l-0.21,0.46l0.63,0.63l-0.17,0.33v0.75h-0.38v-0.75l0.25-0.25h-0.38v0.17l-0.29,0.21
	v0.58l-0.5,0.17l-0.12,0.54l0.25,0.25l0.5,0.12l0.29-0.58l0.38,0.21v0.5l-0.21-0.21l-0.71,0.33v1h-0.5l-0.25-0.5l-0.38-0.21
	l-0.46,0.71h0.33l0.38-0.17v0.54l0.71,0.21l-0.33,0.33l-0.25,0.12l0.12,0.33l0.5-0.25v-0.21l0.33-0.33l0.25,0.25l-0.25,0.46h0.25
	l0.21-0.37h0.46l0.17,0.37h0.29l0.21-0.37l0.25-0.12l0.12-0.38h0.25v0.25l-0.25,0.25v0.46l0.67-0.21h0.5l0.13-0.12l-0.25-0.12v-0.12
	h0.75l0.29-1.38l-0.17-0.12h-0.37v-0.79l-0.25-0.5h-0.63v-0.29l-0.63,0.21l-0.33,1.42l-0.21,0.17v0.25l0.5,0.12l-0.12,0.42h-0.33
	l-0.29-0.67h-0.12v-0.33l0.12,0.08h0.17l0.08-0.5v-0.71l0.83-0.63l-0.33-0.33h-0.37l-0.5-0.5l0.5-0.5v-1.29l-0.17-0.67l0.67-1.33
	l1.54-0.25l0.63,0.33h0.71l1.58,0.67l0.67,0.62l0.46,0.25L295.57,199.26L295.57,199.26z M285.61,209.89l-0.25,0.12l-0.12,0.21
	l0.12,0.25v0.42l0.25,0.25l0.25-0.25l-0.25-0.29v-0.25l0.25-0.12v-0.21l-0.25-0.12V209.89z M287.9,211.64l-0.13,0.13v0.42
	l-0.33,0.12l-0.21-0.42l-0.17,0.54h-0.71v-0.54h0.63l0.12-0.25l0.42-0.37h0.38L287.9,211.64L287.9,211.64z M286.86,208.85l-0.38,0.5
	v0.46l0.54,0.29l-0.17-0.33l0.25-0.42l-0.38,0.21v-0.29l0.63-0.42h0.29h-0.79L286.86,208.85z M286.73,208.6l-0.12,0.12h0.25v-0.42
	l-0.13,0.29V208.6z M288.9,200.3l-0.12,0.12l0.12,0.17l0.12-0.29H288.9z M296.53,214.14l-0.5,0.71l-0.21,0.63l-0.54,0.5l-0.29,0.63
	l-0.71,0.33l-0.17,0.33l-0.5,0.13l-0.88,0.62h-0.5l-0.42,0.13h-0.5l-0.25,0.12h-1.33l-0.33-0.67l-0.5-0.46l0.37-0.37v-2.29
	l2.04-2.17v-0.42l0.63-0.63l0.92-0.25l0.25,0.25h0.88l0.38-0.17l0.21,0.21l1.75,0.37l0.21,0.21v2.25L296.53,214.14z M290.7,204.05
	l-0.88,0.21v-0.42h0.25l0.25-0.25l0.17-0.67l0.21,0.17V204.05L290.7,204.05z"/>
</svg>
