<?xml version="1.0" encoding="utf-8"?>
<!-- Generator: Adobe Illustrator 28.0.0, SVG Export Plug-In . SVG Version: 6.00 Build 0)  -->
<svg version="1.1" id="_레이어_1" xmlns="http://www.w3.org/2000/svg" xmlns:xlink="http://www.w3.org/1999/xlink" x="0px"
	 y="0px" viewBox="0 0 300 315" style="enable-background:new 0 0 300 315;" xml:space="preserve">
<style type="text/css">
	.st0{fill:#FF008F;}
</style>
<path class="st0" d="M254.99,306.35c0.04-0.17,0.25-0.38,0.42-0.52c1.91-1.72,3.8-3.63,5.08-4.91c1.34-1.34,3.3-3.04,3.3-4.93
	c0-1.53-1.24-2.02-2.48-2.02c-0.8,0-2.23,0.88-3.28,1.66c-0.25,0.19-0.36,0.23-0.46,0.23c-0.12,0-0.21-0.15-0.21-0.36
	c0-0.48,0.27-0.78,0.8-1.18c0.8-0.63,2.29-1.58,3.57-1.58c1.68,0,3.46,1.01,3.46,2.92c0,2.1-2.35,4.2-4.09,5.98
	c-1.53,1.58-3.04,3.04-4.28,4.35h2.79c1.62,0,2.56,0.02,3.11-0.55c0.29-0.29,0.46-0.63,0.69-1.2c0.08-0.21,0.25-0.34,0.57-0.34
	c0.34,0,0.38,0.1,0.38,0.25c0,0.08-0.02,0.17-0.04,0.25c-0.17,0.63-0.42,1.34-0.5,2c-0.06,0.44-0.17,0.8-0.63,0.8
	c-1.05,0-2.04-0.02-3.86-0.02s-2.69,0.02-3.84,0.02c-0.23,0-0.57-0.23-0.48-0.86L254.99,306.35z"/>
<path class="st0" d="M266.89,302.53c0-4.28,2.31-9.78,5.98-9.78c2.33,0,3.59,2,3.59,5.04c0,4.01-2.25,9.72-5.88,9.72
	c-2.62,0-3.7-2.12-3.7-4.98H266.89z M275.04,297.74c0-2.35-0.74-3.8-2.6-3.8c-2.86,0-4.12,5.23-4.12,8.61
	c0,2.52,0.88,3.76,2.73,3.76C273.67,306.31,275.04,301.21,275.04,297.74z"/>
<path class="st0" d="M276.95,306.35c0.04-0.17,0.25-0.38,0.42-0.52c1.91-1.72,3.8-3.63,5.08-4.91s3.3-3.04,3.3-4.93
	c0-1.53-1.24-2.02-2.48-2.02c-0.8,0-2.22,0.88-3.28,1.66c-0.25,0.19-0.36,0.23-0.46,0.23c-0.13,0-0.21-0.15-0.21-0.36
	c0-0.48,0.27-0.78,0.8-1.18c0.8-0.63,2.29-1.58,3.57-1.58c1.68,0,3.46,1.01,3.46,2.92c0,2.1-2.35,4.2-4.09,5.98
	c-1.53,1.58-3.04,3.04-4.28,4.35h2.79c1.62,0,2.56,0.02,3.11-0.55c0.29-0.29,0.46-0.63,0.69-1.2c0.08-0.21,0.25-0.34,0.57-0.34
	c0.34,0,0.38,0.1,0.38,0.25c0,0.08-0.02,0.17-0.04,0.25c-0.17,0.63-0.42,1.34-0.5,2c-0.06,0.44-0.17,0.8-0.63,0.8
	c-1.05,0-2.04-0.02-3.86-0.02s-2.69,0.02-3.84,0.02c-0.23,0-0.57-0.23-0.48-0.86L276.95,306.35z"/>
<path class="st0" d="M288.56,306.87c0.04-0.31,0.19-0.57,0.42-0.59c2.33-0.21,3.23-0.42,3.32-0.84c0.46-2.35,1.34-7.79,1.78-11.11
	c-0.86,0.23-3.09,0.65-3.34,0.65c-0.19,0-0.36-0.04-0.34-0.38c0.02-0.4,0.21-0.67,0.46-0.73c0.73-0.19,3.11-0.73,3.63-0.99
	c0.36-0.17,0.5-0.19,0.84-0.19c0.36,0,0.44,0.15,0.4,0.38c-0.08,0.44-0.19,0.8-0.34,1.68c-0.44,2.65-1.37,8.46-1.76,11.36l2.86-0.08
	c0.23,0,0.31,0.02,0.27,0.27c-0.08,0.5-0.32,0.9-0.61,0.9c-0.97,0-5,0.11-7.37,0.11c-0.19,0-0.27-0.11-0.23-0.44L288.56,306.87z"/>
<path class="st0" d="M99.5,42.29c-11.59,2.63-19.69,5.91-22.86,7.33c-7,2.95-18.27,7.66-25.7,10.61c10.28-0.33,18.59-1.09,23.3-2.41
	l6.12,3.28c0.55,0.33-0.66,1.42-0.98,2.95l-0.22,18.16c-0.11,6.78-3.06,12.8-4.81,14.55c-0.55,0.66-1.2,0.66-1.09,0.44
	c0.88-3.39,1.31-8.86,1.31-9.3l-0.33-24.28c-5.69,0.22-15.64,0.44-21.33,0.87c-9.95,0.77-14.66,1.86-15.31,2.08
	c-0.77-0.33-5.25-2.95-7.66-5.69c-0.33-0.33,0.55-2.3,1.09-2.19c3.5,0.87,6.78,1.75,13.02,1.64c1.31,0,2.62,0,3.83-0.11
	c16.52-5.91,20.34-7.98,27.67-11.37c-0.98,0-2.41-0.88-2.41-6.78v-3.61c-10.61,5.47-25.7,10.39-46.59,14.44
	c-0.98,0.22-5.91-4.7-5.8-5.69c0.88-14.44,0.98-21.87-0.98-27.01c-1.09-2.95-2.3-5.36-3.28-6.34c-0.33-0.33,1.31-1.86,1.64-1.75
	c3.5,1.09,9.08,7.44,9.84,9.08c-1.31,3.61-1.31,10.5-1.09,25.16c24.28-0.98,40.14-5.8,45.94-8.53c0.11,0,0.22-0.11,0.33-0.11V15.6
	c0-2.95-3.83-6.45-6.12-8.75c-0.44-0.55,0.87-2.95,1.64-3.5c2.41,1.64,8.09,5.47,11.27,7.22c0.33,0.22,0.44,0.44,0.11,0.77
	c-1.09,1.42-1.31,3.06-1.31,4.92v31.06c5.69-3.06,7.22-7.33,7.55-7.55C88.91,38.46,99.52,39,99.52,39s0.77,3.06,0,3.28L99.5,42.29z"
	/>
<path class="st0" d="M80.8,171.35c-4.7,4.7-15.09,14-15.53,14.11c-1.86,0.55-8.64,0.66-9.52,0l-25.37-18.92
	c-0.11-0.11-0.22-0.55-0.11-0.77c-7.66,4.59-15.42,7.98-21.77,9.62l0.66-0.98c13.34-5.25,19.03-9.84,24.72-14.22
	c7.98-6.67,16.19-14,19.03-19.8c-8.75-0.11-31.28,1.2-36.64,2.19c-2.52,0.55-3.83,1.09-4.81,1.64c-0.98-0.33-6.89-4.16-7.88-5.47
	c-0.44-0.55,0.11-2.52,0.55-2.41c2.08,0.55,4.16,0.87,6.56,1.2c4.81-5.58,10.83-11.81,16.52-18.59c-0.22-1.31-0.22-2.62,0.22-4.05
	c2.41-7.98,7.98-14.88,17.61-14.88s14.33,3.83,14.33,13.13s-5.47,17.28-15.42,17.28c-7.33,0-14.66-4.38-16.52-10.17
	c-4.38,5.14-7.66,7.98-15.2,17.39c4.59,0.44,10.06,0.44,17.72-0.11c9.62-0.66,16.95-0.87,23.19-1.86c4.81-0.77,6.56-2.19,7-1.97
	l5.36,2.41c0.22,0.11-0.66,2.08-1.2,2.3c-1.09,0.55-3.5,1.75-4.7,2.95c-3.83,4.7-8.75,9.41-14.11,13.78
	c10.06-5.14,21.44-10.5,28.44-14.44v-31.06c0-2.95-3.72-6.45-6.02-8.75c-0.44-0.55,0.88-2.95,1.64-3.5
	c2.3,1.64,8.09,5.47,11.27,7.22c0.33,0.22,0.44,0.44,0.11,0.77c-1.09,1.42-1.31,3.06-1.31,4.92v38.72c0,2.08-4.05,3.17-7.33,4.26
	c-11.37,3.83-39.48,11.05-37.19,12.58l22.09,14.44c5.69,0,13.12-3.94,23.19-13.56c0.33-0.33,1.75-1.97,2.62-3.39
	c0.98-1.53,0,5.8-2.19,7.98L80.8,171.35z M32.02,164.68c7-2.73,31.28-8.31,40.8-12.14c1.2-0.55,1.2-2.95,1.09-5.25
	c-4.81,1.86-10.72,3.72-11.7,3.94c-9.84,2.08-13.56,3.28-18.37,5.25C40.01,159.43,36.07,162.17,32.02,164.68L32.02,164.68z
	 M33.11,114.7c0,5.8,5.36,11.38,11.27,11.38c6.45,0.11,11.27-5.25,11.27-11.27c0.11-6.23-4.7-11.92-11.27-11.92
	C38.47,102.89,33.11,108.58,33.11,114.7z"/>
<path class="st0" d="M81.01,198.37c-1.09,1.42-1.31,3.06-1.31,4.92l-0.22,61.58l-0.22,3.06c-0.33,5.14-3.28,10.94-5.91,13.56
	c-1.53,1.31-2.41,1.42-1.97,0.77c2.3-3.06,2.84-7,2.84-14.88v-9.95c-10.06,0.55-43.97,1.64-53.92,2.52
	c-2.84,0.22-6.78,0.87-8.64,1.97c-0.88-0.66-6.78-4.48-7.77-6.02c0.11-1.2,0.55-2.95,0.66-2.84c1.09,0.44,2.19,0.77,3.28,0.98
	c7.98-12.03,9.52-16.63,15.2-26.36c-0.44-1.64-0.44-3.39,0.11-5.14c2.52-8.64,8.64-16.19,19.03-16.19s15.42,4.27,15.42,14.22
	s-5.91,18.81-16.62,18.81c-7.55,0-15.2-4.48-17.5-10.39c-5.36,8.86-7.55,13.45-14.33,25.37c2.84,0.66,6.02,0.98,9.52,0.98
	c17.28-0.11,44.62-0.77,55.56-2.19L74,202.62c0-2.95-3.72-6.45-6.02-8.75c-0.44-0.55,0.88-2.95,1.64-3.5
	c2.41,1.64,8.09,5.47,11.27,7.22c0.33,0.22,0.44,0.44,0.11,0.77L81.01,198.37z M29.28,222.32c0,6.23,5.8,12.25,12.14,12.25
	c7,0.11,12.25-5.69,12.25-12.14c0.11-6.78-5.14-13.02-12.25-13.02C35.08,209.41,29.28,215.54,29.28,222.32z"/>
<path class="st0" d="M198.33,301.53c-5.8-2.52-7.87-10.28-3.83-13.34C196.14,293.33,199.2,301.97,198.33,301.53 M240.44,277.25
	c-1.64-1.42-4.92-2.95-6.34-3.61c-0.55-0.33-1.09-0.87-5.36,0.33c-15.86,4.59-24.83,7.55-30.08,10.28c-1.09-4.05-0.44-5.91,0-6.89
	c-3.72-1.86-9.95-3.83-11.16-4.16c-1.09-0.22-1.75,1.75-1.53,1.97c3.06,3.06,5.47,5.14,7.98,11.7c-5.69,6.12-1.42,12.47,6.23,19.03
	c0.22-0.11,1.97-1.09,3.17-1.86c0.77-0.44,0.77-1.31,0.55-2.08c-1.09-3.06-3.72-11.59-4.7-15.64c5.58-2.84,28-9.19,33.03-8.42
	c1.2,0.22-2.19,12.36-9.95,22.64c-5.58,0.44-11.37,0.87-14,0.66c-0.33,0.66-0.77,1.86-0.44,2.08c0.98,0.55,2.95,2.19,3.72,2.73
	c8.2-1.75,15.97-2.19,27.34-1.09c0.87-0.11,1.75-1.42,1.42-1.64c-0.22-0.22-2.95-2.95-4.7-4.16c-3.72,0.44-5.69,1.09-8.42,1.09
	c12.14-19.36,14-22.53,13.23-22.97 M199.2,249.46c5.36-2.08,11.16-4.27,13.56-5.25v7.77c0,1.75,0.11,9.19-1.42,9.08
	c-3.72-0.22-12.03-3.5-16.3-6.02C192.52,253.18,191.21,252.52,199.2,249.46 M183.34,239.18c-0.11-0.87,0-3.06,0.55-4.37
	c-3.5-1.53-8.42-3.28-10.83-3.94c-0.33-0.11-0.98,2.19-0.44,2.62c2.62,1.97,3.61,3.17,4.7,5.8c1.2,3.72,3.5,20.12,2.3,22.75
	c3.5,4.05,4.37,5.14,5.03,4.59c1.31-1.09,2.3-3.5,2.3-4.59C186.29,257.56,184.87,249.35,183.34,239.18 M187.39,255.8
	c7.11,4.05,15.97,7.87,22.31,11.27c1.42,0.77,8.42-6.67,8.42-7.87c-0.11-18.27-0.22-22.42,0.11-25.92c0.11-2.19,0.44-3.94,0.98-4.37
	c-2.84-2.19-6.67-3.94-10.17-5.8c-0.33-0.11-1.64,2.41-0.88,2.84c2.84,2.62,4.27,4.16,4.48,7.77c0,0.44,0,4.16,0.11,8.2
	c-6.67,2.41-26.58,9.62-26.25,10.83c0.44,2.84,0.66,2.84,0.87,3.06 M260.32,255.48c0,0-10.5-0.22-13.12,1.09
	c-1.09,0.55,0,1.86-4.92,5.36l-3.39,1.75v-3.28l0.11-32.48c0-1.86,0.22-3.5,1.31-4.92c0.33-0.33,0.22-0.55-0.11-0.77
	c-3.17-1.75-8.86-5.58-11.27-7.22c-0.77,0.55-2.08,2.95-1.64,3.5c2.3,2.3,6.12,5.8,6.12,8.75v31.06c0,6.02,1.31,6.56,2.3,6.56
	c-2.08,1.09-6.34,2.84-11.7,4.81l0.33,0.11c14.33-5.03,29.75-10.06,36.09-11.16c0.66-0.11-0.11-3.17-0.11-3.17"/>
<path class="st0" d="M22.67,289.54c-0.15,0.62-0.25,0.9-0.7,0.97c-0.8,0.12-1.2,0.42-1.3,1.02c-0.33,1.9-1.62,10.12-2.25,13.75
	c-0.1,0.58-0.17,0.92-0.72,0.92c-0.43,0-0.52-0.1-0.73-0.55c-1.1-2.45-4.9-9.67-6.75-13.2c-0.45,2.82-1.22,7.07-1.67,10.05
	c-0.12,0.77-0.23,1.42-0.48,1.95l1.6-0.1c0.18,0,0.23,0.12,0.23,0.38c0,0.58-0.35,1.05-0.65,1.05c-1.02,0-2.8,0-3.85,0.12
	c-0.2,0.02-0.32-0.1-0.32-0.35c0-0.37,0.2-0.82,0.47-0.87c0.98-0.17,1.32-0.5,1.42-1c0.57-2.62,2-11.32,2.2-13.02l-1.5,0.02
	c-0.2,0-0.3-0.08-0.3-0.45c0-0.4,0.27-0.95,0.55-0.95c0.67,0,1.6-0.03,2.17-0.03c0.38,0,0.48,0.15,0.65,0.5
	c1.27,2.55,5.12,9.92,6.82,13.12c0.6-3.5,1.57-9.7,1.72-11.12c0.07-0.48,0.27-0.92,0.47-1.12l-1.67,0.03
	c-0.17,0-0.27-0.08-0.27-0.38c0-0.42,0.25-0.97,0.52-0.97c1.15,0,2.8,0.02,4.12-0.12c0.23-0.03,0.25,0.12,0.2,0.35L22.67,289.54z"/>
<path class="st0" d="M22.53,305.56c0-0.87,1.55-8.22,1.55-9.4c0-0.33-0.05-0.47-0.2-0.47c-0.23,0-0.77,0.25-0.97,0.25
	c-0.18,0-0.35-0.55-0.35-0.75c0-0.15,0.08-0.22,0.27-0.3l2.47-0.97c0.15-0.05,0.3-0.12,0.47-0.12c0.23,0,0.27,0.15,0.27,0.42
	c0,0.7-1.55,9-1.67,9.87c-0.02,0.18-0.05,0.43,0.12,0.43c0.3,0,1.15-0.48,1.32-0.48c0.15,0,0.25,0.42,0.25,0.75
	c0,0.17-0.08,0.25-0.23,0.35c-0.48,0.3-2.32,1.05-2.87,1.05c-0.32,0-0.45-0.22-0.45-0.62L22.53,305.56z M24.8,291.14
	c-0.3,0.1-0.5-0.08-0.42-0.4l0.4-1.65c0.1-0.42,0.22-0.5,0.57-0.6l1.4-0.4c0.35-0.1,0.5,0.15,0.32,0.53l-0.7,1.62
	c-0.15,0.35-0.23,0.45-0.5,0.55C25.87,290.79,24.8,291.14,24.8,291.14z"/>
<path class="st0" d="M38.25,294.77l-0.2,0.95c-0.5,2.42-1.77,11.17-1.9,12.02c-0.38,2.62-3.07,5.27-4.27,5.27
	c-2.17,0-5.55-2.2-5.55-2.5c0-0.58,0.18-1.25,0.42-1.5c0.1-0.1,1.72-1.4,3.35-2.82c-0.1,0.03-0.17,0.03-0.27,0.03
	c-1.22,0-1.97-1.8-1.97-4.1s0.92-4.4,2.37-5.95c1.1-1.17,2.27-2.25,4.12-2.25c0.9,0,1.65,0.12,2.82,0.52
	c0.22,0.08,0.7-0.15,0.9-0.15c0.18,0,0.25,0.1,0.18,0.47V294.77z M35.6,300.82c-0.75,1.25-1.97,2.92-3.25,4.07
	c-1.4,1.62-3.15,3.47-4.22,4.8c0.72,0.67,3.12,2.17,3.95,2.17c0.7,0,2.02-1.67,2.42-4.2l1.1-6.85V300.82z M36.37,295.82
	c-0.75-0.28-1.6-0.5-2.55-0.5c-2.5,0-4.25,3.32-4.25,6.47c0,1.75,0.37,2.67,0.85,2.67c1.35,0,4.37-3.9,5.45-5.75L36.37,295.82
	L36.37,295.82z"/>
<path class="st0" d="M39.98,306.19c-0.15,0.05-0.27-0.07-0.23-0.27c0.75-3,2.75-15.7,2.97-17.2c0.07-0.47,0-0.6-0.2-0.6
	c-0.22,0-0.8,0.17-1.02,0.17s-0.35-0.5-0.35-0.77c0-0.17,0.07-0.28,0.32-0.35l2.47-0.85c0.2-0.08,0.35-0.12,0.47-0.12
	c0.25,0,0.33,0.2,0.28,0.48c-0.08,0.4-0.23,1.37-0.35,2.05c-0.42,2.32-1.27,8.12-1.8,10.95c1.4-2.05,4.52-5.87,6.47-5.87
	c0.92,0,1.22,1,0.85,3.3c-0.35,2.2-1.1,5.92-1.25,7c-0.02,0.18-0.02,0.43,0.15,0.43c0.3,0,1.15-0.48,1.32-0.48
	c0.15,0,0.25,0.42,0.25,0.75c0,0.17-0.08,0.25-0.23,0.35c-0.47,0.3-2.37,1.05-2.92,1.05c-0.32,0-0.45-0.22-0.45-0.62
	c0-0.72,1.1-6.25,1.42-8.15c0.22-1.35,0.22-1.65-0.18-1.65c-0.97,0-4.42,3.85-5.77,6.07l-0.67,3.6c-0.05,0.28-0.15,0.4-0.38,0.45
	l-1.2,0.3L39.98,306.19z"/>
<path class="st0" d="M59.53,294.52c-0.07,0.62-0.35,1.08-0.67,1.05c-0.65-0.05-1.7-0.05-2.77-0.05c-0.52,2.85-1.07,6.45-1.07,7.55
	c0,1.17,0.35,1.58,0.82,1.58c0.38,0,1.65-0.55,2.55-1.05c0.35-0.2,0.55,0.2,0.55,0.57c0,0.28-0.05,0.35-0.67,0.72
	c-0.88,0.53-2.32,1.33-2.85,1.33c-0.75,0-2.07-1.02-2.07-2.67c0-1.17,0.75-5.5,1.17-7.97c-0.7,0.03-1.32,0.05-1.75,0.1
	c-0.25,0.03-0.4-0.07-0.4-0.47c0-0.42,0.2-0.5,0.5-0.58c0.32-0.07,1-0.15,1.85-0.25c0.3-1.85,0.23-2.07,0.27-2.35
	c0.02-0.17,0.15-0.23,0.42-0.42c0.2-0.15,1.12-0.6,1.4-0.6c0.37,0,0.2,0.3-0.02,1.12c-0.12,0.42-0.28,1.22-0.48,2.2
	c1.17-0.02,2.27-0.05,2.85-0.08C59.51,294.23,59.56,294.3,59.53,294.52L59.53,294.52z"/>
<path class="st0" d="M67,305.56c0-0.87,1.55-8.22,1.55-9.4c0-0.33-0.05-0.47-0.2-0.47c-0.23,0-0.77,0.25-0.97,0.25
	c-0.18,0-0.35-0.55-0.35-0.75c0-0.15,0.08-0.22,0.27-0.3l2.47-0.97c0.15-0.05,0.3-0.12,0.47-0.12c0.23,0,0.27,0.15,0.27,0.42
	c0,0.7-1.55,9-1.67,9.87c-0.02,0.18-0.05,0.43,0.12,0.43c0.3,0,1.15-0.48,1.32-0.48c0.15,0,0.25,0.42,0.25,0.75
	c0,0.17-0.07,0.25-0.22,0.35c-0.48,0.3-2.32,1.05-2.87,1.05c-0.32,0-0.45-0.22-0.45-0.62L67,305.56z M69.27,291.14
	c-0.3,0.1-0.5-0.08-0.42-0.4l0.4-1.65c0.1-0.42,0.22-0.5,0.57-0.6l1.4-0.4c0.35-0.1,0.5,0.15,0.32,0.53l-0.7,1.62
	c-0.15,0.35-0.23,0.45-0.5,0.55C70.34,290.79,69.27,291.14,69.27,291.14z"/>
<path class="st0" d="M72.68,306.19c-0.15,0.05-0.27-0.07-0.22-0.27c0.42-1.67,1.75-8.85,1.75-9.8c0-0.33-0.1-0.42-0.25-0.42
	c-0.23,0-0.77,0.25-0.97,0.25c-0.18,0-0.35-0.55-0.35-0.75c0-0.15,0.08-0.22,0.27-0.3l2.5-0.97c0.15-0.05,0.3-0.12,0.47-0.12
	c0.23,0,0.27,0.15,0.27,0.42c0,0.4-0.5,3.42-0.87,5.45c1.42-2.15,4.57-5.87,6.4-5.87c0.95,0,1.25,1,0.87,3.3
	c-0.35,2.2-1.1,5.92-1.25,7c-0.02,0.18-0.02,0.43,0.15,0.43c0.3,0,1.15-0.48,1.32-0.48c0.15,0,0.25,0.42,0.25,0.75
	c0,0.17-0.07,0.25-0.23,0.35c-0.47,0.3-2.37,1.05-2.92,1.05c-0.32,0-0.45-0.22-0.45-0.62c0-0.72,1.12-6.3,1.42-8.2
	c0.22-1.38,0.2-1.6-0.18-1.6c-0.92,0-4.4,3.8-5.75,6.1l-0.67,3.57c-0.05,0.28-0.15,0.4-0.38,0.45l-1.2,0.3L72.68,306.19z"/>
<path class="st0" d="M89.88,312.51c0.72-3.72,3-15.02,3-16.4c0-0.33-0.12-0.42-0.27-0.42c-0.23,0-0.77,0.25-0.97,0.25
	c-0.18,0-0.35-0.55-0.35-0.75c0-0.15,0.08-0.22,0.27-0.3l2.5-0.97c0.15-0.05,0.3-0.12,0.47-0.12c0.23,0,0.27,0.15,0.27,0.42
	c0,0.35-0.4,2.77-0.75,4.7c1.52-2.17,4.07-5.12,5.95-5.12c1.15,0,1.9,1.95,1.9,4.37s-0.9,4.37-2.4,5.9
	c-1.12,1.15-2.45,2.15-4.37,2.15c-0.75,0-1.47-0.15-2.32-0.5c-0.35,1.8-1.05,5.2-1.05,5.47c0,0.17,0.05,0.2,0.17,0.2
	c0.2,0,1.45-0.58,1.62-0.58c0.23,0,0.25,0.42,0.25,0.83c0,0.17-0.08,0.25-0.23,0.35c-0.47,0.3-2.65,1.15-3.2,1.15
	c-0.35,0-0.57-0.22-0.5-0.62L89.88,312.51z M100.15,298.44c0-1.87-0.35-2.82-0.83-2.82c-1.37,0-4.57,3.72-5.65,5.6l-0.48,2.67
	c-0.07,0.35,0,0.4,0.3,0.52c0.47,0.2,1.25,0.4,2.2,0.4c2.57,0,4.45-2.97,4.45-6.37H100.15z"/>
<path class="st0" d="M103.58,302.19c0-2.22,0.82-4.4,2.25-5.92c1.1-1.17,2.35-2.35,4.17-2.35c0.9,0,1.62,0.12,2.82,0.52
	c0.23,0.08,0.7-0.15,0.9-0.15c0.17,0,0.25,0.1,0.17,0.47l-0.2,0.97c-0.3,1.4-1.2,7.65-1.27,8.37c-0.03,0.22,0.02,0.4,0.15,0.4
	c0.3,0,1.15-0.48,1.33-0.48c0.15,0,0.25,0.42,0.25,0.75c0,0.17-0.08,0.25-0.23,0.35c-0.47,0.3-2.37,1.05-2.92,1.05
	c-0.33,0-0.53-0.22-0.45-0.62l0.75-4.62c-1.27,2.12-3.85,5.27-5.75,5.27c-1.12,0-1.97-1.6-1.97-4.02L103.58,302.19z M111.6,298.72
	l0.45-2.9c-0.75-0.28-1.62-0.5-2.57-0.5c-2.37,0-4.17,3.3-4.17,6.5c0,1.75,0.38,2.65,0.85,2.65
	C107.48,304.47,110.53,300.57,111.6,298.72L111.6,298.72z"/>
<path class="st0" d="M116.22,306.19c-0.15,0.05-0.27-0.07-0.22-0.27c0.42-1.67,1.75-8.85,1.75-9.8c0-0.33-0.1-0.42-0.25-0.42
	c-0.23,0-0.78,0.25-0.98,0.25c-0.17,0-0.35-0.55-0.35-0.75c0-0.15,0.08-0.22,0.28-0.3l2.47-0.97c0.15-0.05,0.3-0.12,0.48-0.12
	c0.22,0,0.27,0.15,0.27,0.42c0,0.4-0.3,1.95-0.65,3.97c1-1.52,2.82-4.4,4.07-4.4c0.43,0,1.05,0.2,1.6,0.52
	c0.25,0.15,0.35,0.25,0.35,0.35c0,0.25-0.17,0.75-0.58,1.25c-0.12,0.15-0.25,0.33-0.45,0.33c-0.22,0-0.82-0.65-1.32-0.65
	c-0.7,0-2.6,2.6-3.95,4.75l-0.97,5.1c-0.05,0.28-0.15,0.4-0.38,0.45l-1.17,0.3V306.19z"/>
<path class="st0" d="M124.6,302.19c0-2.22,0.83-4.4,2.25-5.92c1.1-1.17,2.35-2.35,4.17-2.35c0.9,0,1.62,0.12,2.82,0.52
	c0.22,0.08,0.7-0.15,0.9-0.15c0.17,0,0.25,0.1,0.17,0.47l-0.2,0.97c-0.3,1.4-1.2,7.65-1.28,8.37c-0.02,0.22,0.03,0.4,0.15,0.4
	c0.3,0,1.15-0.48,1.32-0.48c0.15,0,0.25,0.42,0.25,0.75c0,0.17-0.08,0.25-0.22,0.35c-0.47,0.3-2.38,1.05-2.92,1.05
	c-0.32,0-0.52-0.22-0.45-0.62l0.75-4.62c-1.28,2.12-3.85,5.27-5.75,5.27c-1.12,0-1.97-1.6-1.97-4.02L124.6,302.19z M132.62,298.72
	l0.45-2.9c-0.75-0.28-1.62-0.5-2.57-0.5c-2.37,0-4.17,3.3-4.17,6.5c0,1.75,0.38,2.65,0.85,2.65
	C128.51,304.47,131.55,300.57,132.62,298.72L132.62,298.72z"/>
<path class="st0" d="M136.95,302.14c0-2.25,0.9-4.4,2.37-5.95c1.33-1.4,2.38-2.27,4.17-2.27c0.77,0,1.3,0.1,2.22,0.38l0.88-5.57
	c0.08-0.47,0-0.6-0.2-0.6c-0.23,0-0.8,0.17-1.03,0.17s-0.35-0.5-0.35-0.77c0-0.17,0.08-0.28,0.33-0.35l2.47-0.85
	c0.2-0.08,0.35-0.12,0.48-0.12c0.25,0,0.32,0.2,0.27,0.48c-0.08,0.4-0.22,1.37-0.35,2.05c-0.22,1.28-2.42,14.67-2.42,15.55
	c0,0.17,0.03,0.25,0.15,0.25c0.3,0,1.15-0.48,1.35-0.48s0.27,0.42,0.27,0.78c0,0.17-0.12,0.25-0.27,0.35
	c-0.47,0.3-2.35,1.02-2.9,1.02c-0.35,0-0.52-0.27-0.45-0.67l0.78-4.57c-1.28,2.12-3.9,5.27-5.8,5.27c-1.15,0-1.97-1.65-1.97-4.07
	V302.14z M145.02,298.72l0.45-2.9c-0.75-0.28-1.6-0.5-2.55-0.5c-2.45,0-4.25,3.4-4.25,6.5c0,1.72,0.38,2.62,0.85,2.62
	C140.87,304.44,143.94,300.57,145.02,298.72z"/>
<path class="st0" d="M149.75,305.56c0-0.87,1.55-8.22,1.55-9.4c0-0.33-0.05-0.47-0.2-0.47c-0.23,0-0.78,0.25-0.98,0.25
	c-0.17,0-0.35-0.55-0.35-0.75c0-0.15,0.08-0.22,0.28-0.3l2.47-0.97c0.15-0.05,0.3-0.12,0.48-0.12c0.22,0,0.27,0.15,0.27,0.42
	c0,0.7-1.55,9-1.67,9.87c-0.02,0.18-0.05,0.43,0.12,0.43c0.3,0,1.15-0.48,1.33-0.48c0.15,0,0.25,0.42,0.25,0.75
	c0,0.17-0.08,0.25-0.23,0.35c-0.47,0.3-2.32,1.05-2.87,1.05c-0.33,0-0.45-0.22-0.45-0.62L149.75,305.56z M152.02,291.14
	c-0.3,0.1-0.5-0.08-0.42-0.4l0.4-1.65c0.1-0.42,0.22-0.5,0.58-0.6l1.4-0.4c0.35-0.1,0.5,0.15,0.33,0.53l-0.7,1.62
	c-0.15,0.35-0.22,0.45-0.5,0.55L152.02,291.14L152.02,291.14z"/>
<path class="st0" d="M154.93,305.41c-0.15-0.1-0.35-0.17-0.35-0.42c0-0.2,0.22-0.75,0.38-1.08c0.15-0.32,0.22-0.45,0.45-0.45
	c0.25,0,0.5,0.42,0.97,0.75c0.55,0.38,1.2,0.67,2,0.67c0.95,0,1.55-0.12,2-0.42c0.3-0.2,0.38-0.82,0.38-1.27
	c0-1.12-0.8-1.7-2.15-2.45c-1.88-1.05-2.67-2.02-2.67-3.52c0-1.87,1.9-3.3,3.8-3.3c1.4,0,2.25,0.32,2.8,0.6
	c0.25,0.12,0.33,0.25,0.33,0.35c0,0.18-0.05,0.3-0.53,1c-0.1,0.15-0.2,0.33-0.4,0.33c-0.3,0-0.9-1-2.67-1
	c-0.77,0-1.52,0.25-1.72,0.65c-0.1,0.2-0.17,0.55-0.17,0.83c0,1.17,0.58,1.75,1.9,2.52c2.47,1.45,2.97,2.07,2.97,3.55
	c0,1.58-1.65,3.47-4.12,3.47c-1.2,0-2.5-0.4-3.17-0.8L154.93,305.41z"/>
<path class="st0" d="M172.42,303.61c0,0.22-0.12,0.33-0.35,0.5c-1.3,1-3.37,2.1-4.32,2.1c-1.62,0-3.52-1.15-3.52-4.37
	c0-2.37,1.05-4.4,2.3-5.8c1.15-1.27,2.37-2.12,3.62-2.12s3,0.85,3,3.1c0,0.53-0.55,1.53-0.9,1.72c-1.97,1.1-4.6,2.1-6.32,2.65
	c0,2.85,1.3,3.37,2.2,3.37c1,0,3.62-1.75,3.85-1.75C172.23,303.01,172.43,303.46,172.42,303.61L172.42,303.61z M166,300.26
	c1.85-0.67,4.37-1.72,5.65-2.8c-0.08-1.4-0.8-2.17-1.8-2.17C168,295.29,166.35,297.54,166,300.26L166,300.26z"/>
</svg>
