<?xml version="1.0" encoding="utf-8"?>
<!-- Generator: Adobe Illustrator 28.0.0, SVG Export Plug-In . SVG Version: 6.00 Build 0)  -->
<svg version="1.1" id="_레이어_1" xmlns="http://www.w3.org/2000/svg" xmlns:xlink="http://www.w3.org/1999/xlink" x="0px"
	 y="0px" viewBox="0 0 300 315" style="enable-background:new 0 0 300 315;" xml:space="preserve">
<style type="text/css">
	.st0{fill:#FF008F;}
</style>
<path class="st0" d="M11.97,259.06c-0.68,0-1.4,0.04-2,0.08s-1.08,0.08-1.24,0.08c-0.2,0-0.32,0-0.44-0.24
	c-0.12-0.28-0.04-0.72,0.24-0.96c1.44-1.32,4.84-4.48,7.76-8.2c2.48-3.12,4.08-6.24,3.96-9.72c-0.12-2.96-1.96-4.96-4.64-4.88
	c-2.32,0.12-3.8,1.68-4.68,3.12c-0.2,0.32-0.32,0.32-0.48,0.24l-0.68-0.28c-0.12-0.08-0.16-0.2,0-0.56c0.64-1.56,2.84-6,8.6-6
	c4.36,0,7.6,3.32,7.6,7.28c0,3.4-1.6,6.68-6.04,10.84c-2.32,2.16-4.12,3.64-5.36,4.8v0.16h6.92c2.6,0,3.64-1.56,4.52-3.04
	c0.2-0.36,0.32-0.44,0.72-0.24c0.44,0.2,0.6,0.36,0.48,0.64l-2.84,7.4c-0.12,0.32-0.24,0.44-0.6,0.44c-0.32,0-0.36-0.08-0.52-0.4
	c-0.24-0.52-1-0.56-2.6-0.56C20.65,259.06,11.97,259.06,11.97,259.06z"/>
<path class="st0" d="M46.09,245.46c0,9.16-2.96,14.2-8.72,14.2c-7.04,0-9.08-7.76-9.08-12.84c0-8.92,3.12-15.08,9.04-15.08
	C44.77,231.74,46.09,239.38,46.09,245.46z M35.05,236.02c-0.64,2.92-1.12,7.04-1.12,10.36c0,3.8,0.16,6.8,0.64,8.52
	c0.64,2.28,1.4,3.12,2.84,3.12c1.36,0,2.2-0.8,2.56-2.6c0.36-1.96,0.52-5,0.52-10.84c0-6.72-0.76-11.2-2.96-11.2
	C36.13,233.38,35.37,234.5,35.05,236.02L35.05,236.02z"/>
<path class="st0" d="M54.09,239.14c0-0.96-0.2-1.84-0.92-1.84c-0.4,0-0.92,0.04-1.8,0.28l-1.96,0.56c-0.2,0.04-0.36,0.04-0.44-0.12
	l-0.28-0.8c-0.08-0.16-0.04-0.32,0.24-0.48l9.72-4.76c0.28-0.12,0.48-0.24,0.76-0.24c0.24,0,0.36,0.28,0.36,0.6
	s-0.12,6.6-0.12,11.76v1.68c0,2.08,0.04,8.96,0.04,9.4c0.04,2.08,0.2,2.36,2.2,2.36h1.44c0.28,0,0.4,0.12,0.4,0.32v1.04
	c0,0.2-0.12,0.28-0.44,0.28c-0.28,0-5.72-0.12-6.4-0.12c-1.16,0-6.8,0.12-7,0.12c-0.24,0-0.32-0.08-0.32-0.28v-1.08
	c0-0.24,0.24-0.28,0.56-0.28h1.04c2.2,0,2.8-0.12,2.88-2.16c0.08-1.68,0.04-6.08,0.04-7.52L54.09,239.14L54.09,239.14z"/>
<path class="st0" d="M68.77,257.02c-2.2-2.92-2.44-5.72-2.44-7.88c0-5.44,2.6-9.8,5.2-12.4c2.68-2.64,5.32-3.88,7.84-4.64
	c1.08-0.32,1.6-0.36,1.84-0.36s0.6,0.2,0.6,0.48c0,0.36-0.2,0.68-0.92,0.96c-3.2,1.2-7.52,5.92-8.56,10.76l0.24,0.12
	c0.84-0.8,2.6-1.56,4.4-1.56c4.96,0,6.96,3.92,6.96,7.44s-1.12,5.76-2.6,7.12c-1.84,1.72-3.56,2.6-6.64,2.6
	C71.85,259.66,70.05,258.7,68.77,257.02z M78.45,251.98c0-3.8-1.12-6.88-3.44-6.88c-1.16,0-1.88,0.16-2.36,0.68
	c-0.8,0.8-0.8,2.52-0.8,5.32c0,2.32,0.52,7.08,3.24,7.08C76.57,258.18,78.45,257.58,78.45,251.98z"/>
<path class="st0" d="M134.35,88.02l-0.14-0.05c-6.56-1.99-18.03-5.33-21.06-5.33c-4.48,0-8.85,5.88-8.85,9.29v3.05l13.54,8.03v3.37
	l0.58,92.9l0.33,25.99l5.65,3.39l1.88-0.27c7.25-1.03,12.3-10.07,13.18-23.59l0.15-5.44l0.15-93.02V95.42
	C139.76,91.33,138.29,89.32,134.35,88.02L134.35,88.02z"/>
<path class="st0" d="M101.35,112.16c-2.13-2.35-4.91-2.26-7.85-2.17l-47.86,1.04l-17.41-2.47h-0.38c-3.74,0-8.56,4.5-8.56,9.29v3.22
	l11.21,5.94L34.64,183l4.84,3.23h1.62c4.06,0,7.68-2.43,10.03-6.55H91.9c2.73,0,11.04,0,11.04-8.56c0-3.83-2.44-6.61-5.71-8.16
	l5.53-42.92C103.13,117.19,103.48,114.5,101.35,112.16L101.35,112.16z M78.93,161.78l-25.37,0.41l-1.1-33.61l27.13-0.1L78.93,161.78
	L78.93,161.78z"/>
<path class="st0" d="M256.99,87.9c-0.94-0.33-16.66-5.25-20.4-5.25s-8.85,4.96-8.85,8.71v2.96l13.39,8.41v5.85l0.42,46.56
	c-0.68-3.45-2.28-7.19-4.72-10.86c-2.78-4.16-5.46-5.05-7.95-5.39c-0.02,0-0.04,0-0.05,0c-0.08-0.09-0.2-0.22-0.34-0.4l-5.75-7.56
	c2.53-4.71,4.84-9.52,7.01-14.63c2.11-5.03,2.52-9.11-2.35-12.64c-3.34-2.46-13.56-6.87-17.69-7.28c-3.55-0.31-7.81,2.38-9.53,4.46
	c-1.92,2.32-1.67,4.56-1.34,5.69l0.55,1.91l1.66,1.09c1.76,1.16,4.67,3.06,6.38,4.42c-2.66,6.76-6.05,13.88-9.93,20.87
	c-1.65-2.39-3.51-3.28-5.32-3.85c-0.03-0.01-0.07-0.02-0.1-0.03c-0.04-0.06-0.1-0.14-0.17-0.25l-1.82-2.84
	c1.49-2.5,2.81-4.96,3.88-7.21c1.47-3.03,4.52-9.34-1.36-13.45c-3.49-2.39-13.13-6.06-16.95-6.45c-3.67-0.33-7.32,2.3-8.76,4.04
	c-1.98,2.39-1.72,4.67-1.39,5.83l0.59,2.05l1.83,1.09c2.41,1.43,3.86,2.43,4.73,3.09c-5.56,13.77-15.33,27.99-27.11,39.4l-5.05,4.89
	l12.29,7.26l2.85-2.09c8.36-6.12,16.87-14.44,24.12-23.49l5.92,10.6c-3.56,4.86-7.28,9.39-11.08,13.53l-4.74,5.14l12.63,6.59
	l2.72-2.16c10.07-7.98,19.42-18,27.37-29.28l13.2,20.02c-20.08-0.1-35.28,13-35.28,30.39s15.07,30.1,35.05,30.1
	s34.91-12.94,34.91-30.1c0-7.06-2.49-13.41-6.78-18.46c2.03-1.17,3.85-3.13,5.35-5.79c1.8-3.2,2.98-7.19,3.17-10.69l0.29-5.39
	l0.15-48.72l0.15-12.12c0-4.4-0.9-6.93-5.77-8.55L256.99,87.9z M225.53,208.99c-10.43,0-14.15-5.88-14.15-11.38
	c0-6.87,5.82-11.67,14.15-11.67c6.97,0,14,3.61,14,11.67S232.3,208.99,225.53,208.99z M236.8,168.71c1.97-1.16,3.53-3.06,4.39-5.53
	c0.24-0.67,0.42-1.37,0.54-2.11l0.4,9.56c-1.69-0.76-3.48-1.41-5.34-1.92H236.8z"/>
<path class="st0" d="M184.59,253.82c0-0.96,0.79-1.74,1.74-1.74c1.01,0,1.76,0.77,1.76,1.74s-0.75,1.74-1.76,1.74
	C185.39,255.56,184.59,254.77,184.59,253.82z M184.61,246.25c0-0.94,0.79-1.74,1.74-1.74c1.01,0,1.76,0.79,1.76,1.74
	s-0.75,1.74-1.76,1.74C185.41,247.99,184.61,247.2,184.61,246.25z"/>
<path class="st0" d="M200.36,253.58c-0.41,0-0.86-0.28-1.22-0.73l-3.15-3.69c-1.35,1.97-3.02,3.49-4.93,4.72
	c-0.28,0.17-0.49,0.26-0.64,0.26c-0.32,0-0.49-0.17-0.49-0.51c0-0.15,0.15-0.32,0.39-0.58c2.29-2.34,4.09-5.38,4.76-8.62
	c-0.15-0.45-0.69-0.94-1.18-1.18c-0.34-0.17-0.41-0.28-0.41-0.47c0-0.34,0.3-0.51,0.9-0.51c1.14,0,2.19,0.3,3.39,0.79
	c0.32,0.15,0.45,0.39,0.45,0.64c0,0.11,0,0.34-0.09,0.66c-0.32,1.22-0.73,2.29-1.22,3.24l0.94,1.07c0.51,0.54,1.05,0.79,1.65,0.99
	c0.34,0.11,0.47,0.19,0.71,0.51c0.32,0.43,0.62,1.07,0.86,1.52c0.17,0.36,0.19,0.73,0.19,0.92c0,0.62-0.41,0.96-0.9,0.96
	L200.36,253.58z M208.08,249.85c-0.71,0-1.84,0.02-2.61,0.09v4.61c0,1.57-0.13,3.02-0.56,4.24c-0.26,0.75-0.77,1.22-1.26,1.22
	s-0.99-0.64-0.99-2.94v-14.94c-0.15-0.58-0.75-1.14-1.54-1.42c-0.32-0.11-0.49-0.21-0.49-0.54c0-0.43,0.79-0.58,1.41-0.58
	c0.36,0,0.9,0.09,1.65,0.24c0.66,0.15,1.03,0.28,1.31,0.39c0.39,0.15,0.58,0.43,0.58,0.84c0,0.15,0,0.41-0.06,0.64
	c-0.06,0.26-0.04,0.51-0.04,0.84v5.7l0.43-0.04c0.19-0.02,0.39-0.06,0.49-0.15c0.32-0.28,0.6-0.43,0.88-0.45
	c0.49-0.06,1.01-0.04,1.46,0.02c0.75,0.11,0.84,0.51,0.84,1.01c0,0.75-0.62,1.22-1.48,1.22L208.08,249.85z"/>
<path class="st0" d="M226.15,241.71c-0.06,0.26-0.04,0.51-0.04,0.84v5.79l0.36-0.04c0.19-0.02,0.39-0.06,0.49-0.15
	c0.32-0.28,0.6-0.43,0.88-0.45c0.49-0.06,1.01-0.04,1.46,0.02c0.75,0.11,0.84,0.51,0.84,1.01c0,0.75-0.62,1.22-1.48,1.22
	c-0.69,0-1.78,0.02-2.55,0.09v4.52c0,1.57-0.13,3.02-0.56,4.24c-0.26,0.75-0.77,1.22-1.26,1.22s-0.99-0.64-0.99-2.94v-4.03
	c-2.59,0.94-5.49,1.41-7.95,1.67c-0.84,0.09-1.46,0.09-1.82-0.15c-0.54-0.36-0.96-0.92-0.96-2.04v-3.26
	c-0.19-0.34-0.66-0.69-1.24-0.86c-0.32-0.11-0.47-0.21-0.47-0.47c0-0.32,0.58-0.58,0.92-0.6c0.86-0.06,2.04-0.02,2.87,0.21
	c0.19,0.04,0.41,0.06,0.66,0.06c0.62,0,1.95-0.06,2.29-0.17c0.19-0.04,0.3-0.17,0.32-0.41c0.06-0.64,0.04-2.19,0.04-2.77
	c-0.69,0-2.27,0.13-2.68,0.19c-0.58,0.11-0.88,0.19-1.16,0.34c-0.11,0.04-0.26,0.06-0.41,0.06c-0.24,0-0.47-0.06-0.81-0.26
	c-0.41-0.24-1.01-0.6-1.37-0.92c-0.21-0.19-0.32-0.39-0.32-0.62s0.21-0.34,0.66-0.28c0.58,0.09,1.35,0.11,2.36,0.11
	s2.77-0.06,3.62-0.13c0.21-0.02,0.41-0.06,0.56-0.17c0.17-0.11,0.34-0.15,0.51-0.15c0.71-0.02,1.41,0.04,2.08,0.17
	c0.34,0.06,0.51,0.26,0.51,0.62c0,0.26-0.15,0.56-0.43,0.92c-0.17,0.88-0.45,2.55-0.75,3.32c0.58,0.09,0.96,0.28,0.96,0.71
	c0,0.45-0.34,0.79-1.03,0.81c-1.37,0.06-3.3,0.15-4.89,0.26c-0.02,0.15-0.02,0.28-0.02,0.47v2.27c0,0.41,0.21,0.45,0.54,0.45
	c2.29-0.06,5.19-0.34,7.39-0.86v-9.47c-0.15-0.58-0.75-1.14-1.54-1.42c-0.32-0.11-0.49-0.21-0.49-0.54c0-0.43,0.79-0.58,1.41-0.58
	c0.36,0,0.9,0.09,1.65,0.24c0.66,0.15,1.03,0.28,1.31,0.39c0.39,0.15,0.58,0.43,0.58,0.84c0,0.15,0,0.41-0.06,0.64L226.15,241.71z"
	/>
<path class="st0" d="M231.1,252.79c-0.3,0-0.45-0.15-0.45-0.45c0-0.15,0.13-0.32,0.36-0.51c2.79-2.06,5.34-5.19,6.52-7.78
	c-0.88-0.02-1.99,0.06-2.51,0.15c-0.39,0.06-0.69,0.15-0.88,0.26c-0.15,0.06-0.28,0.11-0.39,0.11c-0.15,0-0.28-0.02-0.41-0.09
	c-0.6-0.28-1.2-0.73-1.74-1.16c-0.24-0.19-0.36-0.41-0.36-0.6c0-0.26,0.17-0.36,0.54-0.32c0.77,0.11,1.63,0.15,2.57,0.15
	c1.18,0,2.42-0.04,3.22-0.11c0.21-0.02,0.41-0.06,0.6-0.17c0.17-0.09,0.34-0.13,0.54-0.13c0.75,0,1.52,0.06,2.19,0.21
	c0.39,0.11,0.58,0.3,0.58,0.54c0,0.3-0.13,0.56-0.41,0.79c-0.13,0.11-0.21,0.24-0.28,0.39c-0.54,1.11-1.26,2.16-2.12,3.19l0.41,0.39
	c0.47,0.47,1.01,0.77,1.59,0.92c0.32,0.06,0.62,0.17,0.77,0.36c0.41,0.51,0.69,0.92,0.84,1.29c0.15,0.32,0.21,0.75,0.21,1.01
	c0,0.45-0.3,0.79-0.9,0.79c-0.36,0-0.79-0.24-1.14-0.56l-2.98-2.94c-1.63,1.61-3.64,2.98-5.98,4.18
	C231.38,252.76,231.25,252.79,231.1,252.79L231.1,252.79z M246.55,258.92c-2.57,0-5.74,0.02-7.8,0.09
	c-0.99,0.02-1.65-0.11-2.01-0.41c-0.49-0.41-0.73-1.05-0.73-1.93V255c-0.17-0.24-0.69-0.6-1.54-0.79c-0.28-0.06-0.43-0.24-0.43-0.47
	c0-0.41,0.64-0.62,1.14-0.62c1.24,0,2.27,0.06,3.07,0.19c0.54,0.06,0.75,0.41,0.66,0.99c-0.04,0.28-0.06,0.58-0.06,0.86v1.67
	c0,0.36,0.17,0.56,0.54,0.58c0.86,0.06,2.36,0.02,2.96-0.04c0.86-0.06,1.5-0.19,1.95-0.45c0.43-0.26,0.75-0.34,1.01-0.34
	c0.66-0.02,1.39,0,1.84,0.11c0.62,0.15,0.77,0.41,0.77,0.99c0,0.66-0.43,1.26-1.35,1.26L246.55,258.92z M243.74,242.18
	c-0.15-0.58-0.66-1.14-1.46-1.41c-0.32-0.11-0.49-0.21-0.49-0.54c0-0.43,0.79-0.58,1.41-0.58c0.3,0,0.81,0.09,1.56,0.24
	c0.66,0.15,1.03,0.28,1.31,0.39c0.39,0.15,0.58,0.43,0.58,0.84c0,0.15,0,0.41-0.06,0.64c-0.06,0.26-0.04,0.51-0.04,0.84v6.39
	c0,1.97-0.15,3.52-0.56,4.52c-0.32,0.75-0.71,1.14-1.2,1.14c-0.6,0-1.05-0.94-1.05-3.37v-9.09V242.18z"/>
<path class="st0" d="M267.15,250.11c0.45,0.02,0.86,0.02,1.24,0c0.58,0,1.39,0,2.08-0.06v-3.56l-0.47,0.04
	c-0.28,0.06-0.49,0.09-0.66,0.17c-0.19,0.09-0.43,0.13-0.58,0.13c-0.24,0-0.36,0-0.62-0.15c-0.41-0.19-0.81-0.54-1.16-0.81
	c-0.21-0.17-0.32-0.39-0.32-0.62c0-0.19,0.19-0.36,0.62-0.3c0.51,0.06,1.14,0.06,1.65,0.04c0.43,0,1.01-0.02,1.54-0.04v-2.81
	c-0.15-0.58-0.75-1.14-1.54-1.42c-0.32-0.11-0.49-0.21-0.49-0.54c0-0.43,0.79-0.58,1.41-0.58c0.36,0,0.9,0.09,1.65,0.24
	c0.66,0.15,1.03,0.28,1.31,0.39c0.39,0.15,0.58,0.43,0.58,0.84c0,0.15,0,0.41-0.06,0.64c-0.06,0.26-0.04,0.51-0.04,0.84v12
	c0,1.57-0.13,3.02-0.56,4.24c-0.26,0.75-0.77,1.22-1.27,1.22s-0.99-0.64-0.99-2.94v-5.53c-0.41,0.02-0.77,0.06-1.01,0.09
	c-0.28,0.06-0.49,0.09-0.66,0.17c-0.19,0.09-0.43,0.13-0.58,0.13c-0.24,0-0.36,0-0.62-0.15c-0.34-0.15-0.69-0.41-1.01-0.66
	c-0.17,0.24-0.36,0.45-0.6,0.64c-0.92,0.84-2.08,1.24-3.52,1.24s-2.57-0.41-3.49-1.24c-0.94-0.84-1.41-1.89-1.41-3.17
	s0.47-2.34,1.41-3.15c0.79-0.71,1.69-1.09,2.74-1.2c0.19-0.11,0.28-0.24,0.28-0.36c0-0.15,0-0.19-0.24-0.34
	c-0.19-0.11-0.28-0.24-0.28-0.39c0-0.24,0.24-0.39,0.64-0.39c0.51,0,1.03,0.13,1.54,0.36c0.19,0.09,0.3,0.21,0.3,0.41
	c0,0.24-0.13,0.49-0.36,0.77c0.92,0.15,1.71,0.51,2.38,1.14c0.96,0.84,1.44,1.89,1.44,3.15
	C267.42,249.17,267.31,249.62,267.15,250.11L267.15,250.11z M262.58,246.32c-1.22,0-2.14,0.81-2.14,2.17s0.92,2.19,2.14,2.19
	s2.16-0.81,2.16-2.19S263.84,246.32,262.58,246.32z"/>
<path class="st0" d="M286.65,254.34c-0.41,0-0.75-0.26-1.16-0.69l-2.98-3.22c-1.48,1.63-3.34,3.15-5.66,4.52
	c-0.15,0.09-0.39,0.15-0.49,0.15c-0.32,0-0.47-0.17-0.47-0.51c0-0.15,0.11-0.32,0.34-0.51c2.85-2.4,5.29-5.85,6.43-9.09
	c-0.92-0.02-1.84,0.04-2.44,0.13c-0.36,0.04-0.66,0.13-0.9,0.28c-0.15,0.06-0.28,0.11-0.39,0.11c-0.15,0-0.34-0.06-0.62-0.17
	c-0.41-0.19-1.14-0.66-1.56-1.07c-0.17-0.17-0.32-0.32-0.32-0.56c0-0.26,0.17-0.36,0.49-0.32c0.84,0.09,1.69,0.15,2.62,0.15
	c1.18,0,2.29-0.02,3.22-0.11c0.24-0.02,0.43-0.09,0.58-0.15c0.24-0.11,0.41-0.15,0.56-0.15c0.92,0,1.54,0.06,2.21,0.21
	c0.39,0.11,0.58,0.3,0.58,0.54c0,0.32-0.17,0.6-0.41,0.77c-0.11,0.11-0.21,0.24-0.28,0.39c-0.58,1.37-1.33,2.7-2.29,3.97l0.43,0.43
	c0.49,0.49,1.03,0.79,1.65,0.96c0.32,0.09,0.62,0.32,0.9,0.71c0.28,0.41,0.54,0.79,0.73,1.29c0.15,0.34,0.19,0.73,0.19,0.9
	c0,0.75-0.36,1.05-0.94,1.05L286.65,254.34z M293.89,249.86c-0.71,0-1.84,0.02-2.61,0.09v4.61c0,1.57-0.13,3.02-0.56,4.24
	c-0.26,0.75-0.77,1.22-1.26,1.22s-0.99-0.64-0.99-2.94v-14.94c-0.15-0.58-0.75-1.14-1.54-1.42c-0.32-0.11-0.49-0.21-0.49-0.54
	c0-0.43,0.79-0.58,1.41-0.58c0.36,0,0.9,0.09,1.65,0.24c0.66,0.15,1.03,0.28,1.31,0.39c0.39,0.15,0.58,0.43,0.58,0.84
	c0,0.15,0,0.41-0.06,0.64c-0.06,0.26-0.04,0.51-0.04,0.84v5.7l0.43-0.04c0.19-0.02,0.39-0.06,0.49-0.15
	c0.32-0.28,0.6-0.43,0.88-0.45c0.49-0.06,1.01-0.04,1.46,0.02c0.75,0.11,0.84,0.51,0.84,1.01c0,0.75-0.62,1.22-1.48,1.22H293.89z"/>
<path class="st0" d="M65.99,12.45l0.29,0.59v3.93l0.29,0.59v1.47l0.59,0.59l-0.69,0.79l0.98,0.69l-0.59,0.69v0.59l1.28,0.79v0.39
	h-0.29l-0.69,1.18l1.08,0.39l-0.79,0.79v0.59l0.39,0.98l-0.39,0.29l0.49,0.49l0.39-0.49h0.29v0.88l-1.18,0.29l-0.59,1.28l0.49,1.57
	l-0.49,1.38v3.24l0.98,1.96l-0.98,0.49v1.87l-0.29,0.79v2.16h0.59l0.88-0.39l0.49,1.18l-1.67,0.88v1.38l0.29,0.49v2.46l0.98,0.98
	l-0.69,0.29v1.67l0.39,0.98l-0.39,0.29l-0.39,1.18l0.39,1.28l-0.39,0.79l0.39,1.57l0.69,0.29v0.29h-0.69v2.16l0.39,1.67l-0.39,1.57
	l0.98,1.08l-0.98,1.08v1.47l0.49,1.18l-0.49,2.06l0.39,2.46l-0.69,0.69l0.49,0.29l-1.08,1.67l-2.16,0.69h-3.83l-1.87,0.29h-3.83
	l-1.87-1.38l-0.79-2.26l0.49-10.22v-6.88l0.69-2.85l-0.39-1.18l0.49-3.54h-0.49l-0.29-0.88l-0.59-0.59l0.59-0.98v-2.06h-0.88
	l-0.39-2.46h0.69V41.2l-0.69-0.49l-0.49-1.28l-0.88-0.88h-0.79l-0.49,1.18l-0.59,0.69v1.08h1.87v0.59h-2.16l-0.98,0.98l0.49,1.47
	h-0.69l-0.69,1.28l-0.49,1.38v0.69h-0.59l-0.39-0.79l-1.77-0.39v-1.87l-1.87-1.77h-0.39l0.49-1.08l-0.69-1.28v-1.28l-0.69-0.79
	l-0.39,1.08l0.29,0.69V41l0.49,0.98l-0.98,1.57l0.49,0.39l0.59-0.39l0.49,1.96l0.29,0.29l-0.29,1.57l0.98-0.49v0.59l-0.29,0.39v0.88
	h0.29l0.39-0.79l0.49,0.49l-0.59,1.18v0.98l1.18,0.39v0.49l-0.29,0.59l0.29,0.29h0.49l-0.49,1.47l-0.29,0.29l0.59,0.29L43.65,55
	l-0.88,0.49v1.67l-0.88,1.18L41.4,60.5l-1.47,2.75l-2.06,1.28l-0.59-0.59l-0.79,0.39h-2.95l-1.77-1.67l-0.98-3.44l-3.93-7.76
	l-0.59-1.57V49.3l-1.57-2.46l-0.39-1.47l-1.08-1.18l-0.88-0.29v-1.18l0.29-0.39l-0.29-0.29h-0.29v-0.59l0.29-0.29l-0.59-0.49v-0.29
	l-0.59,0.59h-1.28l-1.18,0.49v0.88h-1.08l-0.59-0.98l-0.49,0.49l0.59,1.28l-0.49,0.49h-0.39l0.39,2.46l0.29,0.59l-0.59,0.49v0.98
	h0.88l-0.59,0.88v2.46l0.49-0.49l0.49,1.08h0.79v0.29l-1.47,0.29v3.34l-0.59,0.59l0.59,3.54l0.29,0.59v3.04l-0.29,1.08l0.49,2.65
	l-0.49,1.77l0.69,5.4l-0.39,0.79v0.88l-1.28,1.87h-5.6L6.92,77.5l-1.47-2.36l0.39-1.18v-3.63l-0.29-0.59v-5.4l0.29-0.88V51.77
	l-0.29-5.99l0.29-0.98v-3.83l0.29-0.98l-0.29-4.22v-5.4l-0.39-0.69l0.49-0.88l-0.39-1.08l0.29-6.68l0.59-2.36l0.59-0.59L6.63,17.8
	l0.39-0.29h0.59l0.29,0.88l0.88,1.18l0.29,1.18l0.98,0.98v0.59l0.29,0.29v1.18l0.59,0.39l0.29,0.49h1.57l1.08-1.47v-0.88l-1.18,0.79
	l-0.88-1.38l0.59-0.29h0.59l0.59-0.69v-0.59h-0.29l-0.88-0.88L13,18.69v-1.18l-0.59-0.59v-3.05l-1.18-1.18v-2.16l1.08-1.08
	l0.98,0.49l1.18-0.29h1.87l0.79,0.39l1.47-0.59l1.18,0.59l0.49-0.39h1.18l1.18,0.79l4.22,6.48h1.28v1.47h0.79v0.59l-0.2,0.29
	l0.2,0.29v0.88l-0.29,0.49l0.59,1.08l0.79-0.39l0.59,0.49l-0.49,1.57l1.28,2.16l0.88,0.49v1.38h1.18l0.39,1.47v0.69l1.08,0.69v0.69
	l-0.49,0.59l0.2,0.69v1.18h0.59l0.59-0.59h0.98v0.59L36,34.1l-0.49,0.88l0.98,1.28v1.67h1.18l0.79-0.79l0.49,0.49l0.69-0.39
	l0.98-2.55l0.39-2.06l1.18-2.26v-0.79l0.88-1.87l0.59-1.87l0.39-0.59l0.59-2.36l0.88-1.87l0.69-2.85l1.08-1.57l0.79-2.36l0.59-0.59
	l0.39-1.57l0.39-0.59l0.39-1.38l1.08-1.08l1.18-0.29l0.88-0.98l7.27-0.29l2.95,0.29l0.29,0.29h1.18l1.28,1.28v3.04L65.99,12.45z
	 M12.15,25.32l-0.39,0.79l0.59,0.69l0.39-1.18l-0.59-0.29V25.32z M12.74,27.78h0.29v-0.29l-0.29-0.29V27.78L12.74,27.78z
	 M17.26,38.59l-1.08,0.59l0.49,0.98h0.59l0.69-1.57H17.26z M17.26,34.37v0.39h0.59l0.29-0.39C18.14,34.37,17.26,34.37,17.26,34.37z
	 M18.73,39.77l-0.98,0.59l0.88,0.88l0.88-1.47h-0.79H18.73z M17.94,36.73h0.49v-0.88L17.94,36.73z M21.18,48.81h-0.59v1.18h-1.18
	l-0.39-1.18l-0.29-0.29v-0.98h0.29l0.59,0.69l1.57,0.29V48.81z M20.3,43.41l-0.69,0.29l-0.59-0.59v-0.29h1.28V43.41z M22.17,46.46
	h-0.69l-0.39-0.88l0.69-0.39L22.17,46.46L22.17,46.46z M37.99,35.95l-1.18-0.39v-0.49h1.18V35.95z M37.4,39.19v0.59h0.59v-0.59H37.4
	z M39.56,38.01l0.29,0.29l0.2-0.29l-0.2-0.29L39.56,38.01z M51.25,48.23l-0.69,0.59l-1.67-1.57h-1.28l-0.59-0.49l0.79-0.39
	l1.67,0.88l0.98,1.57l0.79-0.88C51.25,47.94,51.25,48.23,51.25,48.23z"/>
<path class="st0" d="M83.27,13.73l-0.39,0.29l0.39,0.29v0.88l1.87,1.96l-0.98,0.49v0.88l1.18-0.39v1.28h0.88l0.29,2.26l-1.57,0.59
	l0.69,1.08l0.88,0.29l-0.29,0.88l-0.69,0.69l0.79,1.28l-0.39,0.39v0.69l0.29,0.29l-0.59,0.98l0.29,0.79v1.47l-0.98,1.08l0.59,0.59
	l-0.49,0.49l-0.88,0.39v1.38l0.79,0.79l-1.08,0.69v3.34l0.59,0.98l-0.29,0.29v0.49l1.18,0.39l-1.18,1.18v1.77l0.29,0.29l-0.29,0.29
	v2.65l0.29,0.69l-0.79,0.69l0.79,0.79l0.29,0.59l0.88,0.39l-0.59,0.59h-0.79l-0.59,1.57l0.98,3.34l0.69,1.08l0.59-0.29l1.18,0.29
	v0.49l-1.08,1.08l-1.57-0.59l-0.29,1.08l0.29,0.29l0.29,1.47h-0.88v0.98l0.29,0.59L84.74,63l0.39-0.69l1.28,0.39l-1.67,0.88v0.79
	h-0.29l-0.29-0.29v1.08l1.87-0.79l-0.39,2.46h-0.88l-0.59,0.98v0.59h0.69l-0.39,2.95l-0.59,0.59v1.57l-0.29,0.29l0.29,0.29
	l-0.69,1.87l-1.47,0.49h-2.06l-1.57-0.39l-1.18,0.39h-2.95l-0.59-0.59l-0.88,0.39l-0.98-1.47V73.8l-0.29-0.88v-3.44l0.39-0.29
	l-0.69-1.38v-6.98l-0.49-4.13l0.49-0.98l-0.59-1.18l-0.29-7.76v-3.63l-0.29-2.06v-8.15l-0.39-1.28v-3.54l-0.49-0.59V23.9l-0.59-6.88
	v-6.68l0.88-1.96l1.47-0.79l2.16-0.2h8.64l1.87,1.77v4.52L83.27,13.73z M83.86,25.71V26l0.29-0.29H83.86z M84.15,20.9l0.29,0.59
	l0.29-0.29v-0.59l-0.29-0.29L84.15,20.9L84.15,20.9z M84.44,23.95v0.29h0.29v-0.59L84.44,23.95L84.44,23.95z M85.32,37.11h-0.29
	v-0.88h0.79l-0.49,0.88H85.32z M86.5,69.23l-1.18-0.49v-0.29l1.08-0.39l0.98,0.98l-0.88,0.2L86.5,69.23z M86.21,73.55l0.29,0.29
	h-0.69l-0.49-1.28h0.59l0.29,0.98L86.21,73.55z M86.21,44.08h-0.59v-1.87l0.59,0.59V44.08z M87.09,29.35H86.5v-0.88h0.59V29.35z
	 M89.25,64.03l-1.28,0.39l-0.88,0.49v-0.49l0.29-0.59v-0.79H86.5v-2.75h0.88l0.59,1.18h0.29l0.98,0.69L89.25,64.03L89.25,64.03z
	 M88.96,20.61l-0.69,0.59h-0.29v-0.88h0.98C88.96,20.32,88.96,20.61,88.96,20.61z M90.14,68.45h-0.59l-0.59-0.59l1.18-0.29
	C90.14,67.57,90.14,68.45,90.14,68.45z M98.49,57.64l0.59,0.49v0.88l1.87,3.73h0.79l1.47,2.06h0.98v0.29l-0.39,0.39l3.14,0.79
	l0.98,1.57v1.38l0.29,0.59v3.44l0.49,0.59v0.59l-0.29,0.29v1.18h-1.08l-0.98,0.88h-4.13l-1.28-0.59h-2.46l-0.59-0.59h-2.95
	l-0.88-0.88v-2.16l-0.69-0.59l-0.29-2.75H91.9v-0.49l-0.29-0.59l0.59-0.69l-0.49-3.05h-0.29v0.39l-0.39,0.29V64.1l0.79-0.39
	l-0.79-1.57v-1.28l0.39-0.88l-0.39-0.59v-1.28l-0.29-0.49l4.81-1.28h2.16l0.79,1.28L98.49,57.64z M112.73,10.39v3.93l0.29,0.29v1.18
	l-0.69,0.69l0.39,0.29h0.39l-0.79,1.47v0.29l-0.88,1.77l-0.59,0.59v0.98h0.88v0.98l-1.47-0.69h-2.06l0.2,0.29v2.65l1.18,1.18
	l0.49,1.67l0.49,0.49h1.77l-2.06,0.88v0.98l1.47,0.49l1.57,1.47h0.59l1.08,0.69l0.49,0.88h1.67v-0.59h0.98l-0.39,1.38l2.06,0.98
	l0.29,0.29l2.95,1.77h1.08l0.39,0.98l2.26,1.47l0.59,0.69l1.28,0.39l0.59,0.98l0.59,0.59l0.29,0.98l0.59,0.29l2.36,2.46v0.79
	l-0.29,1.28l0.59,0.29v1.77l1.28,1.28l-0.79,0.98l1.38,0.69l-1.08,0.39l-0.59,1.08l1.38,0.69l-0.29,0.29l0.59,0.69v0.59h-0.29
	l-0.59-0.59l-0.69,2.65l0.88,0.39l-0.59,1.08l0.39,0.29l0.59-0.29l-0.29,0.88l-0.69,0.39v0.88l0.49,0.69l-1.38,1.38l-0.79,3.24
	l-0.69,0.69l-0.39,0.79l-3.54,3.73h-0.88v0.79l-1.28,0.39l-0.98,0.69l-4.81,1.38h-1.57l-1.87-0.29l-0.59,0.29l-1.77-0.29l-1.18-0.88
	h-0.39v-1.77h-0.59l-0.59-0.59v-0.69l0.88,0.49l0.29-2.55l-0.29-0.69l0.39-2.36l1.47-1.47l2.36-0.79l1.47-1.08l1.18-0.39l0.88-1.28
	v-0.98l0.98-1.77l-0.39-1.57l-0.29-0.2l0.79-0.79l-1.18-3.63l-1.28-1.28l-0.49-1.47l-1.96-0.98l-0.29-0.29h-0.29v-0.88h-0.98
	l-0.49-0.69l-2.46-1.57l-2.75-1.38l-0.79-0.88l-2.75-0.88l-4.81-3.05l-0.59-0.59l-1.28-0.59l-1.38-1.57l-0.29-0.59l-1.47-0.69
	l-1.28-2.55l-0.98-0.88v-0.69l-0.59-0.59v-2.65l-0.29-1.18v-1.28l-0.59-0.59l0.88-0.49v-4.03l-0.39-1.57l0.39-0.88l0.29-1.96
	l0.49-0.59l0.69-2.36l1.87-1.87l0.98-1.38l0.79-0.49h0.59V9.47l1.28-0.59l1.47-0.98l3.24-0.79l1.28-0.59h4.62l1.96,1.18l0.69,2.65
	L112.73,10.39z M110.86,18.74l-0.29,0.39l-0.59,0.29v1.18h0.59l0.59-0.88v-0.98L110.86,18.74L110.86,18.74z M129.52,9.21l0.79,0.88
	l0.59,3.63v1.47l0.29,0.59v1.57l0.39,0.29l-0.39,0.59v2.95l0.39,2.06l-0.69,2.46l-1.67,0.88h-0.69l-1.38,0.98h-2.16l-1.67-0.88
	l-1.18-3.44l-2.06-2.06V20.2l-3.24-1.96l-0.88-0.29l-0.98-0.88h-0.88v-0.29l0.29-0.29v-0.98l-0.29-0.69l0.29-2.55V10.4l0.29-0.29
	l0.29-1.77l1.47-1.38l2.55-0.39l0.39,0.39l3.83-0.59l2.95,0.79h2.06l1.28,1.18v0.88L129.52,9.21z"/>
<path class="st0" d="M143.29,58.72l1.47,0.98l-0.49,0.49v0.98l0.59,0.59l0.29,1.47l1.28,0.59h0.29l0.39,1.47l1.67,0.59h0.88
	l1.18,1.28l0.69,2.55l-0.59,1.18l0.69,3.44l-0.79,2.75h-3.34l-0.49,0.29l-1.28-0.29h-1.18l-2.16-0.69l-4.81-0.98l-1.18-2.26v-1.18
	l-0.79-1.67l-0.98-5.89l-0.59-2.36v-2.46l0.98-2.26l3.83-1.28h1.87l1.38,0.88l1.18,1.77L143.29,58.72z M156.06,12.55l0.59,0.98
	l-0.69,1.87l0.29,1.87l-1.38,0.69l0.79,0.79h-1.18l-0.98,1.28v1.08l0.49,0.49l-0.49,0.49l-0.59,1.18l-0.2-1.18l0.2-0.69l-0.49,0.69
	v2.06l0.29,0.59v0.88h-0.29l-0.29-0.59h-0.88v0.59l0.59,0.88v1.67l1.38,2.26l2.26,1.08l0.49,1.08l2.06,0.79l0.59,0.69h0.39
	l0.88,0.59l1.47,0.49l0.39,0.98h1.18l0.59,0.59l0.88,0.59l0.29,0.69h1.38l3.73,2.16l1.47,1.38l1.47,0.69l0.69,1.47l0.88,0.39
	l1.47,2.06l0.88,3.24l0.98,1.87v2.36l0.79,1.57l-0.49,1.47v3.24l-0.29,0.59v2.46l-0.39,0.98l0.39,0.79v1.18l-0.29,0.39l-1.47,3.73
	l-0.59,0.39l-0.59,1.28l-0.98,0.88l-0.29,0.59l-0.88,0.98l-0.29,0.59h-1.18l-1.47,1.08h-0.69l-0.88,0.98h-0.88l-2.75,0.59
	l-1.18,0.59h-5.11l-1.38-0.49l-1.38-1.38l-0.29-1.18h-0.79l0.49-1.47l1.08-0.29l-0.49-0.88v-3.05l1.08-2.06l2.16-0.88l1.87-0.98
	h1.28v-1.77l1.08-0.49l0.98-3.44l-0.29-1.47l0.29-0.29v-1.77l-1.18-0.69V54.8l-0.59-1.47l-3.63-3.63l-1.08-0.39l-1.96-1.08
	l-0.98-1.08l-4.42-2.55l-3.34-1.38l-2.06-1.38l-2.46-1.08l-1.08-1.28v-0.59l-1.18-0.39l-0.39-0.79l-1.67-1.77l-1.38-3.34v-1.28
	l-0.29-0.88l-0.2-1.47v-5.4l0.49-4.22l0.79-2.36l0.69-1.57l0.69-0.59l2.46-2.95l1.67-1.28l0.98-0.29l0.88-0.59h1.18l1.57-0.79
	l2.65-0.49l0.29,0.39l0.59-0.69h1.87l0.69,0.39l0.79-0.39v0.29l1.47,0.39l0.39,3.73L156.06,12.55z M147.51,62.94v0.29h-0.49v-0.88
	L147.51,62.94z M173.44,9.99l0.88,1.87l0.98,2.65v0.88l0.49,3.54v1.57l0.29,1.57v4.32l-2.36,1.38h-2.16l-1.67,0.88l-1.57-0.59
	l-1.18-2.46l-1.28-3.54l-3.14-3.24l-1.87-0.59l-0.98-1.96l-1.57-1.57l0.98-0.49l0.59-1.47l0.39-3.73l0.98-0.98l0.49,0.39l1.67-0.79
	l9.14,1.18l0.88,0.88v0.29L173.44,9.99z"/>
<path class="st0" d="M247.42,10.09v0.29l0.59,0.59l0.29,3.54l-0.29,0.69l0.29,4.42l0.39,1.18l-0.39,1.87v4.22l0.39,0.29l0.29-0.59
	l0.39,0.39l-1.77,2.36l0.69,1.38h0.98l-1.28,1.87v0.88l0.69,0.69v1.38l0.79-0.29l-0.88,1.77l0.39,0.39v1.87h0.59v0.29l-0.88,0.59
	v2.06l-0.39,0.59l0.39,1.47v1.28l0.69,0.79l-1.08,0.98v1.77l1.08,1.08l-1.08,1.08v2.95l0.39,2.06l-0.39,0.69l-0.39,1.57l-1.08-0.69
	h-0.79l-0.69-1.18l-0.59-0.59v-0.98l-0.88-0.88l-2.16-0.88l-0.29,0.29h-0.79l-0.39-2.06h-1.47v0.59l0.29,0.59v1.18l2.06,0.39
	l0.29,0.79h0.59v0.69l-1.08,1.18v0.29l0.49-0.29h1.57l0.59-1.47l1.38,2.65l-0.49,0.88l-1.18-0.59l0.59-0.29l-0.29-0.59h-0.98v0.88
	l0.39,1.08l-0.49,0.88l0.79,0.79l0.59,1.96l1.18,0.69h0.98l0.79-0.59l0.79,0.39l-0.49,0.49h-0.98l-0.79,1.47l0.39,1.57h1.08v0.29
	l-0.49,0.29v0.88l1.38,0.69v0.79l0.29,0.88l-0.29,0.69l0.29,1.47l-0.79,1.96l-0.59,0.39h-0.98l-1.18,0.29h-2.46l-1.38-0.59
	l-0.39,0.69l-1.18-0.69h-0.59l-1.47-0.98l-1.47-3.24l-1.28-1.47l-1.18-2.06l-0.98-0.88l-1.77-2.75l-0.29-0.88l-0.59-0.88v-0.88
	h-0.39l-0.79-1.57l-0.88-0.88l-0.29-1.47l-1.38-1.37l-0.49-1.38l-1.08-1.47l-0.39-1.47l-0.88-0.59V49.7H222l-0.98-0.59l0.69-0.59
	l-0.69-0.29l-0.39-1.47h-1.67l-0.59-0.88l0.29-0.29h0.59l0.69,0.79l0.49-0.49v-2.16h-1.18v1.28h-0.88v-0.79l1.08-1.77l-0.59-0.69
	l-2.26,2.26v0.69l0.69,0.69l-0.69,1.38h0.29l0.88,0.88v0.59h-2.75v-1.38l0.88-0.39l-0.39-0.88h0.39v-0.29l-0.29-0.29v-0.29
	l-0.59-0.69l-0.49,0.59l-0.59-1.28l0.49-0.49l1.18,0.29h1.28v-0.59l-0.49-0.49l0.49-2.06l-0.29-0.69l0.88-1.28l-0.49-0.49
	l-0.39,0.49v0.59l-0.69-0.29h-0.59l-0.59-0.59h-1.18v-1.18l1.18-0.69l0.88,0.29l0.29-0.29l-0.59-0.79l-0.59,0.29h-0.59l-0.59,0.49
	l-0.39-0.29h-1.38l-0.59,0.59l0.29,0.98l0.88,0.59l-1.18,1.18h2.16l0.49,0.98l-0.69,0.59l-0.79,0.29v2.06h0.59v1.18l-0.29,1.18
	l0.29,0.69v1.08h0.59l0.59,0.39l-0.98,0.39l0.39,1.38l0.29,0.29v1.87l0.59,0.88l-0.59,0.88v2.06l0.29,0.79l-0.29,1.08v4.22
	l0.59,0.59l-0.59,0.59v0.69l1.47,0.59l-1.47,0.88v1.77l0.39-0.49l0.69,0.69l-1.08,0.39v2.36l0.29,0.59v1.18h0.88v1.28l-0.29,0.29
	v0.59h-0.29l-0.29-0.29h-0.29v2.46l-1.77,1.08l-1.18,0.29h-3.93l-0.59,0.39h-1.57l-0.39,0.39l-2.06-1.77l-1.08,0.39l-0.88-0.29
	l0.29-0.59h0.29l0.98-0.88l-0.98-1.47h-1.28l-0.88-0.59l-0.29,0.59v0.59h1.87v1.38l-1.28,0.69l-0.59,0.59l-2.16-2.06l-0.2,0.69
	l-0.88,0.79v0.79l0.88-0.49h1.18l-1.57,1.67l-1.18-0.59l-1.47,1.08l-0.29-0.29v-0.59l-1.87-0.98l-0.39,0.98l-1.67,0.59H188
	l-1.47,0.29l-0.49,0.49l-0.98-0.79l-0.29-0.59l-0.88-0.39l-0.69,0.69l-0.79-0.88l0.79-0.39v-0.29h-1.77v-1.77l-1.57-1.47v-0.88
	l0.88-1.28l-0.29-0.59v-2.36l-0.29-0.88l-0.29-0.29l0.49-0.98l0.39-2.65v-7.17l-0.29-0.79l0.69-1.38V47l-0.39-0.79l0.39-1.38
	l-0.39-1.38v-3.24l0.49-1.47l-0.49-3.14l0.39-2.36V29.7l0.29-0.59h-0.69v-4.62l-0.59-4.81v-3.24l-0.29-1.47v-2.06l-0.29-1.87
	l0.29-1.47V7.9l1.87-0.98l1.08,0.29l0.69-0.29h9.04l1.28,1.18l0.49,3.24v2.36l0.98,0.88l0.29,1.57l0.29,0.29l-0.29,0.59h0.59
	l0.2,0.29h0.59l0.39,0.39l1.18-0.49v0.79l-0.29,0.79v0.88h-0.29l-0.79-0.69l-1.28,0.39v0.98h0.29l0.49-0.69l0.98,0.69h0.59
	l0.29,0.29h1.18v1.47l0.98,0.49v1.67h-1.28l-0.29-2.16h-1.18l-0.69,0.69l-0.98-0.49l-0.69,1.38l0.29,0.29l0.49-0.59h1.57v2.36
	l0.88-0.49v1.08h0.29l0.59-1.28l0.39,0.79l-0.39,0.79l0.39,0.29h0.59l0.59-0.59l0.79-0.49l0.29-1.57l0.79-0.79l1.28,1.18l1.87,0.49
	l-0.79,0.88v0.79l1.77,2.36v0.79l0.49,0.79v2.46h0.98l0.29,0.98l-0.29,0.59l0.59,1.08v0.69l0.59,0.59l0.29-0.98l0.69-0.29l0.39-1.08
	h1.08l0.49-0.88h0.69v0.59h0.59v-1.57h-0.98l-0.98-0.39l-0.98,0.98v1.28h-1.67l0.49-1.47l-1.28-0.69v-0.59h0.88l0.59,0.29l0.98-0.88
	h0.59v0.29h0.59V30.8l-0.88-0.29l-0.29-1.67l-0.29-0.29l-1.87-2.46l-0.69-1.38l-1.08-0.69l-0.29-1.57l-0.88-1.18l-0.39-1.38
	l-1.08-0.59l-0.59-1.57l-1.47-2.36l-0.59-4.13l1.47-1.57l1.38-0.49h7.86l0.49,0.69l0.98,0.29l0.88,0.88v0.49l1.28,1.67l1.18,2.36
	l0.69,0.69l0.88,2.46l1.08,1.28l0.49,2.06l1.38,1.37v0.59h0.88v1.08l0.88,0.98l0.69,0.29v2.16l0.79,1.67l1.18,0.59l0.29,0.98
	l0.69,0.29l-0.39,0.39l1.28,0.49v0.59l-0.88-0.29v0.69l0.88,0.88v0.59l0.88,1.77l1.18,0.39v0.49l-0.79,0.39l1.96,0.88l0.29,0.88
	l0.69,0.29v2.65l1.18,1.18l1.67,0.88l-0.49,0.98v0.69l0.88-0.39l0.79,1.47l-0.49,0.88l0.29,0.29l0.59-0.59l1.28-0.29v-0.59
	l1.18-0.88v-0.88h-1.18v-0.59L238.5,45v-0.98h-1.57v-1.67l0.98,0.49v-0.88l-0.39-0.69l0.49-2.26l-1.28-1.18l1.18-0.39l0.29-1.38
	l-0.98-0.49l0.69-1.67V21.82l0.29-4.72l-0.39-0.79l0.39-0.88l-0.29-1.47v-3.24l0.88-0.88h0.88l0.59-0.29h2.36l0.69-0.39h3.34
	l0.79,0.98L247.42,10.09z M194.28,15.2l0.39,0.29h0.29V15.2l-0.29-0.29L194.28,15.2z M194.97,69.23h0.29v-0.2L194.97,69.23z
	 M197.23,59.6l0.98,0.49V59.3l-0.59-0.88L197.23,59.6z M197.62,30.13v0.98l0.69-0.79l-0.39-0.39l-0.29,0.2H197.62z M201.84,48.21
	v0.88l0.49,0.59l-0.79,0.98l-0.29,1.18h-0.29l-0.88,0.49v-0.49h-1.28v0.29l0.88,0.88v0.88h1.28l0.59,0.59v1.67l-1.47-0.39
	l-0.39-0.29l-0.29,0.88l0.69,0.59v0.59h-1.57l-0.29-0.59h-0.29v1.18h1.18l0.29,0.59h0.98v-0.29l-0.29-0.29l0.39-0.39l1.08,0.98
	l0.29-0.59l0.49-0.29l0.39-0.88l-0.88-0.59h1.18l0.69-0.79l-0.39-0.49v-0.88l-0.59-0.29v-2.06l0.69-0.69l-0.59-2.95h-0.98
	L201.84,48.21z M198.01,55.09l0.49,0.98l0.29-0.59l-0.29-0.39H198.01z M201.55,59.31l-0.79,1.57h-0.69l-0.69-0.69l-0.59,1.57v1.87
	l0.29,0.2l-0.79,1.18h0.69l0.39-0.88h0.49l0.59,1.28l1.18-0.39l-0.39-0.88l0.39-0.79l-0.39-0.39l-0.59,0.69h-0.59l-0.98-0.98v-0.29
	h2.95l0.29,1.47l0.69-0.2v-1.28l-0.69-0.88h-0.29V60.9l0.29-0.69l-0.29-0.29l0.69-0.59v-0.29l-1.18,0.29L201.55,59.31z
	 M201.26,33.18h-0.59l-0.49,0.88l-1.67,0.39l1.57,0.39v0.69l0.88-0.2v0.49l-0.59,0.98l1.18-0.69l0.1,0.69l-0.98,0.59l-1.47,1.38
	l2.36-0.49l0.79-0.88l0.49-1.47l-0.79-0.39l0.29-1.08h-1.08v-0.59h0.79l0.39-0.49l-0.49-0.98L201.26,33.18L201.26,33.18z
	 M199.69,39.56h-0.88l-0.29,0.29l0.49,0.49l1.08-0.49l-0.39-0.29H199.69z M198.81,28.07v0.39h0.29l0.29-0.39l-0.29-0.29
	L198.81,28.07z M199.4,66.58v1.18l0.98-0.29v-0.59l-0.98-0.29V66.58z M200.38,68.35l-0.88,0.88l1.28,0.29l0.1,2.16h0.69v-0.39h-0.29
	v-2.95h-0.88L200.38,68.35z M200.09,32.59l-0.39,0.29h0.39l0.29-0.29H200.09z M201.66,39.37l-0.69,1.67h-0.29v-0.29l-0.69,0.59
	l0.49,1.08l2.26-2.26l0.79-0.39l-0.49-1.18l-1.38,0.79L201.66,39.37z M202.35,45.26l-0.39,0.39l-0.98-0.69h-0.88v1.47l0.69,0.69
	l1.08-0.98l1.18-0.39v-0.49H202.35L202.35,45.26z M200.09,49.39v0.98h1.18l0.29-0.29l-0.59-0.69H200.09L200.09,49.39z M200.68,30.73
	v1.28h0.88v-1.28C201.56,30.73,200.68,30.73,200.68,30.73z M202.06,65.6v1.28h-0.79v0.88l0.59,0.88h0.39l0.79-1.47V65.6
	C203.04,65.6,202.06,65.6,202.06,65.6z M202.06,72.87h0.29l0.39-0.29l-0.69,0.29H202.06z M202.35,42.81v0.88h0.98v-0.88H202.35z
	 M203.04,41.53v0.39l0.29-0.69L203.04,41.53L203.04,41.53z M207.56,28.86v-0.79h1.18l0.88,0.39l-2.06,0.39V28.86z M215.91,40.45
	v0.79h-1.77l-0.29-0.49h0.59l0.88-1.28L215.91,40.45z M218.95,50.08l-0.59,0.29V48.5h0.59V50.08L218.95,50.08z M219.24,51.85
	l-0.88-0.39v-0.49h0.88V51.85z M234.86,41.54l0.88,0.98v1.18h-0.49l-0.69-0.59l-0.59,0.29l-0.39-0.39l0.49-0.98l-0.39-0.98
	l0.29-0.29l0.59,0.29l0.29,0.49L234.86,41.54z M235.74,38.89l-0.88,0.98l-0.29-0.29V38.6h1.18L235.74,38.89L235.74,38.89z
	 M237.9,50.09v0.29h0.59v-0.29l-0.29-0.39l-0.29,0.39H237.9z M240.26,48.22v1.18h0.69v-1.18H240.26z M240.95,55.78l-0.29,0.29h0.29
	l0.29-0.29H240.95z M241.24,51.26l0.2,0.29l0.29-0.29v-0.29L241.24,51.26L241.24,51.26z M246.05,61.18h-0.98l-0.39-0.49l0.88-0.88
	l0.49,0.39L246.05,61.18L246.05,61.18z"/>
<path class="st0" d="M272.47,12.15v1.08l0.29,0.59l-0.29,1.77l0.59,1.38l0.39,0.29l-0.39,0.29h-0.59v2.36l-1.18,0.39v0.79l0.98,1.08
	l-0.39,0.79l-0.29,1.18h-1.28l0.39-0.29h0.29l0.29-0.29l-0.29-0.59h-0.69l-0.29,0.59h-1.18v1.18h0.29v0.98l0.88-0.39v0.29
	l-0.59,0.59v1.28l0.88,0.29l-0.88,0.88v-0.59h-1.18l-0.88,0.29l0.69,1.18l0.79,0.88v0.88l-0.29,0.29v0.59l0.29,0.29l-1.47,1.57
	l-0.59,1.18l0.49,0.49l-0.49,0.98h-0.29v0.29l0.29,0.29l-0.29,1.28v1.77h0.88l0.79-0.39l-0.49,1.08l-0.59,0.49v1.18l-1.08,1.67
	l0.79,0.79l1.28,0.59v0.98h-2.16v1.08l0.79,0.79l0.39-0.79h0.59v0.29l-0.29,0.29l-0.29,1.28l-0.59,0.29l-0.29,0.59l0.39,0.79
	l-0.39,1.08v1.08l0.88,0.88l-0.98,1.38l0.39,0.79v2.36l0.29,1.57v1.87h0.29l0.59,2.95l0.59,0.59h0.29l1.18,0.88l0.59,1.28h1.18
	l0.39,1.96l-0.39,0.88l0.69,2.26v1.47l-0.29,0.88l-0.39,3.24l-1.77,0.69h-3.24l-2.55-0.39l-0.79-0.79h-1.47l-1.87-0.98l-1.18-0.39
	l-2.06-1.77l-2.46-1.57l-1.96-3.14l-1.57-4.81V50.84l0.29-2.75v-1.96l0.29-1.87l-0.39-1.08l0.39-4.32v-9.63l0.29-0.69l-0.29-1.08
	l0.69-5.21l1.18-3.63l0.49-0.49v-0.88l1.28-2.16l3.24-3.24l1.77-1.28h0.39l2.36-1.18h1.18l1.87-0.59h2.06l0.59,0.29l1.57-0.39
	l2.26,1.08l0.39,2.36L272.47,12.15z M266.67,31.21l0.39,0.39h0.59v-1.47l-0.29-0.29L266.67,31.21L266.67,31.21z M267.06,32.49h0.29
	V32.2L267.06,32.49z M270.01,58.33l-1.96-0.29l-0.88-1.08h0.49l0.59,0.59h1.77L270.01,58.33L270.01,58.33z M268.83,61.67l-0.59,0.29
	v-0.59l-0.79-0.39l0.79-0.79l0.88,0.88L268.83,61.67L268.83,61.67z M293.39,49.98l0.29,1.28l-0.39,1.28l0.39,1.38v4.13l0.59,0.69
	l-0.29,1.77l-0.59,0.59v0.59l0.69,0.79l-0.39,0.49v1.08l0.29,0.29l-0.59,1.08l0.69,1.28l-0.39,0.79v1.18l-0.29,0.79l0.29,0.29
	l-0.29,0.98v4.42l-0.69,3.05l-1.47,1.57h-2.65l-2.55-0.98l-1.67-1.77h-2.75l-3.54,1.87h-3.34l-1.18-1.28l-0.59-3.83l-0.29-0.29
	l0.88-0.49v-0.79l0.59-1.77v-0.79l0.88-1.28l1.87-1.57l1.38-0.69l0.98-2.06l0.88-2.95l0.29-7.17l-1.28-1.38l-2.46-0.49L274.73,50
	v-5.4l0.59-1.18l1.67-0.98l2.55,0.39h3.63l1.38-0.49l0.39,0.49l2.85-0.39l4.03,0.39l1.57,1.47V50L293.39,49.98z M274.23,16.29h-0.79
	L273.05,16l0.39-0.29h0.79V16.29L274.23,16.29z M290.34,11.58l0.29,0.88l0.49,0.59l0.59,3.44l0.79,1.87l-0.69,1.28l0.59,3.05v3.54
	l-0.29,0.98v1.57l-2.26,1.57l-4.32,0.39l-0.29-0.29l-1.18-0.39l-1.18-2.85l-0.49-1.96l-1.87-2.85h-0.69l-2.06-2.16h-1.87l-0.59-0.29
	l0.29-0.29v-0.59l-0.59-0.49l-0.59,0.2l-0.49-0.39l0.79-0.79l0.79-0.39l-0.49-1.08l0.29-4.52l0.88-1.87l2.16-0.59h4.52l1.77,0.29
	l0.59-0.29l3.54,0.49l1.57,1.96L290.34,11.58z"/>
</svg>
