<?xml version="1.0" encoding="UTF-8"?><svg id="_레이어_1" xmlns="http://www.w3.org/2000/svg" viewBox="0 0 300 315"><defs><style>.cls-1{fill:#0086cf;stroke-width:0px;}</style></defs><path class="cls-1" d="m130.4,7.1l25.76,7.17-36.88,132.55c-1.65,5.93-4.35,8.38-9.41,7.81l-7.22-.66,13.12-47.15c-20.18-2.42-58.49-8.03-75.09-10.63-10.96-1.71-13.29,0-18.42,2.11-2.66,1.11-2.82,1.07-4.73-1.15l-11.37-12.92c-.76-.89-.99-1.28.27-2.78,6.65,2.69,16.31,6.05,27.68,8.71,2.7.58,5.71,1.25,9.07,1.85l11.51-41.37-10.93-3.04.87-3.12,24.2,6.73-12.03,43.25c20.86,3.62,45.86,6.87,60.01,8.62l24.85-89.3-12.18-3.39.91-3.28Zm-92.31-.12c-.72-1.04-.79-1.4.31-2.94,8.17,3.28,17.25,6.31,27.09,9.05l24.35,6.78c12.65,3.52,22.11,3.97,27.11,5.36l-13.17,34.02c-7.22,18.68-12.66,23.73-24.52,20.43,2.92-3.23,6.98-11.18,11.5-24.39l9.88-28.87-31.38-8.73c-9.52-2.65-13.71-.28-16.98,1.16-2.15,1.08-2.46,1-4.37-1.22l-9.82-10.64Z"/><path class="cls-1" d="m231.49,109.24l-6.04,21.7,8.9,2.48c12.8,3.56,21.64,3.84,26.01,5.05l-4.17,14.99c-1.35,4.84-3.73,7.37-7.25,7.91l8.59,2.39-.91,3.28-69.94-19.46-5.3,19.05,46.68,12.99c9.68,2.69,14.49-.68,18.28-2.82,2.4-1.35,2.86-1.22,4.53,1.26l6.59,9.57c1.21,1.68,1.4,2.24.14,3.74l-77.12-21.46c-3.69,1.16-11.3.72-16.19-.47l7.26-26.07-9.84-2.74.91-3.28,76.03,21.16,5.26-18.89-45.12-12.56c-9.21-2.56-13.71-.28-16.98,1.16-2.31,1.04-2.66,1.11-4.57-1.1l-9.94-10.84c-.76-.89-.79-1.4.31-2.94,8.17,3.28,17.25,6.31,26.62,8.92l16.86,4.69,6.04-21.7-28.73-7.99c-9.84-2.74-15.49.06-19.15,1.73-2.31,1.04-2.58.8-4.53-1.26l-11.15-12.52c-.76-.89-.94-1.44.31-2.94,8.17,3.28,17.09,6.27,26.93,9.01l81.81,22.76c9.84,2.74,15.13-1.17,19.36-3.7,2.39-1.35,2.82-1.07,4.53,1.26l8.23,11.54c1.06,1.64,1.4,2.24.14,3.74l-63.39-17.64Zm-32.01-71.15l-11.4-3.17.91-3.28,65.26,18.16c12.65,3.52,21.91,4.08,26.91,5.47l-8.3,29.82c-1.3,4.68-3.53,7.26-6.78,8.04l8.9,2.48-.91,3.28-70.25-19.55c-4.04,1.23-10.68.9-15.72-.34l11.38-40.9Zm65.73,18.29l-51.05-14.21-9.43,33.88,51.05,14.21,9.43-33.88Z"/><path class="cls-1" d="m55.09,246.67v.7l-6.34-1.36v-15.33l.7.12c5.99,8.21,13.23,15.72,20.03,15.72,2.92,0,4.44-1.4,4.44-3.81s-1.79-4.86-4.44-4.86c-.86,0-1.52.35-1.87,1.13-.82-.2-1.75-1.09-1.75-2.26,0-.97.7-1.63,1.95-1.63,3.15,0,7.12,3.15,7.12,8.52,0,3.89-1.95,6.03-5.25,6.03-6.5,0-13.54-8.01-18.21-14.74v10.54l3.62,1.24Z"/><path class="cls-1" d="m57.85,251.38c7.74.54,16.73,4.16,16.73,11.9,0,4.67-2.88,6.57-9.22,6.03-7.94-.62-17.12-4.36-17.12-12.1,0-4.43,2.68-6.46,9.61-5.83Zm7.86,15.05c5.48.54,7.94-.54,7.94-3.35,0-5.68-8.95-8.29-16.07-8.83-5.95-.58-8.36.47-8.36,3.19,0,5.6,9.06,8.4,16.49,8.99Z"/><path class="cls-1" d="m57.85,271.6c7.74.54,16.73,4.16,16.73,11.9,0,4.67-2.88,6.57-9.22,6.03-7.94-.62-17.12-4.36-17.12-12.1,0-4.43,2.68-6.46,9.61-5.84Zm7.86,15.05c5.48.54,7.94-.54,7.94-3.35,0-5.68-8.95-8.28-16.07-8.83-5.95-.58-8.36.47-8.36,3.19,0,5.6,9.06,8.4,16.49,8.99Z"/><path class="cls-1" d="m72.16,307.04c1.13,0,1.75-.93,1.75-2.53,0-4.63-6.19-7.82-13.34-9.34-.78-.16-1.48-.31-2.14-.43,2.8,1.52,5.25,4.32,5.25,8.01,0,3.27-1.87,5.02-4.9,5.02-5.41,0-10.54-4.32-10.54-9.88,0-4.05,2.53-6.38,7.66-6.38,8.48,0,19.02,4.82,19.02,13.26,0,3.42-1.63,4.59-3.31,4.59s-3.07-.93-3.07-2.33c0-.93.58-1.36,1.32-1.4.58.82,1.24,1.4,2.29,1.4Zm-16.14-12.56c-.55-.04-1.05-.08-1.52-.08-3.54,0-5.25,1.4-5.25,3.73,0,4.05,5.52,6.57,9.69,6.57,2.53,0,3.5-1.05,3.5-2.92,0-3.35-3.31-6.26-6.42-7.31Z"/><path class="cls-1" d="m34.78,188.02l-6.92-1.37v-.69l6.92-.37v-7.51l-27.4-5.36-.87,3.48-.82-.14v-9.94l.82.18.87,3.8,27.4,5.31v-7.38l-6.92-3.21v-.64l6.92,1.37,1.14.23v22.4l-1.14-.18Z"/><path class="cls-1" d="m7.47,204.65l-2.43-4.72,1.01-1.37,12.23,2.38c1.56.32,3.07.5,4.4.46,1.88-.05,3.3-.64,3.3-2.11,0-4.44-8.75-7.88-13.79-9.76v-.05l-6.5-1.28v-2.52l30.42,5.95-.37-3.02.96.18,1.56,5.45-.23.28-21.07-4.12c4.86,1.92,10.58,5.13,10.58,9.99,0,2.24-2.06,3.44-4.81,3.53-1.19.05-2.52-.09-3.94-.37l-11.68-2.29,1.15,3.12-.78.28Z"/><path class="cls-1" d="m17.18,210.2c-.87-.09-1.74-.18-2.66-.18-5.22,0-7.65,2.52-7.65,5.22,0,2.98,2.43,5.18,5.73,5.91l-.14.78c-4.44-.78-7.33-3.89-7.33-7.88,0-4.31,3.76-6.78,8.89-6.78,5.95,0,13.47,3.44,13.47,10.45,0,3.71-2.75,5.27-6.23,5.31-1.28,0-2.66-.23-4.08-.6v-12.23Zm.96.18v9.99c.96.23,2.11.37,3.16.37,2.61,0,4.99-.92,4.99-3.39,0-3.25-3.57-6-8.15-6.96Z"/><path class="cls-1" d="m35.92,264.76l-.82-.18-.87-3.85-26.84-5.22-.87,3.44-.82-.18v-9.9l.82.18.87,3.8,12.73,2.52v-14.93l-12.73-2.52-.87,3.44-.82-.14v-9.94l.82.14.87,3.89,26.84,5.22.87-3.48.82.23v9.94l-.82-.23-.87-3.8-12.96-2.56v14.98l12.96,2.57.87-3.48.82.18v9.89Z"/><path class="cls-1" d="m13.15,262.7c7.28,0,14.34,3.99,14.34,10.4,0,4.12-2.98,6.37-7.79,6.37-7.28,0-14.57-3.99-14.57-10.4,0-4.17,3.21-6.37,8.02-6.37Zm6.74,13.97c4.12,0,6.5-1.37,6.5-3.89,0-4.86-7.79-7.33-13.51-7.33-4.21,0-6.69,1.47-6.69,3.89,0,4.76,7.74,7.33,13.7,7.33Z"/><path class="cls-1" d="m8.07,279.93l5.22,1.92-.09.73-5.13-.23c-.82.69-1.74,2.06-1.74,4.4,0,3.07,1.88,5.54,4.54,5.54,4.95,0,6-9.12,11.18-9.12,3.34,0,5.45,3.34,5.45,7.28,0,2.79-.96,4.4-1.83,5.41l-5.31-2.11.14-.69,5.04.23c.5-.64.87-1.6.87-3.07,0-2.57-1.33-4.9-3.39-4.9-4.08,0-5.09,9.12-11.09,9.12-4.03,0-6.78-3.25-6.78-7.79,0-3.99,1.83-6.23,2.93-6.73Z"/><path class="cls-1" d="m13.2,300.55c-1.24-.23-2.38-.37-3.44-.37-1.79,0-3.12.46-3.12,1.79,0,1.42,2.34,3.85,5.68,5.22l-.32.92c-4.26-1.74-7.01-4.35-7.01-6.92s2.02-3.66,4.76-3.66c.96,0,2.02.14,3.07.37l13.19,2.89v-2.43l.92.18v2.43l4.72,1.05,1.01,2.84-5.73-1.28v6.23l-.92-.18v-6.23l-12.83-2.84Z"/></svg>