<?xml version="1.0" encoding="UTF-8"?><svg id="_레이어_1" xmlns="http://www.w3.org/2000/svg" viewBox="0 0 300 315"><defs><style>.cls-1{fill:#0086cf;stroke-width:0px;}</style></defs><path class="cls-1" d="m68.1,194.62v-34.13H4.22v-5.64h63.89v-32.57H4.22v-5.64h69.52v77.98h-5.64Zm57-15.34v-107.73h5.64v45.1h36.33v5.64h-36.33v57h-5.64Z"/><path class="cls-1" d="m180.52,122.28v-5.64h113.37v5.64h-113.37Zm90.51-38.21v5.64h-66.39V3.59h66.39v5.64h-60.75v34.76h60.75v5.64h-60.75v34.45h60.75Z"/><path class="cls-1" d="m152.67,146.34c0,.92-.32,1.69-.95,2.32s-1.41.95-2.32.95-1.69-.32-2.32-.95-.95-1.41-.95-2.32.32-1.69.95-2.32,1.41-.95,2.32-.95,1.69.32,2.32.95.95,1.41.95,2.32Zm0,19.62c0,.92-.32,1.69-.95,2.32-.63.63-1.41.95-2.32.95s-1.69-.32-2.32-.95c-.63-.63-.95-1.4-.95-2.32s.32-1.69.95-2.32,1.41-.95,2.32-.95,1.69.32,2.32.95.95,1.4.95,2.32Zm0,6.54c0,.92-.32,1.69-.95,2.32s-1.41.95-2.32.95-1.69-.32-2.32-.95-.95-1.41-.95-2.32.32-1.69.95-2.32,1.41-.95,2.32-.95,1.69.32,2.32.95.95,1.4.95,2.32Zm6.54-32.69c0,.92-.32,1.69-.95,2.32s-1.4.95-2.32.95-1.69-.32-2.32-.95-.95-1.41-.95-2.32.32-1.69.95-2.32,1.41-.95,2.32-.95,1.69.32,2.32.95.95,1.4.95,2.32Zm0,19.62c0,.92-.32,1.69-.95,2.32s-1.4.95-2.32.95-1.69-.32-2.32-.95-.95-1.4-.95-2.32.32-1.69.95-2.32c.63-.63,1.41-.95,2.32-.95s1.69.32,2.32.95c.63.63.95,1.41.95,2.32Zm0,13.08c0,.92-.32,1.69-.95,2.32s-1.4.95-2.32.95-1.69-.32-2.32-.95-.95-1.41-.95-2.32.32-1.69.95-2.32,1.41-.95,2.32-.95,1.69.32,2.32.95.95,1.4.95,2.32Zm6.54-32.69c0,.92-.32,1.69-.95,2.32s-1.4.95-2.32.95-1.69-.32-2.32-.95c-.63-.63-.95-1.41-.95-2.32s.32-1.69.95-2.32c.63-.63,1.4-.95,2.32-.95s1.69.32,2.32.95.95,1.4.95,2.32Zm0,19.62c0,.92-.32,1.69-.95,2.32s-1.4.95-2.32.95-1.69-.32-2.32-.95c-.63-.63-.95-1.4-.95-2.32s.32-1.69.95-2.32,1.4-.95,2.32-.95,1.69.32,2.32.95c.63.63.95,1.41.95,2.32Zm0,13.08c0,.92-.32,1.69-.95,2.32s-1.4.95-2.32.95-1.69-.32-2.32-.95c-.63-.63-.95-1.41-.95-2.32s.32-1.69.95-2.32c.63-.63,1.4-.95,2.32-.95s1.69.32,2.32.95.95,1.4.95,2.32Zm6.54-32.69c0,.92-.32,1.69-.95,2.32-.63.63-1.41.95-2.32.95s-1.69-.32-2.32-.95c-.63-.63-.95-1.41-.95-2.32s.31-1.69.95-2.32c.63-.63,1.4-.95,2.32-.95s1.69.32,2.32.95c.63.63.95,1.4.95,2.32Zm0,19.62c0,.92-.32,1.69-.95,2.32-.63.63-1.41.95-2.32.95s-1.69-.32-2.32-.95c-.63-.63-.95-1.4-.95-2.32s.31-1.69.95-2.32c.63-.63,1.4-.95,2.32-.95s1.69.32,2.32.95c.63.63.95,1.41.95,2.32Zm0,13.08c0,.92-.32,1.69-.95,2.32-.63.63-1.41.95-2.32.95s-1.69-.32-2.32-.95c-.63-.63-.95-1.41-.95-2.32s.31-1.69.95-2.32c.63-.63,1.4-.95,2.32-.95s1.69.32,2.32.95c.63.63.95,1.4.95,2.32Zm6.54-26.15c0,.92-.32,1.69-.95,2.32-.63.63-1.41.95-2.32.95s-1.69-.32-2.32-.95-.95-1.41-.95-2.32.32-1.69.95-2.32,1.41-.95,2.32-.95,1.69.32,2.32.95c.63.63.95,1.41.95,2.32Zm0,6.54c0,.91-.32,1.69-.95,2.32-.63.63-1.41.95-2.32.95s-1.69-.32-2.32-.95-.95-1.41-.95-2.32.32-1.69.95-2.32c.63-.63,1.41-.95,2.32-.95s1.69.32,2.32.95c.63.63.95,1.41.95,2.32Zm0,19.61c0,.92-.32,1.69-.95,2.32-.63.63-1.41.95-2.32.95s-1.69-.32-2.32-.95-.95-1.41-.95-2.32.32-1.69.95-2.32,1.41-.95,2.32-.95,1.69.32,2.32.95c.63.63.95,1.4.95,2.32Z"/><path class="cls-1" d="m191.9,146.34c0,.92-.32,1.69-.95,2.32s-1.41.95-2.32.95-1.69-.32-2.32-.95-.95-1.41-.95-2.32.32-1.69.95-2.32,1.41-.95,2.32-.95,1.69.32,2.32.95.95,1.41.95,2.32Zm0,6.54c0,.91-.32,1.69-.95,2.32s-1.41.95-2.32.95-1.69-.32-2.32-.95-.95-1.41-.95-2.32.32-1.69.95-2.32c.63-.63,1.41-.95,2.32-.95s1.69.32,2.32.95c.63.63.95,1.41.95,2.32Zm0,6.54c0,.92-.32,1.69-.95,2.32s-1.41.95-2.32.95-1.69-.32-2.32-.95-.95-1.4-.95-2.32.32-1.69.95-2.32c.63-.63,1.41-.95,2.32-.95s1.69.32,2.32.95c.63.63.95,1.41.95,2.32Zm0,6.54c0,.92-.32,1.69-.95,2.32-.63.63-1.41.95-2.32.95s-1.69-.32-2.32-.95c-.63-.63-.95-1.4-.95-2.32s.32-1.69.95-2.32,1.41-.95,2.32-.95,1.69.32,2.32.95.95,1.4.95,2.32Zm6.54-26.15c0,.92-.32,1.69-.95,2.32s-1.4.95-2.32.95-1.69-.32-2.32-.95-.95-1.41-.95-2.32.32-1.69.95-2.32,1.41-.95,2.32-.95,1.69.32,2.32.95.95,1.4.95,2.32Zm0,32.69c0,.92-.32,1.69-.95,2.32s-1.4.95-2.32.95-1.69-.32-2.32-.95-.95-1.41-.95-2.32.32-1.69.95-2.32,1.41-.95,2.32-.95,1.69.32,2.32.95.95,1.4.95,2.32Zm6.54-32.69c0,.92-.32,1.69-.95,2.32s-1.4.95-2.32.95-1.69-.32-2.32-.95c-.63-.63-.95-1.41-.95-2.32s.32-1.69.95-2.32c.63-.63,1.4-.95,2.32-.95s1.69.32,2.32.95.95,1.4.95,2.32Zm0,32.69c0,.92-.32,1.69-.95,2.32s-1.4.95-2.32.95-1.69-.32-2.32-.95c-.63-.63-.95-1.41-.95-2.32s.32-1.69.95-2.32c.63-.63,1.4-.95,2.32-.95s1.69.32,2.32.95.95,1.4.95,2.32Zm6.54-32.69c0,.92-.32,1.69-.95,2.32-.63.63-1.41.95-2.32.95s-1.69-.32-2.32-.95c-.63-.63-.95-1.41-.95-2.32s.31-1.69.95-2.32c.63-.63,1.4-.95,2.32-.95s1.69.32,2.32.95c.63.63.95,1.4.95,2.32Zm0,32.69c0,.92-.32,1.69-.95,2.32-.63.63-1.41.95-2.32.95s-1.69-.32-2.32-.95c-.63-.63-.95-1.41-.95-2.32s.31-1.69.95-2.32c.63-.63,1.4-.95,2.32-.95s1.69.32,2.32.95c.63.63.95,1.4.95,2.32Zm6.54-26.15c0,.92-.32,1.69-.95,2.32-.63.63-1.41.95-2.32.95s-1.69-.32-2.32-.95-.95-1.41-.95-2.32.32-1.69.95-2.32,1.41-.95,2.32-.95,1.69.32,2.32.95c.63.63.95,1.41.95,2.32Zm0,6.54c0,.91-.32,1.69-.95,2.32-.63.63-1.41.95-2.32.95s-1.69-.32-2.32-.95-.95-1.41-.95-2.32.32-1.69.95-2.32c.63-.63,1.41-.95,2.32-.95s1.69.32,2.32.95c.63.63.95,1.41.95,2.32Zm0,6.54c0,.92-.32,1.69-.95,2.32-.63.63-1.41.95-2.32.95s-1.69-.32-2.32-.95-.95-1.4-.95-2.32.32-1.69.95-2.32c.63-.63,1.41-.95,2.32-.95s1.69.32,2.32.95c.63.63.95,1.41.95,2.32Zm0,6.54c0,.92-.32,1.69-.95,2.32-.63.63-1.41.95-2.32.95s-1.69-.32-2.32-.95c-.63-.63-.95-1.4-.95-2.32s.32-1.69.95-2.32,1.41-.95,2.32-.95,1.69.32,2.32.95c.63.63.95,1.4.95,2.32Z"/><path class="cls-1" d="m231.13,152.88c0,.91-.32,1.69-.95,2.32s-1.41.95-2.32.95-1.69-.32-2.32-.95-.95-1.41-.95-2.32.32-1.69.95-2.32c.63-.63,1.41-.95,2.32-.95s1.69.32,2.32.95c.63.63.95,1.41.95,2.32Zm0,19.61c0,.92-.32,1.69-.95,2.32s-1.41.95-2.32.95-1.69-.32-2.32-.95-.95-1.41-.95-2.32.32-1.69.95-2.32,1.41-.95,2.32-.95,1.69.32,2.32.95.95,1.4.95,2.32Zm6.54-26.15c0,.92-.32,1.69-.95,2.32s-1.4.95-2.32.95-1.69-.32-2.32-.95-.95-1.41-.95-2.32.32-1.69.95-2.32,1.41-.95,2.32-.95,1.69.32,2.32.95.95,1.41.95,2.32Zm0,26.15c0,.92-.32,1.69-.95,2.32s-1.4.95-2.32.95-1.69-.32-2.32-.95-.95-1.41-.95-2.32.32-1.69.95-2.32,1.41-.95,2.32-.95,1.69.32,2.32.95.95,1.4.95,2.32Zm6.54-32.69c0,.92-.32,1.69-.95,2.32s-1.4.95-2.32.95-1.69-.32-2.32-.95c-.63-.63-.95-1.41-.95-2.32s.32-1.69.95-2.32c.63-.63,1.4-.95,2.32-.95s1.69.32,2.32.95.95,1.4.95,2.32Zm0,6.54c0,.92-.32,1.69-.95,2.32s-1.4.95-2.32.95-1.69-.32-2.32-.95c-.63-.63-.95-1.41-.95-2.32s.32-1.69.95-2.32c.63-.63,1.4-.95,2.32-.95s1.69.32,2.32.95.95,1.41.95,2.32Zm0,6.54c0,.91-.32,1.69-.95,2.32s-1.4.95-2.32.95-1.69-.32-2.32-.95c-.63-.63-.95-1.41-.95-2.32s.32-1.69.95-2.32c.63-.63,1.4-.95,2.32-.95s1.69.32,2.32.95c.63.63.95,1.41.95,2.32Zm0,6.54c0,.92-.32,1.69-.95,2.32s-1.4.95-2.32.95-1.69-.32-2.32-.95c-.63-.63-.95-1.4-.95-2.32s.32-1.69.95-2.32,1.4-.95,2.32-.95,1.69.32,2.32.95c.63.63.95,1.41.95,2.32Zm0,6.54c0,.92-.32,1.69-.95,2.32-.63.63-1.4.95-2.32.95s-1.69-.32-2.32-.95c-.63-.63-.95-1.4-.95-2.32s.32-1.69.95-2.32c.63-.63,1.4-.95,2.32-.95s1.69.32,2.32.95.95,1.4.95,2.32Zm0,6.54c0,.92-.32,1.69-.95,2.32s-1.4.95-2.32.95-1.69-.32-2.32-.95c-.63-.63-.95-1.41-.95-2.32s.32-1.69.95-2.32c.63-.63,1.4-.95,2.32-.95s1.69.32,2.32.95.95,1.4.95,2.32Zm6.54,0c0,.92-.32,1.69-.95,2.32-.63.63-1.41.95-2.32.95s-1.69-.32-2.32-.95c-.63-.63-.95-1.41-.95-2.32s.31-1.69.95-2.32c.63-.63,1.4-.95,2.32-.95s1.69.32,2.32.95c.63.63.95,1.4.95,2.32Zm6.54,0c0,.92-.32,1.69-.95,2.32-.63.63-1.41.95-2.32.95s-1.69-.32-2.32-.95-.95-1.41-.95-2.32.32-1.69.95-2.32,1.41-.95,2.32-.95,1.69.32,2.32.95c.63.63.95,1.4.95,2.32Z"/><path class="cls-1" d="m270.36,159.42c0,.92-.32,1.69-.95,2.32s-1.41.95-2.32.95-1.69-.32-2.32-.95-.95-1.4-.95-2.32.32-1.69.95-2.32c.63-.63,1.41-.95,2.32-.95s1.69.32,2.32.95c.63.63.95,1.41.95,2.32Zm0,6.54c0,.92-.32,1.69-.95,2.32-.63.63-1.41.95-2.32.95s-1.69-.32-2.32-.95c-.63-.63-.95-1.4-.95-2.32s.32-1.69.95-2.32,1.41-.95,2.32-.95,1.69.32,2.32.95.95,1.4.95,2.32Zm6.54-13.08c0,.91-.32,1.69-.95,2.32s-1.4.95-2.32.95-1.69-.32-2.32-.95-.95-1.41-.95-2.32.32-1.69.95-2.32c.63-.63,1.41-.95,2.32-.95s1.69.32,2.32.95c.63.63.95,1.41.95,2.32Zm0,13.08c0,.92-.32,1.69-.95,2.32-.63.63-1.4.95-2.32.95s-1.69-.32-2.32-.95c-.63-.63-.95-1.4-.95-2.32s.32-1.69.95-2.32,1.41-.95,2.32-.95,1.69.32,2.32.95.95,1.4.95,2.32Zm6.54-19.62c0,.92-.32,1.69-.95,2.32s-1.4.95-2.32.95-1.69-.32-2.32-.95c-.63-.63-.95-1.41-.95-2.32s.32-1.69.95-2.32c.63-.63,1.4-.95,2.32-.95s1.69.32,2.32.95.95,1.41.95,2.32Zm0,19.62c0,.92-.32,1.69-.95,2.32-.63.63-1.4.95-2.32.95s-1.69-.32-2.32-.95c-.63-.63-.95-1.4-.95-2.32s.32-1.69.95-2.32c.63-.63,1.4-.95,2.32-.95s1.69.32,2.32.95.95,1.4.95,2.32Zm6.54-26.15c0,.92-.32,1.69-.95,2.32-.63.63-1.41.95-2.32.95s-1.69-.32-2.32-.95c-.63-.63-.95-1.41-.95-2.32s.31-1.69.95-2.32c.63-.63,1.4-.95,2.32-.95s1.69.32,2.32.95c.63.63.95,1.4.95,2.32Zm0,6.54c0,.92-.32,1.69-.95,2.32-.63.63-1.41.95-2.32.95s-1.69-.32-2.32-.95c-.63-.63-.95-1.41-.95-2.32s.31-1.69.95-2.32c.63-.63,1.4-.95,2.32-.95s1.69.32,2.32.95c.63.63.95,1.41.95,2.32Zm0,6.54c0,.91-.32,1.69-.95,2.32-.63.63-1.41.95-2.32.95s-1.69-.32-2.32-.95c-.63-.63-.95-1.41-.95-2.32s.31-1.69.95-2.32,1.4-.95,2.32-.95,1.69.32,2.32.95c.63.63.95,1.41.95,2.32Zm0,6.54c0,.92-.32,1.69-.95,2.32-.63.63-1.41.95-2.32.95s-1.69-.32-2.32-.95c-.63-.63-.95-1.4-.95-2.32s.31-1.69.95-2.32c.63-.63,1.4-.95,2.32-.95s1.69.32,2.32.95c.63.63.95,1.41.95,2.32Zm0,6.54c0,.92-.32,1.69-.95,2.32s-1.41.95-2.32.95-1.69-.32-2.32-.95c-.63-.63-.95-1.4-.95-2.32s.31-1.69.95-2.32c.63-.63,1.4-.95,2.32-.95s1.69.32,2.32.95c.63.63.95,1.4.95,2.32Zm0,6.54c0,.92-.32,1.69-.95,2.32-.63.63-1.41.95-2.32.95s-1.69-.32-2.32-.95c-.63-.63-.95-1.41-.95-2.32s.31-1.69.95-2.32c.63-.63,1.4-.95,2.32-.95s1.69.32,2.32.95c.63.63.95,1.4.95,2.32Zm6.54-6.54c0,.92-.32,1.69-.95,2.32-.63.63-1.41.95-2.32.95s-1.69-.32-2.32-.95c-.63-.63-.95-1.4-.95-2.32s.32-1.69.95-2.32,1.41-.95,2.32-.95,1.69.32,2.32.95c.63.63.95,1.4.95,2.32Z"/><path class="cls-1" d="m14.06,253.21c0,1.28-.45,2.37-1.35,3.27s-1.99,1.35-3.27,1.35-2.37-.45-3.27-1.35c-.9-.9-1.35-1.99-1.35-3.27s.45-2.37,1.35-3.27,1.99-1.35,3.27-1.35,2.37.45,3.27,1.35c.9.9,1.35,1.99,1.35,3.27Zm0,12.81c0,1.28-.45,2.37-1.35,3.27-.9.9-1.99,1.35-3.27,1.35s-2.37-.45-3.27-1.35c-.9-.9-1.35-1.99-1.35-3.27s.45-2.37,1.35-3.27c.9-.9,1.99-1.35,3.27-1.35s2.37.45,3.27,1.35,1.35,1.99,1.35,3.27Zm0,12.81c0,1.28-.45,2.37-1.35,3.27-.9.9-1.99,1.35-3.27,1.35s-2.37-.45-3.27-1.35c-.9-.9-1.35-1.99-1.35-3.27s.45-2.37,1.35-3.27c.9-.9,1.99-1.35,3.27-1.35s2.37.45,3.27,1.35c.9.9,1.35,1.99,1.35,3.27Zm0,12.81c0,1.28-.45,2.37-1.35,3.27-.9.9-1.99,1.35-3.27,1.35s-2.37-.45-3.27-1.35-1.35-1.99-1.35-3.27.45-2.37,1.35-3.27c.9-.9,1.99-1.35,3.27-1.35s2.37.45,3.27,1.35,1.35,1.99,1.35,3.27Zm12.81-51.25c0,1.28-.45,2.37-1.35,3.27-.9.9-1.99,1.35-3.27,1.35s-2.37-.45-3.27-1.35-1.35-1.99-1.35-3.27.45-2.37,1.35-3.27c.9-.9,1.99-1.35,3.27-1.35s2.37.45,3.27,1.35,1.35,1.99,1.35,3.27Zm0,64.07c0,1.28-.45,2.37-1.35,3.27s-1.99,1.35-3.27,1.35-2.37-.45-3.27-1.35c-.9-.9-1.35-1.99-1.35-3.27s.45-2.37,1.35-3.27,1.99-1.35,3.27-1.35,2.37.45,3.27,1.35c.9.9,1.35,1.99,1.35,3.27Zm12.81-64.07c0,1.28-.45,2.37-1.35,3.27-.9.9-1.99,1.35-3.27,1.35s-2.37-.45-3.27-1.35-1.35-1.99-1.35-3.27.45-2.37,1.35-3.27c.9-.9,1.99-1.35,3.27-1.35s2.37.45,3.27,1.35,1.35,1.99,1.35,3.27Zm0,64.07c0,1.28-.45,2.37-1.35,3.27s-1.99,1.35-3.27,1.35-2.37-.45-3.27-1.35c-.9-.9-1.35-1.99-1.35-3.27s.45-2.37,1.35-3.27,1.99-1.35,3.27-1.35,2.37.45,3.27,1.35c.9.9,1.35,1.99,1.35,3.27Zm12.81-64.07c0,1.28-.45,2.37-1.35,3.27-.9.9-1.99,1.35-3.27,1.35s-2.37-.45-3.27-1.35c-.9-.9-1.35-1.99-1.35-3.27s.45-2.37,1.35-3.27c.9-.9,1.99-1.35,3.27-1.35s2.37.45,3.27,1.35,1.35,1.99,1.35,3.27Zm0,64.07c0,1.28-.45,2.37-1.35,3.27s-1.99,1.35-3.27,1.35-2.37-.45-3.27-1.35c-.9-.9-1.35-1.99-1.35-3.27s.45-2.37,1.35-3.27c.9-.9,1.99-1.35,3.27-1.35s2.37.45,3.27,1.35c.9.9,1.35,1.99,1.35,3.27Zm12.81-51.25c0,1.28-.45,2.37-1.35,3.27s-1.99,1.35-3.27,1.35-2.37-.45-3.27-1.35c-.9-.9-1.35-1.99-1.35-3.27s.45-2.37,1.35-3.27,1.99-1.35,3.27-1.35,2.37.45,3.27,1.35c.9.9,1.35,1.99,1.35,3.27Zm0,38.44c0,1.28-.45,2.37-1.35,3.27-.9.9-1.99,1.35-3.27,1.35s-2.37-.45-3.27-1.35-1.35-1.99-1.35-3.27.45-2.37,1.35-3.27c.9-.9,1.99-1.35,3.27-1.35s2.37.45,3.27,1.35,1.35,1.99,1.35,3.27Z"/><path class="cls-1" d="m90.93,291.65c0,1.28-.45,2.37-1.35,3.27s-1.99,1.35-3.27,1.35-2.37-.45-3.27-1.35c-.9-.9-1.35-1.99-1.35-3.27s.45-2.37,1.35-3.27,1.99-1.35,3.27-1.35,2.37.45,3.27,1.35c.9.9,1.35,1.99,1.35,3.27Zm12.81-38.44c0,1.28-.45,2.37-1.35,3.27-.9.9-1.99,1.35-3.27,1.35s-2.37-.45-3.27-1.35-1.35-1.99-1.35-3.27.45-2.37,1.35-3.27c.9-.9,1.99-1.35,3.27-1.35s2.37.45,3.27,1.35,1.35,1.99,1.35,3.27Zm0,25.63c0,1.28-.45,2.37-1.35,3.27-.9.9-1.99,1.35-3.27,1.35s-2.37-.45-3.27-1.35c-.9-.9-1.35-1.99-1.35-3.27s.45-2.37,1.35-3.27c.9-.9,1.99-1.35,3.27-1.35s2.37.45,3.27,1.35c.9.9,1.35,1.99,1.35,3.27Zm0,25.63c0,1.28-.45,2.37-1.35,3.27s-1.99,1.35-3.27,1.35-2.37-.45-3.27-1.35c-.9-.9-1.35-1.99-1.35-3.27s.45-2.37,1.35-3.27,1.99-1.35,3.27-1.35,2.37.45,3.27,1.35c.9.9,1.35,1.99,1.35,3.27Zm12.81-51.25c0,1.28-.45,2.37-1.35,3.27-.9.9-1.99,1.35-3.27,1.35s-2.37-.45-3.27-1.35c-.9-.9-1.35-1.99-1.35-3.27s.45-2.37,1.35-3.27c.9-.9,1.99-1.35,3.27-1.35s2.37.45,3.27,1.35c.9.9,1.35,1.99,1.35,3.27Zm0,25.63c0,1.28-.45,2.37-1.35,3.27s-1.99,1.35-3.27,1.35-2.37-.45-3.27-1.35-1.35-1.99-1.35-3.27.45-2.37,1.35-3.27,1.99-1.35,3.27-1.35,2.37.45,3.27,1.35,1.35,1.99,1.35,3.27Zm0,25.63c0,1.28-.45,2.37-1.35,3.27-.9.9-1.99,1.35-3.27,1.35s-2.37-.45-3.27-1.35c-.9-.9-1.35-1.99-1.35-3.27s.45-2.37,1.35-3.27c.9-.9,1.99-1.35,3.27-1.35s2.37.45,3.27,1.35c.9.9,1.35,1.99,1.35,3.27Zm12.81-51.25c0,1.28-.45,2.37-1.35,3.27s-1.99,1.35-3.27,1.35-2.37-.45-3.27-1.35c-.9-.9-1.35-1.99-1.35-3.27s.45-2.37,1.35-3.27,1.99-1.35,3.27-1.35,2.37.45,3.27,1.35c.9.9,1.35,1.99,1.35,3.27Zm0,25.63c0,1.28-.45,2.37-1.35,3.27-.9.9-1.99,1.35-3.27,1.35s-2.37-.45-3.27-1.35c-.9-.9-1.35-1.99-1.35-3.27s.45-2.37,1.35-3.27c.9-.9,1.99-1.35,3.27-1.35s2.37.45,3.27,1.35c.9.9,1.35,1.99,1.35,3.27Zm12.81-12.81c0,1.28-.45,2.37-1.35,3.27-.9.9-1.99,1.35-3.27,1.35s-2.37-.45-3.27-1.35c-.9-.9-1.35-1.99-1.35-3.27s.45-2.37,1.35-3.27c.9-.9,1.99-1.35,3.27-1.35s2.37.45,3.27,1.35,1.35,1.99,1.35,3.27Zm0,12.81c0,1.28-.45,2.37-1.35,3.27-.9.9-1.99,1.35-3.27,1.35s-2.37-.45-3.27-1.35c-.9-.9-1.35-1.99-1.35-3.27s.45-2.37,1.35-3.27c.9-.9,1.99-1.35,3.27-1.35s2.37.45,3.27,1.35c.9.9,1.35,1.99,1.35,3.27Zm0,12.81c0,1.28-.45,2.37-1.35,3.27-.9.9-1.99,1.35-3.27,1.35s-2.37-.45-3.27-1.35-1.35-1.99-1.35-3.27.45-2.37,1.35-3.27c.9-.9,1.99-1.35,3.27-1.35s2.37.45,3.27,1.35,1.35,1.99,1.35,3.27Zm0,12.81c0,1.28-.45,2.37-1.35,3.27-.9.9-1.99,1.35-3.27,1.35s-2.37-.45-3.27-1.35-1.35-1.99-1.35-3.27.45-2.37,1.35-3.27c.9-.9,1.99-1.35,3.27-1.35s2.37.45,3.27,1.35,1.35,1.99,1.35,3.27Z"/><path class="cls-1" d="m167.81,253.21c0,1.28-.45,2.37-1.35,3.27-.9.9-1.99,1.35-3.27,1.35s-2.37-.45-3.27-1.35-1.35-1.99-1.35-3.27.45-2.37,1.35-3.27c.9-.9,1.99-1.35,3.27-1.35s2.37.45,3.27,1.35,1.35,1.99,1.35,3.27Zm0,51.25c0,1.28-.45,2.37-1.35,3.27s-1.99,1.35-3.27,1.35-2.37-.45-3.27-1.35c-.9-.9-1.35-1.99-1.35-3.27s.45-2.37,1.35-3.27,1.99-1.35,3.27-1.35,2.37.45,3.27,1.35c.9.9,1.35,1.99,1.35,3.27Zm12.81-51.25c0,1.28-.45,2.37-1.35,3.27-.9.9-1.99,1.35-3.27,1.35s-2.37-.45-3.27-1.35-1.35-1.99-1.35-3.27.45-2.37,1.35-3.27c.9-.9,1.99-1.35,3.27-1.35s2.37.45,3.27,1.35,1.35,1.99,1.35,3.27Zm0,12.81c0,1.28-.45,2.37-1.35,3.27-.9.9-1.99,1.35-3.27,1.35s-2.37-.45-3.27-1.35c-.9-.9-1.35-1.99-1.35-3.27s.45-2.37,1.35-3.27,1.99-1.35,3.27-1.35,2.37.45,3.27,1.35c.9.9,1.35,1.99,1.35,3.27Zm0,12.81c0,1.28-.45,2.37-1.35,3.27-.9.9-1.99,1.35-3.27,1.35s-2.37-.45-3.27-1.35c-.9-.9-1.35-1.99-1.35-3.27s.45-2.37,1.35-3.27c.9-.9,1.99-1.35,3.27-1.35s2.37.45,3.27,1.35c.9.9,1.35,1.99,1.35,3.27Zm0,12.81c0,1.28-.45,2.37-1.35,3.27s-1.99,1.35-3.27,1.35-2.37-.45-3.27-1.35c-.9-.9-1.35-1.99-1.35-3.27s.45-2.37,1.35-3.27,1.99-1.35,3.27-1.35,2.37.45,3.27,1.35c.9.9,1.35,1.99,1.35,3.27Zm0,12.81c0,1.28-.45,2.37-1.35,3.27s-1.99,1.35-3.27,1.35-2.37-.45-3.27-1.35c-.9-.9-1.35-1.99-1.35-3.27s.45-2.37,1.35-3.27,1.99-1.35,3.27-1.35,2.37.45,3.27,1.35c.9.9,1.35,1.99,1.35,3.27Zm12.81-38.44c0,1.28-.45,2.37-1.35,3.27s-1.99,1.35-3.27,1.35-2.37-.45-3.27-1.35-1.35-1.99-1.35-3.27.45-2.37,1.35-3.27c.9-.9,1.99-1.35,3.27-1.35s2.37.45,3.27,1.35c.9.9,1.35,1.99,1.35,3.27Zm0,38.44c0,1.28-.45,2.37-1.35,3.27-.9.9-1.99,1.35-3.27,1.35s-2.37-.45-3.27-1.35c-.9-.9-1.35-1.99-1.35-3.27s.45-2.37,1.35-3.27c.9-.9,1.99-1.35,3.27-1.35s2.37.45,3.27,1.35c.9.9,1.35,1.99,1.35,3.27Zm12.81-51.25c0,1.28-.45,2.37-1.35,3.27s-1.99,1.35-3.27,1.35-2.37-.45-3.27-1.35c-.9-.9-1.35-1.99-1.35-3.27s.45-2.37,1.35-3.27,1.99-1.35,3.27-1.35,2.37.45,3.27,1.35c.9.9,1.35,1.99,1.35,3.27Zm12.81,0c0,1.28-.45,2.37-1.35,3.27s-1.99,1.35-3.27,1.35-2.37-.45-3.27-1.35c-.9-.9-1.35-1.99-1.35-3.27s.45-2.37,1.35-3.27,1.99-1.35,3.27-1.35,2.37.45,3.27,1.35c.9.9,1.35,1.99,1.35,3.27Z"/><path class="cls-1" d="m244.69,253.21c0,1.28-.45,2.37-1.35,3.27-.9.9-1.99,1.35-3.27,1.35s-2.37-.45-3.27-1.35-1.35-1.99-1.35-3.27.45-2.37,1.35-3.27c.9-.9,1.99-1.35,3.27-1.35s2.37.45,3.27,1.35,1.35,1.99,1.35,3.27Zm12.81-12.81c0,1.28-.45,2.37-1.35,3.27-.9.9-1.99,1.35-3.27,1.35s-2.37-.45-3.27-1.35-1.35-1.99-1.35-3.27.45-2.37,1.35-3.27c.9-.9,1.99-1.35,3.27-1.35s2.37.45,3.27,1.35,1.35,1.99,1.35,3.27Zm0,12.81c0,1.28-.45,2.37-1.35,3.27-.9.9-1.99,1.35-3.27,1.35s-2.37-.45-3.27-1.35-1.35-1.99-1.35-3.27.45-2.37,1.35-3.27c.9-.9,1.99-1.35,3.27-1.35s2.37.45,3.27,1.35,1.35,1.99,1.35,3.27Zm0,12.81c0,1.28-.45,2.37-1.35,3.27-.9.9-1.99,1.35-3.27,1.35s-2.37-.45-3.27-1.35c-.9-.9-1.35-1.99-1.35-3.27s.45-2.37,1.35-3.27,1.99-1.35,3.27-1.35,2.37.45,3.27,1.35c.9.9,1.35,1.99,1.35,3.27Zm0,12.81c0,1.28-.45,2.37-1.35,3.27-.9.9-1.99,1.35-3.27,1.35s-2.37-.45-3.27-1.35c-.9-.9-1.35-1.99-1.35-3.27s.45-2.37,1.35-3.27c.9-.9,1.99-1.35,3.27-1.35s2.37.45,3.27,1.35c.9.9,1.35,1.99,1.35,3.27Zm0,12.81c0,1.28-.45,2.37-1.35,3.27s-1.99,1.35-3.27,1.35-2.37-.45-3.27-1.35c-.9-.9-1.35-1.99-1.35-3.27s.45-2.37,1.35-3.27,1.99-1.35,3.27-1.35,2.37.45,3.27,1.35c.9.9,1.35,1.99,1.35,3.27Zm12.81-38.44c0,1.28-.45,2.37-1.35,3.27-.9.9-1.99,1.35-3.27,1.35s-2.37-.45-3.27-1.35c-.9-.9-1.35-1.99-1.35-3.27s.45-2.37,1.35-3.27c.9-.9,1.99-1.35,3.27-1.35s2.37.45,3.27,1.35c.9.9,1.35,1.99,1.35,3.27Zm0,51.25c0,1.28-.45,2.37-1.35,3.27-.9.9-1.99,1.35-3.27,1.35s-2.37-.45-3.27-1.35c-.9-.9-1.35-1.99-1.35-3.27s.45-2.37,1.35-3.27c.9-.9,1.99-1.35,3.27-1.35s2.37.45,3.27,1.35c.9.9,1.35,1.99,1.35,3.27Zm12.81-51.25c0,1.28-.45,2.37-1.35,3.27s-1.99,1.35-3.27,1.35-2.37-.45-3.27-1.35c-.9-.9-1.35-1.99-1.35-3.27s.45-2.37,1.35-3.27,1.99-1.35,3.27-1.35,2.37.45,3.27,1.35c.9.9,1.35,1.99,1.35,3.27Zm0,51.25c0,1.28-.45,2.37-1.35,3.27-.9.9-1.99,1.35-3.27,1.35s-2.37-.45-3.27-1.35-1.35-1.99-1.35-3.27.45-2.37,1.35-3.27c.9-.9,1.99-1.35,3.27-1.35s2.37.45,3.27,1.35,1.35,1.99,1.35,3.27Zm12.81-51.25c0,1.28-.45,2.37-1.35,3.27s-1.99,1.35-3.27,1.35-2.37-.45-3.27-1.35c-.9-.9-1.35-1.99-1.35-3.27s.45-2.37,1.35-3.27,1.99-1.35,3.27-1.35,2.37.45,3.27,1.35c.9.9,1.35,1.99,1.35,3.27Zm0,51.25c0,1.28-.45,2.37-1.35,3.27-.9.9-1.99,1.35-3.27,1.35s-2.37-.45-3.27-1.35-1.35-1.99-1.35-3.27.45-2.37,1.35-3.27c.9-.9,1.99-1.35,3.27-1.35s2.37.45,3.27,1.35,1.35,1.99,1.35,3.27Z"/></svg>