<?xml version="1.0" encoding="UTF-8"?><svg id="_레이어_1" xmlns="http://www.w3.org/2000/svg" viewBox="0 0 300 315"><defs><style>.cls-1{fill:#0086cf;stroke-width:0px;}</style></defs><path class="cls-1" d="m154.27,211.23c-1.3.84-2.67,1.42-4.09,1.72-1.43.3-3.12.45-5.1.45-2.32,0-4.59-.18-6.81-.53-2.22-.35-4.38-.7-6.49-1.06-2.11-.35-4.21-.53-6.28-.53-1.09,0-2.21.05-3.35.16-1.14.11-2,.35-2.56.74.28.35.51.82.69,1.4.18.58.26,1.14.26,1.66,0,.7-.21,1.39-.63,2.06-.42.67-1.09,1-2.01,1-.77,0-1.36-.25-1.74-.74-.39-.49-.58-1.13-.58-1.9,0-.7.19-1.43.58-2.19.39-.76,1.13-1.4,2.22-1.93.81-.39,1.68-.67,2.61-.84.93-.18,1.81-.28,2.64-.32.83-.03,1.43-.05,1.82-.05,2.46,0,4.76.17,6.89.5,2.13.33,4.25.67,6.36,1,2.11.33,4.36.5,6.76.5,1.87,0,3.42-.14,4.67-.42,1.25-.28,2.53-.81,3.83-1.58l.32.9Zm-21.86.21c.63.07,1.19.14,1.66.21.48.07.95.14,1.43.21.48.07,1.03.14,1.66.21l-7.92,29.73c-.56,2.04-.6,3.38-.11,4.01.49.63,1.85.99,4.07,1.06l-.21,1.06c-.92-.07-2.08-.11-3.48-.13-1.41-.02-2.87-.03-4.38-.03s-2.97,0-4.36.03c-1.39.02-2.51.06-3.35.13l.21-1.06c1.48-.07,2.63-.25,3.46-.55.83-.3,1.48-.81,1.95-1.53.48-.72.91-1.72,1.29-2.98l8.08-30.36Zm21.38-4.75c.88-.03,1.73-.11,2.56-.21.83-.11,1.57-.28,2.24-.53l-11.77,41.98h-4.59l11.56-41.24Zm-5.49,33.42c1.34-3.7,2.61-6.83,3.83-9.4,1.21-2.57,2.43-4.64,3.64-6.2,1.21-1.57,2.45-2.7,3.7-3.41,1.25-.7,2.56-1.06,3.93-1.06,1.58,0,2.69.37,3.33,1.11.63.74.93,1.72.9,2.93-.04,1.21-.28,2.53-.74,3.93l-5.12,15.42c-.25.67-.39,1.38-.42,2.14-.04.76.39,1.14,1.27,1.14.67,0,1.33-.37,1.98-1.11.65-.74,1.35-2.16,2.09-4.28l.69-1.95h1l-1.32,3.85c-.77,2.22-1.76,3.68-2.96,4.38-1.2.7-2.34,1.06-3.43,1.06-2.11,0-3.29-.7-3.54-2.09-.25-1.39-.02-3.16.69-5.31l5.02-15.1c.21-.63.38-1.29.5-1.98.12-.69.08-1.27-.13-1.74-.21-.48-.72-.71-1.53-.71-1.48,0-3.1,1.07-4.86,3.22-1.76,2.15-3.48,5.1-5.17,8.87-1.69,3.77-3.2,8.11-4.54,13.04l1.21-6.76Zm27.14-4.17c1.97-.67,3.76-1.33,5.36-1.98,1.6-.65,2.88-1.35,3.83-2.09,1.27-1.02,2.27-2.25,3.01-3.7.74-1.44,1.11-3.03,1.11-4.75,0-1.02-.07-1.67-.21-1.95-.14-.28-.35-.42-.63-.42-1.09,0-2.29.59-3.59,1.77-1.3,1.18-2.53,2.76-3.7,4.75-1.16,1.99-2.12,4.18-2.88,6.57-.76,2.39-1.14,4.8-1.14,7.23,0,1.8.33,3.09,1,3.88.67.79,1.55,1.19,2.64,1.19,1.27,0,2.6-.39,4.01-1.16,1.41-.77,2.78-2.15,4.12-4.12l.84.42c-.67,1.16-1.55,2.29-2.64,3.38s-2.31,1.98-3.67,2.67c-1.36.69-2.79,1.03-4.3,1.03-2.15,0-3.85-.63-5.1-1.87-1.25-1.25-1.87-3.11-1.87-5.57,0-1.51.28-3.21.84-5.1.56-1.88,1.36-3.77,2.4-5.65,1.04-1.88,2.28-3.62,3.72-5.2,1.44-1.58,3.04-2.85,4.8-3.8,1.76-.95,3.64-1.43,5.65-1.43,1.09,0,2.01.29,2.77.87.76.58,1.14,1.45,1.14,2.61,0,1.41-.41,2.72-1.24,3.93-.83,1.21-1.92,2.32-3.27,3.33-1.36,1-2.82,1.89-4.41,2.67-1.58.77-3.13,1.44-4.65,2.01-1.51.56-2.85,1.02-4.01,1.37l.05-.9Z"/><path class="cls-1" d="m14.03,303.57c-.49,1.94-.55,3.16-.16,3.67.39.51,1.48.8,3.27.87l-.21,1.06c-.81-.07-1.82-.11-3.04-.13-1.21-.02-2.44-.03-3.67-.03-1.37,0-2.64,0-3.8.03-1.16.02-2.13.06-2.9.13l.26-1.06c1.16-.07,2.07-.21,2.72-.42.65-.21,1.17-.63,1.56-1.27.39-.63.74-1.58,1.06-2.85l6.97-26.19c.49-1.93.54-3.16.13-3.67-.41-.51-1.49-.8-3.25-.87l.26-1.06c.7.04,1.65.07,2.85.11,1.2.04,2.48.05,3.85.05,1.23,0,2.46-.02,3.67-.05,1.21-.03,2.24-.07,3.09-.11l-.26,1.06c-1.2.04-2.13.17-2.8.4-.67.23-1.19.65-1.56,1.27-.37.62-.73,1.58-1.08,2.88l-6.97,26.19Zm2.38-12.67l.37-1.06h18.64l-.42,1.06h-18.59Zm21.54-13.52c.53-1.93.58-3.16.16-3.67s-1.51-.8-3.27-.87l.26-1.06c.81.04,1.82.07,3.04.11,1.21.04,2.42.05,3.62.05,1.37,0,2.66-.02,3.85-.05,1.2-.03,2.18-.07,2.96-.11l-.26,1.06c-1.2.04-2.13.17-2.8.4s-1.19.65-1.56,1.27c-.37.62-.73,1.58-1.08,2.88l-6.97,26.19c-.49,1.94-.55,3.16-.16,3.67.39.51,1.48.8,3.27.87l-.21,1.06c-.74-.07-1.71-.11-2.9-.13-1.2-.02-2.48-.03-3.85-.03-1.2,0-2.41,0-3.64.03-1.23.02-2.25.06-3.06.13l.21-1.06c1.2-.07,2.13-.21,2.8-.42.67-.21,1.2-.63,1.58-1.27.39-.63.74-1.58,1.06-2.85l6.97-26.19Z"/><path class="cls-1" d="m50.78,308.21c.84,0,1.81-.54,2.9-1.61,1.09-1.07,2.2-2.52,3.33-4.36,1.13-1.83,2.16-3.91,3.11-6.23.95-2.32,1.71-4.73,2.27-7.23l-.9,5.7c-2.01,5.63-4.02,9.61-6.05,11.93-2.02,2.32-4.09,3.48-6.2,3.48-1.66,0-2.9-.6-3.72-1.79-.83-1.2-1.24-2.73-1.24-4.59,0-1.69.28-3.53.84-5.52.56-1.99,1.35-3.97,2.35-5.94s2.16-3.77,3.46-5.39c1.3-1.62,2.72-2.92,4.25-3.91,1.53-.99,3.09-1.48,4.67-1.48,1.23,0,2.17.61,2.82,1.82.65,1.21.78,2.91.4,5.1l-.58.32c.25-1.87.12-3.37-.37-4.51-.49-1.14-1.3-1.72-2.43-1.72s-2.37.69-3.62,2.06-2.42,3.16-3.51,5.36c-1.09,2.2-1.97,4.58-2.64,7.13-.67,2.55-1,4.99-1,7.31,0,1.51.17,2.57.5,3.17.33.6.78.9,1.35.9Zm13.31-26.19c.84-.03,1.69-.11,2.53-.21.84-.1,1.62-.28,2.32-.53l-6.6,23.34c-.07.32-.17.73-.29,1.24-.12.51-.12.98,0,1.4.12.42.48.63,1.08.63.7,0,1.39-.39,2.06-1.16.67-.77,1.34-2.18,2.01-4.22l.63-1.95h1l-1.32,3.85c-.77,2.11-1.73,3.56-2.85,4.33-1.13.77-2.2,1.16-3.22,1.16-1.37,0-2.34-.46-2.9-1.37-.46-.81-.58-1.75-.37-2.83.21-1.07.46-2.16.74-3.25l5.17-20.43Z"/><path class="cls-1" d="m77.86,309.16h-4.59l6.34-22.65c.14-.42.26-.89.34-1.4.09-.51.06-.95-.08-1.32-.14-.37-.49-.55-1.06-.55-.77,0-1.46.38-2.06,1.14-.6.76-1.27,2.17-2.01,4.25l-.69,1.95h-1l1.32-3.85c.77-2.22,1.73-3.68,2.88-4.38,1.14-.7,2.28-1.06,3.41-1.06,1.41,0,2.31.39,2.72,1.16.4.77.52,1.73.34,2.85s-.4,2.25-.69,3.38l-5.17,20.49Zm2.43-10.98c1.23-3.17,2.43-5.82,3.59-7.97,1.16-2.15,2.3-3.88,3.43-5.2,1.13-1.32,2.28-2.27,3.46-2.85,1.18-.58,2.4-.87,3.67-.87,1.65,0,2.79.4,3.41,1.19.62.79.89,1.79.82,3.01-.07,1.21-.32,2.47-.74,3.77l-5.12,15.42c-.32.95-.45,1.73-.4,2.35.05.62.47.92,1.24.92.67,0,1.33-.37,1.98-1.11s1.35-2.16,2.09-4.28l.69-1.95h1l-1.32,3.85c-.78,2.22-1.76,3.68-2.96,4.38-1.2.7-2.34,1.06-3.43,1.06-1.58,0-2.69-.51-3.33-1.53-.39-.63-.51-1.46-.37-2.48.14-1.02.42-2.15.84-3.38l5.02-15.1c.18-.49.32-1.08.45-1.77.12-.69.1-1.3-.08-1.85-.18-.55-.69-.82-1.53-.82-1.06,0-2.19.57-3.41,1.72-1.21,1.14-2.46,2.74-3.72,4.78-1.27,2.04-2.49,4.44-3.67,7.18-1.18,2.75-2.23,5.72-3.14,8.92l1.53-7.39Z"/><path class="cls-1" d="m109.7,308.21c.88,0,1.87-.52,2.98-1.56s2.24-2.45,3.38-4.22c1.14-1.78,2.2-3.8,3.17-6.07.97-2.27,1.73-4.62,2.3-7.05l-.79,5.7c-1.37,3.63-2.74,6.53-4.09,8.71-1.36,2.18-2.73,3.76-4.12,4.73-1.39.97-2.84,1.45-4.36,1.45-1.65,0-2.98-.57-3.99-1.72s-1.51-2.89-1.51-5.25c0-1.69.27-3.51.82-5.47.55-1.95,1.33-3.88,2.35-5.78,1.02-1.9,2.24-3.63,3.67-5.2,1.43-1.57,3-2.83,4.73-3.77,1.72-.95,3.56-1.43,5.49-1.43.81,0,1.57.31,2.27.92.7.62,1.09,1.54,1.16,2.77l-.42,1.06c-.14-1.27-.49-2.17-1.06-2.72-.56-.55-1.2-.82-1.9-.82-1.69,0-3.28.69-4.78,2.06-1.5,1.37-2.82,3.15-3.96,5.33-1.14,2.18-2.04,4.49-2.69,6.92-.65,2.43-.98,4.7-.98,6.81,0,1.55.19,2.7.58,3.46.39.76.97,1.14,1.74,1.14Zm11.83-3.54c-.25.81-.34,1.56-.29,2.24.05.69.47,1.03,1.24,1.03.7,0,1.36-.4,1.95-1.19.6-.79,1.23-2.19,1.9-4.2l.63-1.95h1l-1.21,3.85c-.67,2.15-1.59,3.59-2.77,4.33-1.18.74-2.3,1.11-3.35,1.11-2.11,0-3.22-1-3.33-3.01-.04-.56,0-1.21.13-1.95.12-.74.31-1.55.55-2.43l7.6-28.56c.32-1.2.26-2.08-.16-2.64-.42-.56-1.5-.84-3.22-.84l.32-1.11c1.93-.04,3.64-.24,5.12-.61,1.48-.37,2.89-.89,4.22-1.56l-10.35,37.49Z"/><path class="cls-1" d="m137.05,309.16h-4.59l6.34-22.65c.1-.32.2-.73.29-1.24.09-.51.08-.98-.03-1.4-.11-.42-.44-.63-1-.63-.78,0-1.48.41-2.11,1.21-.63.81-1.3,2.2-2.01,4.17l-.69,1.95h-1l1.32-3.85c.77-2.22,1.76-3.68,2.96-4.38,1.2-.7,2.34-1.06,3.43-1.06,1.41,0,2.3.4,2.69,1.21.39.81.49,1.79.32,2.93-.18,1.14-.42,2.23-.74,3.25l-5.17,20.49Zm14.94-21.75c.35-1.09.53-2.1.53-3.04s-.49-1.4-1.48-1.4-2.07.61-3.25,1.82c-1.18,1.21-2.38,2.9-3.59,5.07-1.21,2.17-2.38,4.68-3.51,7.55-1.13,2.87-2.13,5.94-3.01,9.21l1.74-8.45c1.62-4.22,3.13-7.57,4.54-10.03,1.41-2.46,2.82-4.22,4.25-5.28,1.43-1.06,2.95-1.58,4.57-1.58,1.51,0,2.5.43,2.96,1.29.46.86.62,1.91.47,3.14-.14,1.23-.37,2.41-.69,3.54l-5.39,19.91h-4.75l6.6-21.75Zm13.2,0c.35-1.09.53-2.1.53-3.04s-.39-1.4-1.16-1.4c-1.37,0-2.87,1.08-4.49,3.25-1.62,2.16-3.25,5.14-4.88,8.92-1.64,3.78-3.21,8.11-4.73,12.96l1.21-6.76c1.37-3.66,2.64-6.77,3.8-9.32s2.3-4.62,3.43-6.2c1.13-1.58,2.29-2.74,3.48-3.46,1.2-.72,2.5-1.08,3.91-1.08,1.48,0,2.48.42,3.01,1.27.53.84.75,1.87.66,3.09-.09,1.21-.33,2.42-.71,3.62l-5.12,15.42c-.35,1.09-.47,1.91-.37,2.46.1.55.51.82,1.21.82.67,0,1.33-.37,1.98-1.11s1.35-2.16,2.09-4.28l.69-1.95h1l-1.32,3.85c-.77,2.22-1.76,3.68-2.96,4.38-1.2.7-2.34,1.06-3.43,1.06-.88,0-1.58-.13-2.09-.4-.51-.26-.91-.61-1.19-1.03-.42-.67-.56-1.5-.42-2.51.14-1,.42-2.16.84-3.46l5.02-15.1Z"/><path class="cls-1" d="m180.35,308.21c.84,0,1.81-.54,2.9-1.61,1.09-1.07,2.2-2.52,3.33-4.36,1.13-1.83,2.16-3.91,3.12-6.23.95-2.32,1.71-4.73,2.27-7.23l-.9,5.7c-2.01,5.63-4.02,9.61-6.05,11.93-2.02,2.32-4.09,3.48-6.2,3.48-1.66,0-2.9-.6-3.72-1.79-.83-1.2-1.24-2.73-1.24-4.59,0-1.69.28-3.53.84-5.52.56-1.99,1.35-3.97,2.35-5.94s2.16-3.77,3.46-5.39c1.3-1.62,2.72-2.92,4.25-3.91,1.53-.99,3.09-1.48,4.67-1.48,1.23,0,2.17.61,2.83,1.82.65,1.21.78,2.91.4,5.1l-.58.32c.25-1.87.12-3.37-.37-4.51-.49-1.14-1.3-1.72-2.43-1.72s-2.37.69-3.62,2.06c-1.25,1.37-2.42,3.16-3.51,5.36-1.09,2.2-1.97,4.58-2.64,7.13-.67,2.55-1,4.99-1,7.31,0,1.51.17,2.57.5,3.17.33.6.78.9,1.35.9Zm13.3-26.19c.84-.03,1.69-.11,2.53-.21.84-.1,1.62-.28,2.32-.53l-6.6,23.34c-.07.32-.17.73-.29,1.24-.12.51-.12.98,0,1.4.12.42.48.63,1.08.63.7,0,1.39-.39,2.06-1.16.67-.77,1.34-2.18,2.01-4.22l.63-1.95h1l-1.32,3.85c-.77,2.11-1.73,3.56-2.85,4.33-1.13.77-2.2,1.16-3.22,1.16-1.37,0-2.34-.46-2.9-1.37-.46-.81-.58-1.75-.37-2.83.21-1.07.46-2.16.74-3.25l5.17-20.43Z"/><path class="cls-1" d="m209.33,286.51c.74-2.18.49-3.27-.74-3.27-.81,0-1.53.44-2.16,1.32-.63.88-1.3,2.24-2.01,4.07l-.74,1.95h-1l1.37-3.85c.81-2.22,1.83-3.68,3.06-4.38,1.23-.7,2.39-1.06,3.48-1.06,1.51,0,2.51.39,2.98,1.16.47.77.63,1.73.47,2.88-.16,1.14-.43,2.26-.82,3.35l-5.65,16c-.35,1.02-.47,1.82-.34,2.4.12.58.52.87,1.19.87.7,0,1.37-.39,2.01-1.16.63-.77,1.34-2.18,2.11-4.22l.74-1.95h1l-1.37,3.85c-.74,2.04-1.7,3.46-2.88,4.25-1.18.79-2.38,1.19-3.62,1.19-1.51,0-2.53-.35-3.06-1.06-.53-.7-.72-1.62-.58-2.75.14-1.13.44-2.32.9-3.59l5.65-16Zm1.64-14.1c.18-.92.64-1.71,1.4-2.38.76-.67,1.57-1,2.46-1s1.63.34,2.14,1c.51.67.68,1.46.5,2.38-.18.92-.64,1.71-1.4,2.38-.76.67-1.59,1-2.51,1s-1.58-.33-2.09-1c-.51-.67-.68-1.46-.5-2.38Z"/><path class="cls-1" d="m224.59,308.21c.88,0,1.87-.52,2.98-1.56s2.24-2.45,3.38-4.22c1.14-1.78,2.2-3.8,3.17-6.07.97-2.27,1.73-4.62,2.3-7.05l-.79,5.7c-1.37,3.63-2.74,6.53-4.09,8.71-1.36,2.18-2.73,3.76-4.12,4.73-1.39.97-2.84,1.45-4.36,1.45-1.66,0-2.98-.57-3.99-1.72s-1.51-2.89-1.51-5.25c0-1.69.27-3.51.82-5.47.55-1.95,1.33-3.88,2.35-5.78s2.24-3.63,3.67-5.2c1.43-1.57,3-2.83,4.73-3.77,1.72-.95,3.56-1.43,5.49-1.43.81,0,1.57.31,2.27.92.7.62,1.09,1.54,1.16,2.77l-.42,1.06c-.14-1.27-.49-2.17-1.06-2.72-.56-.55-1.2-.82-1.9-.82-1.69,0-3.28.69-4.78,2.06-1.5,1.37-2.82,3.15-3.96,5.33-1.14,2.18-2.04,4.49-2.69,6.92-.65,2.43-.98,4.7-.98,6.81,0,1.55.19,2.7.58,3.46.39.76.97,1.14,1.74,1.14Zm11.83-3.54c-.25.81-.34,1.56-.29,2.24.05.69.47,1.03,1.24,1.03.7,0,1.36-.4,1.95-1.19.6-.79,1.23-2.19,1.9-4.2l.63-1.95h1l-1.21,3.85c-.67,2.15-1.59,3.59-2.77,4.33-1.18.74-2.3,1.11-3.35,1.11-2.11,0-3.22-1-3.33-3.01-.04-.56,0-1.21.13-1.95.12-.74.31-1.55.55-2.43l7.6-28.56c.32-1.2.26-2.08-.16-2.64-.42-.56-1.5-.84-3.22-.84l.32-1.11c1.93-.04,3.64-.24,5.12-.61,1.48-.37,2.89-.89,4.22-1.56l-10.35,37.49Z"/><path class="cls-1" d="m249.99,297.18c1.97-.67,3.76-1.33,5.36-1.98,1.6-.65,2.88-1.35,3.83-2.09,1.27-1.02,2.27-2.25,3.01-3.7.74-1.44,1.11-3.03,1.11-4.75,0-1.02-.07-1.67-.21-1.95-.14-.28-.35-.42-.63-.42-1.09,0-2.29.59-3.59,1.77-1.3,1.18-2.53,2.76-3.7,4.75-1.16,1.99-2.12,4.18-2.88,6.57-.76,2.39-1.14,4.8-1.14,7.23,0,1.8.33,3.09,1,3.88.67.79,1.55,1.19,2.64,1.19,1.27,0,2.61-.39,4.01-1.16s2.78-2.15,4.12-4.12l.84.42c-.67,1.16-1.55,2.29-2.64,3.38s-2.32,1.98-3.67,2.67c-1.36.69-2.79,1.03-4.3,1.03-2.15,0-3.85-.63-5.1-1.87s-1.87-3.11-1.87-5.57c0-1.51.28-3.21.84-5.09.56-1.88,1.36-3.77,2.4-5.65,1.04-1.88,2.28-3.62,3.72-5.2,1.44-1.58,3.04-2.85,4.8-3.8,1.76-.95,3.64-1.43,5.65-1.43,1.09,0,2.01.29,2.77.87.76.58,1.14,1.45,1.14,2.61,0,1.41-.41,2.72-1.24,3.93-.83,1.21-1.92,2.32-3.27,3.33-1.36,1-2.83,1.89-4.41,2.67-1.58.78-3.13,1.44-4.65,2.01-1.51.56-2.85,1.02-4.01,1.37l.05-.9Z"/><path class="cls-1" d="m274.65,309.16h-4.59l6.34-22.65c.14-.42.26-.89.34-1.4.09-.51.06-.95-.08-1.32-.14-.37-.49-.55-1.06-.55-.78,0-1.46.38-2.06,1.14-.6.76-1.27,2.17-2.01,4.25l-.69,1.95h-1l1.32-3.85c.77-2.22,1.73-3.68,2.88-4.38,1.14-.7,2.28-1.06,3.4-1.06,1.41,0,2.31.39,2.72,1.16s.52,1.73.34,2.85c-.18,1.13-.41,2.25-.69,3.38l-5.17,20.49Zm2.43-10.98c1.23-3.17,2.43-5.82,3.59-7.97,1.16-2.15,2.3-3.88,3.43-5.2,1.13-1.32,2.28-2.27,3.46-2.85,1.18-.58,2.4-.87,3.67-.87,1.65,0,2.79.4,3.41,1.19.62.79.89,1.79.82,3.01-.07,1.21-.32,2.47-.74,3.77l-5.12,15.42c-.32.95-.45,1.73-.4,2.35.05.62.47.92,1.24.92.67,0,1.33-.37,1.98-1.11.65-.74,1.35-2.16,2.09-4.28l.69-1.95h1l-1.32,3.85c-.78,2.22-1.76,3.68-2.96,4.38s-2.34,1.06-3.43,1.06c-1.58,0-2.69-.51-3.33-1.53-.39-.63-.51-1.46-.37-2.48.14-1.02.42-2.15.84-3.38l5.02-15.1c.18-.49.33-1.08.45-1.77.12-.69.1-1.3-.08-1.85-.18-.55-.69-.82-1.53-.82-1.06,0-2.19.57-3.4,1.72-1.21,1.14-2.46,2.74-3.72,4.78-1.27,2.04-2.49,4.44-3.67,7.18-1.18,2.75-2.23,5.72-3.14,8.92l1.53-7.39Z"/><path class="cls-1" d="m125.73,256.08c-2.81,0-5.48,1.61-5.48,5.11,0,3,2.14,4.56,4.36,4.56,2.58,0,4.14-1.69,4.14-4.36,0-2.61-1.72-4-3.36-4.37-.22-.06-.42-.06-.56-.06,0-.22.33-.55.95-.55,2.97.03,5.22,1.89,5.22,5.01,0,3.64-2.98,5.83-6.4,5.83-3.58,0-6.69-2.26-6.69-6.04,0-2.81,2.28-6.11,6.62-5.91,0-.61-.78-1.72-1.89-2.06l.14-.31,3.67,1.39-.72,1.75Zm11.55,16.24c-.7,1.28-1.22,2.19-1.78,4.25h-.31c-.11-2.11-.02-3.17-.02-5.03l.02-19.84c-.19-.97-1.08-1.5-2.61-2.34l.11-.36,5.22,1.37-.61,1.28v9.56c.74,0,1.16-.03,1.91-.11l2.03-.53,1.58,1.81-.06.28-2.83-.09c-.78,0-1.64,0-2.64.11v9.64Z"/><path class="cls-1" d="m153.69,254.3c.47-.22.69-.44,1.03-.75l2.67,1.48c-.33.14-.7.5-.83.83-1.84,5.67-5.98,10.16-9.68,12.27-1.11.64-2.03,1.05-3.31,1.25-.44.05-.89.05-1.42.03l.03-.45c.39.08.92.11,1.33.03.72-.11,1-.58,1.56-.89,3.25-2.39,7.4-7.22,9.18-12.36-1.31-.08-5.39.19-6.95.49l-1.17.5-1.41-1.45c-.28-.28-.61-.86-.75-1.45l.22-.11c.22.58.61.72.83.86.58.11,1.25.14,1.94.14,2.17-.03,4.84-.14,6.73-.44Zm8.93,18.04c-.7,1.28-1.22,2.19-1.78,4.25h-.31c-.11-2.11-.02-3.11-.02-4.97l.02-19.9c-.19-.97-1.08-1.5-2.61-2.34l.11-.36,5.22,1.37-.61,1.28v9.14c.74,0,1.33-.03,2.05-.11l2.03-.53,1.61,1.81-.06.25-2.86-.06c-.75,0-1.78,0-2.78.08v10.09Z"/><path class="cls-1" d="m174.83,261.68c-.89,1.36-1.86,2.47-2.92,3.53-1,1-1.92,1.33-3.11,1.72l-.17-.42c.53-.06.83-.19,1.28-.42.61-.33.61-.67,1.09-1.39,1.61-2.3,3.17-5.19,4.2-8.53-.03-.86-.56-1.36-1.58-1.81l.28-.42,4.36,1.7c-.42.22-.69.69-.89,1.11-.7,1.7-1.39,3.06-2.09,4.22.5-.08,1-.22,1.42-.44.33.64.94,1.31,1.86,1.45-.03.56.03,1.17.19,1.72,1.28-2.3,2.45-4.92,3.56-8.19-.06-.92-.83-1.5-1.94-2.03l.31-.5,5.03,2.06c-.39.25-.72.56-.92.89-.84,2.03-1.61,3.72-2.42,5.22.67-.05,1.44-.19,2.06-.41.44,1.42,1.42,2.17,2.75,2.86-.08,1-.25,2.28-.25,3.36-.47.33-1.17.75-1.64,1.28l-.28-.17c.2-.33.81-.47.64-1.03-.53-1.61-2.05-3.67-3.08-5.03-.36-.14-.53-.03-.75.17-1.14,1.97-2.39,3.64-3.95,5.36-1.03,1.17-2.64,2.03-4,2.3l-.22-.39c.67-.11,1.17-.22,1.58-.47.69-.39.83-1.11,1.31-1.75.53-.75,1.03-1.53,1.53-2.36-.78-1.17-1.83-2.45-2.75-3.14-.2-.08-.33-.14-.47-.06Zm16.91,10.69c-.7,1.28-1.22,2.19-1.78,4.25h-.31c-.11-2.11-.03-3.17-.02-5.03l.02-19.84c-.19-.97-1.08-1.5-2.61-2.34l.11-.36,5.22,1.37-.61,1.28-.02,20.67Z"/><path class="cls-1" d="m130.99,9.53c1.18,0,2.13.25,2.84.74.71.49,1.07,1.2,1.07,2.13,0,.79-.26,1.58-.77,2.36-.51.78-1.17,1.54-1.97,2.28-.8.74-1.65,1.43-2.55,2.07-.9.65-1.75,1.25-2.54,1.8-.79.55-1.43,1.02-1.91,1.41.54,0,1.18.07,1.93.2.74.13,1.49.27,2.25.41.75.14,1.41.2,1.97.2.66,0,1.16-.12,1.49-.35.34-.23.51-.58.51-1.04,0-.71-.42-1.27-1.28-1.65l.38-.38c.5.23.89.53,1.17.9s.42.83.42,1.39c0,.5-.12.99-.36,1.45-.24.46-.63.84-1.16,1.13-.53.29-1.23.43-2.1.43s-1.76-.14-2.57-.41c-.8-.27-1.73-.43-2.77-.46-.72-.04-1.32,0-1.83.13-.5.13-1.05.31-1.65.57l.15-.61c.58-.45,1.31-.98,2.19-1.6s1.8-1.29,2.77-2.03c.97-.74,1.88-1.53,2.73-2.38.85-.85,1.54-1.74,2.07-2.67.53-.93.8-1.88.8-2.84,0-.77-.19-1.39-.57-1.86-.38-.46-.93-.7-1.67-.7-.7,0-1.43.23-2.2.68-.77.46-1.43,1.04-1.96,1.76-.53.71-.8,1.46-.8,2.23,0,.46.13.81.39,1.04.26.23.69.35,1.29.35.54,0,1.01-.1,1.41-.3s.82-.5,1.26-.88l.35.41c-.54.5-1.09.86-1.65,1.07-.56.21-1.08.32-1.57.32s-.97-.13-1.45-.38-.72-.78-.72-1.59c0-.85.3-1.69.9-2.51.6-.82,1.4-1.5,2.39-2.03,1-.53,2.1-.8,3.32-.8Z"/><path class="cls-1" d="m147.09,9.5c1.49,0,2.62.45,3.39,1.36.77.91,1.16,2.17,1.16,3.77,0,1.29-.24,2.58-.72,3.84-.48,1.27-1.15,2.41-2,3.42-.85,1.01-1.83,1.83-2.94,2.44-1.11.61-2.3.91-3.55.91-1.47,0-2.63-.44-3.48-1.32-.85-.88-1.28-2.16-1.28-3.84,0-1.31.25-2.6.75-3.84.5-1.25,1.19-2.38,2.07-3.41s1.88-1.84,3.02-2.44c1.13-.6,2.33-.9,3.58-.9Zm-.55.52c-.79,0-1.56.29-2.31.86-.75.57-1.41,1.34-2,2.31-.59.97-1.05,2.07-1.39,3.31-.34,1.24-.51,2.52-.51,3.86,0,1.64.25,2.78.75,3.42.5.64,1.13.96,1.88.96.85,0,1.64-.3,2.36-.91.73-.61,1.36-1.42,1.9-2.44.54-1.01.97-2.15,1.28-3.39.31-1.25.46-2.51.46-3.79,0-1.57-.22-2.65-.67-3.26-.45-.61-1.03-.91-1.77-.91Z"/><path class="cls-1" d="m162.25,9.59l-4.5,15.25h-2.52l3.71-12.56c-.54.31-1.15.61-1.83.88-.68.28-1.52.58-2.52.88l.09-.61c1.82-.56,3.24-1.18,4.28-1.87s1.94-1.35,2.71-1.99h.58Z"/><path class="cls-1" d="m178.26,3.9l.17.58c-1.37.33-2.75.98-4.12,1.94s-2.63,2.19-3.77,3.65c-1.14,1.47-2.06,3.12-2.76,4.96-.7,1.84-1.04,3.78-1.04,5.83,0,1.49.19,2.49.57,3.02.38.52.88.78,1.52.78.81,0,1.54-.29,2.19-.87.65-.58,1.2-1.32,1.65-2.23.45-.91.8-1.87,1.03-2.87.23-1.01.35-1.93.35-2.79,0-1.02-.17-1.77-.51-2.23-.34-.46-.8-.7-1.38-.7s-1.15.25-1.77.75c-.62.5-1.17,1.43-1.65,2.78l-.46-.17c.35-1.1.79-1.96,1.33-2.57s1.12-1.03,1.74-1.28c.62-.24,1.21-.36,1.77-.36,1.08,0,1.96.37,2.64,1.12s1.01,1.82,1.01,3.23c0,1.14-.22,2.23-.67,3.28-.44,1.04-1.06,1.98-1.84,2.8-.78.82-1.68,1.47-2.68,1.96-1.01.48-2.08.72-3.22.72-1.47,0-2.55-.44-3.23-1.32-.69-.88-1.03-2.17-1.03-3.87s.32-3.41.96-4.96c.64-1.55,1.48-2.96,2.52-4.25,1.04-1.29,2.19-2.41,3.45-3.38,1.26-.97,2.51-1.75,3.77-2.36s2.41-1.01,3.45-1.2Z"/></svg>