<?xml version="1.0" encoding="UTF-8"?><svg id="_레이어_1" xmlns="http://www.w3.org/2000/svg" viewBox="0 0 300 315"><defs><style>.cls-1{fill:#0086cf;stroke-width:0px;}</style></defs><path class="cls-1" d="m73.97,71.68h-.57s-64.45-.06-64.45-.06l.07-.56c1.16-9.12,1.17-18.76.02-27.89l-.07-.56h.57s64.45.06,64.45.06l-.07.56c-1.16,9.12-1.17,18.76-.02,27.89l.07.56Zm-63.88-1.06l62.75.05c-1.06-8.85-1.05-18.17.02-27.01l-62.75-.06c1.06,8.85,1.05,18.17-.02,27.02Zm43.66-10.51l-24.55-.02v-10s24.56.02,24.56.02v10Zm-23.55-1.02l22.55.02v-8s-22.54-.02-22.54-.02v8Zm43.81-17.82l-21.31-.02.07-.56c1.39-10.56,1.4-26.49.03-37.04l-.07-.57,21.31.02-.08.57c-.49,3.67-.83,7.48-.99,11.05h6.52s-.09.58-.09.58c-.61,4.08-.61,8.39-.01,12.47l.08.57h-6.6c.16,4.3.52,8.57,1.04,12.36l.08.57Zm-20.17-1.02l19.02.02c-.51-3.83-.85-8.11-.99-12.41l-.02-.52h6.48c-.51-3.81-.5-7.8.01-11.62h-6.41s.02-.52.02-.52c.14-3.57.46-7.4.94-11.1l-19.03-.02c1.28,10.44,1.27,25.73-.03,36.17Zm-45.13.17c-1.49,0-3.04-.05-4.65-.14l-.63-.04.18-.6c1.37-4.71,1.38-13.94.02-18.65l-.21-.72.75.09c2.17.25,4.44.39,6.56.39h.04c8.66,0,13.53-2.4,14.48-7.13.42-2.09.46-4.9.5-7.38.01-.67.02-1.32.04-1.93v-.49s12.22,0,12.22,0v.49c.03.69.04,1.45.04,2.26.01,2.36.03,5.03.42,7.05,1.38,6.93,7.22,7.46,13.32,7l.73-.05-.22.7c-1.41,4.57-1.41,12.82-.01,17.65l.16.56-.58.08c-1.19.16-2.35.16-3.38.16-7.36,0-12.75-2.69-16.03-7.98-4.25,5.83-12.06,8.69-23.75,8.69Zm-3.98-1.1c14.02.7,22.97-2.17,27.35-8.79l.45-.68.4.71c3.05,5.4,8.28,8.14,15.57,8.15.83,0,1.74,0,2.67-.08-1.22-4.79-1.23-12.32-.02-16.95-6.03.37-12.19-.43-13.66-7.85-.41-2.12-.42-4.84-.44-7.24,0-.61,0-1.2-.02-1.75h-10.26c0,.45-.02.93-.02,1.42-.04,2.52-.08,5.38-.52,7.56-1.06,5.27-6.27,7.92-15.51,7.93-1.93,0-3.97-.11-5.95-.31,1.16,4.81,1.14,13.14-.04,17.89Z"/><path class="cls-1" d="m150.65,71.75l-65.36-.06.09-.58c1-6.4,1.01-18.07.02-24.48l-.09-.58,19.02.02-.08.57c-.27,1.88-.5,4.42-.67,7.38,6.41.34,12.55.52,18.25.53,11.09,0,21.89-.54,28.18-1.43l.67-.1-.11.67c-.92,5.55-.92,11.92-.01,17.46l.09.58Zm-64.2-1.06l63.03.05c-.8-5.29-.8-11.24,0-16.54-6.35.84-16.7,1.35-27.35,1.35h-.3c-5.87,0-12.19-.19-18.81-.56l-.5-.03.03-.5c.16-2.91.37-5.45.63-7.4h-16.7c.89,6.38.88,17.23-.02,23.62Zm63.44-21.34l-21.16-.02.07-.56c1.38-10.52,1.4-34.52.04-45.05l-.07-.57,21.16.02-.08.57c-1.53,10.48-1.55,34.47-.04,45.04l.08.57Zm-20.02-1.02l18.87.02c-1.44-10.89-1.42-33.36.04-44.18l-18.87-.02c1.28,10.67,1.26,33.51-.04,44.18Zm-45.78-3.45c-1.45,0-2.96-.05-4.53-.14l-.63-.04.18-.6c1.37-4.69,1.37-12.04.01-16.73l-.2-.69.72.05c2.07.16,4.52.3,7.01.31,8.41,0,12.84-2.05,13.55-6.27.2-1.06.28-2.06.35-3.03l-19.93-.02.12-.6c.61-3.02.61-8.95.01-11.97l-.12-.6,45.94.04-.12.6c-.61,3.02-.61,8.94-.01,11.96l.12.6h-13.46c.07.9.18,1.78.3,2.71l.04.33c.92,6.13,7.17,6.43,13.49,6.19l.7-.02-.21.67c-1.41,4.57-1.41,10.89-.01,15.72l.16.56-.58.07c-1.28.16-2.55.15-3.68.15-7.42,0-12.78-2.45-15.97-7.26-4.29,5.3-12.1,7.97-23.25,7.98Zm-3.85-1.1c13.32.69,22.32-2.03,26.74-8.04l.45-.6.39.64c2.93,4.9,8.15,7.38,15.5,7.39.92,0,1.95,0,2.98-.09-1.23-4.69-1.23-10.56-.02-15.05-5.05.17-12.74.12-13.83-7.08l-.04-.34c-.14-1.12-.27-2.18-.34-3.32l-.03-.53h13.33c-.48-3.03-.48-8.11,0-11.15l-43.52-.04c.48,3.04.47,8.12,0,11.16l19.79.02-.03.53c-.07,1.17-.15,2.38-.4,3.68-.8,4.77-5.55,7.09-14.54,7.09-2.2-.02-4.45-.13-6.38-.26,1.16,4.65,1.15,11.37-.03,15.99Z"/><path class="cls-1" d="m224.83,70.27h-.5l-73.16-.06v-16.74s.55.04.55.04c9.51.69,22.74,1.1,36.29,1.11,13.56,0,26.8-.37,36.29-1.05l.54-.04v16.74Zm-72.66-1.06l71.66.06v-14.67c-9.46.65-22.45,1.06-35.82,1.01-13.32-.01-26.34-.4-35.83-1.07v14.66Zm66.87-18.72h-19.19s.06-.56.06-.56c.64-6.34.94-16.24.8-26.54l-44.49-.04.08-.57c.77-5.56.77-11.84.02-16.79l-.09-.58,62.86.05-.05.54c-1.09,12.41-1.11,32.53-.04,43.93l.05.55Zm-18.09-1.01h16.99c-1.01-11.36-.99-30.72.04-43.01l-60.6-.05c.66,4.77.65,10.64-.02,15.93l44.33.04v.49c.16,10.23-.12,20.1-.74,26.6Z"/><path class="cls-1" d="m292.01,71.87h-.57s-64.3-.06-64.3-.06l.07-.56c1.08-8.45,1.09-17.35.02-25.73l-.07-.56,21.08.02v6s22.7.02,22.7.02v-6s21.08.02,21.08.02l-.07.56c-1.08,8.38-1.09,17.28-.02,25.73l.07.56Zm-63.73-1.06l62.6.05c-.99-8.18-.98-16.75.02-24.86l-18.94-.02v6s-24.71-.02-24.71-.02v-6s-18.94-.02-18.94-.02c.99,8.11.98,16.68-.02,24.86Zm43.66-9.74l-24.71-.02v-4.85s24.71.02,24.71.02v4.85Zm-23.71-1.02l22.71.02v-2.85s-22.7-.02-22.7-.02v2.85Zm21.42-10.68l-20.12-.02.1-.58c.24-1.43.36-3.09.38-5.19l-27.24-.02v-9.19s.53.03.53.03c11.8.62,23.83.94,35.76.96,12.7.01,25.12-.32,36.84-.97l.53-.03v9.26s-27.25-.02-27.25-.02c.01,2.09.13,3.75.37,5.19l.1.58Zm-18.94-1.02h17.77c-.2-1.46-.3-3.15-.3-5.26v-.5s27.25.02,27.25.02v-7.21c-11.58.63-23.8.91-36.36.94-11.77-.01-23.64-.32-35.29-.93v7.13s27.24.02,27.24.02v.5c0,2.11-.1,3.8-.31,5.27Zm40.53-14.21h-.53l-62.74-.06.05-.55c.46-4.82.47-11.56.01-16.38l-.05-.55,38.38.03v-1.77s-37.71-.03-37.71-.03l.08-.57c.38-2.65.46-8.14.01-10.77l-.1-.58,61.87.05-.05.54c-.46,5.27-.47,14.19-.02,19.46l.05.54-38.37-.03v2.01c13.37.24,26.34.15,38.58-.28l.57-.02-.06.57c-.28,2.83-.1,6.43,0,7.85l.03.53Zm-62.17-1.05l61.11.05c-.09-1.56-.2-4.43,0-6.91-12.24.42-25.21.5-38.56.25h-.49s0-4,0-4l38.29.03c-.4-5.19-.39-13.36.02-18.55l-59.6-.05c.35,2.72.29,7.25-.02,9.93l37.57.03v3.77s-38.29-.03-38.29-.03c.39,4.64.39,10.82-.01,15.47Z"/><path class="cls-1" d="m116.55,155.69h-.12c-10.6,0-18.8-1.2-24.35-3.53-6.23-2.62-9.39-6.76-9.39-12.31h0c0-10.47,11.33-15.79,33.64-15.79h.12c10.6,0,18.8,1.2,24.35,3.53,6.23,2.62,9.39,6.76,9.39,12.31,0,5.55-3.17,9.69-9.41,12.3-5.53,2.32-13.69,3.49-24.23,3.49Zm-32.86-15.85c0,5.18,2.87,8.91,8.78,11.39,5.43,2.28,13.49,3.45,23.96,3.45h.12c10.41,0,18.43-1.15,23.84-3.41,5.91-2.48,8.79-6.2,8.79-11.37s-2.87-8.9-8.77-11.39c-5.43-2.28-13.49-3.45-23.96-3.46h-.12c-21.65,0-32.63,4.97-32.64,14.79h0Zm32.8,5.3h-.05c-4.17,0-7.37-.43-9.53-1.27-2.28-.89-3.43-2.24-3.43-4.01,0-3.49,4.35-5.26,12.91-5.26h.06c8.6,0,12.97,1.79,12.96,5.28,0,3.49-4.35,5.26-12.92,5.26Zm-.05-1h.05c7.69,0,11.92-1.51,11.92-4.26,0-2.76-4.25-4.28-11.96-4.28h-.06c-7.68,0-11.91,1.51-11.92,4.26,0,1.34.91,2.34,2.8,3.08,2.04.8,5.13,1.2,9.17,1.21h0Zm32.3-19.75l-20.7-.02.08-.57c.2-1.36.41-2.97.57-4.74h-5.42s.08-.57.08-.57c.46-3.37.47-7.89,0-11.25l-.03-.24c-1.02,10.48-9.31,16.66-22.62,16.66h-.04c-7,0-12.77-1.72-16.69-4.97-3.96-3.27-6.04-8.09-6.04-13.95.01-11.82,8.5-18.88,22.72-18.88h.04c7,0,12.77,1.72,16.69,4.97,3.46,2.86,5.49,6.9,5.94,11.78l.03-.21c.46-3.37.47-7.89,0-11.26l-.08-.57h5.41c-.16-1.54-.37-3-.56-4.27l-.09-.58,20.71.02-.08.57c-1.55,10.64-1.57,26.76-.03,37.49l.08.57Zm-19.55-1.02l18.4.02c-1.44-10.61-1.42-26.1.03-36.64h-18.39c.19,1.28.39,2.75.53,4.29l.05.55h-5.37c.37,3.18.37,7.2,0,10.39h5.86s0,5.7,0,5.7h-5.86c.37,3.18.37,7.2,0,10.39h5.36s-.04.54-.04.54c-.14,1.77-.35,3.38-.54,4.77Zm-28.52-36.51c-13.8,0-21.71,6.51-21.72,17.88,0,5.54,1.96,10.1,5.68,13.18,3.74,3.09,9.29,4.73,16.05,4.74h.04c13.8,0,21.71-6.51,21.72-17.88,0-5.54-1.96-10.1-5.68-13.18-3.74-3.09-9.29-4.73-16.05-4.74h-.04Zm22.69,19.8h5.93s0-3.69,0-3.69h-5.92c.05.59.07,1.19.07,1.8,0,.64-.03,1.27-.08,1.89Zm-22.67,6.37h0c-1.95,0-3.41-.87-4.35-2.59-.76-1.39-1.15-3.31-1.14-5.69,0-2.38.39-4.29,1.15-5.68.94-1.71,2.4-2.58,4.35-2.58h0c1.95,0,3.41.87,4.35,2.59.76,1.39,1.15,3.31,1.14,5.69,0,2.38-.39,4.29-1.15,5.68-.94,1.71-2.4,2.58-4.35,2.58Zm0-15.55c-1.58,0-2.71.68-3.47,2.06-.67,1.23-1.03,3.03-1.03,5.2,0,2.18.35,3.98,1.02,5.21.76,1.39,1.9,2.07,3.48,2.07h0c1.58,0,2.71-.68,3.47-2.07.67-1.23,1.03-3.02,1.03-5.2,0-2.18-.35-3.98-1.02-5.21-.76-1.39-1.9-2.07-3.48-2.07h0Z"/><path class="cls-1" d="m220.94,153.62l-20.92-.02.04-.53c.58-8.66.92-18.6,1.02-29.56h-4.92s.08-.57.08-.57c.46-3.32.46-10.09.01-13.41l-.08-.57h4.83c-.15-8.01-.45-15.63-.89-22.63l-.03-.53,20.92.02-.03.53c-1.33,20.59-1.35,46.16-.06,66.74l.03.53Zm-19.86-1.02l18.79.02c-1.25-20.35-1.23-45.45.06-65.81l-18.79-.02c.43,7.02.73,14.64.87,22.66v.51s-4.71,0-4.71,0c.37,3.39.37,9.16-.01,12.55h4.79s0,.51,0,.51c-.09,10.96-.42,20.91-.99,29.59Zm-28.06-1.64h-.03c-15.24-.01-22.96-10.88-22.95-32.31h0c.02-21.41,7.75-32.27,22.97-32.27h.03c7.78,0,13.67,2.9,17.5,8.6,3.62,5.38,5.45,13.36,5.44,23.71,0,10.35-1.85,18.33-5.48,23.7-3.84,5.68-9.72,8.57-17.49,8.57Zm-21.97-32.31c-.02,20.76,7.37,31.29,21.95,31.31h.03c7.41,0,13.02-2.73,16.66-8.13,3.52-5.21,5.3-12.99,5.31-23.14,0-10.15-1.76-17.94-5.27-23.15-3.64-5.41-9.25-8.15-16.67-8.15h-.03c-14.56,0-21.96,10.52-21.98,31.27h0Zm21.97,14.53h0c-6.95,0-7.88-7.34-7.88-14.52,0-4.97.58-8.5,1.77-10.81,1.28-2.48,3.28-3.69,6.12-3.69h.01c6.95,0,7.88,7.34,7.88,14.51,0,7.17-.95,14.5-7.89,14.5Zm0-1h0c4.82,0,6.89-4.04,6.89-13.5,0-9.47-2.05-13.51-6.88-13.51h-.01c-2.47,0-4.13,1-5.23,3.15-1.11,2.16-1.65,5.55-1.66,10.35,0,9.47,2.05,13.51,6.88,13.52h0Z"/><path class="cls-1" d="m115.09,235.35h-.5l-73.16-.06v-15.82s.55.04.55.04c7.62.57,16.9.93,26.17,1.02-.02-1.77-.18-3.45-.45-4.87l-.11-.59,21.14.02-.11.59c-.27,1.42-.43,3.1-.45,4.87,9.33-.07,18.68-.42,26.4-.97l.54-.04v15.81Zm-72.66-1.06l71.66.06v-13.74c-7.76.54-17.12.88-26.42.94h-.5s0-.5,0-.5c0-1.78.13-3.48.37-4.97l-18.74-.02c.24,1.49.36,3.19.36,4.96v.5s-.5,0-.5,0c-9.24-.08-18.52-.43-26.2-.99v13.74Zm68.01-20.72l-64.29-.06.07-.56c1.39-11.69,1.41-30.3.04-42.37l-.06-.56h.56s62.96.06,62.96.06l-.12.6c-.83,4.06-.84,9.74-.01,13.81l.12.6-45.68-.04v3.16s44.1.04,44.1.04v7.16s-44.11-.04-44.11-.04v2.87c5.78.25,11.25.37,16.28.38h.35c10.51,0,20.86-.4,29.16-1.13l.67-.06-.13.66c-.76,3.72-.77,11.09-.01,14.89l.12.6Zm-63.16-1.06l61.95.05c-.63-3.8-.62-10.26,0-14.03-8.31.7-18.56,1.06-28.95,1.08-5.17,0-10.83-.14-16.8-.4l-.48-.02v-4.83s44.11.04,44.11.04v-5.16s-44.1-.04-44.1-.04v-5.16s45.46.04,45.46.04c-.71-3.97-.7-9.04.01-13.01l-61.18-.05c1.3,11.95,1.28,29.89-.03,41.49Z"/><path class="cls-1" d="m183.57,236.95l-22.06-.02.07-.56c.63-5.24.91-9.77.86-14.22l-43.81-.04.09-.58c.61-3.79.61-7.83.01-11.38l-.1-.58,64.96.06-.07.56c-1.15,9.06-1.16,17.14-.02,26.2l.07.56Zm-20.94-1.02l19.81.02c-1.05-8.73-1.04-16.59.02-25.32l-62.65-.05c.5,3.33.49,7.03-.01,10.54l43.63.04v.49c.08,4.49-.18,9.04-.79,14.29Zm20.97-27.61l-21.31-.02.07-.57c1.38-10.51,1.4-28.29.03-38.82l-.07-.57,21.31.02-.08.57c-1.55,10.65-1.57,28.06-.03,38.8l.08.57Zm-20.17-1.02l19.02.02c-1.44-10.66-1.43-27.36.03-37.95l-19.02-.02c1.28,10.47,1.26,27.49-.03,37.95Zm-27,.51h-.04c-7.29,0-13.33-1.79-17.46-5.15-4.2-3.42-6.42-8.44-6.42-14.54h0c.01-12.3,8.94-19.64,23.88-19.64h.04c14.96.01,23.89,7.37,23.88,19.69,0,6.09-2.23,11.12-6.44,14.53-4.13,3.35-10.16,5.12-17.43,5.12Zm-22.92-19.69c0,5.78,2.09,10.54,6.05,13.76,3.96,3.22,9.78,4.92,16.83,4.92h.04c7.04,0,12.85-1.69,16.8-4.9,3.97-3.21,6.07-7.97,6.07-13.75.01-11.69-8.54-18.67-22.88-18.69h-.04c-14.32,0-22.87,6.97-22.88,18.64h0Zm22.9,9.06h0c-2.19,0-3.96-.94-5.11-2.71-1.01-1.55-1.54-3.75-1.54-6.33,0-2.59.54-4.78,1.55-6.33,1.15-1.77,2.92-2.71,5.11-2.71h0c2.19,0,3.96.94,5.11,2.71,1.01,1.55,1.54,3.74,1.54,6.33,0,5.66-2.49,9.04-6.66,9.04Zm0-1h0c5.1,0,5.66-5.62,5.66-8.04,0-2.4-.47-4.4-1.38-5.79-.97-1.5-2.41-2.26-4.27-2.26h0c-1.86,0-3.3.76-4.27,2.25-.91,1.39-1.38,3.39-1.39,5.79,0,2.4.47,4.4,1.38,5.79.97,1.5,2.41,2.26,4.27,2.26h0Z"/><path class="cls-1" d="m255.79,237.01h-.59s-65.23-.06-65.23-.06l.09-.58c.99-6.37,1-18.42.02-24.78l-.09-.58,19.03.02-.1.58c-.37,2.13-.53,5.04-.67,7.68,6.33.34,12.68.52,18.41.53,11.25.05,22.19-.54,28.49-1.43l.67-.1-.11.67c-.92,5.55-.92,11.91-.02,17.46l.09.58Zm-64.66-1.06l63.49.05c-.8-5.29-.8-11.24,0-16.54-6.36.84-16.83,1.35-27.66,1.35h-.3c-5.9,0-12.45-.2-18.96-.56l-.5-.03.03-.5c.14-2.69.28-5.47.61-7.71h-16.69c.9,6.46.89,17.45-.02,23.92Zm63.9-21.96l-21.32-.02.07-.56c1.39-10.58,1.41-33.84.04-44.43l-.07-.57,21.31.02-.08.57c-.4,2.85-.72,6.85-.98,12.21h6.52s-.09.58-.09.58c-.61,4.11-.62,11.06-.01,15.17l.08.57h-6.61c.18,7.18.52,12.39,1.05,15.89l.09.58Zm-20.18-1.02l19.02.02c-.5-3.62-.82-8.85-.99-15.96v-.51s6.47,0,6.47,0c-.51-4.04-.51-10.27.01-14.32h-6.42s.02-.53.02-.53c.25-5.3.56-9.32.94-12.25l-19.03-.02c1.28,10.7,1.27,32.87-.04,43.56Zm-3.46-4.47l-45.86-.04.08-.57c1.19-8.88,1.16-28.85-.04-37.5l-.08-.57h18.62s-.01,12.41-.01,12.41h8.77s.01-12.38.01-12.38h18.62s-.08.58-.08.58c-1.22,8.65-1.28,28.62-.11,37.5l.07.57Zm-44.72-1.04l43.58.04c-1.08-9-1.03-27.84.1-36.64h-16.48s-.01,12.38-.01,12.38h-10.77s.01-12.4.01-12.4h-16.48c1.12,8.79,1.14,27.62.04,36.62Zm27.11-9.44h-10.61s-.08-10.4-.08-10.4h10.78s-.09,10.4-.09,10.4Zm-9.62-1.01h8.63s.08-8.38.08-8.38h-8.77s.06,8.38.06,8.38Z"/><path class="cls-1" d="m129.73,178.74c-.34,0-.61-.28-.61-.61v-9.69c0-.34.28-.61.61-.61h5.97c.48,0,.88-.39.88-.88v-5.97c0-.34.27-.61.61-.61h2.24c.34,0,.61.28.61.61v5.97c0,.34-.27.62-.61.62h-2.24c-.48,0-.88.39-.88.88v9.69c0,.34-.28.61-.62.61h-5.97,0Zm14.04-22.98c0,.34-.27.62-.61.62h-9.69c-.48,0-.88.39-.88.88v2.24c0,.34-.27.61-.61.61h-2.24c-.34,0-.61-.27-.61-.61v-2.24c0-.34.28-.61.61-.61h2.24c.48,0,.88-.39.88-.88v-5.97c0-.34.28-.61.62-.61h9.69c.34,0,.61.27.61.61v5.97Zm-7.19,22.37c0,.34.27.61.61.61h9.69c.34,0,.61-.28.61-.61v-5.97c0-.34-.28-.61-.61-.61h-9.69c-.34,0-.61.28-.61.61v5.97Zm4.34-10.57c-.34,0-.61-.28-.61-.61v-5.97c0-.34.28-.62.61-.62h2.24c.48,0,.88-.39.88-.88v-5.97c0-.34.28-.61.61-.61h2.24c.34,0,.61.27.61.61v5.97c0,.34-.27.61-.61.61h-2.24c-.48,0-.88.39-.88.88v5.97c0,.34-.27.61-.61.61h-2.24Z"/><path class="cls-1" d="m157.45,156.63c.34,0,.62.27.62.61v13.42c0,.48.39.88.88.88h5.97c.34,0,.61.28.61.61v5.97c0,.34-.28.62-.61.62h-5.97c-.34,0-.62-.28-.62-.62v-5.97c0-.48-.39-.88-.88-.88h-5.97c-.34,0-.61-.28-.61-.61v-13.42c0-.34.28-.61.61-.61h5.97Zm0,14.91h-2.24c-.34,0-.61.27-.61.61v5.97c0,.34.28.61.61.61h2.24c.34,0,.62-.27.62-.61v-5.97c0-.34-.28-.61-.62-.61Zm3.73-22.37h-5.97c-.34,0-.61.27-.61.61v5.97c0,.34.27.62.61.62h5.97c.34,0,.61-.28.61-.62v-5.97c0-.34-.27-.61-.61-.61Zm1.49,7.19h2.24c.48,0,.88.39.88.88v13.42c0,.34.28.61.61.61h2.24c.34,0,.61-.28.61-.61v-13.42c0-.34-.27-.61-.61-.61h-2.24c-.48,0-.88-.39-.88-.88v-5.97c0-.34-.28-.61-.61-.61h-2.24c-.34,0-.61.27-.61.61v5.97c0,.34.27.62.61.62Z"/><path class="cls-1" d="m129.73,91.05c-.34,0-.61-.28-.61-.62v-9.69c0-.34.28-.61.61-.61h5.97c.48,0,.88-.39.88-.88v-5.97c0-.34.27-.62.61-.62h2.24c.34,0,.61.28.61.62v5.97c0,.34-.27.61-.61.61h-2.24c-.48,0-.88.39-.88.88v9.69c0,.34-.28.62-.62.62h-5.97,0Zm14.04-22.98c0,.34-.27.61-.61.61h-9.69c-.48,0-.88.39-.88.88v2.24c0,.34-.27.61-.61.61h-2.24c-.34,0-.61-.28-.61-.61v-2.24c0-.34.28-.61.61-.61h2.24c.48,0,.88-.39.88-.88v-5.97c0-.34.28-.61.62-.61h9.69c.34,0,.61.27.61.61v5.97Zm-7.19,22.37c0,.34.27.62.61.62h9.69c.34,0,.61-.28.61-.62v-5.97c0-.34-.28-.61-.61-.61h-9.69c-.34,0-.61.28-.61.61v5.97Zm4.34-10.57c-.34,0-.61-.28-.61-.62v-5.97c0-.34.28-.61.61-.61h2.24c.48,0,.88-.39.88-.88v-5.97c0-.34.28-.61.61-.61h2.24c.34,0,.61.28.61.61v5.97c0,.34-.27.61-.61.61h-2.24c-.48,0-.88.39-.88.88v5.97c0,.34-.27.62-.61.62h-2.24Z"/><path class="cls-1" d="m157.45,68.94c.34,0,.62.27.62.61v13.42c0,.48.39.88.88.88h5.97c.34,0,.61.28.61.61v5.97c0,.34-.28.62-.61.62h-5.97c-.34,0-.62-.28-.62-.62v-5.97c0-.48-.39-.88-.88-.88h-5.97c-.34,0-.61-.28-.61-.61v-13.42c0-.34.28-.61.61-.61h5.97Zm0,14.91h-2.24c-.34,0-.61.28-.61.62v5.97c0,.34.28.61.61.61h2.24c.34,0,.62-.28.62-.61v-5.97c0-.34-.28-.62-.62-.62Zm3.73-22.37h-5.97c-.34,0-.61.27-.61.61v5.97c0,.34.27.61.61.61h5.97c.34,0,.61-.28.61-.61v-5.97c0-.34-.27-.61-.61-.61Zm1.49,7.19h2.24c.48,0,.88.39.88.88v13.42c0,.34.28.61.61.61h2.24c.34,0,.61-.28.61-.61v-13.42c0-.34-.27-.61-.61-.61h-2.24c-.48,0-.88-.39-.88-.88v-5.97c0-.34-.28-.61-.61-.61h-2.24c-.34,0-.61.28-.61.61v5.97c0,.34.27.61.61.61Z"/><path class="cls-1" d="m45.33,267.85h1.64c.25,0,.45.2.45.45v4.38c0,.25-.2.45-.45.45h-1.64c-.25,0-.45-.2-.45-.45v-4.38c0-.35-.29-.64-.64-.64h-1.64c-.25,0-.45-.2-.45-.45v-7.11c0-.25.2-.45.45-.45h9.85c.25,0,.45.2.45.45v4.37c0,.25-.2.45-.45.45h-7.11c-.35,0-.64.29-.64.64v1.64c0,.35.29.64.64.64Zm2.28,4.83c0,.25.2.45.45.45h1.64c.35,0,.64.29.64.64v1.64c0,.35-.29.64-.64.64h-7.11c-.25,0-.45.2-.45.45v4.38c0,.25.2.45.45.45h9.85c.25,0,.45-.2.45-.45v-7.11c0-.25-.2-.45-.45-.45h-1.64c-.35,0-.64-.29-.64-.64v-4.38c0-.25-.2-.45-.45-.45h-1.64c-.25,0-.45.2-.45.45v4.37Z"/><path class="cls-1" d="m55.37,272.68v-7.11c0-.25.2-.45.45-.45h1.64c.35,0,.64-.29.64-.64v-4.37c0-.25.2-.45.45-.45h1.64c.25,0,.45.2.45.45v4.37c0,.25-.2.45-.45.45h-1.64c-.35,0-.64.29-.64.64v7.11c0,.25-.2.45-.45.45h-1.64c-.25,0-.45-.2-.45-.45Zm0,8.2v-7.11c0-.25.2-.45.45-.45h1.64c.35,0,.64-.29.64-.64v-1.64c0-.25.2-.45.45-.45h1.64c.25,0,.45.2.45.45v1.64c0,.25-.2.45-.45.45h-1.64c-.35,0-.64.29-.64.64v7.11c0,.25-.2.45-.45.45h-1.64c-.25,0-.45-.2-.45-.45Zm5.47-16.41c0,.25.2.45.45.45h1.64c.35,0,.64.29.64.64v7.11c0,.25.2.45.45.45h4.38c.25,0,.45-.2.45-.45v-7.11c0-.25-.2-.45-.45-.45h-4.38c-.35,0-.64-.29-.64-.64v-4.38c0-.25-.2-.45-.45-.45h-1.64c-.25,0-.45.2-.45.45v4.38h0Zm7.56,8.85c.25,0,.45.2.45.45v7.11c0,.25-.2.45-.45.45h-4.38c-.25,0-.45-.2-.45-.45v-7.11c0-.35-.29-.64-.64-.64h-1.64c-.25,0-.45-.2-.45-.45v-1.64c0-.25.2-.45.45-.45h1.64c.25,0,.45.2.45.45v1.64c0,.35.29.64.64.64h4.38,0Z"/><path class="cls-1" d="m71.77,281.33c-.25,0-.45-.2-.45-.45v-20.78c0-.25.2-.45.45-.45h4.38c.25,0,.45.2.45.45v1.64c0,.35.29.64.64.64h1.64c.25,0,.45.2.45.45v9.84c0,.25-.2.45-.45.45h-1.64c-.25,0-.45-.2-.45-.45v-9.84c0-.35-.29-.64-.64-.64h-1.64c-.35,0-.64.29-.64.64v18.05c0,.25-.2.45-.45.45h-1.64,0Zm8.2-8.2h1.64c.25,0,.45-.2.45-.45v-9.85c0-.35.29-.64.64-.64h1.64c.36,0,.64.29.64.64v18.05c0,.25.2.45.45.45h4.38c.25,0,.45-.2.45-.45v-20.78c0-.25-.2-.45-.45-.45h-7.11c-.25,0-.45.2-.45.45v1.64c0,.35-.29.64-.64.64h-1.64c-.25,0-.45.2-.45.45v9.84c0,.25.2.45.45.45Z"/><path class="cls-1" d="m92.75,275.41v-4.37c0-.25.2-.45.45-.45h4.38c.25,0,.45.2.45.45v4.37c0,.35.29.64.64.64h1.64c.35,0,.64-.29.64-.64v-15.31c0-.25.2-.45.45-.45h1.64c.25,0,.45.2.45.45v18.05c0,.25-.2.45-.45.45h-4.38c-.25,0-.45-.2-.45-.45v-1.64c0-.35-.29-.64-.64-.64h-4.38c-.25,0-.45-.2-.45-.45h0Zm10.3,3.38h-1.64c-.25,0-.45.2-.45.45v1.64c0,.25.2.45.45.45h1.64c.25,0,.45-.2.45-.45v-1.64c0-.35.29-.64.64-.64h1.64c.25,0,.45-.2.45-.45v-18.05c0-.25-.2-.45-.45-.45h-1.64c-.25,0-.45.2-.45.45v18.05c0,.35-.29.64-.64.64h0Z"/><path class="cls-1" d="m109.16,281.33c-.25,0-.45-.2-.45-.45v-15.31c0-.25.2-.45.45-.45h4.38c.25,0,.45.2.45.45v15.31c0,.25-.2.45-.45.45h-4.38,0Zm0-16.41c-.25,0-.45-.2-.45-.45v-4.37c0-.25.2-.45.45-.45h1.64c.25,0,.45.2.45.45v4.37c0,.25-.2.45-.45.45h-1.64Z"/><path class="cls-1" d="m116.45,280.88v-15.31c0-.25.2-.45.45-.45h1.64c.35,0,.64-.29.64-.64v-4.37c0-.25.2-.45.45-.45h4.38c.25,0,.45.2.45.45v4.37c0,.25-.2.45-.45.45h-4.38c-.35,0-.64.29-.64.64v15.31c0,.25-.2.45-.45.45h-1.64c-.25,0-.45-.2-.45-.45Zm2.73-15.31c0-.25.2-.45.45-.45h4.38c.26,0,.46.2.46.45v4.38c0,.35.29.64.64.64h1.63c.25,0,.45.2.45.45v4.38c0,.25-.2.45-.45.45h-1.63c-.25,0-.45-.2-.45-.45v-4.38c0-.35-.29-.64-.64-.64h-4.39c-.25,0-.45-.2-.45-.45v-4.38h0Zm7.56,10.49h-1.64c-.25,0-.45.2-.45.45v4.37c0,.25.2.45.45.45h1.64c.25,0,.45-.2.45-.45v-4.37c0-.35.29-.64.64-.64h1.64c.25,0,.45-.2.45-.45v-15.31c0-.25-.2-.45-.45-.45h-1.64c-.25,0-.45.2-.45.45v15.31c0,.35-.29.64-.64.64Z"/><path class="cls-1" d="m140.14,278.15v-12.58c0-.25.2-.45.45-.45h1.64c.35,0,.64-.29.64-.64v-4.37c0-.25.2-.45.45-.45h1.64c.25,0,.45.2.45.45v4.37c0,.25-.2.45-.45.45h-1.64c-.35,0-.64.29-.64.64v12.58c0,.25-.2.45-.45.45h-1.64c-.25,0-.45-.2-.45-.45h0Zm3.18,3.19h4.38c.25,0,.45-.2.45-.45v-1.64c0-.35.29-.64.64-.64h4.38c.25,0,.45-.2.45-.45v-4.37c0-.25-.2-.45-.45-.45h-4.38c-.25,0-.45.2-.45.45v4.37c0,.35-.29.64-.64.64h-4.38c-.25,0-.45.2-.45.45v1.64c0,.25.2.45.45.45Zm2.73-16.41h1.64c.35,0,.64.29.64.64v4.37c0,.25.2.45.45.45h4.38c.25,0,.45-.2.45-.45v-4.37c0-.25-.2-.45-.45-.45h-4.38c-.35,0-.64-.29-.64-.64v-4.38c0-.25-.2-.45-.45-.45h-1.64c-.25,0-.45.2-.45.45v4.38c0,.25.2.45.45.45Z"/><path class="cls-1" d="m156.1,275.41v-9.85c0-.25.2-.45.45-.45h1.64c.35,0,.64-.29.64-.64v-4.38c0-.25.2-.45.45-.45h1.64c.25,0,.45.2.45.45v4.38c0,.25-.2.45-.45.45h-1.64c-.35,0-.64.29-.64.64v9.85c0,.35.29.64.64.64h1.64c.25,0,.45.2.45.45v4.37c0,.25-.2.45-.45.45h-1.64c-.25,0-.45-.2-.45-.45v-4.37c0-.35-.29-.64-.64-.64h-1.64c-.25,0-.45-.2-.45-.45Zm5.92-10.49h1.64c.35,0,.64.29.64.64v9.84c0,.35-.29.64-.64.64h-1.64c-.25,0-.45.2-.45.45v4.38c0,.25.2.45.45.45h1.64c.25,0,.45-.2.45-.45v-4.38c0-.35.29-.64.64-.64h4.38c.25,0,.45-.2.45-.45v-9.84c0-.25-.2-.45-.45-.45h-4.38c-.35,0-.64-.29-.64-.64v-4.37c0-.25-.2-.45-.45-.45h-1.64c-.25,0-.45.2-.45.45v4.37c0,.25.2.45.45.45Z"/><path class="cls-1" d="m172.5,281.33c-.25,0-.45-.2-.45-.45v-20.78c0-.25.2-.45.45-.45h4.37c.25,0,.45.2.45.45v1.64c0,.35.29.64.64.64h1.64c.25,0,.45.2.45.45v9.84c0,.25-.2.45-.45.45h-1.64c-.25,0-.45-.2-.45-.45v-9.84c0-.35-.29-.64-.64-.64h-1.64c-.35,0-.64.29-.64.64v18.05c0,.25-.2.45-.45.45h-1.64,0Zm8.2-8.2h1.64c.25,0,.45-.2.45-.45v-9.85c0-.35.29-.64.64-.64h1.64c.35,0,.64.29.64.64v18.05c0,.25.2.45.45.45h4.38c.25,0,.45-.2.45-.45v-20.78c0-.25-.2-.45-.45-.45h-7.11c-.25,0-.45.2-.45.45v1.64c0,.35-.29.64-.64.64h-1.64c-.25,0-.45.2-.45.45v9.84c0,.25.2.45.45.45Z"/><path class="cls-1" d="m206.96,265.57v7.11c0,.25-.2.45-.45.45h-4.38c-.25,0-.45-.2-.45-.45v-7.11c0-.35-.29-.64-.64-.64h-4.37c-.35,0-.64.29-.64.64v9.84c0,.25-.2.45-.45.45h-1.64c-.25,0-.45-.2-.45-.45v-9.84c0-.25.2-.45.45-.45h1.64c.35,0,.64-.29.64-.64v-4.38c0-.25.2-.45.45-.45h4.38c.25,0,.45.2.45.45v4.38c0,.35.29.64.64.64h4.38c.25,0,.45.2.45.45h0Zm-5.47,5.47c0-.25-.2-.45-.45-.45h-4.38c-.25,0-.45.2-.45.45v4.37c0,.35-.29.64-.64.64h-1.64c-.25,0-.45.2-.45.45v4.38c0,.25.2.45.45.45h1.64c.25,0,.45-.2.45-.45v-4.38c0-.35.29-.64.64-.64h4.37c.25,0,.45-.2.45-.45v-4.37Z"/><path class="cls-1" d="m209.43,272.68v-7.11c0-.25.2-.45.45-.45h1.64c.35,0,.64-.29.64-.64v-4.37c0-.25.2-.45.45-.45h1.64c.25,0,.45.2.45.45v4.37c0,.25-.2.45-.45.45h-1.64c-.35,0-.64.29-.64.64v7.11c0,.25-.2.45-.45.45h-1.64c-.25,0-.45-.2-.45-.45Zm0,8.2v-7.11c0-.25.2-.45.45-.45h1.64c.35,0,.64-.29.64-.64v-1.64c0-.25.2-.45.45-.45h1.64c.25,0,.45.2.45.45v1.64c0,.25-.2.45-.45.45h-1.64c-.35,0-.64.29-.64.64v7.11c0,.25-.2.45-.45.45h-1.64c-.25,0-.45-.2-.45-.45Zm13.48-7.11v7.11c0,.25-.2.45-.45.45h-4.38c-.25,0-.45-.2-.45-.45v-7.11c0-.35-.29-.64-.64-.64h-1.64c-.25,0-.45-.2-.45-.45v-1.64c0-.25.2-.45.45-.45h1.64c.25,0,.45.2.45.45v1.64c0,.35.29.64.64.64h4.38c.25,0,.45.2.45.45Zm-8.01-9.3c0,.25.2.45.45.45h1.64c.35,0,.64.29.64.64v7.11c0,.25.2.45.45.45h4.38c.25,0,.45-.2.45-.45v-7.11c0-.25-.2-.45-.45-.45h-4.38c-.35,0-.64-.29-.64-.64v-4.38c0-.25-.2-.45-.45-.45h-1.64c-.25,0-.45.2-.45.45v4.38h0Z"/><path class="cls-1" d="m225.38,280.88v-15.31c0-.25.2-.45.45-.45h1.64c.35,0,.64-.29.64-.64v-4.37c0-.25.2-.45.45-.45h4.38c.25,0,.45.2.45.45v4.37c0,.25-.2.45-.45.45h-4.38c-.35,0-.64.29-.64.64v15.31c0,.25-.2.45-.45.45h-1.64c-.25,0-.45-.2-.45-.45Zm2.73-15.31c0-.25.2-.45.45-.45h4.38c.26,0,.46.2.46.45v4.38c0,.35.29.64.64.64h1.63c.25,0,.45.2.45.45v4.38c0,.25-.2.45-.45.45h-1.63c-.25,0-.45-.2-.45-.45v-4.38c0-.35-.29-.64-.64-.64h-4.39c-.25,0-.45-.2-.45-.45v-4.38h0Zm7.56,10.49h-1.64c-.25,0-.45.2-.45.45v4.37c0,.25.2.45.45.45h1.64c.25,0,.45-.2.45-.45v-4.37c0-.35.29-.64.64-.64h1.64c.25,0,.45-.2.45-.45v-15.31c0-.25-.2-.45-.45-.45h-1.64c-.25,0-.45.2-.45.45v15.31c0,.35-.29.64-.64.64Z"/><path class="cls-1" d="m247.26,270.58h1.64c.25,0,.45.2.45.45v9.86c0,.25-.2.45-.45.45h-1.64c-.25,0-.45-.2-.45-.45v-9.86c0-.35-.29-.64-.64-.64h-4.38c-.25,0-.45-.2-.45-.45v-9.83c0-.25.2-.45.45-.45h4.38c.25,0,.45.2.45.45v9.83c0,.35.29.64.64.64Zm2.74,10.76h1.64c.25,0,.45-.2.45-.45v-9.86c0-.35.29-.64.64-.64h1.64c.25,0,.45-.2.45-.45v-9.83c0-.25-.2-.45-.45-.45h-1.64c-.25,0-.45.2-.45.45v9.83c0,.35-.29.64-.64.64h-1.64c-.25,0-.45.2-.45.45v9.86c0,.25.2.45.45.45h0Z"/><path class="cls-1" d="m55.59,307.15v-7.11c0-.25.2-.45.45-.45h4.38c.35,0,.64-.29.64-.64v-4.37c0-.25.2-.45.45-.45h1.64c.25,0,.45.2.45.45v4.37c0,.25-.2.45-.45.45h-1.64c-.35,0-.64.29-.64.64v1.64c0,.35.29.64.64.64h4.38c.25,0,.45.2.45.45v4.37c0,.25-.2.45-.45.45h-9.85c-.25,0-.45-.2-.45-.45Zm4.83-7.75c.25,0,.45-.2.45-.45v-4.38c-.02-.18-.17-.45-.45-.45h-1.64c-.35,0-.64-.29-.64-.64v-1.64c0-.35.29-.64.64-.64h7.11c.25,0,.45-.2.45-.45v-4.38c0-.25-.2-.45-.45-.45h-9.85c-.25,0-.45.2-.45.45v7.11c0,.25.2.45.45.45h1.64c.35,0,.64.29.64.64v4.38c0,.25.2.45.45.45h1.64Z"/><path class="cls-1" d="m68.81,307.15v-15.31c0-.25.2-.45.45-.45h1.64c.35,0,.64-.29.64-.64v-4.37c0-.25.2-.45.45-.45h4.38c.25,0,.45.2.45.45v4.37c0,.25-.2.45-.45.45h-4.38c-.35,0-.64.29-.64.64v15.31c0,.25-.2.45-.45.45h-1.64c-.25,0-.45-.2-.45-.45Zm2.73-15.31c0-.25.2-.45.45-.45h4.38c.26,0,.46.2.46.45v4.38c0,.35.29.64.64.64h1.63c.25,0,.45.2.45.45v4.38c0,.25-.2.45-.45.45h-1.63c-.25,0-.45-.2-.45-.45v-4.38c0-.35-.29-.64-.64-.64h-4.39c-.25,0-.45-.2-.45-.45v-4.38h0Zm7.56,10.49h-1.64c-.25,0-.45.2-.45.45v4.37c0,.25.2.45.45.45h1.64c.25,0,.45-.2.45-.45v-4.37c0-.35.29-.64.64-.64h1.64c.25,0,.45-.2.45-.45v-15.31c0-.25-.2-.45-.45-.45h-1.64c-.25,0-.45.2-.45.45v15.31c0,.35-.29.64-.64.64Z"/><path class="cls-1" d="m87.95,307.6c-.25,0-.45-.2-.45-.45v-4.37c0-.35-.29-.64-.64-.64h-1.64c-.25,0-.45-.2-.45-.45v-9.85c0-.25.2-.45.45-.45h1.64c.25,0,.45.2.45.45v9.85c0,.35.29.64.64.64h7.11c.25,0,.45.2.45.45v4.37c0,.25-.2.45-.45.45h-7.11Zm-.45-5.92v-9.85c0-.25.2-.45.45-.45h1.64c.35,0,.64-.29.64-.64v-4.37c0-.25.2-.45.45-.45h7.11c.25,0,.45.2.45.45v4.37c0,.25-.2.45-.45.45h-7.11c-.35,0-.64.29-.64.64v9.85c0,.25-.2.45-.45.45h-1.64c-.25,0-.45-.2-.45-.45Zm5.47,0v-4.37c0-.25.2-.45.45-.45h4.38c.25,0,.45.2.45.45v4.37c0,.25-.2.45-.45.45h-4.38c-.25,0-.45-.2-.45-.45Z"/><path class="cls-1" d="m101.16,307.6c-.25,0-.45-.2-.45-.45v-20.78c0-.25.2-.45.45-.45h1.64c.25,0,.45.2.45.45v18.05c0,.35.29.64.64.64h4.38c.35,0,.64-.29.64-.64v-4.37c0-.25.2-.45.45-.45h4.38c.25,0,.45.2.45.45v4.37c0,.25-.2.45-.45.45h-4.38c-.35,0-.64.29-.64.64v1.64c0,.25-.2.45-.45.45h-7.11Zm2.28-3.19c0,.25.2.45.45.45h4.38c.25,0,.45-.2.45-.45v-1.64c0-.25-.2-.45-.45-.45h-1.64c-.35,0-.64-.29-.64-.64v-15.31c0-.25-.2-.45-.45-.45h-1.64c-.25,0-.45.2-.45.45v18.05Z"/><path class="cls-1" d="m117.12,307.6c-.25,0-.45-.2-.45-.45v-15.31c0-.25.2-.45.45-.45h4.38c.25,0,.45.2.45.45v15.31c0,.25-.2.45-.45.45h-4.38,0Zm0-16.41c-.25,0-.45-.2-.45-.45v-4.37c0-.25.2-.45.45-.45h1.64c.25,0,.45.2.45.45v4.37c0,.25-.2.45-.45.45h-1.64Z"/><path class="cls-1" d="m134.7,302.32c.25,0,.45.2.45.45v4.38c0,.25-.2.45-.45.45h-7.11c-.25,0-.45-.2-.45-.45v-4.38c0-.35-.29-.64-.64-.64h-1.64c-.25,0-.45-.2-.45-.45v-1.64c0-.25.2-.45.45-.45h1.64c.25,0,.45.2.45.45v1.64c0,.35.29.64.64.64h7.11,0Zm-7.75-8.85c0,.35.29.64.64.64h4.38c.25,0,.45.2.45.45v1.64c0,.25-.2.45-.45.45h-4.38c-.25,0-.45-.2-.45-.45v-1.64c0-.35-.29-.64-.64-.64h-1.64c-.25,0-.45-.2-.45-.45v-4.38c0-.25.2-.45.45-.45h1.64c.25,0,.45.2.45.45v4.38h0Zm.19-7.11c0-.25.2-.45.45-.45h7.11c.25,0,.45.2.45.45v4.38c0,.35.29.64.64.64h1.64c.25,0,.45.2.45.45v1.64c0,.25-.2.45-.45.45h-1.64c-.25,0-.45-.2-.45-.45v-1.64c0-.35-.29-.64-.64-.64h-7.11c-.25,0-.45-.2-.45-.45v-4.37h0Zm3.18,10.49c-.25,0-.45.2-.45.45v1.64c0,.25.2.45.45.45h4.38c.35,0,.64.29.64.64v4.37c0,.25.2.45.45.45h1.64c.25,0,.45-.2.45-.45v-4.37c0-.25-.2-.45-.45-.45h-1.64c-.35,0-.64-.29-.64-.64v-1.64c0-.25-.2-.45-.45-.45h-4.38Z"/><path class="cls-1" d="m140.81,293.93c-.25,0-.45-.2-.45-.45v-7.11c0-.25.2-.45.45-.45h1.64c.25,0,.45.2.45.45v7.11c0,.35.29.64.64.64h1.64c.25,0,.45.2.45.45v4.38c0,.25-.2.45-.45.45h-1.64c-.25,0-.45-.2-.45-.45v-4.38c0-.35-.29-.64-.64-.64h-1.64,0Zm0,13.67h1.64c.25,0,.45-.2.45-.45v-12.58c0-.25-.2-.45-.45-.45h-1.64c-.25,0-.45.2-.45.45v12.58c0,.25.2.45.45.45Zm5.47-8.2c-.25,0-.45-.2-.45-.45v-4.37c0-.25.2-.45.45-.45h1.64c.35,0,.64-.29.64-.64v-7.11c0-.25.2-.45.45-.45h4.37c.25,0,.45.2.45.45v7.11c0,.25-.2.45-.45.45h-4.37c-.35,0-.64.29-.64.64v4.37c0,.25-.2.45-.45.45h-1.64Zm7.56-4.83v12.58c0,.25-.2.45-.45.45h-4.38c-.25,0-.45-.2-.45-.45v-12.58c0-.25.2-.45.45-.45h4.38c.25,0,.45.2.45.45Z"/><path class="cls-1" d="m164.06,304.41v-12.58c0-.25.2-.45.45-.45h1.64c.35,0,.64-.29.64-.64v-4.37c0-.25.2-.45.45-.45h1.64c.25,0,.45.2.45.45v4.37c0,.25-.2.45-.45.45h-1.64c-.35,0-.64.29-.64.64v12.58c0,.25-.2.45-.45.45h-1.64c-.25,0-.45-.2-.45-.45h0Zm3.18,3.19h4.38c.25,0,.45-.2.45-.45v-1.64c0-.35.29-.64.64-.64h4.38c.25,0,.45-.2.45-.45v-4.37c0-.25-.2-.45-.45-.45h-4.38c-.25,0-.45.2-.45.45v4.37c0,.35-.29.64-.64.64h-4.38c-.25,0-.45.2-.45.45v1.64c0,.25.2.45.45.45Zm2.73-16.41h1.64c.35,0,.64.29.64.64v4.37c0,.25.2.45.45.45h4.38c.25,0,.45-.2.45-.45v-4.37c0-.25-.2-.45-.45-.45h-4.38c-.35,0-.64-.29-.64-.64v-4.38c0-.25-.2-.45-.45-.45h-1.64c-.25,0-.45.2-.45.45v4.38c0,.25.2.45.45.45Z"/><path class="cls-1" d="m180.01,307.15v-20.78c0-.25.2-.45.45-.45h1.64c.25,0,.45.2.45.45v18.05c0,.35.29.64.64.64h4.37c.35,0,.64-.29.64-.64v-4.37c0-.25.2-.45.45-.45h4.38c.25,0,.45.2.45.45v4.37c0,.25-.2.45-.45.45h-4.38c-.35,0-.64.29-.64.64v1.64c0,.25-.2.45-.45.45h-7.11c-.25,0-.45-.2-.45-.45Zm2.73-2.74c0,.25.2.45.45.45h4.38c.25,0,.45-.2.45-.45v-1.64c0-.25-.2-.45-.45-.45h-1.64c-.35,0-.64-.29-.64-.64v-15.31c0-.25-.2-.45-.45-.45h-1.64c-.25,0-.45.2-.45.45v18.05Z"/><path class="cls-1" d="m195.96,298.94v-7.11c0-.25.2-.45.45-.45h1.64c.35,0,.64-.29.64-.64v-4.37c0-.25.2-.45.45-.45h1.64c.25,0,.45.2.45.45v4.37c0,.25-.2.45-.45.45h-1.64c-.35,0-.64.29-.64.64v7.11c0,.25-.2.45-.45.45h-1.64c-.25,0-.45-.2-.45-.45Zm0,8.2v-7.11c0-.25.2-.45.45-.45h1.64c.35,0,.64-.29.64-.64v-1.64c0-.25.2-.45.45-.45h1.64c.25,0,.45.2.45.45v1.64c0,.25-.2.45-.45.45h-1.64c-.35,0-.64.29-.64.64v7.11c0,.25-.2.45-.45.45h-1.64c-.25,0-.45-.2-.45-.45Zm13.48-7.11v7.11c0,.25-.2.45-.45.45h-4.38c-.25,0-.45-.2-.45-.45v-7.11c0-.35-.29-.64-.64-.64h-1.64c-.25,0-.45-.2-.45-.45v-1.64c0-.25.2-.45.45-.45h1.64c.25,0,.45.2.45.45v1.64c0,.35.29.64.64.64h4.38c.25,0,.45.2.45.45Zm-8.01-9.3c0,.25.2.45.45.45h1.64c.35,0,.64.29.64.64v7.11c0,.25.2.45.45.45h4.38c.25,0,.45-.2.45-.45v-7.11c0-.25-.2-.45-.45-.45h-4.38c-.35,0-.64-.29-.64-.64v-4.38c0-.25-.2-.45-.45-.45h-1.64c-.25,0-.45.2-.45.45v4.38h0Z"/><path class="cls-1" d="m222.21,302.32c.25,0,.45.2.45.45v4.38c0,.25-.2.45-.45.45h-7.11c-.25,0-.45-.2-.45-.45v-4.38c0-.35-.29-.64-.64-.64h-1.64c-.25,0-.45-.2-.45-.45v-1.64c0-.25.2-.45.45-.45h1.64c.25,0,.45.2.45.45v1.64c0,.35.29.64.64.64h7.11,0Zm-7.75-8.85c0,.35.29.64.64.64h4.37c.25,0,.45.2.45.45v1.64c0,.25-.2.45-.45.45h-4.37c-.25,0-.45-.2-.45-.45v-1.64c0-.35-.29-.64-.64-.64h-1.64c-.25,0-.45-.2-.45-.45v-4.38c0-.25.2-.45.45-.45h1.64c.25,0,.45.2.45.45v4.38h0Zm.19-7.11c0-.25.2-.45.45-.45h7.11c.25,0,.45.2.45.45v4.38c0,.35.29.64.64.64h1.64c.25,0,.45.2.45.45v1.64c0,.25-.2.45-.45.45h-1.64c-.25,0-.45-.2-.45-.45v-1.64c0-.35-.29-.64-.64-.64h-7.11c-.25,0-.45-.2-.45-.45v-4.37h0Zm3.18,10.49c-.25,0-.45.2-.45.45v1.64c0,.25.2.45.45.45h4.38c.35,0,.64.29.64.64v4.37c0,.25.2.45.45.45h1.64c.25,0,.45-.2.45-.45v-4.37c0-.25-.2-.45-.45-.45h-1.64c-.35,0-.64-.29-.64-.64v-1.64c0-.25-.2-.45-.45-.45h-4.38Z"/><path class="cls-1" d="m238.16,302.32c.25,0,.45.2.45.45v4.38c0,.25-.2.45-.45.45h-7.11c-.25,0-.45-.2-.45-.45v-4.38c0-.35-.29-.64-.64-.64h-1.64c-.25,0-.45-.2-.45-.45v-1.64c0-.25.2-.45.45-.45h1.64c.25,0,.45.2.45.45v1.64c0,.35.29.64.64.64h7.11,0Zm-7.75-8.85c0,.35.29.64.64.64h4.37c.25,0,.45.2.45.45v1.64c0,.25-.2.45-.45.45h-4.37c-.25,0-.45-.2-.45-.45v-1.64c0-.35-.29-.64-.64-.64h-1.64c-.25,0-.45-.2-.45-.45v-4.38c0-.25.2-.45.45-.45h1.64c.25,0,.45.2.45.45v4.38h0Zm.19-7.11c0-.25.2-.45.45-.45h7.11c.25,0,.45.2.45.45v4.38c0,.35.29.64.64.64h1.64c.25,0,.45.2.45.45v1.64c0,.25-.2.45-.45.45h-1.64c-.25,0-.45-.2-.45-.45v-1.64c0-.35-.29-.64-.64-.64h-7.11c-.25,0-.45-.2-.45-.45v-4.37h0Zm3.18,10.49c-.25,0-.45.2-.45.45v1.64c0,.25.2.45.45.45h4.38c.35,0,.64.29.64.64v4.37c0,.25.2.45.45.45h1.64c.25,0,.45-.2.45-.45v-4.37c0-.25-.2-.45-.45-.45h-1.64c-.35,0-.64-.29-.64-.64v-1.64c0-.25-.2-.45-.45-.45h-4.38Z"/></svg>