<?xml version="1.0" encoding="UTF-8"?><svg id="_레이어_1" xmlns="http://www.w3.org/2000/svg" viewBox="0 0 300 315"><defs><style>.cls-1{fill:#0086cf;stroke-width:0px;}</style></defs><path class="cls-1" d="m103.29,14.69c6.46-.05,9.67-1.62,9.68-5.02h-9.54s0-3.8,0-3.8h14.13s0,2.61,0,2.61c0,8.25-6.85,9.95-14.27,10v-3.79Zm1.21,14.78v-10.09s20.78.02,20.78.02v10.09s-4.96,0-4.96,0v-.7s-15.82.69-15.82.69Zm4.96-3.78l10.87-.41v-2.33s-10.86,0-10.86,0v2.75Zm10.9-7.05V5.48s4.94,0,4.94,0v4.18s2.93,0,2.93,0v4.12s-2.93,0-2.93,0v4.88s-4.93,0-4.93,0Z"/><path class="cls-1" d="m127.45,23.12c2.78-1.81,5.58-4.64,5.59-11.98v-5.11s4.93,0,4.93,0v5.11c-.01,7.34,2.76,10.17,5.56,11.99v5.52c-3.32-1.66-6.38-4.13-8.04-7.74-1.69,3.6-4.73,6.06-8.05,7.72v-5.52Zm18.02,6.4l.02-24.02h5.03s-.02,24.02-.02,24.02h-5.03Z"/><path class="cls-1" d="m152.27,23.58c2.46-1.09,5.4-3.91,5.48-11.25v-1.66s-5.11,0-5.11,0v-4.3s14.86.01,14.86.01v4.3s-5.09,0-5.09,0v1.66c.04,7.34,2.97,10.17,5.44,11.26v5.08c-3.12-.99-6.12-3.25-7.8-7.09-1.66,3.84-4.67,6.09-7.79,7.07v-5.08Zm17.35,5.95l.02-24.02h4.93s0,8.93,0,8.93h2.88s0,4.44,0,4.44h-2.88s0,10.66,0,10.66h-4.93Z"/><path class="cls-1" d="m178.05,17.9v-3.48s23.78.02,23.78.02v3.48s-23.78-.02-23.78-.02Zm1.05,11.64v-6.51s16.78.01,16.78.01v-1.04s-16.78-.02-16.78-.02v-2.65s21.63.02,21.63.02v6.22s-16.81-.01-16.81-.01v1.12s17.19.01,17.19.01v2.85s-22.02-.02-22.02-.02Zm.01-16.42v-7.55s21.64.02,21.64.02v3.01s-16.7-.01-16.7-.01v1.45s16.83.01,16.83.01v3.09s-21.76-.02-21.76-.02Z"/><path class="cls-1" d="m4.69,71.56c0-23.95,20.5-34.97,47.38-34.97,28.51,0,44.36,10.68,47.38,29.03l-36.61,5.94c0-5.26-4.91-7.41-10.77-7.41-6.2,0-10.77,2.41-10.77,7.24s4.57,7.41,10.77,7.41,10.77-2.5,10.77-7.24l36.61,3.7c-2.5,16.97-16.71,31.1-47.38,31.1S4.69,91.89,4.69,71.56Z"/><path class="cls-1" d="m101.34,77.16c0-19.55,17.31-29.37,38.76-29.37s38.76,9.82,38.76,29.37-17.23,29.2-38.76,29.2-38.76-9.3-38.76-29.2Zm38.85,6.37c7.15,0,9.82-3.36,9.82-6.55,0-2.93-2.5-6.37-9.82-6.37s-9.99,3.36-9.99,6.46,2.67,6.46,9.99,6.46Z"/><path class="cls-1" d="m181.45,62.69v-23.52h29.81v64.61h-29.81v-41.09Z"/><path class="cls-1" d="m264.15,76.13c0-4.31-5.08-6.37-10.25-6.37-6.72,0-9.91,3.19-9.91,6.37,0,3.62,3.19,6.55,9.91,6.55,4.82,0,8.96-1.64,10.17-5.51l-6.89,26.62c-3.7.95-6.63,1.29-11.03,1.29-17.66,0-32.3-10.25-32.3-27.91,0-19.04,16.37-28.08,32.39-28.08,6.63,0,14.13,1.29,17.75,5.08.09.09.17,0,.17-.09v-14.9h29.81v64.61h-29.81v-27.65Z"/><path class="cls-1" d="m40.44,136.85v4.74q0,.17.09.17h36.18v12.15h-36.18q-.09,0-.09.17v4.82h38.07v20.85H5.56v-64.61h72.45v21.71h-37.56Z"/><path class="cls-1" d="m113.15,179.75h-16.11l-17.06-53.41h31.61l6.12,36.87.09.52.09-.43c2.15-12.32,4.22-24.64,6.38-36.95h29.98l-20.85,63.74h-29.2l8.96-10.34Z"/><path class="cls-1" d="m203.59,154.17l26.62,8.7c-3.19,10.94-17.49,19.47-36.44,19.47-21.54,0-38.76-9.73-38.76-29.29s17.31-29.29,38.76-29.29,37.21,9.48,37.21,30.41h-46.95q-.09,0-.09.09c.09,3.53,3.62,6.03,9.99,6.03s9.48-2.33,9.65-6.12Zm-19.47-2.67h19.21c.09,0,.09-.09.09-.17,0-3.62-4.05-5.77-9.65-5.77s-9.73,2.15-9.73,5.77q0,.17.09.17Z"/><path class="cls-1" d="m266.65,123.93c10.85,0,20.33,2.15,27.91,5.34v19.98c-4.91-3.62-15.16-5.77-22.83-5.77-5.25,0-9.3.95-9.3,2.76,0,1.03,1.12,1.21,3.53,1.21h6.98c11.54,0,24.46,2.24,24.46,15.51,0,14.04-17.06,19.21-34.63,19.21-10.51,0-21.28-1.98-28.51-5.77v-21.02c4.22,4.74,15.42,6.8,23.69,6.8,5.34,0,9.48-.86,9.48-2.93,0-.78-.69-.95-2.58-.95h-5.17c-10.16,0-27.14-.69-27.14-14.9,0-13.01,16.37-19.47,34.11-19.47Z"/><path class="cls-1" d="m178.83,298.08c.94,0,1.86-.34,1.86-.9s-.29-.66-1.79-.66v-.3c1.46,0,1.7-.21,1.7-.69,0-.51-.86-.83-1.76-.83-1.12,0-2.3.5-2.03,1.78-.26,1.14.91,1.6,2.03,1.6Z"/><path class="cls-1" d="m151.84,295.34c-1.49,0-2.06.66-2.06,1.31s.46,1.28,1.97,1.28,2.03-.69,2.03-1.26c0-.66-.48-1.33-1.94-1.33Z"/><path class="cls-1" d="m136.4,295.64c0-.77-.85-1.14-1.71-1.14s-1.81.4-1.81,1.14c0,.56.43,1.17,1.68,1.55,1.07-.42,1.84-.93,1.84-1.55Z"/><path class="cls-1" d="m119.21,283.19v27.71h75.31v-27.71h-75.31Zm23.29,19.45h-15.72v-3.78c1.04-.11,2.71-.35,4.31-.69,1.15-.26,2.43-.58,3.46-.98l-7.99-1.36c-.43-3.78,4.02-5.68,8.32-5.68,3.87,0,7.6,1.41,7.6,4.18,0,2.1-1.95,3.33-6.42,3.76h6.43v4.55Zm9.28.48c-5.88,0-8.8-2.69-8.8-6.47,0-3.41,2.45-6.5,8.8-6.5s8.8,3.09,8.8,6.5c0,3.78-2.93,6.47-8.8,6.47Zm17.55-9.22v8.74h-6.64v-6.85s0-.02-.02-.02h-1.87l2.27-5.14h6.26v3.27Zm9.6,9.22c-4.71,0-9.54-1.87-8.77-5.91l6.64-.74-6.8-1.09c-.03-3.67,4.5-5.23,8.85-5.23,4.05,0,7.96,1.33,7.96,3.57,0,1.15-.99,2.13-2.72,2.34t0,.03c2.13.27,3.04,1.36,3.04,2.83,0,2.74-4.05,4.19-8.2,4.19Z"/></svg>