<?xml version="1.0" encoding="UTF-8"?><svg id="_레이어_1" xmlns="http://www.w3.org/2000/svg" viewBox="0 0 300 315"><defs><style>.cls-1{fill:#0086cf;stroke-width:0px;}</style></defs><path class="cls-1" d="m92.05,203.1c0,13.18-9.33,19.76-18.08,19.76H26.17c-12.94,0-21.17-11.29-21.17-21.65,0-14.14,9.7-22.61,15.73-26.87,5.18-3.8,11.03-8.41,16.66-12.44,2.7-1.93,4.63-3.01,4.63-6.07,0-1.86-2.33-2.8-4.88-2.8-5.81,0-8.79,2.1-13.09,2.52-7.1.69-11.82-2.72-14.91-8.29-3.14-5.77-3.04-12.77.26-18.45,2.61-4.4,13.02-13.29,35.15-13.29,9.58,0,18.7,1.39,27.98,6.49,9.06,5.12,14.71,14.67,14.85,25.08,0,16.12-8.58,24.21-18.23,29.76-4.6,2.64-7.98,6.11-13.82,8.93,2.52.03,12.27-.19,18.66-.19,8.75,0,18.07,4.33,18.07,17.51Z"/><path class="cls-1" d="m200.2,169.22c0,31.71-24.14,53.68-54.79,53.68s-54.78-21.96-54.78-53.68,23.67-53.67,54.78-53.67,54.79,20.95,54.79,53.67Zm-47.11-12.46c0-5.42-2.95-9.98-7.68-9.98s-7.68,4.56-7.68,9.98,3.12,9.98,7.68,9.98,7.68-4.81,7.68-9.98Z"/><path class="cls-1" d="m245.98,166.82v4.71c0,36.75-5.16,51.33-21.42,51.33s-21.42-14.58-21.42-51.3v-4.71c0-36.75,5.16-51.33,21.42-51.33s21.42,14.58,21.42,51.3Z"/><path class="cls-1" d="m294.94,166.82v4.71c0,36.75-5.16,51.33-21.42,51.33s-21.42-14.58-21.42-51.3v-4.71c0-36.75,5.16-51.33,21.42-51.33s21.42,14.58,21.42,51.3Z"/><path class="cls-1" d="m55.99,280.02c0,11.8-11.46,19.66-25.12,19.66-15.92,0-27.41-7.01-27.41-15.8,0-4.65,3.1-10.56,10.1-10.56,4.39,0,6.79,1.27,8.93,2.22,5.51,2.45,6.43-1.85,3.09-2.67-2.69-.95-6.24-2.11-8.31-2.75-6.8-2.11-11.6-7.52-11.6-16.28,0-10.46,11.19-18.86,24.51-18.86,12.56,0,23.83,6.25,23.83,14.38,0,6.72-5.4,11.03-12.1,10.07-1.41-.19-2.81-.47-4.19-.83-.84-.22-1.65.04-1.87.95-.33,1.41,1.12,1.82,2.84,2.32,2.25.66,4,1.16,7,2.17,6.89,2.31,10.29,8.91,10.29,15.99Z"/><path class="cls-1" d="m115.46,265.85v1.92c0,17.35-7.36,31.86-29.28,31.86s-29.28-14.51-29.28-31.86v-1.91c0-21.71,3.31-30.92,13.83-30.92s13.82,9.2,13.82,30.91v4.21c0,2.83-.53,5.88,1.63,5.88s1.63-3.09,1.63-5.88v-4.2c0-21.71,3.31-30.92,13.83-30.92s13.82,9.2,13.82,30.91Z"/><path class="cls-1" d="m179.12,265.85v2.84c-.05,21.71-4.41,30.9-14.65,30.9-9.01,0-12.59-7.06-14.8-11.95-1.69-3.73-4.72-12.19-5.05-13.38-.21,5.79-.73,11.34-1.67,14.93-.1.47-.19.92-.3,1.36-1.62,7.2-5.79,9.09-11.41,9.09-.96,0-1.91-.11-2.84-.33-8.75-1.32-11.27-10.17-11.31-30.61v-2.83c.05-22.29,4.41-30.92,15.2-30.92.2,0,.42,0,.64.02,1.34.03,2.66.25,3.93.66,3.93,1.26,8.01,5.25,10.93,13.47,1.57,4.43,2.35,6.52,3.73,10.7,0-1.12.08-2.2.19-3.25.76-12.94,3.38-19.37,9.61-21.1.68-.23,1.39-.37,2.1-.43.52-.04,1.11-.07,1.75-.06.04,0,.08,0,.12,0,1.56-.03,3.12.2,4.6.69.21.07.41.15.6.23.09.04.18.08.27.12.05.03.11.05.16.08,6.24,2.95,8.15,12.03,8.19,29.8Z"/><path class="cls-1" d="m243,265.85v2.84c-.05,21.71-4.41,30.9-14.65,30.9-9.01,0-12.59-7.06-14.8-11.95-1.69-3.73-4.72-12.19-5.05-13.38-.21,5.79-.73,11.34-1.67,14.93-.1.47-.19.92-.3,1.36-1.62,7.2-5.79,9.09-11.41,9.09-.96,0-1.91-.11-2.84-.33-8.75-1.32-11.27-10.17-11.31-30.61v-2.83c.05-22.29,4.41-30.92,15.2-30.92.2,0,.42,0,.64.02,1.34.03,2.66.25,3.93.66,3.93,1.26,8.01,5.25,10.93,13.47,1.57,4.43,2.35,6.52,3.73,10.7,0-1.12.08-2.2.19-3.25.76-12.94,3.38-19.37,9.61-21.1.68-.23,1.39-.37,2.1-.43.52-.04,1.11-.07,1.75-.06.04,0,.08,0,.12,0,1.56-.03,3.12.2,4.6.69.21.07.41.15.6.23.09.04.18.08.27.12.05.03.11.05.16.08,6.24,2.95,8.15,12.03,8.19,29.8Z"/><path class="cls-1" d="m296.94,246.22c0,16.89-13.01,28.57-13.01,28.57-.6,17.83-3.97,24.9-13.73,24.9h-.45c-9.76,0-13.13-7.06-13.73-24.9,0,0-12.55-11.68-12.55-28.57,0-5.72,3.25-11.18,10.03-11.18,5.22,0,8.09,2.31,10.72,6.04,2.4,3.39,4.85,11.54,5.05,12.93.08.52.3.53.7.53.55,0,.67,0,.75-.53.2-1.39,3.07-9.54,5.47-12.93,2.62-3.73,5.5-6.04,10.72-6.04,6.78,0,10.03,5.46,10.03,11.18Z"/><path class="cls-1" d="m64.33,62.54c4.26-8.11,7.55-16.61,9.68-26.47-6.18-1.16-8.31-4.64-8.3-10.83,0-6.96,3.29-10.24,10.25-10.23h6.76c7.15.01,12.94,5.43,12.93,14.51,0,6.96-1.95,17-5.05,24.34,5.21,6,11.78,12.76,18.53,19.73,4.25,4.45,6.56,11.79.95,16.81-4.25,3.86-10.82,3.28-15.26-.98-6.56-6.38-10.04-10.64-13.13-14.31-4.84,8.5-9.68,16.22-15.28,21.82-4.06,4.05-10.82,4.43-15.46.37-5.41-5.22-3.28-10.44.59-15.46l.77-.96-8.11-7.93c-3.48,5.79-9.09,13.32-13.35,17.96-4.06,4.44-9.47,4.24-14.3.95-3.86-2.52-5.6-8.51-2.11-13.14,9.87-13.32,20.32-30.13,23.03-40.94-5.99-.97-9.08-4.26-9.07-10.64,0-6.76,3.68-10.63,11.02-10.62h5.99c7.15.01,13.91,5.62,13.9,14.7,0,7.15-2.72,13.91-5.62,20.67l10.62,10.64Zm63.54,32.9l.03-33.62h-13.91c-6.76-.02-10.82-2.53-10.81-9.88,0-7.34,4.65-8.88,11.02-8.88h13.72s.02-17.96.02-17.96h-1.93c-5.99,0-9.46-3.87-9.46-10.64,0-5.6,3.1-10.63,10.06-10.62h10.63c7.15.02,12.36,3.69,12.35,14.13l-.07,77.87c0,7.92-4.45,11.4-10.83,11.39-4.83,0-10.82-1.94-10.81-11.8Z"/><path class="cls-1" d="m156.14,27.84c0-6.76,4.26-10.63,10.83-10.62h10.05c7.15.02,12.36,3.69,12.35,14.13l-.03,38.45,48.11.04c6.57,0,10.43,3.1,10.43,9.86,0,6.57-3.87,10.63-10.44,10.62l-57.39-.05c-6.38,0-12.56-1.17-12.55-12.19l.03-39.61c-7.92,0-11.4-3.87-11.39-10.64Zm107.57,68.5l.06-70.92h-2.13c-5.41,0-9.27-3.87-9.27-10.64,0-6.76,3.68-10.63,10.06-10.62h10.82c7.15.02,12.17,3.69,12.16,14.13l-.07,78.07c0,7.92-4.65,11.01-10.83,11-4.83,0-10.82-2.52-10.81-11.02Z"/></svg>