<svg width="318" height="107" viewBox="0 0 318 107" fill="none" xmlns="http://www.w3.org/2000/svg">
<g clip-path="url(#clip0_152_466)">
<path d="M2.4969 78.09C2.5655 78.4328 2.77129 78.7208 3.10055 78.8991C3.30634 79.0088 3.56701 79.1323 4.22554 79.1323C5.28192 79.1323 7.07915 78.8031 9.57607 78.1448C12.1965 77.4591 15.2833 76.4854 17.2726 75.7174C21.4433 74.0991 23.6109 73.0568 24.8868 72.3985L25.4493 72.5356C27.3563 72.9882 30.2374 73.6602 34.8333 74.8534C35.3547 74.9905 35.9034 75.1551 36.4659 75.3197L36.754 75.402C38.2632 75.8545 39.8134 76.3071 41.1168 76.4854C41.8302 76.5951 43.9841 76.8694 44.5054 75.1688C44.6838 74.6202 44.6289 74.0442 44.3271 73.5231C43.5725 72.1653 41.2403 71.0819 36.9461 70.0808C36.5894 70.0122 36.1092 70.0808 35.2175 70.2179C34.5589 70.3276 33.4477 70.5059 33.0635 70.4099L29.5377 69.6007C30.155 69.1893 30.745 68.7642 31.3075 68.339C33.8867 66.3779 35.0528 65.2807 35.8348 64.5538L36.1641 64.307C36.9324 63.8818 38.3866 63.1001 38.126 61.8658C38.0025 61.1115 37.2754 60.5629 35.533 59.9321C34.5864 59.5892 33.4477 59.2738 33.0635 59.2326C32.6245 59.1778 32.2129 59.3698 31.7739 59.5755C31.5407 59.6852 31.1566 59.8635 30.9782 59.8635H30.8959C29.0438 60.0418 20.3595 60.5904 13.5821 60.4395C12.3748 60.4258 11.2635 60.3298 10.4404 60.2612C8.45109 60.0966 7.36726 60.0144 6.9694 60.9744C6.84593 61.2487 6.85965 61.5641 6.99684 61.8384C7.12031 62.1127 7.33982 62.579 9.89161 63.7995C11.1949 64.4304 12.5943 65.0064 13.3763 65.2121C14.954 65.6098 15.8595 65.0476 16.3397 64.7458C16.4083 64.7047 16.5043 64.6498 16.4906 64.6361C16.9433 64.5401 20.0576 64.2795 24.1323 64.1287C25.8609 64.0464 27.2877 63.9641 28.3853 63.8818C26.7527 65.267 24.2695 67.1459 20.8671 69.1207C14.4601 72.8374 9.21937 74.5517 6.09136 75.5802L5.98161 75.6214C5.03498 75.9368 4.28041 76.1837 3.75908 76.4031C3.40238 76.554 2.30483 77.0203 2.45575 78.0488L2.4969 78.09Z" fill="white"/>
<path d="M42.8043 79.8866V80.1746H42.7906V79.8866C42.3241 79.8592 41.8851 79.8318 41.3775 79.8043C41.1305 79.8043 40.8836 79.8729 39.9918 80.1609C39.0315 80.4489 37.4263 80.9426 36.6717 80.9838H36.5894C35.1215 81.2032 24.3106 82.2592 8.21788 81.9849C6.54413 81.9575 4.9664 81.7655 3.70423 81.6009C1.59145 81.3403 0.535066 81.2032 0.137206 82.1358C0.0274511 82.3964 -0.0685841 82.8078 0.164644 83.3015C1.0564 85.249 7.29869 87.169 7.36728 87.1827C9.26055 87.7038 10.1111 86.8947 10.509 86.5107H10.5364C11.2087 86.3873 12.8139 86.2912 14.2269 86.1952C14.9541 86.1541 15.7223 86.0993 16.3672 86.0444C18.3839 85.8798 19.9342 85.8661 21.1826 85.8387C21.5393 85.8387 21.8549 85.8387 22.143 85.825L22.3899 100.39C22.3899 100.705 22.4311 102.145 22.6094 103.53C22.829 105.176 23.2131 106.877 24.489 106.945C24.5164 106.945 24.5576 106.945 24.5987 106.945C24.9006 106.945 25.3533 106.863 25.7923 106.451C27.2466 105.107 27.7267 100.76 27.7267 99.7177L27.9737 85.537C30.4569 85.441 33.3517 85.345 38.7571 85.1941C39.786 85.1667 40.9659 85.2352 42.132 85.3038C45.0268 85.4821 47.51 85.6055 48.6761 84.3849C48.9917 84.0421 49.3621 83.4524 49.2524 82.5198C49.0328 80.2295 45.8774 80.0649 42.8043 79.9003V79.8866Z" fill="white"/>
<path d="M79.4074 59.8224C80.0659 60.0966 80.9577 60.4669 81.9317 61.0429C82.0964 61.1389 82.2473 61.2349 82.4119 61.3309C82.8098 61.5778 83.4546 61.9618 83.6604 62.1538L83.825 90.0764C83.825 91.3793 83.9348 94.5199 85.0186 95.4799C85.2793 95.713 85.6085 95.8365 85.9378 95.8365C85.9927 95.8365 86.0338 95.8365 86.1161 95.8365C87.4469 95.6582 88.3112 94.1222 88.86 91.009C89.2441 88.8147 89.3813 86.2638 89.3813 84.7415L89.4362 62.0441C89.4362 61.8521 89.4637 61.6327 89.4774 61.3995C89.5871 60.3298 89.7792 58.5332 87.6664 57.7241C86.9667 57.4498 85.5811 57.1069 84.0857 56.7503C83.1939 56.5309 82.2884 56.3115 81.5613 56.1195C80.8342 55.8863 79.1193 55.996 78.1589 56.6818C77.5416 57.1206 77.4181 57.6555 77.4181 58.0258C77.4181 59.0132 78.3373 59.3972 79.4211 59.8361L79.4074 59.8224Z" fill="white"/>
<path d="M64.1378 85.0981C70.8603 84.9884 76.1285 80.1061 76.1285 73.9894C76.1285 70.3825 74.5508 67.4476 71.5737 65.5139C70.1332 64.5813 68.432 63.9093 66.4975 63.4979C66.3055 62.9082 65.935 62.3733 65.3451 61.811C64.3985 60.947 62.7522 60.6041 61.8055 61.1253L61.7232 61.1801C61.0921 61.6876 61.3665 62.4419 61.5174 62.8396C61.5586 62.9356 61.586 63.0316 61.6135 63.1139C55.3437 64.3207 51.6395 67.8453 51.1593 73.0568C50.9124 75.9369 51.8453 78.6112 53.8758 80.8055C56.3315 83.4524 60.2141 85.0981 64.0281 85.0981H64.1378ZM70.7917 73.7426C70.8328 77.3083 68.0204 79.8729 63.932 79.9689C63.8771 79.9689 63.8086 79.9689 63.7537 79.9689C62.0936 79.9689 59.7888 79.2695 58.2111 77.6786C57.141 76.6089 56.6471 75.3197 56.7019 73.866C56.9352 69.2579 61.7918 68.1196 63.2735 67.8728C64.4396 67.6671 65.0021 67.3379 65.3863 67.0225C67.1149 67.4888 70.7368 69.0385 70.778 73.7151L70.7917 73.7426Z" fill="white"/>
<path d="M86.7061 99.7039V99.9919L86.6375 99.7039C86.267 99.7039 85.8692 99.8959 84.8128 100.431C84.4424 100.623 83.5918 101.048 83.3997 101.075C82.4119 101.13 78.9684 101.336 76.1971 101.391C73.8922 101.391 71.0386 101.391 69.8039 101.336H69.749C69.749 101.336 69.749 101.24 69.749 101.171V93.3953C69.749 93.3953 69.749 93.2718 69.749 93.1621C69.7764 92.5724 69.845 91.4752 69.0767 90.6387C68.5417 90.0489 67.7323 89.7335 66.6484 89.6924C66.2369 89.6787 65.7018 89.6375 65.0707 89.5827C63.8085 89.4729 62.368 89.3632 61.3116 89.4318C60.7354 89.4729 60.118 89.6787 59.6241 89.9941C58.9382 90.4192 58.5677 90.9952 58.5677 91.5987C58.5677 92.7233 59.7888 92.9976 60.6531 93.2033C61.0098 93.2856 61.3665 93.3678 61.6683 93.505C61.9427 93.6147 62.2171 93.7107 62.4915 93.8067C62.8893 93.9576 63.589 94.2044 63.9183 94.3827L64.0143 100.156C64.0829 102.323 65.3863 104.189 67.3344 104.874C68.4457 105.299 69.845 105.299 70.531 105.299C72.5752 105.299 78.351 105.19 83.4409 105.107H84.2503C85.046 105.08 85.7732 105.094 86.4317 105.094H86.7472C88.7914 105.107 90.2457 105.094 91.302 104.847C92.6603 104.518 93.4011 103.681 93.4971 102.337C93.5246 101.706 93.3051 101.13 92.866 100.691C91.6862 99.5393 89.2167 99.5256 86.6923 99.6902L86.7061 99.7039Z" fill="white"/>
<path d="M105.46 65.3768C106.366 65.651 107.203 65.2945 107.848 65.0202C108.04 64.9379 108.232 64.8556 108.314 64.8419C109.439 64.787 115.009 64.5265 119.591 64.3207C123.529 64.1562 126.52 64.1836 128.221 64.211C128.07 65.363 127.85 66.8991 127.356 68.9699C126.849 71.0271 126.327 72.5494 125.957 73.6603V73.6877C125.696 74.4283 125.518 74.9631 125.422 75.402C125.202 76.458 125.655 76.9243 126.081 77.1437C126.259 77.226 126.465 77.2672 126.67 77.2672C126.863 77.2672 127.068 77.226 127.26 77.1575C128.619 76.65 130.375 74.1403 131.966 70.4648C133.091 67.8179 133.695 65.6922 133.955 64.7596L133.997 64.6225C134.038 64.5539 134.134 64.4305 134.202 64.3482C134.641 63.7996 135.286 62.9767 135.08 62.0304C134.957 61.4956 134.6 61.0704 133.983 60.755C133.832 60.6864 133.626 60.5904 133.42 60.4807C132.131 59.8361 131.074 59.3424 130.361 59.3424C129.922 59.3424 129.469 59.5756 128.975 59.8087C128.646 59.9733 128.44 60.0693 128.399 60.083C128.084 60.0967 127.466 60.1104 126.547 60.1241C124.832 60.1516 122.239 60.2064 119.358 60.3436C115.736 60.5218 113.363 60.5081 111.058 60.4944C109.905 60.4944 108.808 60.4944 107.587 60.4944C105.625 60.5081 103.979 60.3573 102.758 60.2476C101.043 60.083 100.329 60.0144 99.808 60.6041C99.5062 61.0019 99.4239 61.4681 99.5748 61.9344C100.082 63.539 103.869 64.8693 105.474 65.3768H105.46Z" fill="white"/>
<path d="M141.446 81.258C141.487 80.6408 141.268 80.0785 140.801 79.6122C139.745 78.5425 137.385 77.9939 134.669 78.1722C134.106 78.2134 133.42 78.4465 132.68 78.6934C132.199 78.8579 131.596 79.0499 131.335 79.0774C130.553 79.1322 127.343 79.2831 124.53 79.3928C123.199 79.4476 122.047 79.4614 120.922 79.4614C120.524 79.4614 120.126 79.4614 119.728 79.4614L119.907 73.3859C119.907 73.2899 119.948 73.1802 119.975 73.0567C120.099 72.467 120.291 71.5619 119.742 70.7801C119.358 70.2316 118.741 69.9024 117.849 69.7653L117.492 69.7104C116.161 69.491 114.145 69.1755 112.677 69.1755C111.689 69.1755 110.509 69.7653 110.235 70.7664C110.07 71.3698 110.303 71.9459 110.811 72.2613L110.88 72.3024C111.154 72.4396 111.565 72.5767 112.087 72.755C113.239 73.1527 113.966 73.4407 114.268 73.6327L114.309 79.6808C111.017 79.7631 104.939 79.7631 101.976 79.7631C99.6297 79.7631 97.9285 79.5848 96.6938 79.4476C95.7883 79.3516 95.2121 79.2968 94.7593 79.3242C93.5932 79.4202 93.3325 80.2157 93.2639 80.5311C93.0719 81.5322 94.1145 82.2591 96.1175 83.2191C97.5718 83.9186 99.273 84.6043 99.9315 84.8649C100.261 85.002 100.59 85.0706 100.947 85.0706C101.701 85.0706 102.374 84.7551 102.909 84.5083C103.06 84.4397 103.21 84.3711 103.252 84.3574C103.457 84.3574 103.814 84.3163 104.308 84.2751L104.678 84.2477C107.134 84.042 112.224 83.6306 117.739 83.466C121.443 83.3288 124.722 83.3837 127.891 83.466H128.166C129.785 83.4934 131.335 83.5345 132.885 83.5345C134.106 83.5345 135.149 83.6031 136.082 83.658C137.618 83.7403 138.716 83.8088 139.58 83.5894C140.705 83.3014 141.336 82.5334 141.46 81.2854L141.446 81.258Z" fill="white"/>
<path d="M120.209 86.4009C120.058 85.9621 119.838 85.5918 119.207 85.0844C118.357 84.4398 116.751 83.9735 115.873 84.1243C115.407 84.2066 115.16 84.4535 115.036 84.6318L114.995 84.7003C114.68 85.2626 114.858 85.8112 114.995 86.1815C109.069 87.7724 105.817 91.4204 105.817 96.481C105.817 98.6068 106.805 100.733 108.588 102.488C110.797 104.655 113.925 105.903 117.149 105.903H117.382C120.853 105.821 123.776 104.861 125.834 103.119C127.891 101.377 129.003 98.9634 129.058 96.1245C129.126 92.9153 127.645 88.6227 120.195 86.4009H120.209ZM124.036 95.713C123.995 97.2353 123.419 98.5519 122.376 99.5256C121.169 100.65 119.372 101.267 117.52 101.185C115.764 101.089 114.172 100.554 113.047 99.6902C111.936 98.8399 111.346 97.7016 111.319 96.4125C111.319 93.7793 113.39 91.5301 116.257 91.0501C118.26 90.6936 119.029 90.2958 119.44 89.9393C121.265 90.5976 124.105 92.1884 124.036 95.6993V95.713Z" fill="white"/>
<path d="M157.786 83.8227H158.143C161.586 83.8227 164.673 82.6021 166.827 80.3941C168.638 78.5289 169.598 76.074 169.461 73.674C169.283 70.3551 167.664 67.6396 164.783 65.8156C162.985 64.6773 161.12 64.1425 160.091 63.9093C159.954 63.6213 159.761 63.3607 159.501 63.0042C158.842 62.2361 157.511 61.7424 156.661 61.7424C156.181 61.7424 155.797 61.8933 155.536 62.1676C155.069 62.6613 155.275 63.2784 155.399 63.6487C155.412 63.7036 155.44 63.7859 155.467 63.8682C148.992 65.2808 145.589 69.0248 145.864 74.442C146.042 77.9392 149.431 83.5758 157.8 83.809L157.786 83.8227ZM151.612 74.1403C151.571 69.7242 155.412 68.9562 157.47 68.5448L157.635 68.5174C158.431 68.3391 158.993 68.0374 159.364 67.5985C161.655 68.4899 164.316 70.2865 164.467 73.8248C164.508 74.6066 164.152 75.9369 163.027 77.0752C162.176 77.9529 160.598 78.9678 157.909 78.9678C157.813 78.9678 157.717 78.9678 157.621 78.9678C155.097 78.8718 151.598 77.1575 151.598 74.1403H151.612Z" fill="white"/>
<path d="M179.504 57.3812C178.351 56.9697 175.868 56.3389 174.167 56.0783C173.042 55.8726 171.56 56.1743 170.778 56.7777C170.257 57.1755 170.12 57.6143 170.092 57.916C169.941 59.068 170.874 59.4246 171.574 59.6852C172.109 59.8909 172.905 60.1789 174.084 60.8235L174.661 61.1389C175.045 61.3446 175.511 61.5915 175.758 61.7561L175.813 84.522C173.398 85.0432 169.598 85.8249 164.892 86.6752C158.239 87.9095 156.057 88.0741 151.283 88.4306C150.542 88.4855 149.746 88.5404 148.855 88.6226C146.563 88.8009 144.739 88.6501 143.532 88.5541C142.064 88.4306 140.911 88.3346 140.568 89.3769C139.951 91.1461 142.53 92.3393 146.55 93.985L147.236 94.2593C148.333 94.753 149.39 94.2456 150.172 93.8753C150.473 93.7244 150.789 93.5735 151.022 93.5324C151.105 93.5187 151.297 93.4913 151.544 93.4501L151.928 93.3953C154.672 92.9975 161.957 91.9552 168.94 90.0215L169.406 89.8844C171.67 89.2398 174.016 88.5815 175.827 87.9918V98.0856C175.827 105.437 176.746 106.287 177.13 106.643C177.404 106.89 177.72 107.027 178.063 107.027C178.104 107.027 178.145 107.027 178.173 107.027C179.737 106.89 181.342 105.039 181.314 92.4078L181.52 61.5915C181.52 61.4955 181.548 61.3446 181.575 61.1663C181.726 60.3161 182.083 58.3137 179.504 57.4086V57.3812Z" fill="white"/>
<path d="M241.926 87.3883L241.57 87.2512C241.144 87.0729 240.788 86.9357 240.486 86.826C241.199 86.2774 241.762 85.3037 242.173 83.9048C242.585 82.4785 242.846 80.5997 242.846 78.8717V63.0589C242.846 62.7846 242.914 62.2909 242.969 61.8246V61.756C243.147 60.5217 243.243 59.7263 243.051 59.1777C242.859 58.588 242.311 57.916 239.622 57.1068C238.071 56.6406 236.384 56.2977 235.396 56.1468C233.256 55.8588 231.678 56.5171 231.472 57.7789C231.308 58.7114 232.158 59.0954 233.681 59.7949C236.672 61.1663 237.125 61.7423 237.125 61.9618V67.6395C235.89 67.8178 234.065 68.051 231.39 68.051C229.222 68.0784 228.44 68.051 228.001 68.0235L228.097 67.859C228.193 67.6395 228.276 67.475 228.358 67.3104C228.44 67.1458 228.509 66.995 228.591 66.8304C228.646 66.7755 228.756 66.6658 228.852 66.5972C229.318 66.1721 230.032 65.5275 229.895 64.6361C229.757 63.7446 228.866 63.3606 228.564 63.2235L228.07 63.0041C226.478 62.2909 225.683 61.9755 225.175 61.9755C224.75 61.9755 224.379 62.1812 223.995 62.4006C223.693 62.5652 223.597 62.6063 223.625 62.6063C223.172 62.6063 222.253 62.6338 218.988 62.8669C216.985 62.9629 215.091 63.0178 211.812 62.9766C210.564 62.9629 209.343 62.8121 208.259 62.6749C206.174 62.428 204.816 62.2635 204.445 63.4018C204.308 63.7858 204.335 64.1972 204.514 64.5949C205.09 65.8155 207.12 66.6247 210.152 67.7218L210.454 67.8315C211.634 68.2704 212.759 67.7081 213.514 67.3241C213.651 67.2555 213.829 67.1595 213.884 67.1321C214.364 67.0361 215.873 66.9812 217.218 66.9264L217.725 66.899C218.233 66.8852 218.741 66.8578 219.207 66.8304C219.879 66.7892 220.469 66.7481 220.991 66.7069L221.69 66.6521C221.896 66.6521 222.102 66.6247 222.28 66.6109C221.196 68.8601 218.988 72.8236 215.311 76.8282C209.617 82.9723 205.227 85.8112 203.348 87.018C202.182 87.7723 201.701 88.0877 201.77 88.7872C201.825 89.3906 202.195 89.8569 202.744 90.0489C203.252 90.2272 204.624 90.6935 211.058 86.2226C214.474 83.85 218.014 80.9562 219.866 79.0362C223.296 75.3882 225.12 72.7824 225.957 71.4384L226.231 71.5756C226.588 71.7539 227.041 71.987 227.672 72.3299C228.728 72.8922 229.744 72.4807 230.43 72.2064C230.581 72.1379 230.882 72.0281 231.006 72.0144L237.125 71.4659L237.166 77.3219C235.286 77.5688 233.036 77.8431 230.43 78.0488C228.358 78.1996 226.725 78.1722 225.628 78.1448C224.091 78.1174 223.227 78.0899 222.898 78.8991C222.733 79.2557 222.733 79.6397 222.898 80.01C223.296 80.9837 224.722 81.6557 227.206 82.5334C228.056 82.8626 228.948 82.5334 229.73 82.2591C230.032 82.1494 230.375 82.026 230.608 81.9985L237.166 81.2717V81.5323C237.166 83.9871 237.399 85.674 237.852 86.538C237.728 86.5792 237.591 86.6203 237.468 86.6614C237.179 86.7574 236.905 86.8535 236.617 86.8809C235.259 86.9906 230.594 87.2512 226.218 87.4569C224.667 87.5392 223.556 87.594 222.664 87.6489C220.524 87.7723 219.797 87.8135 217.616 87.7723C216.189 87.7312 214.899 87.6077 213.953 87.5117C213.02 87.4157 212.389 87.3472 211.84 87.3609C210.578 87.3746 210.221 87.9643 210.139 88.4306C209.892 89.6512 211.168 90.4878 212.155 91.0226C213.143 91.5575 214.543 92.1061 216.093 92.5861C217.479 92.9975 218.425 92.4078 219.029 92.0375C219.097 91.9964 219.235 91.9141 219.317 91.8729C219.989 91.8455 221.059 91.7632 222.376 91.6535C223.858 91.5438 225.71 91.3929 227.59 91.2832C231.994 91.0638 235.026 90.9815 236.864 90.9678L236.905 98.4284C236.905 100.87 236.974 102.584 237.097 103.832C237.221 104.943 237.44 107 238.936 107C240.308 106.959 241.282 105.779 241.844 103.475C242.283 101.692 242.379 99.6216 242.407 98.5519L242.516 90.7895C242.53 90.7072 242.626 90.4878 242.681 90.3643C242.914 89.8021 243.243 89.0203 242.914 88.2798C242.791 87.9918 242.503 87.594 241.913 87.3883H241.926Z" fill="white"/>
<path d="M85.0323 0.24686H77.4318C76.6635 0.24686 75.5797 0.192002 74.4273 0.137144C73.0553 0.0685722 71.6422 0 70.4898 0C70.1743 0 69.3511 0 69.2139 1.02858C69.2139 1.39887 69.3786 2.01602 70.4487 2.01602C72.3282 2.01602 73.412 2.30402 74.0706 2.96232C74.7291 3.63432 75.0446 4.80005 75.0172 6.52807V35.1227C75.0172 38.9627 73.5492 39.6484 70.4487 39.6484C69.3786 39.6484 69.2139 40.2656 69.2139 40.6359C69.2139 41.1022 69.4334 41.6644 70.4898 41.6644C71.6422 41.6644 73.0416 41.5959 74.3861 41.5273C75.5523 41.4724 76.6498 41.4176 77.4455 41.4176H79.2016C80.0659 41.4176 81.2732 41.4724 82.5765 41.5273C84.0994 41.5959 85.6634 41.6644 86.953 41.6644C87.831 41.6644 88.2838 41.3216 88.2838 40.6359C88.2838 39.9501 87.831 39.6484 86.953 39.6484C83.482 39.6484 81.8357 38.9764 81.8357 35.1227V25.0288C81.8357 24.5214 81.9729 24.1237 82.2061 23.918C82.4119 23.7397 82.7137 23.6848 83.1116 23.7534C84.3738 23.9591 85.9515 24.206 87.3509 24.206C93.0444 24.206 99.6845 21.0379 99.6845 12.1236C99.6845 4.34748 94.6221 0.24686 85.046 0.24686H85.0323ZM81.8083 4.77262C81.8083 2.59203 82.6314 2.20802 84.9363 2.20802C89.6969 2.20802 92.9072 6.19892 92.9072 12.1236C92.9072 17.0745 90.6161 22.3408 86.3905 22.3408C84.2777 22.3408 81.822 21.4357 81.822 18.8711V4.78634L81.8083 4.77262Z" fill="white"/>
<path d="M117.684 12.8504C115.448 12.8504 113.459 14.3042 111.758 17.1979C111.785 16.8413 111.812 16.4985 111.84 16.183C111.908 15.4425 111.963 14.8253 111.963 14.3316C111.963 13.4264 111.415 12.8504 110.578 12.8504C109.741 12.8504 108.149 13.3716 106.325 13.9613C104.665 14.5099 102.799 15.1133 101.358 15.3602C100.974 15.4287 100.192 15.5933 100.192 16.375C100.192 16.8276 100.357 17.3213 101.482 17.3488C101.66 17.3213 103.21 17.0059 104.623 17.0059C105.076 17.0059 105.639 17.0059 105.639 19.7214V35.109C105.598 39.0038 104.39 39.6347 101.523 39.6347C100.453 39.6347 100.288 40.2519 100.288 40.6222C100.288 41.0884 100.508 41.6507 101.564 41.6507C102.62 41.6507 103.649 41.5822 104.665 41.5136C105.57 41.4587 106.448 41.4039 107.216 41.4039H109.466C110.715 41.4039 112.224 41.4724 113.733 41.5273C115.242 41.5959 116.738 41.6507 117.972 41.6507C118.37 41.6507 119.605 41.6507 119.605 40.6222C119.605 39.5936 118.494 39.6347 118.027 39.6347C113.294 39.6347 111.607 38.4553 111.607 35.109V22.8071C111.607 19.9134 113.253 17.7465 114.323 17.7465C114.954 17.7465 115.16 18.0208 115.544 18.5693C115.969 19.1865 116.546 20.0368 118.082 20.0368C119.619 20.0368 121.265 18.8436 121.265 16.2105C121.265 14.1259 119.893 12.823 117.684 12.823V12.8504Z" fill="white"/>
<path d="M132.885 12.8505C126.108 12.8505 121.553 18.8162 121.553 27.6895C121.553 35.973 126.423 42.2268 132.885 42.2268C139.663 42.2268 144.217 36.261 144.217 27.4015C144.217 19.118 139.347 12.8642 132.885 12.8642V12.8505ZM137.961 31.6804C137.961 35.4656 137.07 39.8953 134.545 39.8953C129.881 39.8953 127.782 30.2952 127.782 23.4792C127.782 19.3648 128.838 15.2093 131.198 15.2093C135.615 15.2093 137.975 24.7683 137.975 31.6804H137.961Z" fill="white"/>
<path d="M161.888 28.6495C161.325 28.6495 160.996 29.006 160.914 29.7192C160.269 35.7261 158.472 37.8519 157.141 37.8519C156.455 37.8519 154.37 37.8519 154.37 30.9809V16.6356C154.37 16.1556 154.658 15.8676 155.138 15.8676H159.94C161.037 15.8676 161.421 15.2093 161.421 14.6333C161.421 13.8516 160.859 13.3579 159.995 13.3579C159.569 13.3579 158.938 13.4813 158.225 13.6322C157.319 13.8105 156.29 14.0162 155.495 14.0162C154.274 14.0162 154.274 13.2893 154.274 13.0424V7.24124C154.274 6.72009 154.274 5.85608 153.19 5.85608C152.284 5.85608 152.133 6.69266 152.065 7.20009C151.722 11.4927 149.252 13.8653 145.095 13.8653C143.888 13.8653 143.765 14.5785 143.765 14.8939C143.765 15.5522 144.217 15.8813 145.095 15.8813H147.592C148.073 15.8813 148.361 16.1693 148.361 16.6493V32.2975C148.361 39.0724 150.46 42.2268 154.946 42.2268C160.982 42.2268 162.313 35.1638 162.78 29.8015C162.78 28.7455 162.107 28.6632 161.902 28.6632L161.888 28.6495Z" fill="white"/>
<path d="M188.339 33.5181C188.243 33.3947 188.037 33.2026 187.639 33.2026C187.104 33.2026 186.788 33.5455 186.72 34.1352C185.856 37.5501 184.676 38.4416 184.182 38.4416C183.894 38.4416 183.112 38.4416 183.112 36.2747C183.112 33.8335 183.167 31.3649 183.235 28.91C183.29 26.4414 183.359 23.9728 183.359 21.518C183.359 15.9636 180.189 12.7819 174.674 12.7819C169.159 12.7819 165.345 16.1008 165.345 20.5168C165.345 22.8208 166.786 24.494 168.775 24.494C170.613 24.494 171.862 23.3008 171.862 21.518C171.862 20.6128 171.642 19.8997 171.45 19.2825C171.272 18.7065 171.107 18.1716 171.107 17.5271C171.107 15.8676 171.944 15.0585 173.673 15.0585C175.292 15.0585 177.144 15.7853 177.144 21.4768V22.2722C177.144 23.3283 176.444 24.3843 175.443 24.8368C169.598 27.4152 164.193 30.5146 164.193 35.7124C164.193 39.5936 166.662 42.1993 170.325 42.1993C173.632 42.1993 175.113 40.4164 176.965 36.4667C176.691 38.3867 177.295 39.6621 177.885 40.4027C178.776 41.541 180.217 42.1856 181.836 42.1856C186.281 42.1856 187.68 38.2633 188.448 34.4507C188.49 34.2998 188.599 33.8472 188.325 33.4907L188.339 33.5181ZM172.589 37.2073C170.476 37.2073 170.174 35.1638 170.174 33.9432C170.174 30.9946 172.136 28.4986 175.978 26.5237C176.197 26.4277 176.389 26.3866 176.568 26.3866C176.691 26.3866 176.801 26.414 176.883 26.4689C177.075 26.5923 177.171 26.8803 177.171 27.3054V30.158C177.171 34.3821 174.811 37.221 172.603 37.221L172.589 37.2073Z" fill="white"/>
<path d="M204.706 36.2473H198.903C193.977 36.2473 193.977 35.2461 193.977 34.533C193.977 34.0667 194.238 33.6004 194.691 33.2438C195.13 32.9147 195.843 32.9969 196.913 33.1204C197.599 33.2027 198.45 33.2987 199.438 33.2987C205.296 33.2987 209.22 29.1843 209.22 23.0677C209.22 19.4882 207.56 17.0882 206.585 15.991C206.448 15.8265 206.366 15.703 206.325 15.6208C206.393 15.6208 206.476 15.607 206.599 15.607C207.134 15.607 207.793 15.7305 208.492 15.8539C209.329 16.0048 210.194 16.1556 211.058 16.1556C212.485 16.1556 213.486 15.223 213.486 13.879C213.486 12.8779 212.883 11.7944 211.209 11.7944C208.712 11.7944 206.146 13.591 205.653 13.9613C205.351 14.1945 205.09 14.2905 204.02 13.8379C202.47 13.207 200.988 12.8916 199.493 12.8916C193.648 12.8916 189.56 17.1431 189.56 23.2186C189.56 25.9066 190.712 28.622 192.647 30.4872C193.154 30.9672 193.429 31.4335 193.401 31.7764C193.401 31.8724 193.36 32.0369 193.182 32.1741C191.453 33.2712 189.464 34.8347 189.464 37.0701C189.464 38.949 190.589 40.197 192.468 40.4713C192.798 40.5673 192.907 40.677 192.948 40.6907C192.907 40.7319 192.798 40.8279 192.605 40.9102C189.203 41.6919 187.255 43.7628 187.255 46.5742C187.255 50.6063 191.412 53.212 197.846 53.212C206.256 53.212 212.828 48.3434 212.828 42.1308C212.828 36.9193 208.479 36.2473 204.692 36.2473H204.706ZM200.055 30.9398C197.009 30.9398 195.637 24.9877 195.637 20.7774C195.637 19.4745 195.871 15.2093 198.861 15.2093C201.852 15.2093 203.224 21.2574 203.224 25.6323C203.224 27.6209 202.813 30.9535 200.055 30.9535V30.9398ZM200 49.0428C194.691 49.0428 191.823 47.1502 191.823 45.3674C191.823 42.8988 193.511 41.6508 196.845 41.6508H204.349C209.151 41.6508 209.521 42.7753 209.521 44.3662C209.521 48.22 204.349 49.0291 200 49.0291V49.0428Z" fill="white"/>
<path d="M223.46 12.8505C216.683 12.8505 212.128 18.8162 212.128 27.6895C212.128 35.973 216.998 42.2268 223.46 42.2268C230.238 42.2268 234.792 36.261 234.792 27.4015C234.792 19.118 229.922 12.8642 223.46 12.8642V12.8505ZM228.536 31.6804C228.536 35.4656 227.645 39.8953 225.12 39.8953C220.456 39.8953 218.357 30.2952 218.357 23.4792C218.357 19.3648 219.413 15.2093 221.773 15.2093C226.19 15.2093 228.55 24.7683 228.55 31.6804H228.536Z" fill="white"/>
<path d="M278.667 39.6484C275.991 39.6484 274.551 38.9353 274.551 35.1227V27.4289C274.551 25.1249 274.661 22.6974 274.77 20.3385C274.866 18.2128 274.963 16.1968 274.963 14.4687C274.963 13.2207 274.194 12.7819 273.536 12.7819C272.685 12.7819 271.107 13.303 269.283 13.8927C267.623 14.4413 265.757 15.0447 264.316 15.2916C263.932 15.3602 263.15 15.5247 263.15 16.3065C263.15 16.4299 263.15 16.8002 263.452 17.0608C263.726 17.3076 264.097 17.3076 264.399 17.2802C264.536 17.2665 264.755 17.2391 265.03 17.1979C265.688 17.1019 266.69 16.9373 267.595 16.9373C268.048 16.9373 268.61 16.9373 268.61 19.6528L268.556 35.109C268.556 39.0039 267.266 39.6347 264.179 39.6347C264.179 39.6347 264.165 39.6347 264.152 39.6347C264.138 39.6347 264.097 39.6347 264.083 39.6347C261.312 39.6347 259.707 38.8941 259.707 35.109V20.6539C259.707 15.607 257.566 12.823 253.67 12.823C251.214 12.823 248.717 14.2493 246.207 17.0882C246.125 17.1979 246.056 17.2665 245.987 17.3351C245.987 17.2528 245.987 17.143 245.987 17.0059L246.083 16.087C246.166 15.415 246.234 14.7842 246.234 14.3042C246.234 13.399 245.685 12.823 244.807 12.823C243.929 12.823 242.379 13.3442 240.554 13.9339C238.894 14.4825 237.029 15.0859 235.588 15.3327C235.204 15.4013 234.422 15.5659 234.422 16.3476C234.422 16.8002 234.614 17.2939 235.712 17.3213C235.89 17.2939 237.44 16.9785 238.853 16.9785C239.306 16.9785 239.868 16.9785 239.868 19.6939L239.814 35.0952C239.814 38.9901 238.524 39.621 235.437 39.621C234.381 39.621 234.161 40.1559 234.161 40.6084C234.161 41.2942 234.614 41.637 235.492 41.637C236.562 41.637 237.673 41.5685 238.744 41.4999C239.731 41.445 240.678 41.3765 241.542 41.3765H244.19C245.439 41.3765 246.509 41.4176 247.592 41.4587C248.155 41.4862 248.731 41.4999 249.349 41.5273H250.57C251.036 41.5136 251.489 41.4862 251.955 41.4725C252.998 41.4313 254.082 41.3765 255.344 41.3765H257.992C258.856 41.3765 259.926 41.4313 260.983 41.4999C262.066 41.5547 263.15 41.6233 264.042 41.6233C264.069 41.6233 264.083 41.6233 264.097 41.6233C264.124 41.6233 264.152 41.6233 264.179 41.6233C265.249 41.6233 266.36 41.5547 267.431 41.4862C268.418 41.4313 269.365 41.3627 270.229 41.3627H272.877C273.728 41.3627 274.729 41.4313 275.731 41.4862C276.746 41.5547 277.748 41.6096 278.584 41.6096C279.778 41.6096 279.86 40.8279 279.86 40.581C279.86 40.2107 279.696 39.5936 278.626 39.5936L278.667 39.6484ZM245.836 34.533V21.5317C245.836 18.3499 249.074 17.1568 251.105 17.1568C252.394 17.1568 253.725 17.5682 253.725 20.6814V34.533C253.725 38.4004 252.833 39.621 249.911 39.7033C246.797 39.621 245.836 38.4004 245.836 34.533Z" fill="white"/>
<path d="M270.915 9.01042C273.138 9.01042 274.702 7.55669 274.702 5.47209C274.702 3.3875 273.152 1.83777 270.915 1.83777C268.679 1.83777 267.239 3.2915 267.239 5.47209C267.239 7.65269 268.748 9.01042 270.915 9.01042Z" fill="white"/>
<path d="M291.522 24.2745C288.119 21.655 286.199 20.0642 286.199 18.0344C286.199 16.2378 287.228 15.0721 288.819 15.0721C292.482 15.0721 294.855 17.8699 295.857 23.4242C295.926 23.7396 296.09 24.4802 296.831 24.4802C297.051 24.4802 297.764 24.3979 297.764 23.2322C297.75 22.7659 297.695 22.2173 297.627 21.5316C297.476 20.023 297.243 17.7327 297.27 14.263C297.27 13.5498 296.817 13.0835 296.145 13.0835C295.857 13.0835 295.569 13.1384 295.267 13.207C294.869 13.2892 294.43 13.3852 293.84 13.3852C293.168 13.3852 292.578 13.2892 291.906 13.1658C291.124 13.0287 290.232 12.8778 289.093 12.8778C284.786 12.8778 281.658 16.0047 281.658 20.311C281.658 23.3556 283.098 25.4677 287.571 29.006C292.07 32.6814 293.964 34.6152 293.964 37.1524C293.964 38.2221 293.566 40.0187 290.891 40.0187C285.554 40.0187 284.113 36.3569 282.398 30.3637C282.33 30.0894 282.151 29.3763 281.383 29.3763C281.095 29.3763 280.834 29.4997 280.67 29.7191C280.533 29.8974 280.395 30.2129 280.505 30.638C280.533 30.8849 280.615 31.2963 280.711 31.8174C281.054 33.71 281.699 37.2346 281.699 40.8141C281.699 41.6781 282.261 41.9935 282.782 41.9935C283.084 41.9935 283.4 41.925 283.729 41.8564C284.635 41.6644 285.609 41.7055 286.871 41.8975C287.831 42.0484 289.039 42.2404 290.575 42.2404C295.267 42.2404 298.313 39.1409 298.313 34.3546C298.313 30.3774 296.227 28.046 291.535 24.2882L291.522 24.2745Z" fill="white"/>
<path d="M317.122 28.6495C316.559 28.6495 316.23 29.006 316.148 29.7192C315.503 35.7261 313.706 37.8519 312.375 37.8519C311.689 37.8519 309.604 37.8519 309.604 30.9809V16.6356C309.604 16.1556 309.892 15.8676 310.372 15.8676H315.174C316.271 15.8676 316.656 15.2093 316.656 14.6333C316.656 13.8516 316.093 13.3579 315.229 13.3579C314.803 13.3579 314.172 13.4813 313.459 13.6322C312.553 13.8105 311.525 14.0162 310.729 14.0162C309.508 14.0162 309.508 13.2893 309.508 13.0424V7.24124C309.508 6.72009 309.508 5.85608 308.424 5.85608C307.518 5.85608 307.368 6.69266 307.299 7.20009C306.956 11.4927 304.487 13.8653 300.33 13.8653C299.122 13.8653 298.999 14.5785 298.999 14.8939C298.999 15.5522 299.452 15.8813 300.33 15.8813H302.826C303.307 15.8813 303.595 16.1693 303.595 16.6493V32.2975C303.595 39.0724 305.694 42.2268 310.18 42.2268C316.217 42.2268 317.547 35.1638 318.014 29.8015C318.014 28.7455 317.342 28.6632 317.136 28.6632L317.122 28.6495Z" fill="white"/>
</g>
<defs>
<clipPath id="clip0_152_466">
<rect width="318" height="107" fill="white"/>
</clipPath>
</defs>
</svg>
